;TYPE=PLATED
;Layer: PTH_Through
;EasyEDA Pro v3.2.149.88089769, 2026-09-17 16:10:54
;Gerber Generator version 0.3
M48
METRIC,LZ,0000.00000
;Hole size 1 = 0.30000 METRIC
T01C0.30000
;Hole size 2 = 0.40000 METRIC
T02C0.40000
;Hole size 3 = 0.60000 METRIC
T03C0.60000
;Hole size 4 = 2.20000 METRIC
T04C2.20000
%
G05
G90
T01
X-7.51084Y-16.24526
X-8.509Y-14.986
X-4.85103Y-9.79932
X-4.86896Y-8.65049
X8.52064Y12.70808
X12.11625Y10.10001
X13.01938Y11.60136
X13.04401Y8.18464
X-3.87698Y0.60107
X-2.15823Y0.28449
X-4.41821Y4.2163
X-4.97353Y5.99473
X-6.69246Y1.22038
X-2.25072Y3.90031
X3.92725Y5.14898
X4.57114Y5.79973
X9.82874Y5.08295
X10.46417Y7.60953
X-2.25072Y5.11845
X-4.8502Y12.06251
X-7.40359Y3.69112
X-17.2652Y-8.60248
X-8.14076Y-7.15055
X-14.90855Y-4.87319
X-15.7742Y-7.3827
X-14.78067Y-10.44653
X-14.41559Y-12.11687
X4.97353Y3.90213
X-13.633Y-7.86467
X-13.61974Y-8.82767
X-13.36792Y-10.01918
X-12.23421Y-12.02668
X3.30917Y-7.57183
X3.28731Y-3.56084
X-11.62054Y-12.58018
X-10.17928Y-14.78354
X4.08915Y-7.57882
X3.29414Y-2.78903
X-1.82812Y12.59637
X-0.41174Y12.57449
X-0.37525Y7.40399
X-17.71623Y0.42669
X-7.20473Y-0.56528
X-13.25203Y-11.2654
X-7.41Y-8.41911
X13.80509Y12.65726
X21.19941Y1.41379
X16.02717Y1.88596
X20.73509Y2.54372
X20.70021Y4.816
X13.39755Y6.72704
X-15.86167Y-0.20914
X-5.9382Y-1.35415
X-3.77801Y-3.20743
X16.80354Y5.18537
X17.93497Y4.44151
X13.54599Y2.81877
X5.32655Y-8.47514
X9.8797Y-1.25672
X13.27343Y-2.46824
X13.55238Y1.97916
X18.48228Y2.34154
X11.78147Y4.28951
X-6.75201Y6.604
X-14.80325Y-13.03046
X-12.723Y-15.446
X14.118Y-11.357
X15.55636Y-3.048
X13.825Y-3.048
X6.9765Y-2.2775
X7.20381Y-0.15963
X10.08668Y-4.9058
X-11.707Y-15.419
X5.78459Y-1.651
X5.969Y-0.169
X-1.651Y-3.39861
X-3.296Y-1.397
X-3.6195Y12.0455
X0.508Y12.10507
X5.184Y7.493
X-2.242Y8.128
X-1.651Y9.144
X11.78902Y8.08399
X16.54299Y10.10001
X-4.45701Y8.60001
X-4.45701Y7.10001
X16.54299Y7.10001
X18.04299Y7.10001
X-11.957Y1.45561
X21.04299Y-0.39999
X21.04299Y-1.89999
X21.04299Y-3.39999
X21.04299Y-4.89999
X19.54299Y-9.39999
X3.04299Y-12.39999
X3.04299Y-13.89999
X4.54299Y-13.89999
X-2.95701Y-21.39999
X-1.45701Y-21.39999
X0.04299Y-21.39999
X1.54299Y-21.39999
X3.04299Y-21.39999
X20.447Y7.112
X1.325Y-13.5
X1.61247Y-10.47672
X1.61247Y-11.41415
X0.7125Y-12.1875
X-0.325Y-10.725
X-0.325Y-11.55
X-0.15061Y-13.02375
X-2.88595Y-13.716
X-3.92351Y-13.716
X-3.925Y-14.575
X-2.88595Y-12.79195
X5.10619Y-2.45355
X4.35419Y-2.61928
X-6.56443Y-13.12627
X-5.77037Y-13.13968
X-13.475Y9.15006
X0.8Y5.65
X2.2Y5.65
X0.8Y4.25
X2.2Y4.25
X0.8Y2.85
X2.2Y2.85
X0.8Y1.45
X2.2Y1.45
X1.525Y11.375
X1.525Y10.375
X-10.125Y10.025
X-10.125Y8.95666
X-14.5Y6.075
X-14.5Y7.4
X-14.5Y8.725
X-14.5Y10.05
X-11.75Y4.05
X-16.95Y1.7
X-16.95Y3.2
X-16.95Y4.7
X-16.95Y6.2
X-16.95Y7.7
X12.54274Y12.65726
X11.28039Y12.65726
X14.98Y-7.80477
X16.38Y-7.80477
X14.98Y-9.20477
X-18.69403Y3.2
X-18.69403Y4.7
X-18.69403Y6.2
X4.54299Y-12.39999
X4.54299Y-10.89999
X-10.457Y1.45561
X-13.457Y1.45561
X2.525Y10.375
X3.525Y10.375
X4.525Y10.375
X15.76098Y10.10001
X15.76098Y9.1
X15.76098Y11.10001
X14.95Y-14.35
X15.95Y-14.35
X14.95Y-15.35
X-1.651Y-2.42265
T02
X12.725Y-9.54705
X12.227Y-8.0233
X-2.02988Y2.09421
X5.81369Y13.22546
X10.19691Y11.58307
X16.8341Y-2.82403
X-5.21327Y-14.93691
X-7.04956Y-16.98889
X-11.56012Y-17.72344
X-16.81365Y12.75129
X17.228Y-8.61088
X12.827Y-12.271
X-1.87992Y-17.13954
X-11.47913Y12.51185
X6.07733Y-14.84602
T03
X-4.31959Y-15.79251G85X-4.31959Y-16.89251
X-4.31959Y-20.12259G85X-4.31959Y-20.92259
X4.32047Y-20.12259G85X4.32047Y-20.92259
X4.32047Y-15.79251G85X4.32047Y-16.89251
T04
X-12.0Y16.0
X12.0Y16.0
X12.00006Y-16.00016
M30