G04 Layer: BottomSilkscreenLayer*
G04 EasyEDA Pro v3.2.149.88089769, 2026-09-17 16:10:54*
G04 Gerber Generator version 0.3*
G04 Scale: 100 percent, Rotated: No, Reflected: No*
G04 Dimensions in millimeters*
G04 Leading zeros omitted, absolute positions, 4 integers and 5 decimals*
G04 Generated by one-click*
G04 Object Configs: Pad,Via,Track,Text,Image,Dimension,BoardOutline,BoardCutout,CopperFilled,SolidRegion,FPCStiffener,Line,PlaneZone,ComponentProperty,ComponentSilkscreen,TearDrop*
G04 Layer Configs: 1,2,3,4,5,6,7,8,9,10,11,13,14,56*
G04 Copper Areas: 0*
%FSLAX45Y45*%
%MOMM*%
%ADD10C,0.254*%
%ADD11C,0.4*%
%ADD12C,0.8640*%
G75*


G04 Image Start*
G36*
G01X901177Y-913452D02*
G01X868164Y-913634D01*
G01X867058Y-912525D01*
G01X865951Y-911417D01*
G01X865951Y-907364D01*
G01X853703Y-906959D01*
G01X853488Y-903979D01*
G01X853273Y-900999D01*
G01X850339Y-900960D01*
G01X847404Y-900920D01*
G01X844955Y-900083D01*
G01X842505Y-899247D01*
G01X841228Y-894911D01*
G01X838367Y-894274D01*
G01X835507Y-893637D01*
G01X834847Y-890657D01*
G01X834188Y-887677D01*
G01X831174Y-887677D01*
G01X829999Y-886376D01*
G01X828824Y-885076D01*
G01X828393Y-880452D01*
G01X827962Y-875829D01*
G01X825085Y-875618D01*
G01X822209Y-875407D01*
G01X821793Y-869018D01*
G01X819551Y-868356D01*
G01X817310Y-867694D01*
G01X815639Y-862786D01*
G01X815599Y-851533D01*
G01X815560Y-840279D01*
G01X817240Y-838596D01*
G01X822559Y-838596D01*
G01X822559Y-835792D01*
G01X825358Y-832987D01*
G01X829650Y-832987D01*
G01X830973Y-833697D01*
G01X832296Y-834406D01*
G01X833022Y-837027D01*
G01X833749Y-839648D01*
G01X833753Y-842277D01*
G01X833757Y-844907D01*
G01X840056Y-844907D01*
G01X840056Y-851217D01*
G01X846355Y-851217D01*
G01X846355Y-857528D01*
G01X849329Y-857567D01*
G01X852304Y-857607D01*
G01X857203Y-859281D01*
G01X857872Y-861559D01*
G01X858542Y-863838D01*
G01X861721Y-863878D01*
G01X864901Y-863917D01*
G01X867351Y-864754D01*
G01X869800Y-865591D01*
G01X871140Y-870149D01*
G01X879249Y-870149D01*
G01X879249Y-866860D01*
G01X880547Y-865683D01*
G01X881846Y-864505D01*
G01X886496Y-864070D01*
G01X891147Y-863635D01*
G01X891147Y-860332D01*
G01X892546Y-858930D01*
G01X893946Y-857528D01*
G01X903744Y-857528D01*
G01X903744Y-851217D01*
G01X910043Y-851217D01*
G01X910043Y-840279D01*
G01X911723Y-838596D01*
G01X916148Y-838596D01*
G01X916940Y-829848D01*
G01X918779Y-828262D01*
G01X920620Y-826677D01*
G01X922641Y-826677D01*
G01X922641Y-819665D01*
G01X923944Y-819665D01*
G01X924391Y-816510D01*
G01X928910Y-814407D01*
G01X928925Y-808672D01*
G01X928940Y-802938D01*
G01X930040Y-801836D01*
G01X931140Y-800734D01*
G01X935239Y-800734D01*
G01X935239Y-784006D01*
G01X936339Y-782905D01*
G01X937439Y-781803D01*
G01X941497Y-781803D01*
G01X941692Y-772512D01*
G01X941888Y-763222D01*
G01X944862Y-763006D01*
G01X947836Y-762791D01*
G01X947836Y-734239D01*
G01X948689Y-732013D01*
G01X951397Y-731579D01*
G01X954104Y-731145D01*
G01X954485Y-706428D01*
G01X960286Y-706004D01*
G01X960535Y-695247D01*
G01X960784Y-684489D01*
G01X962118Y-683013D01*
G01X963451Y-681537D01*
G01X966733Y-681537D01*
G01X966733Y-665723D01*
G01X967784Y-664220D01*
G01X968835Y-662717D01*
G01X970933Y-662255D01*
G01X973032Y-661793D01*
G01X973032Y-650967D01*
G01X974712Y-649284D01*
G01X979331Y-649284D01*
G01X979331Y-638346D01*
G01X981011Y-636663D01*
G01X985630Y-636663D01*
G01X985630Y-626246D01*
G01X987830Y-624042D01*
G01X991848Y-624042D01*
G01X992064Y-621062D01*
G01X992279Y-618083D01*
G01X995253Y-617867D01*
G01X998228Y-617651D01*
G01X998228Y-611422D01*
G01X1004527Y-611422D01*
G01X1004527Y-605111D01*
G01X1010825Y-605111D01*
G01X1010825Y-598801D01*
G01X1017124Y-598801D01*
G01X1017124Y-592490D01*
G01X1023423Y-592490D01*
G01X1023423Y-588984D01*
G01X1024823Y-587582D01*
G01X1026223Y-586180D01*
G01X1063141Y-586275D01*
G01X1100060Y-586371D01*
G01X1101539Y-586662D01*
G01X1103017Y-586953D01*
G01X1103813Y-588703D01*
G01X1104609Y-590453D01*
G01X1104609Y-592490D01*
G01X1115007Y-592490D01*
G01X1116107Y-593592D01*
G01X1117207Y-594694D01*
G01X1117207Y-598801D01*
G01X1123505Y-598801D01*
G01X1123505Y-605111D01*
G01X1129804Y-605111D01*
G01X1129804Y-611422D01*
G01X1136103Y-611422D01*
G01X1136103Y-617732D01*
G01X1142402Y-617732D01*
G01X1142402Y-623962D01*
G01X1145377Y-624177D01*
G01X1148351Y-624393D01*
G01X1148553Y-630489D01*
G01X1148755Y-636585D01*
G01X1151702Y-636799D01*
G01X1154650Y-637014D01*
G01X1154650Y-654543D01*
G01X1151676Y-654758D01*
G01X1148701Y-654974D01*
G01X1148701Y-661204D01*
G01X1136803Y-661204D01*
G01X1136803Y-654893D01*
G01X1130504Y-654893D01*
G01X1130504Y-648583D01*
G01X1124205Y-648583D01*
G01X1124205Y-642272D01*
G01X1117907Y-642272D01*
G01X1117907Y-635962D01*
G01X1106988Y-635962D01*
G01X1105309Y-634279D01*
G01X1105309Y-629652D01*
G01X1085712Y-629652D01*
G01X1085712Y-633758D01*
G01X1083513Y-635962D01*
G01X1073195Y-635962D01*
G01X1072980Y-638942D01*
G01X1072764Y-641922D01*
G01X1069828Y-642135D01*
G01X1066892Y-642349D01*
G01X1066466Y-648232D01*
G01X1063491Y-648448D01*
G01X1060517Y-648664D01*
G01X1060517Y-654893D01*
G01X1054218Y-654893D01*
G01X1054218Y-665831D01*
G01X1052538Y-667514D01*
G01X1047919Y-667514D01*
G01X1047919Y-677931D01*
G01X1046819Y-679033D01*
G01X1045719Y-680135D01*
G01X1041620Y-680135D01*
G01X1041620Y-691073D01*
G01X1039940Y-692756D01*
G01X1035321Y-692756D01*
G01X1035321Y-707414D01*
G01X1034558Y-709092D01*
G01X1033795Y-710769D01*
G01X1031234Y-711490D01*
G01X1028672Y-712211D01*
G01X1031997Y-712299D01*
G01X1035321Y-712388D01*
G01X1035321Y-718618D01*
G01X1041270Y-719049D01*
G01X1041472Y-725184D01*
G01X1041674Y-731319D01*
G01X1047919Y-731319D01*
G01X1047919Y-737630D01*
G01X1052538Y-737630D01*
G01X1054218Y-739313D01*
G01X1054218Y-750251D01*
G01X1060517Y-750251D01*
G01X1060517Y-756561D01*
G01X1065136Y-756561D01*
G01X1066816Y-758244D01*
G01X1066816Y-769182D01*
G01X1073115Y-769182D01*
G01X1073115Y-775492D01*
G01X1077214Y-775492D01*
G01X1078314Y-776594D01*
G01X1079413Y-777696D01*
G01X1079413Y-788032D01*
G01X1085362Y-788464D01*
G01X1085574Y-791373D01*
G01X1085786Y-794281D01*
G01X1088230Y-794741D01*
G01X1090675Y-795200D01*
G01X1092011Y-798722D01*
G01X1092011Y-806964D01*
G01X1094986Y-807179D01*
G01X1097960Y-807395D01*
G01X1098387Y-814056D01*
G01X1101592Y-814056D01*
G01X1103943Y-816658D01*
G01X1104374Y-821281D01*
G01X1104805Y-825904D01*
G01X1107681Y-826115D01*
G01X1110558Y-826326D01*
G01X1110760Y-832461D01*
G01X1110962Y-838596D01*
G01X1117207Y-838596D01*
G01X1117207Y-844826D01*
G01X1120181Y-845042D01*
G01X1123156Y-845257D01*
G01X1123358Y-851392D01*
G01X1123560Y-857528D01*
G01X1129804Y-857528D01*
G01X1129804Y-863838D01*
G01X1134424Y-863838D01*
G01X1136103Y-865521D01*
G01X1136103Y-876459D01*
G01X1142402Y-876459D01*
G01X1142402Y-882769D01*
G01X1146501Y-882769D01*
G01X1147601Y-883871D01*
G01X1148701Y-884973D01*
G01X1148701Y-895390D01*
G01X1155000Y-895390D01*
G01X1155000Y-913620D01*
G01X1092711Y-913620D01*
G01X1092711Y-907391D01*
G01X1089737Y-907175D01*
G01X1086762Y-906959D01*
G01X1086359Y-894767D01*
G01X1083411Y-894553D01*
G01X1080463Y-894338D01*
G01X1080261Y-888203D01*
G01X1080059Y-882068D01*
G01X1073814Y-882068D01*
G01X1073814Y-875347D01*
G01X1071540Y-874676D01*
G01X1069265Y-874005D01*
G01X1067594Y-869097D01*
G01X1067555Y-866117D01*
G01X1067515Y-863137D01*
G01X1064016Y-863137D01*
G01X1062616Y-861735D01*
G01X1061217Y-860332D01*
G01X1061217Y-850516D01*
G01X1056597Y-850516D01*
G01X1054918Y-848833D01*
G01X1054918Y-837976D01*
G01X1051943Y-837760D01*
G01X1048969Y-837545D01*
G01X1048767Y-831449D01*
G01X1048565Y-825352D01*
G01X1045618Y-825138D01*
G01X1042670Y-824924D01*
G01X1042462Y-820579D01*
G01X1042255Y-816233D01*
G01X1039592Y-815387D01*
G01X1039159Y-814020D01*
G01X1038726Y-812654D01*
G01X1036021Y-812654D01*
G01X1036021Y-805932D01*
G01X1033747Y-805261D01*
G01X1031472Y-804590D01*
G01X1029801Y-799682D01*
G01X1029722Y-793902D01*
G01X1026999Y-793465D01*
G01X1024276Y-793029D01*
G01X1023850Y-791916D01*
G01X1023423Y-790803D01*
G01X1023423Y-781102D01*
G01X1018804Y-781102D01*
G01X1017124Y-779419D01*
G01X1016997Y-773774D01*
G01X1016870Y-768130D01*
G01X1016472Y-779417D01*
G01X1016074Y-790705D01*
G01X1015148Y-791821D01*
G01X1014222Y-792938D01*
G01X1010476Y-793372D01*
G01X1010126Y-802837D01*
G01X1009776Y-812303D01*
G01X1006801Y-812519D01*
G01X1003827Y-812734D01*
G01X1003827Y-829902D01*
G01X1002147Y-831585D01*
G01X997679Y-831585D01*
G01X997427Y-839542D01*
G01X997175Y-847500D01*
G01X996250Y-848616D01*
G01X995326Y-849732D01*
G01X991579Y-850166D01*
G01X990669Y-860370D01*
G01X989848Y-861361D01*
G01X989027Y-862353D01*
G01X987154Y-862569D01*
G01X985280Y-862786D01*
G01X984853Y-869447D01*
G01X978631Y-869447D01*
G01X978631Y-880385D01*
G01X976951Y-882068D01*
G01X972413Y-882068D01*
G01X972197Y-885048D01*
G01X971982Y-888028D01*
G01X969046Y-888242D01*
G01X966110Y-888455D01*
G01X965683Y-894338D01*
G01X959811Y-894766D01*
G01X959598Y-897707D01*
G01X959384Y-900649D01*
G01X947137Y-901054D01*
G01X947137Y-907310D01*
G01X934619Y-907310D01*
G01X934404Y-910290D01*
G01X934189Y-913270D01*
G01X901177Y-913452D01*
G37*
G36*
G01X-325238Y-687147D02*
G01X-325238Y-912046D01*
G01X-327150Y-913635D01*
G01X-357164Y-913453D01*
G01X-387178Y-913270D01*
G01X-387355Y-831409D01*
G01X-387533Y-749549D01*
G01X-397926Y-749549D01*
G01X-399026Y-748448D01*
G01X-400125Y-747346D01*
G01X-400125Y-743239D01*
G01X-411043Y-743239D01*
G01X-412723Y-741556D01*
G01X-412723Y-736929D01*
G01X-438618Y-736929D01*
G01X-438618Y-743239D01*
G01X-444837Y-743239D01*
G01X-445052Y-746219D01*
G01X-445267Y-749199D01*
G01X-448242Y-749415D01*
G01X-451216Y-749630D01*
G01X-451216Y-759967D01*
G01X-452316Y-761069D01*
G01X-453416Y-762170D01*
G01X-457515Y-762170D01*
G01X-457515Y-912046D01*
G01X-459426Y-913635D01*
G01X-519454Y-913270D01*
G01X-519810Y-749549D01*
G01X-526103Y-749549D01*
G01X-526103Y-743239D01*
G01X-542200Y-743239D01*
G01X-543600Y-741837D01*
G01X-545000Y-740434D01*
G01X-545000Y-736929D01*
G01X-570815Y-736929D01*
G01X-571030Y-739909D01*
G01X-571245Y-742888D01*
G01X-574219Y-743104D01*
G01X-577194Y-743320D01*
G01X-577194Y-746745D01*
G01X-578594Y-748147D01*
G01X-579993Y-749549D01*
G01X-583412Y-749549D01*
G01X-583628Y-752529D01*
G01X-583843Y-755509D01*
G01X-586814Y-755725D01*
G01X-589785Y-755940D01*
G01X-590142Y-906959D01*
G01X-656211Y-906959D01*
G01X-657120Y-906048D01*
G01X-658030Y-905136D01*
G01X-658030Y-772835D01*
G01X-656696Y-771359D01*
G01X-655363Y-769883D01*
G01X-652081Y-769883D01*
G01X-652081Y-733523D01*
G01X-649881Y-731319D01*
G01X-645836Y-731319D01*
G01X-645634Y-725184D01*
G01X-645432Y-719049D01*
G01X-639483Y-718618D01*
G01X-639483Y-708882D01*
G01X-638083Y-707480D01*
G01X-636683Y-706078D01*
G01X-633265Y-706078D01*
G01X-633049Y-703098D01*
G01X-632834Y-700118D01*
G01X-629860Y-699902D01*
G01X-626885Y-699687D01*
G01X-626885Y-695660D01*
G01X-624686Y-693457D01*
G01X-614368Y-693457D01*
G01X-614153Y-690477D01*
G01X-613938Y-687497D01*
G01X-607813Y-687294D01*
G01X-601690Y-687092D01*
G01X-601690Y-683040D01*
G01X-600590Y-681938D01*
G01X-599490Y-680836D01*
G01X-534781Y-680836D01*
G01X-533102Y-682519D01*
G01X-533102Y-687147D01*
G01X-516405Y-687147D01*
G01X-514205Y-689350D01*
G01X-514205Y-693457D01*
G01X-504407Y-693457D01*
G01X-503007Y-694859D01*
G01X-501607Y-696261D01*
G01X-501607Y-699687D01*
G01X-498633Y-699902D01*
G01X-495658Y-700118D01*
G01X-494819Y-706428D01*
G01X-494714Y-703098D01*
G01X-494609Y-699767D01*
G01X-488390Y-699767D01*
G01X-488175Y-696787D01*
G01X-487960Y-693808D01*
G01X-481836Y-693605D01*
G01X-475712Y-693402D01*
G01X-475712Y-687147D01*
G01X-463195Y-687147D01*
G01X-462764Y-681187D01*
G01X-437219Y-681017D01*
G01X-411673Y-680847D01*
G01X-408174Y-682609D01*
G01X-407504Y-684878D01*
G01X-406835Y-687147D01*
G01X-396206Y-687147D01*
G01X-394526Y-688829D01*
G01X-394526Y-693322D01*
G01X-387527Y-693808D01*
G01X-387527Y-687147D01*
G01X-325238Y-687147D01*
G37*
G36*
G01X-760730Y-911485D02*
G01X-761803Y-912378D01*
G01X-762875Y-913270D01*
G01X-834398Y-913270D01*
G01X-834613Y-910310D01*
G01X-834827Y-907350D01*
G01X-853295Y-906959D01*
G01X-853509Y-904006D01*
G01X-853723Y-901053D01*
G01X-859808Y-900851D01*
G01X-865893Y-900649D01*
G01X-866104Y-897753D01*
G01X-866315Y-894857D01*
G01X-870157Y-894537D01*
G01X-874000Y-894218D01*
G01X-875895Y-892806D01*
G01X-877791Y-891393D01*
G01X-878015Y-889886D01*
G01X-878238Y-888379D01*
G01X-882340Y-888379D01*
G01X-883740Y-886976D01*
G01X-885139Y-885574D01*
G01X-885139Y-882068D01*
G01X-888327Y-882068D01*
G01X-889883Y-880977D01*
G01X-891438Y-879885D01*
G01X-891438Y-873654D01*
G01X-893638Y-873654D01*
G01X-895638Y-871651D01*
G01X-895638Y-869447D01*
G01X-897737Y-869447D01*
G01X-897737Y-863218D01*
G01X-900712Y-863002D01*
G01X-903686Y-862786D01*
G01X-903888Y-856651D01*
G01X-904091Y-850516D01*
G01X-910335Y-850516D01*
G01X-910335Y-837976D01*
G01X-913310Y-837760D01*
G01X-916284Y-837545D01*
G01X-916661Y-806343D01*
G01X-920133Y-806343D01*
G01X-921533Y-804941D01*
G01X-922933Y-803539D01*
G01X-922933Y-792386D01*
G01X-921365Y-788939D01*
G01X-919000Y-788494D01*
G01X-916634Y-788050D01*
G01X-916634Y-774873D01*
G01X-854367Y-774873D01*
G01X-854181Y-794289D01*
G01X-853995Y-813705D01*
G01X-852122Y-813922D01*
G01X-850248Y-814139D01*
G01X-849324Y-815255D01*
G01X-848399Y-816371D01*
G01X-848147Y-824329D01*
G01X-847895Y-832286D01*
G01X-841747Y-832286D01*
G01X-841747Y-838596D01*
G01X-835448Y-838596D01*
G01X-835448Y-844907D01*
G01X-829149Y-844907D01*
G01X-829149Y-851217D01*
G01X-813364Y-851217D01*
G01X-811808Y-852309D01*
G01X-811808Y-852309D01*
G01X-810253Y-853400D01*
G01X-810253Y-857528D01*
G01X-784438Y-857528D01*
G01X-784007Y-851568D01*
G01X-777883Y-851365D01*
G01X-771760Y-851163D01*
G01X-771760Y-844907D01*
G01X-765541Y-844907D01*
G01X-765111Y-838947D01*
G01X-762175Y-838733D01*
G01X-759239Y-838520D01*
G01X-759025Y-835578D01*
G01X-758812Y-832637D01*
G01X-752863Y-832205D01*
G01X-752863Y-821348D01*
G01X-751183Y-819665D01*
G01X-746564Y-819665D01*
G01X-746564Y-774090D01*
G01X-749846Y-774090D01*
G01X-751022Y-772789D01*
G01X-752197Y-771488D01*
G01X-752631Y-766829D01*
G01X-753065Y-762170D01*
G01X-757482Y-762170D01*
G01X-759162Y-760487D01*
G01X-759162Y-755860D01*
G01X-763261Y-755860D01*
G01X-764361Y-754758D01*
G01X-765461Y-753656D01*
G01X-765461Y-749630D01*
G01X-768435Y-749415D01*
G01X-771410Y-749199D01*
G01X-771625Y-746219D01*
G01X-771840Y-743239D01*
G01X-782678Y-743239D01*
G01X-784357Y-741556D01*
G01X-784357Y-736929D01*
G01X-816471Y-736929D01*
G01X-816686Y-739909D01*
G01X-816902Y-742888D01*
G01X-823026Y-743091D01*
G01X-829149Y-743294D01*
G01X-829149Y-749549D01*
G01X-835368Y-749549D01*
G01X-835583Y-752529D01*
G01X-835798Y-755509D01*
G01X-838773Y-755725D01*
G01X-841747Y-755940D01*
G01X-841747Y-762170D01*
G01X-847992Y-762170D01*
G01X-848194Y-768305D01*
G01X-848396Y-774441D01*
G01X-851381Y-774657D01*
G01X-854367Y-774873D01*
G01X-916634Y-774873D01*
G01X-916634Y-757412D01*
G01X-915527Y-756987D01*
G01X-914420Y-756561D01*
G01X-910486Y-756561D01*
G01X-909982Y-740646D01*
G01X-909057Y-739530D01*
G01X-908133Y-738414D01*
G01X-906260Y-738197D01*
G01X-904386Y-737980D01*
G01X-903959Y-731319D01*
G01X-897925Y-731319D01*
G01X-897576Y-726421D01*
G01X-897226Y-721524D01*
G01X-896381Y-720503D01*
G01X-895535Y-719483D01*
G01X-893670Y-719266D01*
G01X-891805Y-719049D01*
G01X-891370Y-716347D01*
G01X-890935Y-713644D01*
G01X-888989Y-712410D01*
G01X-887064Y-712399D01*
G01X-885139Y-712388D01*
G01X-885139Y-708882D01*
G01X-883740Y-707480D01*
G01X-882340Y-706078D01*
G01X-878238Y-706078D01*
G01X-878015Y-704570D01*
G01X-877791Y-703063D01*
G01X-874000Y-700238D01*
G01X-870157Y-699919D01*
G01X-866315Y-699600D01*
G01X-866104Y-696704D01*
G01X-865893Y-693808D01*
G01X-859808Y-693605D01*
G01X-853723Y-693403D01*
G01X-853509Y-690450D01*
G01X-853295Y-687497D01*
G01X-847244Y-687296D01*
G01X-841193Y-687094D01*
G01X-840733Y-684635D01*
G01X-840272Y-682175D01*
G01X-838514Y-681506D01*
G01X-836757Y-680836D01*
G01X-761541Y-680836D01*
G01X-759862Y-682519D01*
G01X-759862Y-687147D01*
G01X-747264Y-687147D01*
G01X-747264Y-693457D01*
G01X-735413Y-693457D01*
G01X-730545Y-695783D01*
G01X-728897Y-699767D01*
G01X-724268Y-699767D01*
G01X-723168Y-700869D01*
G01X-722068Y-701971D01*
G01X-722068Y-705997D01*
G01X-716119Y-706428D01*
G01X-715906Y-709370D01*
G01X-715693Y-712311D01*
G01X-712757Y-712525D01*
G01X-709821Y-712739D01*
G01X-709394Y-718622D01*
G01X-703522Y-719049D01*
G01X-703306Y-722029D01*
G01X-703091Y-725009D01*
G01X-698552Y-725009D01*
G01X-696873Y-726692D01*
G01X-696873Y-737549D01*
G01X-693898Y-737765D01*
G01X-690924Y-737980D01*
G01X-690521Y-750173D01*
G01X-687573Y-750387D01*
G01X-684625Y-750601D01*
G01X-684430Y-759892D01*
G01X-684234Y-769182D01*
G01X-680176Y-769182D01*
G01X-679076Y-770284D01*
G01X-677976Y-771386D01*
G01X-677976Y-821457D01*
G01X-680077Y-824462D01*
G01X-682176Y-824924D01*
G01X-684275Y-825386D01*
G01X-684275Y-842523D01*
G01X-685955Y-844206D01*
G01X-690574Y-844206D01*
G01X-690574Y-855975D01*
G01X-691681Y-856401D01*
G01X-692788Y-856827D01*
G01X-696873Y-856827D01*
G01X-696873Y-865174D01*
G01X-697657Y-866898D01*
G01X-698441Y-868622D01*
G01X-703172Y-869511D01*
G01X-703172Y-874075D01*
G01X-704851Y-875758D01*
G01X-709390Y-875758D01*
G01X-709821Y-881718D01*
G01X-712757Y-881931D01*
G01X-715693Y-882145D01*
G01X-715906Y-885086D01*
G01X-716119Y-888028D01*
G01X-722068Y-888459D01*
G01X-722068Y-893006D01*
G01X-723748Y-894689D01*
G01X-729067Y-894689D01*
G01X-729067Y-897977D01*
G01X-730483Y-899261D01*
G01X-731899Y-900545D01*
G01X-739582Y-900862D01*
G01X-747264Y-901180D01*
G01X-747264Y-907310D01*
G01X-759897Y-907310D01*
G01X-760314Y-909398D01*
G01X-760730Y-911485D01*
G37*
G36*
G01X-143346Y-912281D02*
G01X-145120Y-912957D01*
G01X-146895Y-913633D01*
G01X-182001Y-913451D01*
G01X-217108Y-913270D01*
G01X-217322Y-910310D01*
G01X-217536Y-907350D01*
G01X-236004Y-906959D01*
G01X-236218Y-904006D01*
G01X-236432Y-901053D01*
G01X-242517Y-900851D01*
G01X-248602Y-900649D01*
G01X-248817Y-897669D01*
G01X-249032Y-894689D01*
G01X-255251Y-894689D01*
G01X-255251Y-892586D01*
G01X-257451Y-892586D01*
G01X-258450Y-891584D01*
G01X-259450Y-890582D01*
G01X-259450Y-888559D01*
G01X-262842Y-888109D01*
G01X-266233Y-887658D01*
G01X-267041Y-885882D01*
G01X-267849Y-884106D01*
G01X-267849Y-882132D01*
G01X-272580Y-881243D01*
G01X-273364Y-879519D01*
G01X-274147Y-877795D01*
G01X-274147Y-869447D01*
G01X-280446Y-869447D01*
G01X-280446Y-863218D01*
G01X-283421Y-863002D01*
G01X-286395Y-862786D01*
G01X-286799Y-850594D01*
G01X-289746Y-850380D01*
G01X-292694Y-850166D01*
G01X-292896Y-844030D01*
G01X-293099Y-837895D01*
G01X-297143Y-837895D01*
G01X-298243Y-836794D01*
G01X-299343Y-835692D01*
G01X-299373Y-805291D01*
G01X-303892Y-803188D01*
G01X-304099Y-800375D01*
G01X-304306Y-797562D01*
G01X-301388Y-794424D01*
G01X-299343Y-794424D01*
G01X-299343Y-781165D01*
G01X-237054Y-781165D01*
G01X-237054Y-813176D01*
G01X-234331Y-813612D01*
G01X-231608Y-814048D01*
G01X-231181Y-815161D01*
G01X-230755Y-816274D01*
G01X-230755Y-832286D01*
G01X-224456Y-832286D01*
G01X-224456Y-838596D01*
G01X-218157Y-838596D01*
G01X-218157Y-844907D01*
G01X-211858Y-844907D01*
G01X-211858Y-851217D01*
G01X-196073Y-851217D01*
G01X-194517Y-852309D01*
G01X-194517Y-852309D01*
G01X-192962Y-853400D01*
G01X-192962Y-857528D01*
G01X-167147Y-857528D01*
G01X-166716Y-851568D01*
G01X-160593Y-851365D01*
G01X-154469Y-851163D01*
G01X-154469Y-844907D01*
G01X-148250Y-844907D01*
G01X-147820Y-838947D01*
G01X-144884Y-838733D01*
G01X-141948Y-838520D01*
G01X-141734Y-835578D01*
G01X-141521Y-832637D01*
G01X-138546Y-832421D01*
G01X-135572Y-832205D01*
G01X-135572Y-821869D01*
G01X-134472Y-820767D01*
G01X-133372Y-819665D01*
G01X-129273Y-819665D01*
G01X-129273Y-768481D01*
G01X-135572Y-768481D01*
G01X-135572Y-762170D01*
G01X-140191Y-762170D01*
G01X-141871Y-760487D01*
G01X-141871Y-755860D01*
G01X-145059Y-755860D01*
G01X-146614Y-754768D01*
G01X-148170Y-753677D01*
G01X-148170Y-749630D01*
G01X-151144Y-749415D01*
G01X-154119Y-749199D01*
G01X-154334Y-746219D01*
G01X-154549Y-743239D01*
G01X-164867Y-743239D01*
G01X-167066Y-741036D01*
G01X-167066Y-736929D01*
G01X-199180Y-736929D01*
G01X-199396Y-739909D01*
G01X-199611Y-742888D01*
G01X-211858Y-743294D01*
G01X-211858Y-749549D01*
G01X-218157Y-749549D01*
G01X-218157Y-755860D01*
G01X-224456Y-755860D01*
G01X-224456Y-762170D01*
G01X-225759Y-762170D01*
G01X-226206Y-765325D01*
G01X-228465Y-766377D01*
G01X-230725Y-767429D01*
G01X-230755Y-776829D01*
G01X-231539Y-778552D01*
G01X-232323Y-780276D01*
G01X-237054Y-781165D01*
G01X-299343Y-781165D01*
G01X-299343Y-758765D01*
G01X-298243Y-757663D01*
G01X-297143Y-756561D01*
G01X-293044Y-756561D01*
G01X-293044Y-743940D01*
G01X-286800Y-743940D01*
G01X-286598Y-737805D01*
G01X-286395Y-731670D01*
G01X-283515Y-731459D01*
G01X-280634Y-731248D01*
G01X-279849Y-722571D01*
G01X-276169Y-719400D01*
G01X-274416Y-719400D01*
G01X-273757Y-716420D01*
G01X-273098Y-713440D01*
G01X-270473Y-712790D01*
G01X-267849Y-712141D01*
G01X-267849Y-710351D01*
G01X-267041Y-708574D01*
G01X-266233Y-706799D01*
G01X-262842Y-706348D01*
G01X-259450Y-705897D01*
G01X-259450Y-703874D01*
G01X-258450Y-702872D01*
G01X-257451Y-701871D01*
G01X-255251Y-701871D01*
G01X-255251Y-699767D01*
G01X-249032Y-699767D01*
G01X-248817Y-696787D01*
G01X-248602Y-693808D01*
G01X-242517Y-693605D01*
G01X-236432Y-693403D01*
G01X-236218Y-690450D01*
G01X-236004Y-687497D01*
G01X-229857Y-687294D01*
G01X-223710Y-687091D01*
G01X-223299Y-685031D01*
G01X-222888Y-682971D01*
G01X-221815Y-682079D01*
G01X-220743Y-681187D01*
G01X-182519Y-680989D01*
G01X-144295Y-680791D01*
G01X-142571Y-682519D01*
G01X-142571Y-687147D01*
G01X-129973Y-687147D01*
G01X-129973Y-693457D01*
G01X-123849Y-693496D01*
G01X-117725Y-693536D01*
G01X-112826Y-695210D01*
G01X-111487Y-699767D01*
G01X-106457Y-699767D01*
G01X-104777Y-701450D01*
G01X-104777Y-705997D01*
G01X-101803Y-706213D01*
G01X-98829Y-706428D01*
G01X-98615Y-709370D01*
G01X-98402Y-712311D01*
G01X-95466Y-712525D01*
G01X-92530Y-712739D01*
G01X-92103Y-718622D01*
G01X-86231Y-719049D01*
G01X-86017Y-721991D01*
G01X-85804Y-724932D01*
G01X-82868Y-725146D01*
G01X-79932Y-725359D01*
G01X-79730Y-731456D01*
G01X-79528Y-737552D01*
G01X-76581Y-737766D01*
G01X-73633Y-737980D01*
G01X-73230Y-750173D01*
G01X-70282Y-750387D01*
G01X-67334Y-750601D01*
G01X-67139Y-759892D01*
G01X-66943Y-769182D01*
G01X-62365Y-769182D01*
G01X-60685Y-770865D01*
G01X-60685Y-823071D01*
G01X-62885Y-825274D01*
G01X-66943Y-825274D01*
G01X-67139Y-834565D01*
G01X-67334Y-843855D01*
G01X-70282Y-844069D01*
G01X-73230Y-844284D01*
G01X-73431Y-850380D01*
G01X-73633Y-856476D01*
G01X-76607Y-856691D01*
G01X-79582Y-856907D01*
G01X-79582Y-867264D01*
G01X-81137Y-868356D01*
G01X-82693Y-869447D01*
G01X-85800Y-869447D01*
G01X-86016Y-872427D01*
G01X-86231Y-875407D01*
G01X-92180Y-875838D01*
G01X-92180Y-882068D01*
G01X-98398Y-882068D01*
G01X-98613Y-885048D01*
G01X-98829Y-888028D01*
G01X-101765Y-888242D01*
G01X-104701Y-888455D01*
G01X-105127Y-894338D01*
G01X-107967Y-894547D01*
G01X-110806Y-894756D01*
G01X-112126Y-899226D01*
G01X-115626Y-900979D01*
G01X-120000Y-900989D01*
G01X-124374Y-900999D01*
G01X-124374Y-904288D01*
G01X-125790Y-905572D01*
G01X-127206Y-906856D01*
G01X-134827Y-907170D01*
G01X-142448Y-907485D01*
G01X-142897Y-909883D01*
G01X-143346Y-912281D01*
G37*
G36*
G01X348392Y-913270D02*
G01X276668Y-913633D01*
G01X275262Y-912224D01*
G01X273856Y-910816D01*
G01X273856Y-907310D01*
G01X259508Y-907289D01*
G01X256009Y-905537D01*
G01X255339Y-903268D01*
G01X254670Y-900999D01*
G01X246652Y-900999D01*
G01X244894Y-900330D01*
G01X243136Y-899661D01*
G01X242219Y-894763D01*
G01X239316Y-894550D01*
G01X236412Y-894338D01*
G01X236197Y-891358D01*
G01X235982Y-888379D01*
G01X229764Y-888379D01*
G01X229764Y-882068D01*
G01X223465Y-882068D01*
G01X223465Y-875838D01*
G01X220490Y-875623D01*
G01X217516Y-875407D01*
G01X217300Y-872427D01*
G01X217085Y-869447D01*
G01X212546Y-869447D01*
G01X210867Y-867765D01*
G01X210867Y-856907D01*
G01X207892Y-856691D01*
G01X204918Y-856476D01*
G01X204716Y-850380D01*
G01X204514Y-844284D01*
G01X201567Y-844069D01*
G01X198619Y-843855D01*
G01X198418Y-837369D01*
G01X198217Y-830884D01*
G01X194987Y-830884D01*
G01X192320Y-827933D01*
G01X192320Y-793878D01*
G01X254259Y-793878D01*
G01X254259Y-801265D01*
G01X256248Y-802090D01*
G01X258236Y-802915D01*
G01X260558Y-807793D01*
G01X260573Y-814255D01*
G01X260588Y-820717D01*
G01X262848Y-821769D01*
G01X265107Y-822820D01*
G01X265331Y-824398D01*
G01X265555Y-825976D01*
G01X266857Y-825976D01*
G01X266857Y-832286D01*
G01X270956Y-832286D01*
G01X272056Y-833388D01*
G01X273156Y-834490D01*
G01X273156Y-838631D01*
G01X277324Y-839467D01*
G01X277943Y-840258D01*
G01X278562Y-841051D01*
G01X279022Y-842979D01*
G01X279481Y-844907D01*
G01X284074Y-844907D01*
G01X285754Y-846590D01*
G01X285754Y-851163D01*
G01X291877Y-851365D01*
G01X298001Y-851568D01*
G01X298001Y-851568D01*
G01X298217Y-854548D01*
G01X298432Y-857528D01*
G01X324247Y-857528D01*
G01X324247Y-853421D01*
G01X325347Y-852319D01*
G01X326446Y-851217D01*
G01X336844Y-851217D01*
G01X336844Y-846590D01*
G01X338524Y-844907D01*
G01X343554Y-844907D01*
G01X344893Y-840349D01*
G01X347273Y-839579D01*
G01X349653Y-838808D01*
G01X350423Y-836423D01*
G01X351192Y-834039D01*
G01X355741Y-832697D01*
G01X355741Y-827658D01*
G01X357421Y-825976D01*
G01X361986Y-825976D01*
G01X362188Y-819840D01*
G01X362390Y-813705D01*
G01X365364Y-813490D01*
G01X368339Y-813274D01*
G01X368339Y-781102D01*
G01X366414Y-781091D01*
G01X364490Y-781080D01*
G01X363440Y-780417D01*
G01X362390Y-779754D01*
G01X362040Y-773942D01*
G01X361690Y-768130D01*
G01X357943Y-767696D01*
G01X357098Y-766676D01*
G01X356253Y-765656D01*
G01X355553Y-755860D01*
G01X349442Y-755860D01*
G01X349442Y-749549D01*
G01X343143Y-749549D01*
G01X343143Y-743294D01*
G01X337019Y-743091D01*
G01X330896Y-742888D01*
G01X330680Y-739909D01*
G01X330465Y-736929D01*
G01X298351Y-736929D01*
G01X298351Y-740434D01*
G01X296952Y-741837D01*
G01X295552Y-743239D01*
G01X285754Y-743239D01*
G01X285754Y-747346D01*
G01X283554Y-749549D01*
G01X278755Y-749549D01*
G01X278755Y-753251D01*
G01X277530Y-754183D01*
G01X276305Y-755114D01*
G01X274731Y-755136D01*
G01X273156Y-755159D01*
G01X273156Y-759967D01*
G01X270956Y-762170D01*
G01X266937Y-762170D01*
G01X266507Y-768130D01*
G01X263532Y-768346D01*
G01X260558Y-768561D01*
G01X260558Y-789424D01*
G01X259890Y-791185D01*
G01X259222Y-792946D01*
G01X256740Y-793412D01*
G01X254259Y-793878D01*
G01X192320Y-793878D01*
G01X192320Y-769532D01*
G01X195294Y-769317D01*
G01X198269Y-769101D01*
G01X198269Y-748238D01*
G01X198937Y-746478D01*
G01X199606Y-744717D01*
G01X202087Y-744250D01*
G01X204568Y-743784D01*
G01X204568Y-737630D01*
G01X210812Y-737630D01*
G01X211015Y-731495D01*
G01X211217Y-725359D01*
G01X217089Y-724932D01*
G01X217302Y-721991D01*
G01X217516Y-719049D01*
G01X220490Y-718834D01*
G01X223465Y-718618D01*
G01X223465Y-712388D01*
G01X229764Y-712388D01*
G01X229764Y-706078D01*
G01X235982Y-706078D01*
G01X236197Y-703098D01*
G01X236412Y-700118D01*
G01X239316Y-699906D01*
G01X242219Y-699694D01*
G01X243136Y-694796D01*
G01X244894Y-694126D01*
G01X246652Y-693457D01*
G01X254670Y-693457D01*
G01X255339Y-691188D01*
G01X256009Y-688920D01*
G01X259508Y-687167D01*
G01X273775Y-687147D01*
G01X274206Y-681187D01*
G01X311001Y-681005D01*
G01X347797Y-680824D01*
G01X348270Y-681297D01*
G01X348743Y-681771D01*
G01X348743Y-687147D01*
G01X365959Y-687147D01*
G01X367639Y-688829D01*
G01X367639Y-693457D01*
G01X378557Y-693457D01*
G01X380237Y-695140D01*
G01X380237Y-699767D01*
G01X386536Y-699767D01*
G01X386536Y-706078D01*
G01X392180Y-706078D01*
G01X394432Y-707021D01*
G01X396684Y-707964D01*
G01X398562Y-710232D01*
G01X398945Y-714465D01*
G01X399328Y-718698D01*
G01X405433Y-718698D01*
G01X405433Y-721409D01*
G01X406796Y-721842D01*
G01X408160Y-722276D01*
G01X408593Y-723643D01*
G01X409026Y-725009D01*
G01X411731Y-725009D01*
G01X411731Y-731239D01*
G01X414706Y-731454D01*
G01X417680Y-731670D01*
G01X417882Y-737766D01*
G01X418084Y-743862D01*
G01X421031Y-744076D01*
G01X423979Y-744291D01*
G01X424382Y-757262D01*
G01X427611Y-757262D01*
G01X428945Y-758738D01*
G01X430278Y-760213D01*
G01X430278Y-831234D01*
G01X427324Y-831449D01*
G01X424369Y-831664D01*
G01X423979Y-850166D01*
G01X421005Y-850381D01*
G01X418030Y-850597D01*
G01X418030Y-861454D01*
G01X416351Y-863137D01*
G01X411731Y-863137D01*
G01X411731Y-869447D01*
G01X405433Y-869447D01*
G01X405433Y-875758D01*
G01X399134Y-875758D01*
G01X399055Y-881718D01*
G01X398219Y-884172D01*
G01X397384Y-886626D01*
G01X392485Y-888299D01*
G01X389510Y-888339D01*
G01X386536Y-888379D01*
G01X386536Y-894689D01*
G01X380317Y-894689D01*
G01X380102Y-897669D01*
G01X379887Y-900649D01*
G01X373763Y-900851D01*
G01X367639Y-901054D01*
G01X367639Y-906459D01*
G01X366532Y-906884D01*
G01X365425Y-907310D01*
G01X348823Y-907310D01*
G01X348608Y-910290D01*
G01X348392Y-913270D01*
G37*
G36*
G01X165725Y-913270D02*
G01X105697Y-913635D01*
G01X103786Y-912046D01*
G01X103786Y-749549D01*
G01X97487Y-749549D01*
G01X97487Y-743239D01*
G01X80790Y-743239D01*
G01X79690Y-742137D01*
G01X78590Y-741036D01*
G01X78590Y-736929D01*
G01X52695Y-736929D01*
G01X52684Y-738857D01*
G01X52673Y-740785D01*
G01X52014Y-741830D01*
G01X51354Y-742875D01*
G01X45762Y-743130D01*
G01X40170Y-743384D01*
G01X39747Y-749199D01*
G01X33981Y-749621D01*
G01X33634Y-754483D01*
G01X33287Y-759345D01*
G01X31667Y-761300D01*
G01X29583Y-761718D01*
G01X27499Y-762135D01*
G01X27499Y-907310D01*
G01X-39409Y-907310D01*
G01X-41089Y-905627D01*
G01X-41089Y-770613D01*
G01X-39989Y-767858D01*
G01X-38888Y-765103D01*
G01X-36839Y-764253D01*
G01X-34790Y-763402D01*
G01X-34790Y-733523D01*
G01X-33690Y-732421D01*
G01X-32590Y-731319D01*
G01X-28491Y-731319D01*
G01X-28491Y-720381D01*
G01X-26811Y-718698D01*
G01X-22192Y-718698D01*
G01X-22192Y-712388D01*
G01X-15893Y-712388D01*
G01X-15893Y-706078D01*
G01X-9594Y-706078D01*
G01X-9594Y-699767D01*
G01X-3376Y-699767D01*
G01X-3161Y-696787D01*
G01X-2946Y-693808D01*
G01X2862Y-693383D01*
G01X3320Y-690934D01*
G01X3779Y-688485D01*
G01X5536Y-687816D01*
G01X7294Y-687147D01*
G01X15636Y-687147D01*
G01X16053Y-685059D01*
G01X16470Y-682971D01*
G01X17542Y-682079D01*
G01X18614Y-681187D01*
G01X47757Y-680983D01*
G01X76900Y-680779D01*
G01X77890Y-681771D01*
G01X77890Y-687106D01*
G01X87164Y-687302D01*
G01X96437Y-687497D01*
G01X96652Y-690477D01*
G01X96867Y-693457D01*
G01X103786Y-693457D01*
G01X103786Y-687147D01*
G01X170174Y-687147D01*
G01X172374Y-689350D01*
G01X172374Y-905106D01*
G01X170174Y-907310D01*
G01X166155Y-907310D01*
G01X165940Y-910290D01*
G01X165725Y-913270D01*
G37*
G36*
G01X763694Y-912281D02*
G01X761918Y-912958D01*
G01X760142Y-913634D01*
G01X728186Y-913452D01*
G01X696231Y-913270D01*
G01X695809Y-907484D01*
G01X687852Y-907178D01*
G01X679896Y-906873D01*
G01X678874Y-906024D01*
G01X677853Y-905175D01*
G01X677282Y-902912D01*
G01X676710Y-900649D01*
G01X676208Y-907310D01*
G01X613996Y-907310D01*
G01X613996Y-687147D01*
G01X676285Y-687147D01*
G01X676285Y-844907D01*
G01X682583Y-844907D01*
G01X682583Y-851066D01*
G01X698470Y-851571D01*
G01X699540Y-852462D01*
G01X700612Y-853352D01*
G01X701445Y-857528D01*
G01X727376Y-857528D01*
G01X727376Y-853421D01*
G01X728475Y-852319D01*
G01X729575Y-851217D01*
G01X739893Y-851217D01*
G01X740108Y-848237D01*
G01X740323Y-845257D01*
G01X746272Y-844826D01*
G01X746272Y-836584D01*
G01X746940Y-834823D01*
G01X747609Y-833063D01*
G01X752571Y-832130D01*
G01X752571Y-687147D01*
G01X784940Y-687191D01*
G01X817310Y-687235D01*
G01X818846Y-687855D01*
G01X820382Y-688475D01*
G01X820803Y-690791D01*
G01X821225Y-693106D01*
G01X821017Y-757758D01*
G01X820809Y-822410D01*
G01X819409Y-823469D01*
G01X818010Y-824529D01*
G01X816435Y-824551D01*
G01X814860Y-824573D01*
G01X814860Y-860933D01*
G01X812661Y-863137D01*
G01X808616Y-863137D01*
G01X808414Y-869272D01*
G01X808211Y-875407D01*
G01X802445Y-875829D01*
G01X802098Y-880691D01*
G01X801751Y-885553D01*
G01X800131Y-887508D01*
G01X795963Y-888344D01*
G01X795963Y-893006D01*
G01X794284Y-894689D01*
G01X789954Y-894689D01*
G01X789284Y-896958D01*
G01X788615Y-899226D01*
G01X785115Y-900979D01*
G01X781131Y-900989D01*
G01X777147Y-900999D01*
G01X776932Y-903979D01*
G01X776717Y-906959D01*
G01X764615Y-907362D01*
G01X764154Y-909822D01*
G01X763694Y-912281D01*
G37*
G36*
G01X-994968Y-913270D02*
G01X-1026663Y-913475D01*
G01X-1058359Y-913680D01*
G01X-1059934Y-913286D01*
G01X-1061508Y-912892D01*
G01X-1061508Y-907441D01*
G01X-1068458Y-907200D01*
G01X-1075407Y-906959D01*
G01X-1079355Y-904014D01*
G01X-1079579Y-902507D01*
G01X-1079803Y-900999D01*
G01X-1081105Y-900999D01*
G01X-1081105Y-907310D01*
G01X-1143394Y-907310D01*
G01X-1143394Y-687147D01*
G01X-1081105Y-687147D01*
G01X-1081105Y-844907D01*
G01X-1074806Y-844907D01*
G01X-1074806Y-851037D01*
G01X-1059759Y-851671D01*
G01X-1056609Y-853658D01*
G01X-1056609Y-857528D01*
G01X-1030014Y-857528D01*
G01X-1030014Y-853421D01*
G01X-1028914Y-852319D01*
G01X-1027814Y-851217D01*
G01X-1017497Y-851217D01*
G01X-1017281Y-848237D01*
G01X-1017066Y-845257D01*
G01X-1011117Y-844826D01*
G01X-1011117Y-835205D01*
G01X-1010691Y-834092D01*
G01X-1010265Y-832979D01*
G01X-1004818Y-832107D01*
G01X-1004818Y-687147D01*
G01X-973849Y-687207D01*
G01X-942879Y-687267D01*
G01X-940781Y-687894D01*
G01X-938682Y-688521D01*
G01X-936930Y-690920D01*
G01X-936930Y-815458D01*
G01X-939730Y-818263D01*
G01X-942529Y-818263D01*
G01X-942529Y-860332D01*
G01X-945329Y-863137D01*
G01X-948828Y-863137D01*
G01X-948828Y-874907D01*
G01X-949935Y-875332D01*
G01X-951042Y-875758D01*
G01X-954925Y-875758D01*
G01X-955793Y-885076D01*
G01X-956969Y-886376D01*
G01X-958144Y-887677D01*
G01X-961426Y-887677D01*
G01X-961426Y-892485D01*
G01X-962526Y-893587D01*
G01X-963626Y-894689D01*
G01X-967760Y-894689D01*
G01X-968594Y-898864D01*
G01X-969499Y-899617D01*
G01X-970404Y-900370D01*
G01X-975328Y-900783D01*
G01X-980252Y-901197D01*
G01X-980462Y-904078D01*
G01X-980673Y-906959D01*
G01X-986714Y-907161D01*
G01X-992756Y-907362D01*
G01X-993169Y-909264D01*
G01X-993582Y-911166D01*
G01X-994275Y-912218D01*
G01X-994968Y-913270D01*
G37*
G36*
G01X495954Y-913451D02*
G01X460848Y-913633D01*
G01X459073Y-912957D01*
G01X457299Y-912281D01*
G01X456833Y-909796D01*
G01X456368Y-907310D01*
G01X450224Y-907310D01*
G01X450209Y-903629D01*
G01X450194Y-899948D01*
G01X447935Y-898896D01*
G01X445675Y-897844D01*
G01X445675Y-885925D01*
G01X447935Y-884873D01*
G01X450194Y-883821D01*
G01X450194Y-881016D01*
G01X447935Y-879965D01*
G01X445675Y-878913D01*
G01X445675Y-866993D01*
G01X447867Y-865942D01*
G01X450058Y-864890D01*
G01X450649Y-848478D01*
G01X451945Y-847043D01*
G01X453241Y-845608D01*
G01X459106Y-845608D01*
G01X461423Y-848172D01*
G01X461423Y-851217D01*
G01X468421Y-851217D01*
G01X468421Y-857528D01*
G01X487843Y-857528D01*
G01X488261Y-855599D01*
G01X488680Y-853671D01*
G01X489327Y-852694D01*
G01X489974Y-851717D01*
G01X495295Y-851375D01*
G01X500616Y-851033D01*
G01X500616Y-743239D01*
G01X450224Y-743239D01*
G01X450209Y-739558D01*
G01X450194Y-735877D01*
G01X447935Y-734825D01*
G01X445675Y-733773D01*
G01X445675Y-721854D01*
G01X447935Y-720802D01*
G01X450194Y-719750D01*
G01X450194Y-716946D01*
G01X447935Y-715894D01*
G01X445675Y-714842D01*
G01X445675Y-702922D01*
G01X447919Y-701871D01*
G01X450163Y-700819D01*
G01X450369Y-691003D01*
G01X450575Y-681187D01*
G01X475595Y-681003D01*
G01X500616Y-680818D01*
G01X500616Y-619936D01*
G01X501715Y-618834D01*
G01X502815Y-617732D01*
G01X524178Y-617732D01*
G01X524645Y-618199D01*
G01X525111Y-618667D01*
G01X525111Y-623962D01*
G01X528086Y-624177D01*
G01X531060Y-624393D01*
G01X531254Y-633894D01*
G01X531448Y-643395D01*
G01X533704Y-644061D01*
G01X535959Y-644727D01*
G01X537630Y-649635D01*
G01X537670Y-653666D01*
G01X537709Y-657698D01*
G01X539909Y-657698D01*
G01X540908Y-658699D01*
G01X541908Y-659701D01*
G01X541908Y-661905D01*
G01X544008Y-661905D01*
G01X544008Y-668215D01*
G01X547507Y-668215D01*
G01X550307Y-671020D01*
G01X550307Y-680836D01*
G01X556606Y-680836D01*
G01X556606Y-687147D01*
G01X562905Y-687147D01*
G01X562905Y-693457D01*
G01X569203Y-693457D01*
G01X569203Y-699767D01*
G01X580122Y-699767D01*
G01X581801Y-701450D01*
G01X581801Y-706078D01*
G01X588100Y-706078D01*
G01X588100Y-708181D01*
G01X590300Y-708181D01*
G01X592299Y-710185D01*
G01X592299Y-712388D01*
G01X594426Y-712388D01*
G01X594049Y-742888D01*
G01X569203Y-743271D01*
G01X569203Y-847711D01*
G01X566404Y-850516D01*
G01X562905Y-850516D01*
G01X562905Y-880385D01*
G01X561225Y-882068D01*
G01X556606Y-882068D01*
G01X556606Y-893006D01*
G01X554926Y-894689D01*
G01X550387Y-894689D01*
G01X550172Y-897669D01*
G01X549957Y-900649D01*
G01X546982Y-900864D01*
G01X544008Y-901080D01*
G01X544008Y-905627D01*
G01X542328Y-907310D01*
G01X531491Y-907310D01*
G01X531275Y-910290D01*
G01X531060Y-913270D01*
G01X495954Y-913451D01*
G37*
G36*
G01X-1219600Y-907310D02*
G01X-1219815Y-910290D01*
G01X-1220030Y-913270D01*
G01X-1294217Y-913270D01*
G01X-1294429Y-910364D01*
G01X-1294640Y-907459D01*
G01X-1310453Y-906956D01*
G01X-1311524Y-906066D01*
G01X-1312595Y-905175D01*
G01X-1313004Y-903129D01*
G01X-1313412Y-901083D01*
G01X-1316413Y-900866D01*
G01X-1319413Y-900649D01*
G01X-1319628Y-897669D01*
G01X-1319843Y-894689D01*
G01X-1326062Y-894689D01*
G01X-1326062Y-888379D01*
G01X-1332361Y-888379D01*
G01X-1332361Y-882068D01*
G01X-1338659Y-882068D01*
G01X-1338659Y-875057D01*
G01X-1341942Y-875057D01*
G01X-1343275Y-873580D01*
G01X-1344608Y-872104D01*
G01X-1344608Y-816219D01*
G01X-1343209Y-815160D01*
G01X-1341809Y-814100D01*
G01X-1338736Y-814056D01*
G01X-1338309Y-807395D01*
G01X-1335335Y-807179D01*
G01X-1332361Y-806964D01*
G01X-1332361Y-800734D01*
G01X-1326062Y-800734D01*
G01X-1326062Y-794424D01*
G01X-1319843Y-794424D01*
G01X-1319628Y-791444D01*
G01X-1319413Y-788464D01*
G01X-1307165Y-788059D01*
G01X-1307165Y-781803D01*
G01X-1300166Y-781803D01*
G01X-1300166Y-777933D01*
G01X-1297017Y-775945D01*
G01X-1289529Y-775630D01*
G01X-1282041Y-775315D01*
G01X-1281830Y-772424D01*
G01X-1281619Y-769532D01*
G01X-1272346Y-769337D01*
G01X-1263073Y-769141D01*
G01X-1263073Y-764554D01*
G01X-1261393Y-762871D01*
G01X-1250475Y-762871D01*
G01X-1250475Y-759366D01*
G01X-1249075Y-757963D01*
G01X-1247675Y-756561D01*
G01X-1237877Y-756561D01*
G01X-1237877Y-743320D01*
G01X-1240852Y-743104D01*
G01X-1243826Y-742888D01*
G01X-1244041Y-739909D01*
G01X-1244257Y-736929D01*
G01X-1282669Y-736929D01*
G01X-1282669Y-743239D01*
G01X-1288968Y-743239D01*
G01X-1288968Y-747346D01*
G01X-1290068Y-748448D01*
G01X-1291168Y-749549D01*
G01X-1295302Y-749549D01*
G01X-1296136Y-753725D01*
G01X-1297207Y-754617D01*
G01X-1298278Y-755509D01*
G01X-1319413Y-755509D01*
G01X-1319626Y-752568D01*
G01X-1319839Y-749626D01*
G01X-1325712Y-749199D01*
G01X-1326138Y-743316D01*
G01X-1329075Y-743102D01*
G01X-1332010Y-742888D01*
G01X-1332224Y-739947D01*
G01X-1332437Y-737006D01*
G01X-1335373Y-736792D01*
G01X-1338309Y-736578D01*
G01X-1338736Y-730695D01*
G01X-1344608Y-730268D01*
G01X-1344804Y-721328D01*
G01X-1345000Y-712388D01*
G01X-1338659Y-712388D01*
G01X-1338659Y-706078D01*
G01X-1332361Y-706078D01*
G01X-1332361Y-699767D01*
G01X-1326062Y-699767D01*
G01X-1326062Y-695140D01*
G01X-1324382Y-693457D01*
G01X-1313544Y-693457D01*
G01X-1313329Y-690477D01*
G01X-1313114Y-687497D01*
G01X-1306990Y-687294D01*
G01X-1300866Y-687092D01*
G01X-1300866Y-683040D01*
G01X-1299766Y-681938D01*
G01X-1298666Y-680836D01*
G01X-1261798Y-680917D01*
G01X-1224930Y-680999D01*
G01X-1223530Y-681343D01*
G01X-1222130Y-681688D01*
G01X-1221340Y-682329D01*
G01X-1220549Y-682971D01*
G01X-1220138Y-685031D01*
G01X-1219726Y-687091D01*
G01X-1213579Y-687294D01*
G01X-1207433Y-687497D01*
G01X-1207222Y-690387D01*
G01X-1207011Y-693277D01*
G01X-1201726Y-693617D01*
G01X-1196441Y-693957D01*
G01X-1195794Y-694934D01*
G01X-1195147Y-695911D01*
G01X-1194728Y-697839D01*
G01X-1194310Y-699767D01*
G01X-1190386Y-699767D01*
G01X-1189286Y-700869D01*
G01X-1188186Y-701971D01*
G01X-1188186Y-706078D01*
G01X-1184087Y-706078D01*
G01X-1182987Y-707180D01*
G01X-1181887Y-708281D01*
G01X-1181887Y-715098D01*
G01X-1180523Y-715532D01*
G01X-1179159Y-715966D01*
G01X-1178726Y-717332D01*
G01X-1178293Y-718698D01*
G01X-1175588Y-718698D01*
G01X-1175588Y-737630D01*
G01X-1170969Y-737630D01*
G01X-1169289Y-739313D01*
G01X-1169289Y-760487D01*
G01X-1170969Y-762170D01*
G01X-1175548Y-762170D01*
G01X-1175743Y-771461D01*
G01X-1175938Y-780751D01*
G01X-1178913Y-780967D01*
G01X-1181887Y-781182D01*
G01X-1181887Y-791539D01*
G01X-1184998Y-793722D01*
G01X-1188186Y-793722D01*
G01X-1188186Y-798350D01*
G01X-1189866Y-800033D01*
G01X-1194329Y-800033D01*
G01X-1195260Y-805004D01*
G01X-1197018Y-805674D01*
G01X-1198775Y-806343D01*
G01X-1207002Y-806343D01*
G01X-1207217Y-809323D01*
G01X-1207433Y-812303D01*
G01X-1213518Y-812505D01*
G01X-1219603Y-812707D01*
G01X-1219816Y-815660D01*
G01X-1220030Y-818613D01*
G01X-1238499Y-819004D01*
G01X-1238713Y-821964D01*
G01X-1238927Y-824924D01*
G01X-1257395Y-825315D01*
G01X-1257609Y-828275D01*
G01X-1257824Y-831234D01*
G01X-1263909Y-831436D01*
G01X-1269994Y-831638D01*
G01X-1270208Y-834591D01*
G01X-1270422Y-837545D01*
G01X-1273396Y-837760D01*
G01X-1276370Y-837976D01*
G01X-1276370Y-842523D01*
G01X-1278050Y-844206D01*
G01X-1282669Y-844206D01*
G01X-1282669Y-851137D01*
G01X-1279695Y-851352D01*
G01X-1276720Y-851568D01*
G01X-1276290Y-857528D01*
G01X-1237958Y-857528D01*
G01X-1237527Y-851568D01*
G01X-1231403Y-851365D01*
G01X-1225279Y-851163D01*
G01X-1225279Y-844907D01*
G01X-1218981Y-844907D01*
G01X-1218981Y-838596D01*
G01X-1212929Y-838596D01*
G01X-1212280Y-835967D01*
G01X-1211632Y-833338D01*
G01X-1209049Y-832698D01*
G01X-1206466Y-832059D01*
G01X-1204150Y-832721D01*
G01X-1201834Y-833384D01*
G01X-1201181Y-836009D01*
G01X-1200528Y-838634D01*
G01X-1198731Y-839063D01*
G01X-1196934Y-839491D01*
G01X-1196144Y-840111D01*
G01X-1195353Y-840731D01*
G01X-1194942Y-842793D01*
G01X-1194530Y-844855D01*
G01X-1192291Y-845436D01*
G01X-1190051Y-846018D01*
G01X-1189543Y-847040D01*
G01X-1189035Y-848062D01*
G01X-1188276Y-849990D01*
G01X-1187516Y-851918D01*
G01X-1184158Y-851918D01*
G01X-1183453Y-852795D01*
G01X-1182749Y-853671D01*
G01X-1182262Y-855950D01*
G01X-1181776Y-858229D01*
G01X-1178605Y-858229D01*
G01X-1177510Y-859456D01*
G01X-1176416Y-860683D01*
G01X-1176177Y-862389D01*
G01X-1175938Y-864094D01*
G01X-1173839Y-864653D01*
G01X-1171741Y-865212D01*
G01X-1169989Y-867612D01*
G01X-1169989Y-878294D01*
G01X-1170865Y-879494D01*
G01X-1171741Y-880694D01*
G01X-1173839Y-881253D01*
G01X-1175938Y-881812D01*
G01X-1176177Y-883518D01*
G01X-1176416Y-885223D01*
G01X-1177474Y-886411D01*
G01X-1178533Y-887598D01*
G01X-1180385Y-887813D01*
G01X-1182237Y-888028D01*
G01X-1182445Y-890159D01*
G01X-1182654Y-892290D01*
G01X-1184058Y-893169D01*
G01X-1185463Y-894048D01*
G01X-1189974Y-894470D01*
G01X-1194485Y-894892D01*
G01X-1194485Y-900999D01*
G01X-1201194Y-900999D01*
G01X-1201864Y-903278D01*
G01X-1202533Y-905557D01*
G01X-1207433Y-907231D01*
G01X-1213516Y-907270D01*
G01X-1219600Y-907310D01*
G37*
G04 Image End*

G04 Text Start*
G36*
G01X987197Y-1622540D02*
G01X987197Y-1623752D01*
G01X986894Y-1639207D01*
G01X986894Y-1653752D01*
G01X949924Y-1653752D01*
G01X949924Y-1690722D01*
G01X948409Y-1691025D01*
G01X932651Y-1691328D01*
G01X918409Y-1691328D01*
G01X918106Y-1689813D01*
G01X917803Y-1671025D01*
G01X917803Y-1653752D01*
G01X880833Y-1653752D01*
G01X880530Y-1652237D01*
G01X880227Y-1636479D01*
G01X880227Y-1622237D01*
G01X917197Y-1622237D01*
G01X917500Y-1620722D01*
G01X917803Y-1601934D01*
G01X917803Y-1584661D01*
G01X949318Y-1584661D01*
G01X949621Y-1586176D01*
G01X949924Y-1604964D01*
G01X949924Y-1622237D01*
G01X968409Y-1622237D01*
G01X987197Y-1622540D01*
G37*
G36*
G01X644242Y-1636742D02*
G01X644242Y-1621288D01*
G01X701818Y-1621288D01*
G01X701818Y-1652197D01*
G01X644242Y-1652197D01*
G01X644242Y-1636742D01*
G37*
G36*
G01X-1911363Y679091D02*
G01X-1857727Y679546D01*
G01X-1817954Y679375D01*
G01X-1804545Y678864D01*
G01X-1804318Y668182D01*
G01X-1804545Y660568D01*
G01X-1805227Y657727D01*
G01X-1825454Y657273D01*
G01X-1844773Y657273D01*
G01X-1844773Y646136D01*
G01X-1845000Y634318D01*
G01X-1845455Y629773D01*
G01X-1845909Y624318D01*
G01X-1846136Y622500D01*
G01X-1846591Y620455D01*
G01X-1847045Y618637D01*
G01X-1847500Y617046D01*
G01X-1848409Y615000D01*
G01X-1849318Y613182D01*
G01X-1850227Y611818D01*
G01X-1851364Y610000D01*
G01X-1852500Y608409D01*
G01X-1855909Y605000D01*
G01X-1857045Y604091D01*
G01X-1860227Y601818D01*
G01X-1861818Y600909D01*
G01X-1863636Y600000D01*
G01X-1865227Y599318D01*
G01X-1866818Y598864D01*
G01X-1869091Y598182D01*
G01X-1871818Y597500D01*
G01X-1874772Y597273D01*
G01X-1877273Y597046D01*
G01X-1879318Y596818D01*
G01X-1881364Y597046D01*
G01X-1884318Y597273D01*
G01X-1887500Y597727D01*
G01X-1890000Y598409D01*
G01X-1892273Y599091D01*
G01X-1894091Y599773D01*
G01X-1895682Y600455D01*
G01X-1899091Y602727D01*
G01X-1900909Y604091D01*
G01X-1903182Y606364D01*
G01X-1905909Y609546D01*
G01X-1906818Y610909D01*
G01X-1907500Y612273D01*
G01X-1908409Y613864D01*
G01X-1909318Y615909D01*
G01X-1910000Y617955D01*
G01X-1910909Y621591D01*
G01X-1911136Y624318D01*
G01X-1911363Y626591D01*
G01X-1911818Y628864D01*
G01X-1912045Y654546D01*
G01X-1912020Y657273D01*
G01X-1893409Y657273D01*
G01X-1893409Y645000D01*
G01X-1893182Y632045D01*
G01X-1892727Y630227D01*
G01X-1892045Y628182D01*
G01X-1891364Y626591D01*
G01X-1890682Y625455D01*
G01X-1889773Y624318D01*
G01X-1888636Y623182D01*
G01X-1887500Y622273D01*
G01X-1885909Y621136D01*
G01X-1883182Y620227D01*
G01X-1880454Y619773D01*
G01X-1877500Y619546D01*
G01X-1875000Y619773D01*
G01X-1873182Y620227D01*
G01X-1871136Y621136D01*
G01X-1869545Y622273D01*
G01X-1867954Y623864D01*
G01X-1866591Y625455D01*
G01X-1865909Y626591D01*
G01X-1865227Y628182D01*
G01X-1864772Y630000D01*
G01X-1864545Y631591D01*
G01X-1864545Y631591D01*
G01X-1863636Y637045D01*
G01X-1863409Y647273D01*
G01X-1863636Y657045D01*
G01X-1878636Y657273D01*
G01X-1893409Y657273D01*
G01X-1912020Y657273D01*
G01X-1911875Y672727D01*
G01X-1911363Y679091D01*
G37*
G36*
G01X-1912045Y879091D02*
G01X-1910909Y879318D01*
G01X-1857273Y879545D01*
G01X-1804545Y879091D01*
G01X-1804318Y838636D01*
G01X-1804488Y808466D01*
G01X-1805000Y797954D01*
G01X-1807500Y797443D01*
G01X-1813636Y797273D01*
G01X-1819716Y797443D01*
G01X-1822045Y797954D01*
G01X-1822500Y827955D01*
G01X-1822500Y857273D01*
G01X-1823636Y857500D01*
G01X-1838182Y857727D01*
G01X-1851591Y857727D01*
G01X-1851591Y804091D01*
G01X-1852727Y803864D01*
G01X-1861818Y803636D01*
G01X-1869772Y803636D01*
G01X-1870000Y804773D01*
G01X-1870227Y831591D01*
G01X-1870227Y857273D01*
G01X-1871364Y857500D01*
G01X-1882727Y857727D01*
G01X-1892954Y857727D01*
G01X-1893182Y856591D01*
G01X-1893409Y827727D01*
G01X-1893409Y800000D01*
G01X-1894545Y799773D01*
G01X-1903636Y799546D01*
G01X-1911591Y799546D01*
G01X-1911818Y800682D01*
G01X-1912045Y840455D01*
G01X-1912045Y879091D01*
G37*
G36*
G01X-1807727Y787954D02*
G01X-1806136Y789091D01*
G01X-1805227Y789546D01*
G01X-1804545Y789318D01*
G01X-1804318Y777045D01*
G01X-1804545Y767784D01*
G01X-1805227Y764091D01*
G01X-1807272Y762500D01*
G01X-1809091Y761364D01*
G01X-1810682Y760227D01*
G01X-1814318Y757955D01*
G01X-1816363Y756591D01*
G01X-1818636Y755227D01*
G01X-1822727Y752500D01*
G01X-1825000Y751136D01*
G01X-1827045Y749773D01*
G01X-1828863Y748636D01*
G01X-1832954Y745909D01*
G01X-1834545Y745000D01*
G01X-1836364Y743864D01*
G01X-1838409Y742500D01*
G01X-1840000Y741364D01*
G01X-1840909Y740227D01*
G01X-1840852Y739659D01*
G01X-1840227Y739318D01*
G01X-1838863Y738636D01*
G01X-1834773Y735909D01*
G01X-1832954Y734773D01*
G01X-1830909Y733409D01*
G01X-1828636Y732046D01*
G01X-1826818Y730909D01*
G01X-1824091Y729091D01*
G01X-1822273Y727955D01*
G01X-1818182Y725227D01*
G01X-1815909Y723864D01*
G01X-1814091Y722727D01*
G01X-1812727Y721818D01*
G01X-1810909Y720682D01*
G01X-1808864Y719318D01*
G01X-1807045Y718182D01*
G01X-1805454Y717046D01*
G01X-1804545Y715227D01*
G01X-1804318Y702727D01*
G01X-1804773Y691137D01*
G01X-1806136Y691364D01*
G01X-1810227Y694091D01*
G01X-1812045Y695227D01*
G01X-1814091Y696591D01*
G01X-1815682Y697727D01*
G01X-1817045Y698636D01*
G01X-1818864Y699773D01*
G01X-1825000Y703864D01*
G01X-1826591Y705000D01*
G01X-1827954Y705909D01*
G01X-1829773Y707046D01*
G01X-1856364Y724773D01*
G01X-1859318Y725909D01*
G01X-1860909Y726080D01*
G01X-1862045Y725682D01*
G01X-1864091Y724318D01*
G01X-1865909Y723182D01*
G01X-1868636Y721364D01*
G01X-1874091Y717955D01*
G01X-1876136Y716591D01*
G01X-1879772Y714318D01*
G01X-1881818Y712955D01*
G01X-1885454Y710682D01*
G01X-1887500Y709318D01*
G01X-1891136Y707046D01*
G01X-1893182Y705682D01*
G01X-1895454Y704318D01*
G01X-1899545Y701591D01*
G01X-1901818Y700227D01*
G01X-1905909Y697500D01*
G01X-1909545Y695227D01*
G01X-1911136Y694091D01*
G01X-1911534Y694034D01*
G01X-1911818Y694773D01*
G01X-1912045Y707273D01*
G01X-1912045Y718636D01*
G01X-1908636Y720682D01*
G01X-1905000Y722955D01*
G01X-1900454Y725682D01*
G01X-1893182Y730227D01*
G01X-1884091Y735682D01*
G01X-1882273Y736818D01*
G01X-1880909Y737727D01*
G01X-1879318Y738864D01*
G01X-1878693Y739545D01*
G01X-1878636Y740227D01*
G01X-1880000Y741364D01*
G01X-1881591Y742273D01*
G01X-1885682Y745000D01*
G01X-1887273Y745909D01*
G01X-1890909Y748182D01*
G01X-1892273Y749091D01*
G01X-1897727Y752500D01*
G01X-1900000Y753864D01*
G01X-1901818Y755000D01*
G01X-1903182Y755909D01*
G01X-1905000Y757045D01*
G01X-1907273Y758409D01*
G01X-1909091Y759546D01*
G01X-1910454Y760455D01*
G01X-1911591Y761364D01*
G01X-1912045Y774091D01*
G01X-1912045Y786364D01*
G01X-1911136Y786136D01*
G01X-1909091Y785000D01*
G01X-1907045Y783636D01*
G01X-1905227Y782500D01*
G01X-1899091Y778409D01*
G01X-1896818Y777045D01*
G01X-1892727Y774318D01*
G01X-1890454Y772955D01*
G01X-1886364Y770227D01*
G01X-1884545Y769091D01*
G01X-1883182Y768182D01*
G01X-1881364Y767045D01*
G01X-1877273Y764318D01*
G01X-1875000Y762955D01*
G01X-1872954Y761591D01*
G01X-1871136Y760455D01*
G01X-1867045Y757727D01*
G01X-1865227Y756591D01*
G01X-1863182Y755227D01*
G01X-1861136Y754091D01*
G01X-1860227Y753921D01*
G01X-1859318Y754318D01*
G01X-1855682Y756591D01*
G01X-1853636Y757955D01*
G01X-1851818Y759091D01*
G01X-1850455Y760000D01*
G01X-1848863Y761136D01*
G01X-1847045Y762273D01*
G01X-1844318Y764091D01*
G01X-1842500Y765227D01*
G01X-1840454Y766591D01*
G01X-1838636Y767727D01*
G01X-1835909Y769546D01*
G01X-1834091Y770682D01*
G01X-1832500Y771818D01*
G01X-1831136Y772727D01*
G01X-1829318Y773864D01*
G01X-1827273Y775227D01*
G01X-1825454Y776364D01*
G01X-1822727Y778182D01*
G01X-1820909Y779318D01*
G01X-1819318Y780455D01*
G01X-1817954Y781364D01*
G01X-1816136Y782500D01*
G01X-1814091Y783864D01*
G01X-1812272Y785000D01*
G01X-1809545Y786818D01*
G01X-1807727Y787954D01*
G37*
G36*
G01X-52045Y-1902915D02*
G01X-51818Y-1904051D01*
G01X-51591Y-1957687D01*
G01X-52045Y-2010415D01*
G01X-80454Y-2010642D01*
G01X-109091Y-2010415D01*
G01X-117273Y-2009506D01*
G01X-120454Y-2008596D01*
G01X-122500Y-2007914D01*
G01X-124773Y-2007005D01*
G01X-126818Y-2005869D01*
G01X-129091Y-2004506D01*
G01X-130682Y-2003142D01*
G01X-134091Y-1999733D01*
G01X-135000Y-1998596D01*
G01X-135682Y-1997460D01*
G01X-136591Y-1996096D01*
G01X-137500Y-1994506D01*
G01X-138409Y-1992687D01*
G01X-139318Y-1990642D01*
G01X-140227Y-1988142D01*
G01X-140909Y-1984960D01*
G01X-141363Y-1982687D01*
G01X-141555Y-1979051D01*
G01X-118864Y-1979051D01*
G01X-118409Y-1983369D01*
G01X-117500Y-1985415D01*
G01X-116363Y-1987005D01*
G01X-115227Y-1988142D01*
G01X-113636Y-1989506D01*
G01X-111136Y-1990642D01*
G01X-108863Y-1991324D01*
G01X-107273Y-1991778D01*
G01X-107273Y-1991778D01*
G01X-100000Y-1992233D01*
G01X-86818Y-1992460D01*
G01X-74091Y-1992233D01*
G01X-73636Y-1991324D01*
G01X-73409Y-1977233D01*
G01X-73409Y-1963824D01*
G01X-86591Y-1963824D01*
G01X-100454Y-1964051D01*
G01X-103636Y-1964051D01*
G01X-105909Y-1964505D01*
G01X-108409Y-1964733D01*
G01X-110227Y-1965187D01*
G01X-112273Y-1966096D01*
G01X-114545Y-1967460D01*
G01X-116136Y-1969051D01*
G01X-117045Y-1970415D01*
G01X-117954Y-1972233D01*
G01X-118636Y-1974506D01*
G01X-118864Y-1979051D01*
G01X-141555Y-1979051D01*
G01X-141591Y-1978369D01*
G01X-141136Y-1973824D01*
G01X-140227Y-1970187D01*
G01X-139318Y-1968142D01*
G01X-138182Y-1965869D01*
G01X-136818Y-1963824D01*
G01X-135682Y-1962233D01*
G01X-133409Y-1959960D01*
G01X-131136Y-1958142D01*
G01X-129773Y-1957233D01*
G01X-128409Y-1956551D01*
G01X-126818Y-1955642D01*
G01X-124773Y-1954733D01*
G01X-123182Y-1954051D01*
G01X-122727Y-1953710D01*
G01X-122727Y-1953142D01*
G01X-123864Y-1952005D01*
G01X-125227Y-1951096D01*
G01X-126818Y-1949960D01*
G01X-128409Y-1948596D01*
G01X-129545Y-1947460D01*
G01X-131363Y-1945187D01*
G01X-132273Y-1943824D01*
G01X-132955Y-1942460D01*
G01X-133636Y-1941324D01*
G01X-134318Y-1939733D01*
G01X-135227Y-1937233D01*
G01X-135909Y-1934505D01*
G01X-135966Y-1933142D01*
G01X-114773Y-1933142D01*
G01X-114545Y-1937687D01*
G01X-113636Y-1939505D01*
G01X-112273Y-1941096D01*
G01X-111136Y-1942233D01*
G01X-109773Y-1943142D01*
G01X-108182Y-1943824D01*
G01X-105909Y-1944505D01*
G01X-103636Y-1944960D01*
G01X-103636Y-1944960D01*
G01X-100909Y-1945414D01*
G01X-86364Y-1945642D01*
G01X-73636Y-1945414D01*
G01X-73409Y-1933142D01*
G01X-73409Y-1921096D01*
G01X-88182Y-1921096D01*
G01X-103636Y-1921324D01*
G01X-105682Y-1921551D01*
G01X-108182Y-1922233D01*
G01X-110227Y-1923142D01*
G01X-111591Y-1924051D01*
G01X-112500Y-1925187D01*
G01X-113409Y-1926551D01*
G01X-114318Y-1928369D01*
G01X-114773Y-1933142D01*
G01X-135966Y-1933142D01*
G01X-136136Y-1929051D01*
G01X-135682Y-1923824D01*
G01X-135000Y-1921778D01*
G01X-134318Y-1919960D01*
G01X-133409Y-1918142D01*
G01X-132500Y-1916551D01*
G01X-131591Y-1915415D01*
G01X-130227Y-1913596D01*
G01X-126591Y-1909960D01*
G01X-125454Y-1909051D01*
G01X-124318Y-1908369D01*
G01X-122727Y-1907233D01*
G01X-120909Y-1906324D01*
G01X-119318Y-1905642D01*
G01X-117273Y-1904960D01*
G01X-115454Y-1904505D01*
G01X-113182Y-1904051D01*
G01X-110227Y-1903824D01*
G01X-108182Y-1903596D01*
G01X-105000Y-1903142D01*
G01X-78182Y-1902915D01*
G01X-52045Y-1902915D01*
G37*
G36*
G01X130227Y-2010642D02*
G01X127955Y-2011096D01*
G01X123182Y-2011778D01*
G01X121364Y-2012233D01*
G01X113409Y-2012460D01*
G01X105909Y-2012233D01*
G01X101818Y-2011778D01*
G01X99318Y-2011324D01*
G01X96591Y-2010642D01*
G01X94318Y-2009960D01*
G01X92273Y-2009278D01*
G01X88636Y-2007460D01*
G01X85000Y-2005187D01*
G01X83182Y-2003824D01*
G01X80455Y-2001096D01*
G01X79091Y-1999506D01*
G01X77955Y-1997914D01*
G01X77046Y-1996551D01*
G01X76137Y-1994960D01*
G01X75227Y-1993142D01*
G01X74318Y-1990869D01*
G01X73636Y-1988596D01*
G01X72955Y-1986096D01*
G01X72500Y-1983596D01*
G01X72273Y-1981778D01*
G01X71818Y-1976324D01*
G01X71364Y-1972233D01*
G01X71137Y-1937687D01*
G01X71307Y-1912176D01*
G01X71818Y-1903369D01*
G01X82727Y-1902915D01*
G01X92955Y-1902915D01*
G01X92955Y-1936324D01*
G01X93182Y-1970415D01*
G01X93636Y-1978596D01*
G01X94091Y-1980415D01*
G01X94545Y-1982914D01*
G01X95227Y-1984733D01*
G01X96591Y-1987005D01*
G01X97500Y-1988142D01*
G01X99091Y-1989506D01*
G01X100682Y-1990642D01*
G01X102500Y-1991551D01*
G01X104546Y-1992460D01*
G01X106364Y-1992914D01*
G01X108182Y-1993142D01*
G01X113637Y-1993369D01*
G01X119091Y-1993142D01*
G01X120682Y-1992914D01*
G01X122500Y-1992460D01*
G01X124773Y-1991551D01*
G01X126591Y-1990642D01*
G01X127727Y-1989733D01*
G01X130000Y-1987460D01*
G01X131364Y-1985869D01*
G01X132500Y-1984051D01*
G01X133409Y-1982005D01*
G01X134318Y-1979051D01*
G01X134773Y-1975187D01*
G01X135000Y-1972233D01*
G01X135227Y-1937460D01*
G01X135227Y-1903369D01*
G01X136364Y-1903142D01*
G01X147045Y-1902915D01*
G01X156591Y-1902915D01*
G01X156818Y-1904051D01*
G01X157045Y-1939278D01*
G01X156818Y-1974051D01*
G01X156364Y-1977687D01*
G01X155909Y-1982233D01*
G01X155682Y-1984051D01*
G01X155227Y-1986096D01*
G01X154546Y-1988596D01*
G01X153864Y-1990869D01*
G01X153182Y-1992460D01*
G01X152500Y-1993824D01*
G01X150682Y-1997005D01*
G01X149773Y-1998142D01*
G01X148409Y-1999960D01*
G01X145682Y-2002687D01*
G01X144318Y-2003824D01*
G01X142500Y-2004960D01*
G01X140909Y-2006096D01*
G01X139546Y-2007005D01*
G01X137727Y-2007914D01*
G01X135682Y-2008824D01*
G01X133182Y-2009733D01*
G01X130227Y-2010642D01*
G37*
G36*
G01X23636Y-2010869D02*
G01X20682Y-2011324D01*
G01X18182Y-2011778D01*
G01X16364Y-2012233D01*
G01X10682Y-2012460D01*
G01X5455Y-2012233D01*
G01X-909Y-2011778D01*
G01X-3409Y-2011324D01*
G01X-7955Y-2010187D01*
G01X-9545Y-2009960D01*
G01X-11363Y-2009278D01*
G01X-13864Y-2008369D01*
G01X-15909Y-2007460D01*
G01X-17500Y-2006551D01*
G01X-19545Y-2005187D01*
G01X-23182Y-2002460D01*
G01X-24773Y-2000869D01*
G01X-27500Y-1997233D01*
G01X-28409Y-1995869D01*
G01X-29545Y-1994051D01*
G01X-30682Y-1991778D01*
G01X-31591Y-1989278D01*
G01X-32273Y-1987233D01*
G01X-33182Y-1982687D01*
G01X-33409Y-1978142D01*
G01X-33182Y-1973596D01*
G01X-32727Y-1971778D01*
G01X-32273Y-1969505D01*
G01X-31591Y-1967460D01*
G01X-30909Y-1965642D01*
G01X-30227Y-1964051D01*
G01X-29318Y-1962460D01*
G01X-28182Y-1960642D01*
G01X-27045Y-1959051D01*
G01X-23636Y-1955642D01*
G01X-21363Y-1953824D01*
G01X-20000Y-1952915D01*
G01X-18182Y-1951778D01*
G01X-14091Y-1949733D01*
G01X-12045Y-1948824D01*
G01X-9773Y-1947915D01*
G01X-7727Y-1947233D01*
G01X-5909Y-1946778D01*
G01X-3864Y-1946096D01*
G01X-909Y-1945187D01*
G01X3637Y-1944051D01*
G01X5682Y-1943596D01*
G01X7955Y-1942915D01*
G01X15455Y-1940869D01*
G01X17727Y-1940187D01*
G01X21364Y-1938824D01*
G01X22955Y-1938142D01*
G01X24318Y-1937460D01*
G01X25682Y-1936551D01*
G01X27046Y-1935414D01*
G01X27955Y-1934051D01*
G01X28864Y-1932233D01*
G01X29318Y-1929278D01*
G01X28636Y-1926324D01*
G01X27500Y-1924505D01*
G01X25909Y-1923142D01*
G01X23636Y-1922006D01*
G01X21591Y-1921096D01*
G01X19546Y-1920414D01*
G01X17727Y-1919960D01*
G01X15000Y-1919505D01*
G01X9773Y-1919278D01*
G01X5909Y-1919505D01*
G01X4318Y-1919733D01*
G01X2727Y-1920187D01*
G01X909Y-1920869D01*
G01X-682Y-1921551D01*
G01X-2045Y-1922460D01*
G01X-3409Y-1923596D01*
G01X-4545Y-1924733D01*
G01X-5454Y-1926096D01*
G01X-6136Y-1927460D01*
G01X-6818Y-1929051D01*
G01X-7500Y-1930869D01*
G01X-7955Y-1932460D01*
G01X-8636Y-1934051D01*
G01X-9602Y-1934562D01*
G01X-11136Y-1934733D01*
G01X-13636Y-1934505D01*
G01X-26818Y-1934051D01*
G01X-28864Y-1933824D01*
G01X-30227Y-1933824D01*
G01X-30227Y-1932006D01*
G01X-30000Y-1929505D01*
G01X-29773Y-1927687D01*
G01X-29318Y-1925869D01*
G01X-27954Y-1921778D01*
G01X-27273Y-1920187D01*
G01X-26591Y-1918824D01*
G01X-24318Y-1915415D01*
G01X-22954Y-1913596D01*
G01X-19545Y-1910187D01*
G01X-17727Y-1908824D01*
G01X-15454Y-1907233D01*
G01X-13409Y-1906096D01*
G01X-9318Y-1904278D01*
G01X-7273Y-1903596D01*
G01X-5454Y-1903142D01*
G01X-2273Y-1902233D01*
G01X1364Y-1901778D01*
G01X7273Y-1901324D01*
G01X12045Y-1901096D01*
G01X16818Y-1901324D01*
G01X20909Y-1901778D01*
G01X22727Y-1902006D01*
G01X24546Y-1902460D01*
G01X26136Y-1902915D01*
G01X27727Y-1903142D01*
G01X29546Y-1903824D01*
G01X33636Y-1905642D01*
G01X35682Y-1906778D01*
G01X37727Y-1908142D01*
G01X40000Y-1909733D01*
G01X42727Y-1912460D01*
G01X44091Y-1914051D01*
G01X45227Y-1915642D01*
G01X46137Y-1917006D01*
G01X47046Y-1918596D01*
G01X47727Y-1920187D01*
G01X48409Y-1922006D01*
G01X49091Y-1924051D01*
G01X49545Y-1925869D01*
G01X50000Y-1929960D01*
G01X50227Y-1932233D01*
G01X50000Y-1934505D01*
G01X49773Y-1936324D01*
G01X49318Y-1938369D01*
G01X48636Y-1940642D01*
G01X47955Y-1942687D01*
G01X46137Y-1945869D01*
G01X45227Y-1947233D01*
G01X43864Y-1949051D01*
G01X40000Y-1952915D01*
G01X38864Y-1953824D01*
G01X36136Y-1955642D01*
G01X34546Y-1956551D01*
G01X30909Y-1958369D01*
G01X28636Y-1959278D01*
G01X26136Y-1960187D01*
G01X23864Y-1961096D01*
G01X21818Y-1961778D01*
G01X20000Y-1962233D01*
G01X17955Y-1962687D01*
G01X15909Y-1963369D01*
G01X14318Y-1963824D01*
G01X12727Y-1964051D01*
G01X10682Y-1964733D01*
G01X7955Y-1965415D01*
G01X5682Y-1966096D01*
G01X2045Y-1967005D01*
G01X-2500Y-1968369D01*
G01X-4545Y-1969278D01*
G01X-6591Y-1970415D01*
G01X-8182Y-1971551D01*
G01X-9318Y-1972687D01*
G01X-10227Y-1974051D01*
G01X-10909Y-1976324D01*
G01X-11136Y-1980415D01*
G01X-10682Y-1983824D01*
G01X-9773Y-1985642D01*
G01X-8636Y-1987005D01*
G01X-6363Y-1989278D01*
G01X-4773Y-1990415D01*
G01X-2727Y-1991551D01*
G01X-454Y-1992233D01*
G01X2045Y-1992914D01*
G01X4318Y-1993369D01*
G01X5909Y-1993596D01*
G01X10000Y-1993824D01*
G01X14091Y-1993596D01*
G01X18182Y-1992687D01*
G01X20227Y-1992005D01*
G01X22500Y-1990869D01*
G01X24546Y-1989506D01*
G01X26136Y-1988142D01*
G01X27273Y-1987005D01*
G01X28182Y-1985642D01*
G01X28864Y-1984278D01*
G01X29773Y-1982687D01*
G01X30682Y-1980642D01*
G01X31364Y-1978824D01*
G01X31818Y-1977233D01*
G01X32273Y-1975187D01*
G01X32727Y-1974108D01*
G01X33636Y-1973596D01*
G01X35682Y-1973369D01*
G01X37273Y-1973596D01*
G01X41818Y-1974051D01*
G01X45455Y-1974506D01*
G01X51364Y-1974960D01*
G01X52955Y-1975415D01*
G01X53636Y-1975926D01*
G01X53864Y-1977005D01*
G01X53636Y-1979051D01*
G01X52727Y-1983142D01*
G01X52273Y-1984733D01*
G01X50227Y-1990187D01*
G01X49318Y-1992233D01*
G01X48182Y-1994278D01*
G01X46818Y-1996324D01*
G01X45682Y-1997914D01*
G01X44773Y-1999051D01*
G01X41364Y-2002460D01*
G01X39546Y-2003824D01*
G01X37273Y-2005415D01*
G01X35455Y-2006551D01*
G01X31818Y-2008369D01*
G01X30227Y-2009051D01*
G01X28636Y-2009506D01*
G01X26364Y-2010187D01*
G01X23636Y-2010869D01*
G37*
G36*
G01X229467Y-1749161D02*
G01X229640Y-1751586D01*
G01X229467Y-1754357D01*
G01X229120Y-1758513D01*
G01X228774Y-1760591D01*
G01X228254Y-1763016D01*
G01X227735Y-1765267D01*
G01X227215Y-1767172D01*
G01X226176Y-1770289D01*
G01X224618Y-1774446D01*
G01X224098Y-1775658D01*
G01X223578Y-1776697D01*
G01X223059Y-1777909D01*
G01X221673Y-1780334D01*
G01X220808Y-1781719D01*
G01X219942Y-1782932D01*
G01X219249Y-1783971D01*
G01X217517Y-1786049D01*
G01X213144Y-1786568D01*
G01X200718Y-1786742D01*
G01X184266Y-1786742D01*
G01X184266Y-1751413D01*
G01X185132Y-1751239D01*
G01X191886Y-1751066D01*
G01X197774Y-1751066D01*
G01X198121Y-1751932D01*
G01X198467Y-1760938D01*
G01X198294Y-1769597D01*
G01X199463Y-1769986D01*
G01X203316Y-1770116D01*
G01X208512Y-1770116D01*
G01X208858Y-1769250D01*
G01X209551Y-1768038D01*
G01X210243Y-1767172D01*
G01X210936Y-1765960D01*
G01X211629Y-1764401D01*
G01X213014Y-1761630D01*
G01X213707Y-1759898D01*
G01X214227Y-1757820D01*
G01X214746Y-1755915D01*
G01X215093Y-1754010D01*
G01X215266Y-1752278D01*
G01X215439Y-1750200D01*
G01X215266Y-1748122D01*
G01X215093Y-1746737D01*
G01X214746Y-1745178D01*
G01X214053Y-1742407D01*
G01X213361Y-1740848D01*
G01X212495Y-1739117D01*
G01X211629Y-1737731D01*
G01X210590Y-1736346D01*
G01X208512Y-1734268D01*
G01X207299Y-1733228D01*
G01X206087Y-1732363D01*
G01X205048Y-1731670D01*
G01X203489Y-1730804D01*
G01X201758Y-1730111D01*
G01X200372Y-1729592D01*
G01X198813Y-1729072D01*
G01X197082Y-1728553D01*
G01X195523Y-1728206D01*
G01X194138Y-1728033D01*
G01X190328Y-1727687D01*
G01X185825Y-1727513D01*
G01X181322Y-1727687D01*
G01X177858Y-1728033D01*
G01X173702Y-1729072D01*
G01X172317Y-1729592D01*
G01X169546Y-1730977D01*
G01X168160Y-1731843D01*
G01X166948Y-1732709D01*
G01X166082Y-1733402D01*
G01X165216Y-1734268D01*
G01X163831Y-1735999D01*
G01X163138Y-1737038D01*
G01X162272Y-1738424D01*
G01X161406Y-1740156D01*
G01X160713Y-1741714D01*
G01X160021Y-1743446D01*
G01X159674Y-1745351D01*
G01X159501Y-1746737D01*
G01X159328Y-1748468D01*
G01X159155Y-1750027D01*
G01X159155Y-1750893D01*
G01X159501Y-1755396D01*
G01X159848Y-1757128D01*
G01X160367Y-1758859D01*
G01X161406Y-1761284D01*
G01X162099Y-1762323D01*
G01X163484Y-1764055D01*
G01X164350Y-1764921D01*
G01X166082Y-1766306D01*
G01X167121Y-1766999D01*
G01X168333Y-1767692D01*
G01X169892Y-1768384D01*
G01X171278Y-1769077D01*
G01X171667Y-1769640D01*
G01X171797Y-1770636D01*
G01X171451Y-1772541D01*
G01X171104Y-1774273D01*
G01X170931Y-1775831D01*
G01X170238Y-1779295D01*
G01X169546Y-1783451D01*
G01X169026Y-1784837D01*
G01X168463Y-1785443D01*
G01X167468Y-1785529D01*
G01X165736Y-1785010D01*
G01X164350Y-1784490D01*
G01X163138Y-1783971D01*
G01X162099Y-1783451D01*
G01X160887Y-1782932D01*
G01X159501Y-1782066D01*
G01X157769Y-1781027D01*
G01X156557Y-1780161D01*
G01X155691Y-1779468D01*
G01X153093Y-1776870D01*
G01X152054Y-1775485D01*
G01X150842Y-1773926D01*
G01X149803Y-1772368D01*
G01X148764Y-1770636D01*
G01X148071Y-1769077D01*
G01X147032Y-1766306D01*
G01X146686Y-1765094D01*
G01X146339Y-1763708D01*
G01X145993Y-1762150D01*
G01X145647Y-1760938D01*
G01X145300Y-1757820D01*
G01X144954Y-1752278D01*
G01X144781Y-1750373D01*
G01X144954Y-1748468D01*
G01X145300Y-1743619D01*
G01X145473Y-1742061D01*
G01X145820Y-1740329D01*
G01X146339Y-1738251D01*
G01X146859Y-1736346D01*
G01X147898Y-1733575D01*
G01X148418Y-1732363D01*
G01X148937Y-1731323D01*
G01X149457Y-1730458D01*
G01X150149Y-1729245D01*
G01X151015Y-1727687D01*
G01X151881Y-1726474D01*
G01X155345Y-1722318D01*
G01X156211Y-1721452D01*
G01X158289Y-1719720D01*
G01X159501Y-1718681D01*
G01X163658Y-1716083D01*
G01X164870Y-1715391D01*
G01X169546Y-1713313D01*
G01X171624Y-1712620D01*
G01X173875Y-1711927D01*
G01X176473Y-1711408D01*
G01X178551Y-1711061D01*
G01X179937Y-1710715D01*
G01X182881Y-1710542D01*
G01X185478Y-1710368D01*
G01X187557Y-1710195D01*
G01X189635Y-1710368D01*
G01X194830Y-1710715D01*
G01X196216Y-1711061D01*
G01X198294Y-1711408D01*
G01X202104Y-1712447D01*
G01X203836Y-1712966D01*
G01X205394Y-1713659D01*
G01X207126Y-1714352D01*
G01X208685Y-1715044D01*
G01X210243Y-1715910D01*
G01X211629Y-1716776D01*
G01X212841Y-1717469D01*
G01X213880Y-1718162D01*
G01X215266Y-1719201D01*
G01X216478Y-1720240D01*
G01X217344Y-1720933D01*
G01X219076Y-1722664D01*
G01X220461Y-1724396D01*
G01X221500Y-1725608D01*
G01X222366Y-1726994D01*
G01X223059Y-1728033D01*
G01X223925Y-1729418D01*
G01X226003Y-1733575D01*
G01X226523Y-1734787D01*
G01X227042Y-1736346D01*
G01X227388Y-1737731D01*
G01X227908Y-1739463D01*
G01X228428Y-1741888D01*
G01X228774Y-1743966D01*
G01X229120Y-1745698D01*
G01X229293Y-1747776D01*
G01X229467Y-1749161D01*
G37*
G36*
G01X-145496Y-1742102D02*
G01X-145323Y-1745912D01*
G01X-145496Y-1749548D01*
G01X-145842Y-1750934D01*
G01X-146188Y-1753012D01*
G01X-146708Y-1754744D01*
G01X-147228Y-1756303D01*
G01X-147747Y-1757688D01*
G01X-148440Y-1758900D01*
G01X-149306Y-1760459D01*
G01X-150172Y-1761671D01*
G01X-151211Y-1763057D01*
G01X-154155Y-1766001D01*
G01X-155540Y-1767040D01*
G01X-157099Y-1768252D01*
G01X-158484Y-1769118D01*
G01X-159697Y-1769811D01*
G01X-161082Y-1770503D01*
G01X-164199Y-1771889D01*
G01X-166104Y-1772408D01*
G01X-167663Y-1772755D01*
G01X-169048Y-1773101D01*
G01X-170780Y-1773274D01*
G01X-172166Y-1773448D01*
G01X-173378Y-1773621D01*
G01X-174417Y-1773794D01*
G01X-175283Y-1773794D01*
G01X-178400Y-1773448D01*
G01X-181171Y-1773101D01*
G01X-182557Y-1772755D01*
G01X-184115Y-1772235D01*
G01X-186886Y-1771196D01*
G01X-190003Y-1769464D01*
G01X-191562Y-1768425D01*
G01X-192948Y-1767386D01*
G01X-194679Y-1765654D01*
G01X-196758Y-1763230D01*
G01X-197450Y-1762364D01*
G01X-198143Y-1761152D01*
G01X-199009Y-1759593D01*
G01X-199702Y-1758208D01*
G01X-200741Y-1755437D01*
G01X-201087Y-1753878D01*
G01X-201260Y-1752319D01*
G01X-201607Y-1750588D01*
G01X-201780Y-1747817D01*
G01X-201607Y-1745738D01*
G01X-201260Y-1744353D01*
G01X-200914Y-1742794D01*
G01X-199875Y-1740023D01*
G01X-199528Y-1738811D01*
G01X-199702Y-1738422D01*
G01X-200568Y-1738292D01*
G01X-202299Y-1738465D01*
G01X-203685Y-1738811D01*
G01X-205763Y-1739158D01*
G01X-208014Y-1739504D01*
G01X-209573Y-1739850D01*
G01X-211478Y-1740197D01*
G01X-212863Y-1740370D01*
G01X-212863Y-1769811D01*
G01X-213729Y-1769984D01*
G01X-220830Y-1770157D01*
G01X-225592Y-1769984D01*
G01X-227411Y-1769464D01*
G01X-227757Y-1748856D01*
G01X-227627Y-1733832D01*
G01X-227238Y-1728593D01*
G01X-225852Y-1728247D01*
G01X-224467Y-1728074D01*
G01X-223081Y-1727728D01*
G01X-221349Y-1727381D01*
G01X-219271Y-1727035D01*
G01X-216847Y-1726515D01*
G01X-214942Y-1726169D01*
G01X-213729Y-1725996D01*
G01X-210612Y-1725303D01*
G01X-208534Y-1724957D01*
G01X-204204Y-1724091D01*
G01X-202992Y-1723918D01*
G01X-199528Y-1723225D01*
G01X-195372Y-1722532D01*
G01X-193987Y-1722186D01*
G01X-192255Y-1721839D01*
G01X-190177Y-1721493D01*
G01X-186713Y-1720800D01*
G01X-185154Y-1720973D01*
G01X-184808Y-1722013D01*
G01X-184635Y-1723225D01*
G01X-184288Y-1725996D01*
G01X-183942Y-1727381D01*
G01X-183769Y-1728940D01*
G01X-183596Y-1730152D01*
G01X-183423Y-1731538D01*
G01X-183249Y-1732750D01*
G01X-183769Y-1733962D01*
G01X-184981Y-1735174D01*
G01X-185847Y-1736213D01*
G01X-186886Y-1737772D01*
G01X-187752Y-1739504D01*
G01X-188272Y-1741063D01*
G01X-188618Y-1742448D01*
G01X-188791Y-1743660D01*
G01X-188964Y-1746085D01*
G01X-188791Y-1748509D01*
G01X-188272Y-1749895D01*
G01X-187406Y-1751627D01*
G01X-186193Y-1753358D01*
G01X-184808Y-1754571D01*
G01X-183596Y-1755263D01*
G01X-182210Y-1755956D01*
G01X-180132Y-1756649D01*
G01X-177534Y-1756995D01*
G01X-175629Y-1757168D01*
G01X-173378Y-1757342D01*
G01X-171127Y-1757168D01*
G01X-167663Y-1756822D01*
G01X-166451Y-1756476D01*
G01X-165238Y-1755956D01*
G01X-164199Y-1755437D01*
G01X-162987Y-1754744D01*
G01X-161775Y-1753878D01*
G01X-160736Y-1752666D01*
G01X-159697Y-1751107D01*
G01X-158831Y-1749548D01*
G01X-158311Y-1747124D01*
G01X-158138Y-1744873D01*
G01X-158311Y-1743660D01*
G01X-158658Y-1742448D01*
G01X-159177Y-1741236D01*
G01X-159870Y-1740023D01*
G01X-160909Y-1738465D01*
G01X-162294Y-1737253D01*
G01X-163333Y-1736560D01*
G01X-164546Y-1735867D01*
G01X-166104Y-1735174D01*
G01X-167836Y-1734655D01*
G01X-169222Y-1733962D01*
G01X-169395Y-1731884D01*
G01X-169222Y-1729286D01*
G01X-169048Y-1727728D01*
G01X-168702Y-1725303D01*
G01X-168356Y-1722186D01*
G01X-168183Y-1720281D01*
G01X-168009Y-1719198D01*
G01X-167490Y-1718722D01*
G01X-166104Y-1718895D01*
G01X-164719Y-1719242D01*
G01X-163507Y-1719415D01*
G01X-162121Y-1719934D01*
G01X-159004Y-1721320D01*
G01X-157445Y-1722186D01*
G01X-155887Y-1723225D01*
G01X-154674Y-1724264D01*
G01X-153808Y-1725130D01*
G01X-152077Y-1726515D01*
G01X-151384Y-1727381D01*
G01X-150864Y-1728247D01*
G01X-150172Y-1729113D01*
G01X-149479Y-1730152D01*
G01X-148786Y-1731364D01*
G01X-147401Y-1734482D01*
G01X-146881Y-1736040D01*
G01X-146535Y-1737426D01*
G01X-145842Y-1740889D01*
G01X-145496Y-1742102D01*
G37*
G36*
G01X21148Y-1713313D02*
G01X22013Y-1713139D01*
G01X62884Y-1712966D01*
G01X103063Y-1713313D01*
G01X103236Y-1730977D01*
G01X103063Y-1748815D01*
G01X102716Y-1751239D01*
G01X102370Y-1755049D01*
G01X101677Y-1757820D01*
G01X101331Y-1759033D01*
G01X100292Y-1761803D01*
G01X99772Y-1763016D01*
G01X98387Y-1765787D01*
G01X97521Y-1767172D01*
G01X96482Y-1768384D01*
G01X95096Y-1770116D01*
G01X94230Y-1770982D01*
G01X91113Y-1773580D01*
G01X89728Y-1774446D01*
G01X88169Y-1775485D01*
G01X86610Y-1776351D01*
G01X85225Y-1777043D01*
G01X83666Y-1777736D01*
G01X81934Y-1778429D01*
G01X80376Y-1779122D01*
G01X76912Y-1780161D01*
G01X73448Y-1780853D01*
G01X71197Y-1781200D01*
G01X69119Y-1781373D01*
G01X62018Y-1781546D01*
G01X54918Y-1781373D01*
G01X51454Y-1781027D01*
G01X50069Y-1780680D01*
G01X47991Y-1780334D01*
G01X42795Y-1778775D01*
G01X41410Y-1778256D01*
G01X40198Y-1777736D01*
G01X38119Y-1776697D01*
G01X35695Y-1775312D01*
G01X33097Y-1773580D01*
G01X31885Y-1772368D01*
G01X30153Y-1770982D01*
G01X29287Y-1770116D01*
G01X27209Y-1767692D01*
G01X26516Y-1766826D01*
G01X25823Y-1765613D01*
G01X24958Y-1764228D01*
G01X24265Y-1762843D01*
G01X23226Y-1760072D01*
G01X22706Y-1758513D01*
G01X22360Y-1757128D01*
G01X21321Y-1749854D01*
G01X21148Y-1731323D01*
G01X21148Y-1729592D01*
G01X35348Y-1729592D01*
G01X35348Y-1738770D01*
G01X35522Y-1748468D01*
G01X36214Y-1751932D01*
G01X36734Y-1753318D01*
G01X37427Y-1754876D01*
G01X38293Y-1756435D01*
G01X39505Y-1758167D01*
G01X40890Y-1759379D01*
G01X42968Y-1760764D01*
G01X44354Y-1761457D01*
G01X45913Y-1762150D01*
G01X47991Y-1762843D01*
G01X49723Y-1763362D01*
G01X51454Y-1763708D01*
G01X53533Y-1763882D01*
G01X54918Y-1764055D01*
G01X57343Y-1764401D01*
G01X62018Y-1764574D01*
G01X67733Y-1764401D01*
G01X69985Y-1764228D01*
G01X71197Y-1764055D01*
G01X74314Y-1763708D01*
G01X76739Y-1763016D01*
G01X78471Y-1762496D01*
G01X80203Y-1761803D01*
G01X81415Y-1761284D01*
G01X82454Y-1760764D01*
G01X83666Y-1759898D01*
G01X84878Y-1758859D01*
G01X85571Y-1757993D01*
G01X86437Y-1756781D01*
G01X87303Y-1755049D01*
G01X87996Y-1753491D01*
G01X88688Y-1750720D01*
G01X89035Y-1748295D01*
G01X89035Y-1748295D01*
G01X89208Y-1746044D01*
G01X89381Y-1737904D01*
G01X89208Y-1730111D01*
G01X88515Y-1729765D01*
G01X61672Y-1729592D01*
G01X35348Y-1729592D01*
G01X21148Y-1729592D01*
G01X21148Y-1713313D01*
G37*
G36*
G01X70331Y-1803540D02*
G01X70331Y-1813412D01*
G01X80722Y-1813412D01*
G01X91286Y-1813585D01*
G01X91459Y-1820685D01*
G01X91459Y-1827613D01*
G01X90593Y-1827786D01*
G01X80029Y-1827959D01*
G01X70331Y-1827959D01*
G01X70331Y-1849087D01*
G01X69465Y-1849260D01*
G01X62018Y-1849433D01*
G01X55438Y-1849433D01*
G01X55438Y-1828305D01*
G01X54572Y-1828132D01*
G01X44008Y-1827959D01*
G01X34309Y-1827959D01*
G01X34136Y-1827093D01*
G01X33963Y-1819993D01*
G01X33963Y-1813758D01*
G01X34829Y-1813585D01*
G01X45393Y-1813412D01*
G01X55091Y-1813412D01*
G01X55264Y-1812546D01*
G01X55438Y-1801808D01*
G01X55438Y-1791937D01*
G01X69985Y-1791937D01*
G01X70158Y-1792803D01*
G01X70331Y-1803540D01*
G37*
G36*
G01X-103846Y-1713313D02*
G01X-102980Y-1713139D01*
G01X-62109Y-1712966D01*
G01X-21931Y-1713313D01*
G01X-21758Y-1730977D01*
G01X-21931Y-1748815D01*
G01X-22277Y-1751239D01*
G01X-22624Y-1755049D01*
G01X-23316Y-1757820D01*
G01X-23663Y-1759033D01*
G01X-24702Y-1761803D01*
G01X-25221Y-1763016D01*
G01X-26607Y-1765787D01*
G01X-27473Y-1767172D01*
G01X-28512Y-1768384D01*
G01X-29897Y-1770116D01*
G01X-30763Y-1770982D01*
G01X-33881Y-1773580D01*
G01X-35266Y-1774446D01*
G01X-36825Y-1775485D01*
G01X-38383Y-1776351D01*
G01X-39769Y-1777043D01*
G01X-41327Y-1777736D01*
G01X-43059Y-1778429D01*
G01X-44618Y-1779122D01*
G01X-48081Y-1780161D01*
G01X-51545Y-1780853D01*
G01X-53796Y-1781200D01*
G01X-55875Y-1781373D01*
G01X-62975Y-1781546D01*
G01X-70076Y-1781373D01*
G01X-73539Y-1781027D01*
G01X-74925Y-1780680D01*
G01X-77003Y-1780334D01*
G01X-82198Y-1778775D01*
G01X-83584Y-1778256D01*
G01X-84796Y-1777736D01*
G01X-86874Y-1776697D01*
G01X-89299Y-1775312D01*
G01X-91896Y-1773580D01*
G01X-93109Y-1772368D01*
G01X-94841Y-1770982D01*
G01X-95706Y-1770116D01*
G01X-97785Y-1767692D01*
G01X-98477Y-1766826D01*
G01X-99170Y-1765613D01*
G01X-100036Y-1764228D01*
G01X-100729Y-1762843D01*
G01X-101768Y-1760072D01*
G01X-102287Y-1758513D01*
G01X-102634Y-1757128D01*
G01X-103673Y-1749854D01*
G01X-103846Y-1731323D01*
G01X-103846Y-1729592D01*
G01X-89645Y-1729592D01*
G01X-89645Y-1738770D01*
G01X-89472Y-1748468D01*
G01X-88779Y-1751932D01*
G01X-88260Y-1753318D01*
G01X-87567Y-1754876D01*
G01X-86701Y-1756435D01*
G01X-85489Y-1758167D01*
G01X-84103Y-1759379D01*
G01X-82025Y-1760764D01*
G01X-80640Y-1761457D01*
G01X-79081Y-1762150D01*
G01X-77003Y-1762843D01*
G01X-75271Y-1763362D01*
G01X-73539Y-1763708D01*
G01X-71461Y-1763882D01*
G01X-70076Y-1764055D01*
G01X-67651Y-1764401D01*
G01X-62975Y-1764574D01*
G01X-57260Y-1764401D01*
G01X-55009Y-1764228D01*
G01X-53796Y-1764055D01*
G01X-50679Y-1763708D01*
G01X-48255Y-1763016D01*
G01X-46523Y-1762496D01*
G01X-44791Y-1761803D01*
G01X-43579Y-1761284D01*
G01X-42540Y-1760764D01*
G01X-41327Y-1759898D01*
G01X-40115Y-1758859D01*
G01X-39422Y-1757993D01*
G01X-38556Y-1756781D01*
G01X-37691Y-1755049D01*
G01X-36998Y-1753491D01*
G01X-36305Y-1750720D01*
G01X-35959Y-1748295D01*
G01X-35959Y-1748295D01*
G01X-35786Y-1746044D01*
G01X-35612Y-1737904D01*
G01X-35786Y-1730111D01*
G01X-36478Y-1729765D01*
G01X-63321Y-1729592D01*
G01X-89645Y-1729592D01*
G01X-103846Y-1729592D01*
G01X-103846Y-1713313D01*
G37*
G36*
G01X-43925Y-1793669D02*
G01X-43925Y-1824495D01*
G01X-59511Y-1824495D01*
G01X-59511Y-1793669D01*
G01X-43925Y-1793669D01*
G37*
G36*
G01X743637Y-1740455D02*
G01X743864Y-1741591D01*
G01X744091Y-1795227D01*
G01X743637Y-1847955D01*
G01X733182Y-1848182D01*
G01X725512Y-1847955D01*
G01X722500Y-1847273D01*
G01X721989Y-1842841D01*
G01X721818Y-1831364D01*
G01X722046Y-1815909D01*
G01X721818Y-1815000D01*
G01X719318Y-1812500D01*
G01X718182Y-1811136D01*
G01X706819Y-1799773D01*
G01X705455Y-1798636D01*
G01X704602Y-1798523D01*
G01X703864Y-1799091D01*
G01X702728Y-1801136D01*
G01X701818Y-1802727D01*
G01X700682Y-1804318D01*
G01X699546Y-1806364D01*
G01X696818Y-1811136D01*
G01X695682Y-1812955D01*
G01X694318Y-1815227D01*
G01X693182Y-1817273D01*
G01X690455Y-1822046D01*
G01X689318Y-1823864D01*
G01X688182Y-1825909D01*
G01X687273Y-1827500D01*
G01X686137Y-1829318D01*
G01X684773Y-1831591D01*
G01X683637Y-1833636D01*
G01X682727Y-1835227D01*
G01X681591Y-1837046D01*
G01X680227Y-1839318D01*
G01X679091Y-1841364D01*
G01X678182Y-1842955D01*
G01X677046Y-1844773D01*
G01X675682Y-1846818D01*
G01X673864Y-1847955D01*
G01X660455Y-1848182D01*
G01X647727Y-1847727D01*
G01X647614Y-1847102D01*
G01X648182Y-1846137D01*
G01X649773Y-1843864D01*
G01X651137Y-1841591D01*
G01X652500Y-1839545D01*
G01X653636Y-1837727D01*
G01X656364Y-1833636D01*
G01X657500Y-1831818D01*
G01X658864Y-1829773D01*
G01X660000Y-1827955D01*
G01X661818Y-1825227D01*
G01X662955Y-1823409D01*
G01X665682Y-1819318D01*
G01X666818Y-1817500D01*
G01X667727Y-1816136D01*
G01X668864Y-1814318D01*
G01X671591Y-1810227D01*
G01X672955Y-1807955D01*
G01X674091Y-1806364D01*
G01X675000Y-1805000D01*
G01X676137Y-1803182D01*
G01X677500Y-1801136D01*
G01X678864Y-1798864D01*
G01X682955Y-1792727D01*
G01X685227Y-1789091D01*
G01X686591Y-1787045D01*
G01X687727Y-1785227D01*
G01X688637Y-1783637D01*
G01X688864Y-1781818D01*
G01X687955Y-1780455D01*
G01X680227Y-1772727D01*
G01X679091Y-1771136D01*
G01X667273Y-1759318D01*
G01X664546Y-1756136D01*
G01X654318Y-1745909D01*
G01X652500Y-1743636D01*
G01X650228Y-1741364D01*
G01X650000Y-1740966D01*
G01X650682Y-1740682D01*
G01X665000Y-1740455D01*
G01X675057Y-1740625D01*
G01X678864Y-1741136D01*
G01X680000Y-1742500D01*
G01X684318Y-1746818D01*
G01X685000Y-1747727D01*
G01X685909Y-1748864D01*
G01X688182Y-1751136D01*
G01X690000Y-1753409D01*
G01X693409Y-1756818D01*
G01X695682Y-1759546D01*
G01X699091Y-1762955D01*
G01X700455Y-1764773D01*
G01X704318Y-1768637D01*
G01X706591Y-1771364D01*
G01X708864Y-1773637D01*
G01X711137Y-1776364D01*
G01X714546Y-1779773D01*
G01X716364Y-1782045D01*
G01X719773Y-1785455D01*
G01X721364Y-1786364D01*
G01X722273Y-1786818D01*
G01X722046Y-1785227D01*
G01X721818Y-1762500D01*
G01X722046Y-1746534D01*
G01X722728Y-1740909D01*
G01X733637Y-1740455D01*
G01X743637Y-1740455D01*
G37*
G36*
G01X919773Y-1848409D02*
G01X916591Y-1848864D01*
G01X913864Y-1849318D01*
G01X912046Y-1849773D01*
G01X906364Y-1850000D01*
G01X901137Y-1849773D01*
G01X894773Y-1849318D01*
G01X892500Y-1848864D01*
G01X886591Y-1847500D01*
G01X884318Y-1846818D01*
G01X882500Y-1846137D01*
G01X880909Y-1845455D01*
G01X879318Y-1844545D01*
G01X877273Y-1843409D01*
G01X875227Y-1842046D01*
G01X873637Y-1840682D01*
G01X870227Y-1837273D01*
G01X869318Y-1836137D01*
G01X868637Y-1835000D01*
G01X867728Y-1833864D01*
G01X866591Y-1832046D01*
G01X865455Y-1829773D01*
G01X864546Y-1827727D01*
G01X863864Y-1825682D01*
G01X863409Y-1823864D01*
G01X862955Y-1821591D01*
G01X862728Y-1818636D01*
G01X862500Y-1816818D01*
G01X862500Y-1815682D01*
G01X862955Y-1809773D01*
G01X863864Y-1805682D01*
G01X864546Y-1803864D01*
G01X866364Y-1800227D01*
G01X867273Y-1798636D01*
G01X868182Y-1797500D01*
G01X869546Y-1795682D01*
G01X872273Y-1792955D01*
G01X874546Y-1791136D01*
G01X875909Y-1790227D01*
G01X877727Y-1789318D01*
G01X879773Y-1788182D01*
G01X881591Y-1787273D01*
G01X885227Y-1785909D01*
G01X887500Y-1785000D01*
G01X894318Y-1782955D01*
G01X896364Y-1782500D01*
G01X898409Y-1781818D01*
G01X900000Y-1781364D01*
G01X901591Y-1781136D01*
G01X903636Y-1780455D01*
G01X906591Y-1779773D01*
G01X908864Y-1779091D01*
G01X910455Y-1778637D01*
G01X912273Y-1778182D01*
G01X914318Y-1777500D01*
G01X916137Y-1776818D01*
G01X918182Y-1775909D01*
G01X920455Y-1774773D01*
G01X922046Y-1773637D01*
G01X923409Y-1772045D01*
G01X924546Y-1770000D01*
G01X925000Y-1766818D01*
G01X924318Y-1763409D01*
G01X922500Y-1761364D01*
G01X920682Y-1760000D01*
G01X918864Y-1759091D01*
G01X916137Y-1758182D01*
G01X913409Y-1757500D01*
G01X911137Y-1757046D01*
G01X906137Y-1756818D01*
G01X901591Y-1757046D01*
G01X899546Y-1757500D01*
G01X897273Y-1758182D01*
G01X895682Y-1758864D01*
G01X894318Y-1759546D01*
G01X892955Y-1760455D01*
G01X891591Y-1762045D01*
G01X890227Y-1764091D01*
G01X889091Y-1766364D01*
G01X888409Y-1768409D01*
G01X887955Y-1770227D01*
G01X887557Y-1771193D01*
G01X886818Y-1771818D01*
G01X884546Y-1772273D01*
G01X882500Y-1772045D01*
G01X868864Y-1771591D01*
G01X866818Y-1771364D01*
G01X865796Y-1771080D01*
G01X865455Y-1770227D01*
G01X865682Y-1768409D01*
G01X865909Y-1766364D01*
G01X866364Y-1764091D01*
G01X867046Y-1761818D01*
G01X867728Y-1759773D01*
G01X869091Y-1756591D01*
G01X871364Y-1752955D01*
G01X872500Y-1751818D01*
G01X874318Y-1749546D01*
G01X875455Y-1748409D01*
G01X878182Y-1746136D01*
G01X879546Y-1745227D01*
G01X881364Y-1744318D01*
G01X883409Y-1743182D01*
G01X885455Y-1742273D01*
G01X887273Y-1741591D01*
G01X888864Y-1741136D01*
G01X891136Y-1740455D01*
G01X893864Y-1739773D01*
G01X895909Y-1739546D01*
G01X897500Y-1739318D01*
G01X902955Y-1738864D01*
G01X907727Y-1738636D01*
G01X912500Y-1738864D01*
G01X917046Y-1739318D01*
G01X918636Y-1739546D01*
G01X920455Y-1740000D01*
G01X922955Y-1740682D01*
G01X925228Y-1741364D01*
G01X927046Y-1742046D01*
G01X928636Y-1742727D01*
G01X929773Y-1743409D01*
G01X931137Y-1744091D01*
G01X932955Y-1745227D01*
G01X935227Y-1746818D01*
G01X937046Y-1748409D01*
G01X938182Y-1749546D01*
G01X939091Y-1750682D01*
G01X940455Y-1752500D01*
G01X942046Y-1754773D01*
G01X943182Y-1757046D01*
G01X944091Y-1759091D01*
G01X945000Y-1761591D01*
G01X945455Y-1764318D01*
G01X945682Y-1766136D01*
G01X945909Y-1769773D01*
G01X945682Y-1773409D01*
G01X945227Y-1775682D01*
G01X944545Y-1777955D01*
G01X943864Y-1779773D01*
G01X943182Y-1781364D01*
G01X941364Y-1784546D01*
G01X940455Y-1785682D01*
G01X938409Y-1787727D01*
G01X937500Y-1788864D01*
G01X936137Y-1790000D01*
G01X935000Y-1791136D01*
G01X933636Y-1792273D01*
G01X930455Y-1794091D01*
G01X928409Y-1795227D01*
G01X926364Y-1796136D01*
G01X924773Y-1796818D01*
G01X921137Y-1798182D01*
G01X914318Y-1800227D01*
G01X911818Y-1800909D01*
G01X910000Y-1801364D01*
G01X908409Y-1801591D01*
G01X906364Y-1802273D01*
G01X903636Y-1802955D01*
G01X901364Y-1803636D01*
G01X898864Y-1804318D01*
G01X896591Y-1805000D01*
G01X895000Y-1805455D01*
G01X892955Y-1806136D01*
G01X890909Y-1807045D01*
G01X889546Y-1807727D01*
G01X888182Y-1808636D01*
G01X886818Y-1809773D01*
G01X885909Y-1811136D01*
G01X885000Y-1812955D01*
G01X884546Y-1817273D01*
G01X885000Y-1821136D01*
G01X885909Y-1822955D01*
G01X887046Y-1824545D01*
G01X889318Y-1826818D01*
G01X890682Y-1827727D01*
G01X892500Y-1828636D01*
G01X894546Y-1829545D01*
G01X896818Y-1830227D01*
G01X898864Y-1830682D01*
G01X901591Y-1831137D01*
G01X906364Y-1831364D01*
G01X909773Y-1831137D01*
G01X913864Y-1830227D01*
G01X915909Y-1829545D01*
G01X917955Y-1828636D01*
G01X919318Y-1827727D01*
G01X921137Y-1826364D01*
G01X922727Y-1824773D01*
G01X923864Y-1823182D01*
G01X925000Y-1821364D01*
G01X925909Y-1819773D01*
G01X926591Y-1818182D01*
G01X927046Y-1816591D01*
G01X927727Y-1814318D01*
G01X928636Y-1811818D01*
G01X929375Y-1811136D01*
G01X930682Y-1810909D01*
G01X937500Y-1811591D01*
G01X941137Y-1812046D01*
G01X947046Y-1812500D01*
G01X948636Y-1812727D01*
G01X949318Y-1813182D01*
G01X949545Y-1814546D01*
G01X949318Y-1817046D01*
G01X948409Y-1821136D01*
G01X947727Y-1823409D01*
G01X946818Y-1825909D01*
G01X945455Y-1829091D01*
G01X944318Y-1831137D01*
G01X942955Y-1833409D01*
G01X941818Y-1835000D01*
G01X940909Y-1836137D01*
G01X936364Y-1840682D01*
G01X935000Y-1841818D01*
G01X931364Y-1844091D01*
G01X927727Y-1845909D01*
G01X925909Y-1846591D01*
G01X924318Y-1847046D01*
G01X922273Y-1847727D01*
G01X919773Y-1848409D01*
G37*
G36*
G01X844091Y-1740455D02*
G01X844318Y-1741591D01*
G01X844546Y-1795227D01*
G01X844091Y-1847955D01*
G01X833637Y-1848182D01*
G01X826023Y-1848012D01*
G01X823182Y-1847500D01*
G01X822727Y-1827500D01*
G01X822727Y-1808182D01*
G01X821591Y-1807955D01*
G01X810227Y-1807727D01*
G01X799318Y-1807500D01*
G01X794773Y-1807045D01*
G01X789318Y-1806591D01*
G01X786137Y-1806136D01*
G01X784318Y-1805682D01*
G01X782046Y-1805000D01*
G01X777500Y-1802727D01*
G01X775909Y-1801818D01*
G01X774773Y-1800909D01*
G01X772955Y-1799546D01*
G01X770228Y-1796818D01*
G01X769091Y-1795455D01*
G01X768182Y-1794091D01*
G01X767046Y-1792500D01*
G01X765909Y-1790682D01*
G01X764091Y-1786591D01*
G01X763409Y-1784318D01*
G01X762955Y-1782045D01*
G01X762500Y-1780227D01*
G01X762273Y-1777045D01*
G01X762065Y-1774546D01*
G01X784546Y-1774546D01*
G01X784773Y-1777045D01*
G01X785228Y-1779091D01*
G01X785909Y-1780909D01*
G01X787727Y-1783637D01*
G01X789318Y-1785000D01*
G01X791364Y-1786364D01*
G01X793409Y-1787273D01*
G01X796591Y-1787955D01*
G01X796591Y-1787955D01*
G01X802046Y-1788864D01*
G01X812955Y-1789091D01*
G01X822046Y-1788864D01*
G01X822500Y-1787955D01*
G01X822727Y-1773409D01*
G01X822727Y-1759546D01*
G01X821591Y-1759318D01*
G01X809091Y-1759091D01*
G01X797046Y-1759318D01*
G01X795228Y-1759773D01*
G01X793182Y-1760455D01*
G01X791364Y-1761364D01*
G01X789318Y-1762727D01*
G01X787727Y-1764318D01*
G01X786591Y-1765909D01*
G01X785455Y-1768182D01*
G01X785000Y-1770455D01*
G01X784773Y-1772045D01*
G01X784546Y-1774546D01*
G01X762065Y-1774546D01*
G01X762046Y-1774318D01*
G01X762046Y-1771591D01*
G01X762273Y-1767955D01*
G01X762727Y-1765455D01*
G01X763182Y-1763637D01*
G01X763409Y-1762045D01*
G01X764091Y-1760227D01*
G01X765000Y-1757955D01*
G01X765909Y-1756136D01*
G01X766818Y-1754773D01*
G01X769546Y-1751136D01*
G01X771818Y-1748864D01*
G01X774091Y-1747046D01*
G01X775682Y-1745909D01*
G01X778864Y-1744091D01*
G01X780909Y-1743182D01*
G01X782955Y-1742500D01*
G01X786591Y-1741591D01*
G01X789318Y-1741364D01*
G01X791591Y-1741136D01*
G01X793864Y-1740682D01*
G01X819773Y-1740455D01*
G01X844091Y-1740455D01*
G37*
G04 Text End*

G04 PolygonModel Start*
G54D10*
G01X-729709Y1414170D02*
G01X-729709Y1902629D01*
G01X-729709Y1902629D02*
G01X-506189Y1902629D01*
G01X-526509Y1414170D02*
G01X-526509Y1902629D01*
G01X-526509Y1902629D02*
G01X-241293Y1902629D01*
G01X-241293Y1902629D02*
G01X-241293Y1686729D01*
G01X-241293Y1686729D02*
G01X12707Y1686729D01*
G01X12707Y1686729D02*
G01X12707Y1902629D01*
G01X12707Y1902629D02*
G01X266707Y1902629D01*
G01X266707Y1902629D02*
G01X266707Y1686729D01*
G01X266707Y1686729D02*
G01X495307Y1686729D01*
G01X495307Y1686729D02*
G01X495307Y1902629D01*
G01X495307Y1902629D02*
G01X723907Y1902629D01*
G01X723907Y1902629D02*
G01X723907Y1534329D01*
G01X900008Y1414170D02*
G01X-901693Y1414170D01*
G01X-901693Y1336245D02*
G01X-901693Y2016929D01*
G01X-766608Y-535771D02*
G01X-901693Y-535771D01*
G01X-901693Y-535771D02*
G01X-901693Y-450985D01*
G01X900008Y-450985D02*
G01X900008Y-535771D01*
G01X900008Y-535771D02*
G01X766623Y-535771D01*
G01X900008Y2018131D02*
G01X900008Y1336245D01*
G01X-899993Y2018131D02*
G01X900008Y2018131D01*
G36*
G01X752863Y1288633D02*
G02X647149Y1288633I-52857J0D01*
G02X752863Y1288633I52857J0D01*
G37*
G01X-1730002Y1170004D02*
G01X-1639997Y1170004D01*
G01X-1639997Y1210004D02*
G01X-1639997Y1099999D01*
G01X-1518107Y1210004D02*
G01X-1639997Y1210004D01*
G01X-1200005Y1003114D02*
G01X-1200005Y1210004D01*
G01X-1301885Y1210004D01*
G01X-1639997Y310003D02*
G01X-1730002Y310003D01*
G01X-1730002Y1170004D01*
G01X-1639999Y270004D02*
G01X-1639999Y380006D01*
G01X-1301887Y270004D02*
G01X-1200003Y270004D01*
G01X-1200003Y476899D01*
G01X-1639999Y270004D02*
G01X-1518110Y270004D01*
G36*
G01X-1127600Y391840D02*
G02X-1127600Y453160I0J30660D01*
G02X-1127600Y391840I0J-30660D01*
G37*
G01X-501990Y-1437554D02*
G01X-501990Y-1464783D01*
G01X507007Y-1141324D02*
G01X507007Y-1037783D01*
G01X507007Y-1037783D02*
G01X-501990Y-1037783D01*
G01X-501990Y-1037783D02*
G01X-501990Y-1141324D01*
G01X245615Y-1463784D02*
G01X507007Y-1463784D01*
G01X507007Y-1463784D02*
G01X507007Y-1437554D01*
G01X120594Y-1463784D02*
G01X129388Y-1463784D01*
G01X-4397Y-1463784D02*
G01X4371Y-1463784D01*
G01X-129388Y-1463784D02*
G01X-120625Y-1463784D01*
G01X-498991Y-1463784D02*
G01X-245615Y-1463784D01*
G01X884386Y-1060086D02*
G01X730614Y-1060086D01*
G01X905618Y-1485180D02*
G01X1027500Y-1485180D01*
G01X1027500Y-1485180D02*
G01X1027500Y-1293293D01*
G01X1005615Y-1485185D02*
G01X1009387Y-1485185D01*
G01X905615Y-1485185D02*
G01X909387Y-1485185D01*
G01X805615Y-1485185D02*
G01X809387Y-1485185D01*
G01X709497Y-1490085D02*
G01X587503Y-1490085D01*
G01X587503Y-1490085D02*
G01X587500Y-1293235D01*
G36*
G01X676500Y-1574085D02*
G01X651100Y-1535985D01*
G01X701900Y-1535985D01*
G01X676500Y-1574085D01*
G37*

G04 Circle Start*
G54D11*
G01X-299400Y-1541440D02*
G03X-259400Y-1541440I20000J0D01*
G03X-299400Y-1541440I-20000J0D01*
G04 Circle End*

M02*

