G04 Layer: TopSolderMaskLayer*
G04 EasyEDA Pro v3.2.149.88089769, 2026-09-17 16:10:54*
G04 Gerber Generator version 0.3*
G04 Scale: 100 percent, Rotated: No, Reflected: No*
G04 Dimensions in millimeters*
G04 Leading zeros omitted, absolute positions, 4 integers and 5 decimals*
G04 Generated by one-click*
G04 Object Configs: Pad,Via,Track,Text,Image,Dimension,BoardOutline,BoardCutout,CopperFilled,SolidRegion,FPCStiffener,Line,PlaneZone,ComponentProperty,ComponentSilkscreen,TearDrop*
G04 Layer Configs: 1,2,3,4,5,6,7,8,9,10,11,13,14,56*
G04 Copper Areas: 0*
%FSLAX45Y45*%
%MOMM*%
%AMRoundRect*1,1,$1,$2,$3*1,1,$1,$4,$5*1,1,$1,0-$2,0-$3*1,1,$1,0-$4,0-$5*20,1,$1,$2,$3,$4,$5,0*20,1,$1,$4,$5,0-$2,0-$3,0*20,1,$1,0-$2,0-$3,0-$4,0-$5,0*20,1,$1,0-$4,0-$5,$2,$3,0*4,1,4,$2,$3,$4,$5,0-$2,0-$3,0-$4,0-$5,$2,$3,0*%
%ADD10RoundRect,0.1016X-0.27X-0.25X-0.27X0.25*%
%ADD11RoundRect,0.1016X-0.25X0.27X0.25X0.27*%
%ADD12RoundRect,0.1016X-0.35X-0.5X-0.35X0.5*%
%ADD13RoundRect,0.1016X-0.266X0.536X0.266X0.536*%
%ADD14RoundRect,0.10003X-0.57501X-0.15X-0.57501X0.15*%
%ADD15RoundRect,0.1021X-0.3625X-0.15X-0.3625X0.15*%
%ADD16RoundRect,0.10003X-0.3625X-0.15X-0.3625X0.15*%
%ADD17RoundRect,0.1016X-0.29788X-0.55115X-0.62466X-0.04795*%
%ADD18RoundRect,0.1016X-0.20256X-0.69792X-0.71997X0.09882*%
%ADD19RoundRect,0.1016X-0.56627X0.68851X0.56627X0.68851*%
%ADD20C,0.9016*%
%ADD21RoundRect,0.1016X-0.27X-0.28283X-0.27X0.28283*%
%ADD22RoundRect,0.1016X-0.28283X0.27X0.28283X0.27*%
%ADD23RoundRect,0.1016X-0.85X-0.85X-0.85X0.85*%
%ADD24RoundRect,0.1016X-0.4X-0.1X-0.4X0.1*%
%ADD25RoundRect,0.1016X-0.1X0.4X0.1X0.4*%
%ADD26RoundRect,0.1016X-0.3X-0.55X-0.3X0.55*%
%ADD27RoundRect,0.1016X-0.3X-0.1X-0.3X0.1*%
%ADD28RoundRect,0.1016X-0.1X-0.3X-0.1X0.3*%
%ADD29RoundRect,0.1016X-1.4X-1.4X-1.4X1.4*%
%ADD30O,0.46561X1.7936*%
%ADD31RoundRect,0.10003X-0.3X0.62X0.3X0.62*%
%ADD32RoundRect,0.10003X-0.15X0.62X0.15X0.62*%
%ADD33O,1.10002X2.20002*%
%ADD34O,1.10002X1.90002*%
%ADD35RoundRect,0.10003X-0.5X-0.3X-0.5X0.3*%
%ADD36C,2.3016*%
G75*


G04 Pad Start*
G54D10*
G01X393700Y-1058012D03*
G01X393700Y-973988D03*
G54D11*
G01X-228542Y-1164552D03*
G01X-312565Y-1164552D03*
G01X-228542Y-1037552D03*
G01X-312565Y-1037552D03*
G01X716074Y1050380D03*
G01X632051Y1050380D03*
G01X716059Y1291600D03*
G01X632035Y1291600D03*
G01X1296767Y948265D03*
G01X1212743Y948265D03*
G01X1405788Y939800D03*
G01X1489812Y939800D03*
G54D10*
G01X148931Y1224933D03*
G01X148931Y1308956D03*
G54D11*
G01X715972Y1171874D03*
G01X631949Y1171874D03*
G54D10*
G01X1568336Y602926D03*
G01X1568336Y518903D03*
G01X1454036Y602926D03*
G01X1454036Y518903D03*
G01X1682636Y602926D03*
G01X1682636Y518903D03*
G54D11*
G01X1208824Y281515D03*
G01X1292847Y281515D03*
G01X1208824Y167215D03*
G01X1292847Y167215D03*
G54D10*
G01X1212736Y-212768D03*
G01X1212736Y-128745D03*
G54D11*
G01X-173888Y-660400D03*
G01X-257912Y-660400D03*
G54D10*
G01X-374551Y-237388D03*
G01X-374551Y-321412D03*
G01X1555636Y-212768D03*
G01X1555636Y-128745D03*
G01X1682636Y-212768D03*
G01X1682636Y-128745D03*
G01X1327036Y-212768D03*
G01X1327036Y-128745D03*
G01X1441336Y-212768D03*
G01X1441336Y-128745D03*
G01X1796936Y-212768D03*
G01X1796936Y-128745D03*
G01X1916767Y-212768D03*
G01X1916767Y-128745D03*
G54D11*
G01X2016747Y27515D03*
G01X1932724Y27515D03*
G01X2016747Y141815D03*
G01X1932724Y141815D03*
G54D10*
G01X1796936Y602926D03*
G01X1796936Y518903D03*
G54D11*
G01X-1477112Y-889000D03*
G01X-1393088Y-889000D03*
G01X-1477112Y-774700D03*
G01X-1393088Y-774700D03*
G54D10*
G01X-1382106Y-1211838D03*
G01X-1382106Y-1127815D03*
G01X-1496406Y-1211838D03*
G01X-1496406Y-1127815D03*
G01X-1610706Y-1211838D03*
G01X-1610706Y-1127815D03*
G01X-1191606Y-1402338D03*
G01X-1191606Y-1318315D03*
G01X-1305906Y-1402338D03*
G01X-1305906Y-1318315D03*
G54D11*
G01X-1477112Y-1003300D03*
G01X-1393088Y-1003300D03*
G54D10*
G01X-848706Y-1402338D03*
G01X-848706Y-1318315D03*
G01X-734406Y-1402338D03*
G01X-734406Y-1318315D03*
G54D11*
G01X-527294Y-1207926D03*
G01X-611317Y-1207926D03*
G01X-527294Y-1093626D03*
G01X-611317Y-1093626D03*
G01X-527294Y-865026D03*
G01X-611317Y-865026D03*
G01X-527294Y-979326D03*
G01X-611317Y-979326D03*
G54D10*
G01X-493106Y-754638D03*
G01X-493106Y-670615D03*
G01X-607406Y-754638D03*
G01X-607406Y-670615D03*
G54D11*
G01X-527294Y-560226D03*
G01X-611317Y-560226D03*
G54D10*
G01X-520700Y-237388D03*
G01X-520700Y-321412D03*
G01X-635000Y-237388D03*
G01X-635000Y-321412D03*
G01X-749300Y-237388D03*
G01X-749300Y-321412D03*
G01X-861406Y-237388D03*
G01X-861406Y-321412D03*
G01X-975706Y-237388D03*
G01X-975706Y-321412D03*
G01X-1092200Y-237388D03*
G01X-1092200Y-321412D03*
G01X-1206500Y-237388D03*
G01X-1206500Y-321412D03*
G01X-1320800Y-237388D03*
G01X-1320800Y-321412D03*
G54D11*
G01X618388Y241300D03*
G01X702412Y241300D03*
G54D10*
G01X711200Y351688D03*
G01X711200Y435712D03*
G01X596900Y351688D03*
G01X596900Y435712D03*
G54D11*
G01X605688Y749300D03*
G01X689712Y749300D03*
G01X-2086712Y114300D03*
G01X-2002688Y114300D03*
G54D10*
G01X-1993900Y-80112D03*
G01X-1993900Y3912D03*
G01X-2108200Y-80112D03*
G01X-2108200Y3912D03*
G01X458913Y-416151D03*
G01X458913Y-332128D03*
G01X578459Y-330175D03*
G01X578459Y-414198D03*
G01X695855Y-331119D03*
G01X695855Y-415143D03*
G01X814483Y-416676D03*
G01X814483Y-332653D03*
G01X1282700Y-1096112D03*
G01X1282700Y-1012088D03*
G01X1282700Y-710235D03*
G01X1282700Y-626212D03*
G01X1282700Y-821588D03*
G01X1282700Y-905612D03*
G54D11*
G01X808162Y-1439146D03*
G01X724139Y-1439146D03*
G01X808162Y-1553446D03*
G01X724139Y-1553446D03*
G01X808162Y-1667746D03*
G01X724139Y-1667746D03*
G54D10*
G01X816712Y-546100D03*
G01X816712Y-630123D03*
G54D11*
G01X-1959712Y-939800D03*
G01X-1875688Y-939800D03*
G01X-1985112Y-825500D03*
G01X-1901088Y-825500D03*
G54D10*
G01X-1701800Y-1045312D03*
G01X-1701800Y-961288D03*
G54D11*
G01X-1812188Y-1054100D03*
G01X-1896212Y-1054100D03*
G54D10*
G01X1722120Y-1032612D03*
G01X1722120Y-948588D03*
G01X1846580Y-1032612D03*
G01X1846580Y-948588D03*
G01X1536700Y-427888D03*
G01X1536700Y-511912D03*
G01X1651000Y-427888D03*
G01X1651000Y-511912D03*
G54D12*
G01X-168605Y-1371600D03*
G01X-288595Y-1371600D03*
G54D13*
G01X66251Y-1101661D03*
G01X161247Y-1101661D03*
G01X256243Y-1101661D03*
G01X256243Y-871842D03*
G01X161247Y-871842D03*
G01X66251Y-871842D03*
G54D14*
G01X-552502Y964998D03*
G54D16*
G01X-593751Y899999D03*
G01X-306249Y870002D03*
G01X-593751Y840004D03*
G01X-306249Y810007D03*
G01X-593751Y780010D03*
G01X-306249Y750012D03*
G01X-593751Y720015D03*
G01X-306249Y690017D03*
G01X-593751Y659995D03*
G01X-306249Y629997D03*
G01X-593751Y600000D03*
G01X-306249Y570002D03*
G01X-593751Y540005D03*
G01X-306249Y510008D03*
G01X-593751Y480010D03*
G01X-306249Y450013D03*
G01X-593751Y420015D03*
G01X-306249Y390018D03*
G01X-593751Y359995D03*
G01X-306249Y329998D03*
G01X-593751Y300000D03*
G01X-306249Y270003D03*
G01X-593751Y240006D03*
G01X-306249Y210008D03*
G01X-593751Y180011D03*
G01X-306249Y150013D03*
G01X-593751Y120016D03*
G01X-306249Y90019D03*
G01X-593751Y59996D03*
G01X-306249Y29998D03*
G01X-593751Y1D03*
G54D14*
G01X-552502Y-64998D03*
G54D17*
G01X1512524Y1163082D03*
G01X1697704Y877931D03*
G54D18*
G01X1882487Y905527D03*
G01X1612893Y1320665D03*
G54D19*
G01X-123132Y-859752D03*
G01X-316375Y-859752D03*
G54D20*
G01X-1807299Y-669099D03*
G01X-1807299Y-423100D03*
G01X-1977301Y-423100D03*
G01X-1977301Y-669099D03*
G01X1977301Y-669099D03*
G01X1977301Y-423100D03*
G01X1807299Y-423100D03*
G01X1807299Y-669099D03*
G54D21*
G01X-12700Y-1302918D03*
G01X-12700Y-1389482D03*
G01X215900Y-1302918D03*
G01X215900Y-1389482D03*
G01X228600Y-261518D03*
G01X228600Y-348082D03*
G01X101600Y-261518D03*
G01X101600Y-348082D03*
G01X1020122Y1177057D03*
G01X1020122Y1263621D03*
G54D22*
G01X1300582Y1066800D03*
G01X1214018Y1066800D03*
G01X1404518Y812800D03*
G01X1491082Y812800D03*
G54D21*
G01X1339736Y517633D03*
G01X1339736Y604196D03*
G01X1098436Y-134518D03*
G01X1098436Y-221082D03*
G54D22*
G01X2011782Y368300D03*
G01X1925218Y368300D03*
G01X1925218Y254000D03*
G01X2011782Y254000D03*
G01X1925218Y482600D03*
G01X2011782Y482600D03*
G54D21*
G01X609600Y-1582318D03*
G01X609600Y-1668882D03*
G54D22*
G01X-1491082Y-431800D03*
G01X-1404518Y-431800D03*
G54D21*
G01X-1435100Y-309982D03*
G01X-1435100Y-223418D03*
G54D22*
G01X-1404518Y-660400D03*
G01X-1491082Y-660400D03*
G01X-1491082Y-546100D03*
G01X-1404518Y-546100D03*
G54D21*
G01X-1077306Y-1317045D03*
G01X-1077306Y-1403608D03*
G01X-963006Y-1317045D03*
G01X-963006Y-1403608D03*
G01X720381Y38288D03*
G01X720381Y124851D03*
G01X596900Y38288D03*
G01X596900Y124851D03*
G01X711200Y546288D03*
G01X711200Y632851D03*
G01X593381Y546288D03*
G01X593381Y632851D03*
G01X-2093606Y547337D03*
G01X-2093606Y460774D03*
G01X-1968500Y547337D03*
G01X-1968500Y460774D03*
G54D22*
G01X-2087982Y342900D03*
G01X-2001418Y342900D03*
G01X-2087982Y228600D03*
G01X-2001418Y228600D03*
G54D21*
G01X582080Y-535148D03*
G01X582080Y-621711D03*
G01X696380Y-535148D03*
G01X696380Y-621711D03*
G54D22*
G01X1074318Y-914400D03*
G01X1160882Y-914400D03*
G01X1074318Y-800100D03*
G01X1160882Y-800100D03*
G54D21*
G01X1054100Y-540918D03*
G01X1054100Y-627482D03*
G01X939800Y-540918D03*
G01X939800Y-627482D03*
G01X-1663700Y-767182D03*
G01X-1663700Y-680618D03*
G54D22*
G01X1887118Y-825500D03*
G01X1973682Y-825500D03*
G54D23*
G01X1601479Y193645D03*
G54D24*
G01X1751491Y273629D03*
G01X1751491Y233624D03*
G01X1751491Y193619D03*
G01X1751491Y153640D03*
G01X1751491Y113635D03*
G54D25*
G01X1681489Y43632D03*
G01X1641484Y43632D03*
G01X1601479Y43632D03*
G01X1561474Y43632D03*
G01X1521469Y43632D03*
G54D24*
G01X1451492Y113660D03*
G01X1451492Y153665D03*
G01X1451492Y193645D03*
G01X1451492Y233650D03*
G01X1451492Y273655D03*
G54D25*
G01X1521469Y343632D03*
G01X1561474Y343632D03*
G01X1601479Y343632D03*
G01X1641484Y343632D03*
G01X1681489Y343632D03*
G54D26*
G01X-260096Y-263690D03*
G01X-70104Y-263690D03*
G01X-70104Y-523710D03*
G01X-165100Y-523710D03*
G01X-260096Y-523710D03*
G54D27*
G01X-1217426Y-793466D03*
G01X-1217426Y-833471D03*
G01X-1217426Y-873476D03*
G01X-1217426Y-913481D03*
G01X-1217426Y-953460D03*
G01X-1217426Y-993465D03*
G01X-1217426Y-1033470D03*
G01X-1217426Y-1073475D03*
G54D28*
G01X-1157431Y-1133470D03*
G01X-1117426Y-1133470D03*
G01X-1077421Y-1133470D03*
G01X-1037416Y-1133470D03*
G01X-997436Y-1133470D03*
G01X-957431Y-1133470D03*
G01X-917426Y-1133470D03*
G01X-877421Y-1133470D03*
G54D27*
G01X-817427Y-1073475D03*
G01X-817427Y-1033470D03*
G01X-817427Y-993465D03*
G01X-817427Y-953460D03*
G01X-817427Y-913481D03*
G01X-817427Y-873476D03*
G01X-817427Y-833471D03*
G01X-817427Y-793466D03*
G54D28*
G01X-877421Y-733471D03*
G01X-917426Y-733471D03*
G01X-957431Y-733471D03*
G01X-997436Y-733471D03*
G01X-1037416Y-733471D03*
G01X-1077421Y-733471D03*
G01X-1117426Y-733471D03*
G01X-1157431Y-733471D03*
G54D29*
G01X-1017426Y-933470D03*
G54D30*
G01X874972Y-819873D03*
G01X809948Y-819873D03*
G01X744949Y-819873D03*
G01X679950Y-819873D03*
G01X874972Y-1249082D03*
G01X809948Y-1249082D03*
G01X744949Y-1249082D03*
G01X679950Y-1249082D03*
G54D31*
G01X320033Y-1572250D03*
G01X240049Y-1572250D03*
G54D32*
G01X175050Y-1572250D03*
G01X125038Y-1572250D03*
G01X75050Y-1572250D03*
G01X25038Y-1572250D03*
G01X-24949Y-1572250D03*
G01X-74962Y-1572250D03*
G01X-124949Y-1572250D03*
G01X-174962Y-1572250D03*
G54D31*
G01X-239960Y-1572250D03*
G01X-319945Y-1572250D03*
G54D33*
G01X-431959Y-1634251D03*
G54D34*
G01X-431959Y-2052259D03*
G01X432047Y-2052259D03*
G54D33*
G01X432047Y-1634251D03*
G54D35*
G01X504194Y1318223D03*
G01X504194Y1128231D03*
G01X284179Y1318223D03*
G01X284179Y1128231D03*
G01X284179Y1223227D03*
G54D36*
G01X-1200000Y1600000D03*
G01X1200000Y1600000D03*
G01X1200006Y-1600016D03*
G04 Pad End*

M02*

