G04 Layer: TopSilkscreenLayer*
G04 EasyEDA Pro v3.2.149.88089769, 2026-09-17 16:10:54*
G04 Gerber Generator version 0.3*
G04 Scale: 100 percent, Rotated: No, Reflected: No*
G04 Dimensions in millimeters*
G04 Leading zeros omitted, absolute positions, 4 integers and 5 decimals*
G04 Generated by one-click*
G04 Object Configs: Pad,Via,Track,Text,Image,Dimension,BoardOutline,BoardCutout,CopperFilled,SolidRegion,FPCStiffener,Line,PlaneZone,ComponentProperty,ComponentSilkscreen,TearDrop*
G04 Layer Configs: 1,2,3,4,5,6,7,8,9,10,11,13,14,56*
G04 Copper Areas: 0*
%FSLAX45Y45*%
%MOMM*%
%ADD10C,0.1524*%
%ADD11C,0.1778*%
%ADD12C,0.2*%
%ADD13C,0.254*%
%ADD14C,0.1*%
%ADD15C,0.3064*%
%ADD16C,0.3*%
%ADD17C,0.15001*%
G75*


G04 PolygonModel Start*
G54D10*
G01X443454Y-943861D02*
G01X443454Y-993861D01*
G01X358976Y-928619D02*
G01X428216Y-928619D01*
G01X343736Y-993861D02*
G01X343736Y-943861D01*
G01X343949Y-1088139D02*
G01X343949Y-1038139D01*
G01X443662Y-1038139D02*
G01X443662Y-1088139D01*
G01X428427Y-1103381D02*
G01X359184Y-1103381D01*
G01X443664Y-1088139D02*
G02X428424Y-1103379I-15240J0D01*
G01X359184Y-1103379D02*
G02X343944Y-1088139I0J15240D01*
G01X343736Y-943861D02*
G02X358976Y-928621I15240J0D01*
G01X428216Y-928621D02*
G02X443456Y-943861I0J-15240D01*
G01X-342692Y-1114798D02*
G01X-292692Y-1114798D01*
G01X-357934Y-1199276D02*
G01X-357934Y-1130036D01*
G01X-292692Y-1214516D02*
G01X-342692Y-1214516D01*
G01X-198415Y-1214303D02*
G01X-248415Y-1214303D01*
G01X-248415Y-1114590D02*
G01X-198415Y-1114590D01*
G01X-183172Y-1129825D02*
G01X-183172Y-1199068D01*
G01X-198415Y-1114588D02*
G02X-183175Y-1129828I0J-15240D01*
G01X-183175Y-1199068D02*
G02X-198415Y-1214308I-15240J0D01*
G01X-342692Y-1214516D02*
G02X-357932Y-1199276I0J15240D01*
G01X-357932Y-1130036D02*
G02X-342692Y-1114796I15240J0D01*
G01X-342692Y-987798D02*
G01X-292692Y-987798D01*
G01X-357934Y-1072276D02*
G01X-357934Y-1003036D01*
G01X-292692Y-1087516D02*
G01X-342692Y-1087516D01*
G01X-198415Y-1087303D02*
G01X-248415Y-1087303D01*
G01X-248415Y-987590D02*
G01X-198415Y-987590D01*
G01X-183172Y-1002825D02*
G01X-183172Y-1072068D01*
G01X-198415Y-987588D02*
G02X-183175Y-1002828I0J-15240D01*
G01X-183175Y-1072068D02*
G02X-198415Y-1087308I-15240J0D01*
G01X-342692Y-1087516D02*
G02X-357932Y-1072276I0J15240D01*
G01X-357932Y-1003036D02*
G02X-342692Y-987796I15240J0D01*
G01X601924Y1100134D02*
G01X651924Y1100134D01*
G01X586681Y1015656D02*
G01X586681Y1084896D01*
G01X651924Y1000416D02*
G01X601924Y1000416D01*
G01X746201Y1000629D02*
G01X696201Y1000629D01*
G01X696201Y1100342D02*
G01X746201Y1100342D01*
G01X761443Y1085107D02*
G01X761443Y1015864D01*
G01X746201Y1100345D02*
G02X761441Y1085105I0J-15240D01*
G01X761441Y1015864D02*
G02X746201Y1000624I-15240J0D01*
G01X601924Y1000416D02*
G02X586684Y1015656I0J15240D01*
G01X586684Y1084896D02*
G02X601924Y1100136I15240J0D01*
G01X601908Y1341353D02*
G01X651908Y1341353D01*
G01X586666Y1256875D02*
G01X586666Y1326116D01*
G01X651908Y1241635D02*
G01X601908Y1241635D01*
G01X746185Y1241849D02*
G01X696186Y1241849D01*
G01X696186Y1341561D02*
G01X746185Y1341561D01*
G01X761428Y1326327D02*
G01X761428Y1257084D01*
G01X746185Y1341564D02*
G02X761425Y1326324I0J-15240D01*
G01X761425Y1257084D02*
G02X746185Y1241844I-15240J0D01*
G01X601908Y1241635D02*
G02X586668Y1256875I0J15240D01*
G01X586668Y1326116D02*
G02X601908Y1341356I15240J0D01*
G01X1182616Y998018D02*
G01X1232616Y998018D01*
G01X1167374Y913540D02*
G01X1167374Y982781D01*
G01X1232616Y898300D02*
G01X1182616Y898300D01*
G01X1326893Y898514D02*
G01X1276894Y898514D01*
G01X1276894Y998227D02*
G01X1326893Y998227D01*
G01X1342136Y982992D02*
G01X1342136Y913749D01*
G01X1326893Y998229D02*
G02X1342133Y982989I0J-15240D01*
G01X1342133Y913749D02*
G02X1326893Y898509I-15240J0D01*
G01X1182616Y898300D02*
G02X1167376Y913540I0J15240D01*
G01X1167376Y982781D02*
G02X1182616Y998021I15240J0D01*
G01X1519939Y890046D02*
G01X1469939Y890046D01*
G01X1535181Y974524D02*
G01X1535181Y905284D01*
G01X1469939Y989764D02*
G01X1519939Y989764D01*
G01X1375661Y989551D02*
G01X1425661Y989551D01*
G01X1425661Y889838D02*
G01X1375661Y889838D01*
G01X1360419Y905073D02*
G01X1360419Y974316D01*
G01X1375661Y889836D02*
G02X1360421Y905076I0J15240D01*
G01X1360421Y974316D02*
G02X1375661Y989556I15240J0D01*
G01X1519939Y989764D02*
G02X1535179Y974524I0J-15240D01*
G01X1535179Y905284D02*
G02X1519939Y890044I-15240J0D01*
G01X198684Y1339083D02*
G01X198684Y1289084D01*
G01X114206Y1354326D02*
G01X183447Y1354326D01*
G01X98966Y1289084D02*
G01X98966Y1339083D01*
G01X99180Y1194806D02*
G01X99180Y1244806D01*
G01X198892Y1244806D02*
G01X198892Y1194806D01*
G01X183657Y1179564D02*
G01X114415Y1179564D01*
G01X198895Y1194806D02*
G02X183655Y1179566I-15240J0D01*
G01X114415Y1179566D02*
G02X99175Y1194806I0J15240D01*
G01X98966Y1339083D02*
G02X114206Y1354323I15240J0D01*
G01X183447Y1354323D02*
G02X198687Y1339083I0J-15240D01*
G01X601822Y1221628D02*
G01X651822Y1221628D01*
G01X586579Y1137150D02*
G01X586579Y1206390D01*
G01X651822Y1121910D02*
G01X601822Y1121910D01*
G01X746099Y1122123D02*
G01X696099Y1122123D01*
G01X696099Y1221836D02*
G01X746099Y1221836D01*
G01X761342Y1206601D02*
G01X761342Y1137358D01*
G01X746099Y1221839D02*
G02X761339Y1206599I0J-15240D01*
G01X761339Y1137358D02*
G02X746099Y1122118I-15240J0D01*
G01X601822Y1121910D02*
G02X586582Y1137150I0J15240D01*
G01X586582Y1206390D02*
G02X601822Y1221630I15240J0D01*
G01X1518582Y488776D02*
G01X1518582Y538776D01*
G01X1603060Y473534D02*
G01X1533820Y473534D01*
G01X1618300Y538776D02*
G01X1618300Y488776D01*
G01X1618087Y633053D02*
G01X1618087Y583053D01*
G01X1518374Y583053D02*
G01X1518374Y633053D01*
G01X1533609Y648296D02*
G01X1602852Y648296D01*
G01X1518371Y633053D02*
G02X1533611Y648293I15240J0D01*
G01X1602852Y648293D02*
G02X1618092Y633053I0J-15240D01*
G01X1618300Y488776D02*
G02X1603060Y473536I-15240J0D01*
G01X1533820Y473536D02*
G02X1518580Y488776I0J15240D01*
G01X1404282Y488776D02*
G01X1404282Y538776D01*
G01X1488760Y473534D02*
G01X1419520Y473534D01*
G01X1504000Y538776D02*
G01X1504000Y488776D01*
G01X1503787Y633053D02*
G01X1503787Y583053D01*
G01X1404074Y583053D02*
G01X1404074Y633053D01*
G01X1419309Y648296D02*
G01X1488552Y648296D01*
G01X1404071Y633053D02*
G02X1419311Y648293I15240J0D01*
G01X1488552Y648293D02*
G02X1503792Y633053I0J-15240D01*
G01X1504000Y488776D02*
G02X1488760Y473536I-15240J0D01*
G01X1419520Y473536D02*
G02X1404280Y488776I0J15240D01*
G01X1632882Y488776D02*
G01X1632882Y538776D01*
G01X1717360Y473534D02*
G01X1648120Y473534D01*
G01X1732600Y538776D02*
G01X1732600Y488776D01*
G01X1732387Y633053D02*
G01X1732387Y583053D01*
G01X1632674Y583053D02*
G01X1632674Y633053D01*
G01X1647909Y648296D02*
G01X1717152Y648296D01*
G01X1632671Y633053D02*
G02X1647911Y648293I15240J0D01*
G01X1717152Y648293D02*
G02X1732392Y633053I0J-15240D01*
G01X1732600Y488776D02*
G02X1717360Y473536I-15240J0D01*
G01X1648120Y473536D02*
G02X1632880Y488776I0J15240D01*
G01X1322974Y231761D02*
G01X1272974Y231761D01*
G01X1338217Y316239D02*
G01X1338217Y246999D01*
G01X1272974Y331479D02*
G01X1322974Y331479D01*
G01X1178697Y331266D02*
G01X1228697Y331266D01*
G01X1228697Y231553D02*
G01X1178697Y231553D01*
G01X1163455Y246788D02*
G01X1163455Y316031D01*
G01X1178697Y231550D02*
G02X1163457Y246790I0J15240D01*
G01X1163457Y316031D02*
G02X1178697Y331271I15240J0D01*
G01X1322974Y331479D02*
G02X1338214Y316239I0J-15240D01*
G01X1338214Y246999D02*
G02X1322974Y231759I-15240J0D01*
G01X1322974Y117461D02*
G01X1272974Y117461D01*
G01X1338217Y201939D02*
G01X1338217Y132699D01*
G01X1272974Y217179D02*
G01X1322974Y217179D01*
G01X1178697Y216966D02*
G01X1228697Y216966D01*
G01X1228697Y117253D02*
G01X1178697Y117253D01*
G01X1163455Y132488D02*
G01X1163455Y201731D01*
G01X1178697Y117250D02*
G02X1163457Y132490I0J15240D01*
G01X1163457Y201731D02*
G02X1178697Y216971I15240J0D01*
G01X1322974Y217179D02*
G02X1338214Y201939I0J-15240D01*
G01X1338214Y132699D02*
G02X1322974Y117459I-15240J0D01*
G01X1262489Y-98618D02*
G01X1262489Y-148618D01*
G01X1178011Y-83375D02*
G01X1247252Y-83375D01*
G01X1162771Y-148618D02*
G01X1162771Y-98618D01*
G01X1162985Y-242895D02*
G01X1162985Y-192895D01*
G01X1262698Y-192895D02*
G01X1262698Y-242895D01*
G01X1247463Y-258138D02*
G01X1178220Y-258138D01*
G01X1262700Y-242895D02*
G02X1247460Y-258135I-15240J0D01*
G01X1178220Y-258135D02*
G02X1162980Y-242895I0J15240D01*
G01X1162771Y-98618D02*
G02X1178011Y-83378I15240J0D01*
G01X1247252Y-83378D02*
G02X1262492Y-98618I0J-15240D01*
G01X-288039Y-610646D02*
G01X-238039Y-610646D01*
G01X-303281Y-695124D02*
G01X-303281Y-625884D01*
G01X-238039Y-710364D02*
G01X-288039Y-710364D01*
G01X-143761Y-710151D02*
G01X-193761Y-710151D01*
G01X-193761Y-610438D02*
G01X-143761Y-610438D01*
G01X-128519Y-625673D02*
G01X-128519Y-694916D01*
G01X-143761Y-610436D02*
G02X-128521Y-625676I0J-15240D01*
G01X-128521Y-694916D02*
G02X-143761Y-710156I-15240J0D01*
G01X-288039Y-710364D02*
G02X-303279Y-695124I0J15240D01*
G01X-303279Y-625884D02*
G02X-288039Y-610644I15240J0D01*
G01X-424304Y-351539D02*
G01X-424304Y-301539D01*
G01X-339827Y-366781D02*
G01X-409067Y-366781D01*
G01X-324587Y-301539D02*
G01X-324587Y-351539D01*
G01X-324800Y-207261D02*
G01X-324800Y-257261D01*
G01X-424513Y-257261D02*
G01X-424513Y-207261D01*
G01X-409278Y-192019D02*
G01X-340035Y-192019D01*
G01X-424515Y-207261D02*
G02X-409275Y-192021I15240J0D01*
G01X-340035Y-192021D02*
G02X-324795Y-207261I0J-15240D01*
G01X-324587Y-351539D02*
G02X-339827Y-366779I-15240J0D01*
G01X-409067Y-366779D02*
G02X-424307Y-351539I0J15240D01*
G01X1605389Y-98618D02*
G01X1605389Y-148618D01*
G01X1520911Y-83375D02*
G01X1590152Y-83375D01*
G01X1505671Y-148618D02*
G01X1505671Y-98618D01*
G01X1505885Y-242895D02*
G01X1505885Y-192895D01*
G01X1605598Y-192895D02*
G01X1605598Y-242895D01*
G01X1590363Y-258138D02*
G01X1521120Y-258138D01*
G01X1605600Y-242895D02*
G02X1590360Y-258135I-15240J0D01*
G01X1521120Y-258135D02*
G02X1505880Y-242895I0J15240D01*
G01X1505671Y-98618D02*
G02X1520911Y-83378I15240J0D01*
G01X1590152Y-83378D02*
G02X1605392Y-98618I0J-15240D01*
G01X1732389Y-98618D02*
G01X1732389Y-148618D01*
G01X1647911Y-83375D02*
G01X1717152Y-83375D01*
G01X1632671Y-148618D02*
G01X1632671Y-98618D01*
G01X1632885Y-242895D02*
G01X1632885Y-192895D01*
G01X1732598Y-192895D02*
G01X1732598Y-242895D01*
G01X1717363Y-258138D02*
G01X1648120Y-258138D01*
G01X1732600Y-242895D02*
G02X1717360Y-258135I-15240J0D01*
G01X1648120Y-258135D02*
G02X1632880Y-242895I0J15240D01*
G01X1632671Y-98618D02*
G02X1647911Y-83378I15240J0D01*
G01X1717152Y-83378D02*
G02X1732392Y-98618I0J-15240D01*
G01X1376789Y-98618D02*
G01X1376789Y-148618D01*
G01X1292311Y-83375D02*
G01X1361552Y-83375D01*
G01X1277071Y-148618D02*
G01X1277071Y-98618D01*
G01X1277285Y-242895D02*
G01X1277285Y-192895D01*
G01X1376998Y-192895D02*
G01X1376998Y-242895D01*
G01X1361763Y-258138D02*
G01X1292520Y-258138D01*
G01X1377000Y-242895D02*
G02X1361760Y-258135I-15240J0D01*
G01X1292520Y-258135D02*
G02X1277280Y-242895I0J15240D01*
G01X1277071Y-98618D02*
G02X1292311Y-83378I15240J0D01*
G01X1361552Y-83378D02*
G02X1376792Y-98618I0J-15240D01*
G01X1491089Y-98618D02*
G01X1491089Y-148618D01*
G01X1406611Y-83375D02*
G01X1475852Y-83375D01*
G01X1391371Y-148618D02*
G01X1391371Y-98618D01*
G01X1391585Y-242895D02*
G01X1391585Y-192895D01*
G01X1491298Y-192895D02*
G01X1491298Y-242895D01*
G01X1476063Y-258138D02*
G01X1406820Y-258138D01*
G01X1491300Y-242895D02*
G02X1476060Y-258135I-15240J0D01*
G01X1406820Y-258135D02*
G02X1391580Y-242895I0J15240D01*
G01X1391371Y-98618D02*
G02X1406611Y-83378I15240J0D01*
G01X1475852Y-83378D02*
G02X1491092Y-98618I0J-15240D01*
G01X1846689Y-98618D02*
G01X1846689Y-148618D01*
G01X1762211Y-83375D02*
G01X1831452Y-83375D01*
G01X1746971Y-148618D02*
G01X1746971Y-98618D01*
G01X1747185Y-242895D02*
G01X1747185Y-192895D01*
G01X1846898Y-192895D02*
G01X1846898Y-242895D01*
G01X1831663Y-258138D02*
G01X1762420Y-258138D01*
G01X1846900Y-242895D02*
G02X1831660Y-258135I-15240J0D01*
G01X1762420Y-258135D02*
G02X1747180Y-242895I0J15240D01*
G01X1746971Y-98618D02*
G02X1762211Y-83378I15240J0D01*
G01X1831452Y-83378D02*
G02X1846692Y-98618I0J-15240D01*
G01X1966520Y-98618D02*
G01X1966520Y-148618D01*
G01X1882042Y-83375D02*
G01X1951283Y-83375D01*
G01X1866802Y-148618D02*
G01X1866802Y-98618D01*
G01X1867016Y-242895D02*
G01X1867016Y-192895D01*
G01X1966728Y-192895D02*
G01X1966728Y-242895D01*
G01X1951493Y-258138D02*
G01X1882250Y-258138D01*
G01X1966731Y-242895D02*
G02X1951491Y-258135I-15240J0D01*
G01X1882250Y-258135D02*
G02X1867010Y-242895I0J15240D01*
G01X1866802Y-98618D02*
G02X1882042Y-83378I15240J0D01*
G01X1951283Y-83378D02*
G02X1966523Y-98618I0J-15240D01*
G01X1902597Y77268D02*
G01X1952597Y77268D01*
G01X1887355Y-7210D02*
G01X1887355Y62031D01*
G01X1952597Y-22450D02*
G01X1902597Y-22450D01*
G01X2046874Y-22236D02*
G01X1996874Y-22236D01*
G01X1996874Y77477D02*
G01X2046874Y77477D01*
G01X2062117Y62242D02*
G01X2062117Y-7001D01*
G01X2046874Y77479D02*
G02X2062114Y62239I0J-15240D01*
G01X2062114Y-7001D02*
G02X2046874Y-22241I-15240J0D01*
G01X1902597Y-22450D02*
G02X1887357Y-7210I0J15240D01*
G01X1887357Y62031D02*
G02X1902597Y77271I15240J0D01*
G01X1902597Y191568D02*
G01X1952597Y191568D01*
G01X1887355Y107090D02*
G01X1887355Y176331D01*
G01X1952597Y91850D02*
G01X1902597Y91850D01*
G01X2046874Y92064D02*
G01X1996874Y92064D01*
G01X1996874Y191777D02*
G01X2046874Y191777D01*
G01X2062117Y176542D02*
G01X2062117Y107299D01*
G01X2046874Y191779D02*
G02X2062114Y176539I0J-15240D01*
G01X2062114Y107299D02*
G02X2046874Y92059I-15240J0D01*
G01X1902597Y91850D02*
G02X1887357Y107090I0J15240D01*
G01X1887357Y176331D02*
G02X1902597Y191571I15240J0D01*
G01X1747182Y488776D02*
G01X1747182Y538776D01*
G01X1831660Y473534D02*
G01X1762420Y473534D01*
G01X1846900Y538776D02*
G01X1846900Y488776D01*
G01X1846687Y633053D02*
G01X1846687Y583053D01*
G01X1746974Y583053D02*
G01X1746974Y633053D01*
G01X1762209Y648296D02*
G01X1831452Y648296D01*
G01X1746971Y633053D02*
G02X1762211Y648293I15240J0D01*
G01X1831452Y648293D02*
G02X1846692Y633053I0J-15240D01*
G01X1846900Y488776D02*
G02X1831660Y473536I-15240J0D01*
G01X1762420Y473536D02*
G02X1747180Y488776I0J15240D01*
G01X-1362961Y-938754D02*
G01X-1412961Y-938754D01*
G01X-1347719Y-854276D02*
G01X-1347719Y-923516D01*
G01X-1412961Y-839036D02*
G01X-1362961Y-839036D01*
G01X-1507239Y-839249D02*
G01X-1457239Y-839249D01*
G01X-1457239Y-938962D02*
G01X-1507239Y-938962D01*
G01X-1522481Y-923727D02*
G01X-1522481Y-854484D01*
G01X-1507239Y-938964D02*
G02X-1522479Y-923724I0J15240D01*
G01X-1522479Y-854484D02*
G02X-1507239Y-839244I15240J0D01*
G01X-1362961Y-839036D02*
G02X-1347721Y-854276I0J-15240D01*
G01X-1347721Y-923516D02*
G02X-1362961Y-938756I-15240J0D01*
G01X-1362961Y-824454D02*
G01X-1412961Y-824454D01*
G01X-1347719Y-739976D02*
G01X-1347719Y-809216D01*
G01X-1412961Y-724736D02*
G01X-1362961Y-724736D01*
G01X-1507239Y-724949D02*
G01X-1457239Y-724949D01*
G01X-1457239Y-824662D02*
G01X-1507239Y-824662D01*
G01X-1522481Y-809427D02*
G01X-1522481Y-740184D01*
G01X-1507239Y-824664D02*
G02X-1522479Y-809424I0J15240D01*
G01X-1522479Y-740184D02*
G02X-1507239Y-724944I15240J0D01*
G01X-1362961Y-724736D02*
G02X-1347721Y-739976I0J-15240D01*
G01X-1347721Y-809216D02*
G02X-1362961Y-824456I-15240J0D01*
G01X-1332352Y-1097688D02*
G01X-1332352Y-1147688D01*
G01X-1416830Y-1082445D02*
G01X-1347590Y-1082445D01*
G01X-1432070Y-1147688D02*
G01X-1432070Y-1097688D01*
G01X-1431857Y-1241965D02*
G01X-1431857Y-1191965D01*
G01X-1332144Y-1191965D02*
G01X-1332144Y-1241965D01*
G01X-1347379Y-1257207D02*
G01X-1416622Y-1257207D01*
G01X-1332141Y-1241965D02*
G02X-1347381Y-1257205I-15240J0D01*
G01X-1416622Y-1257205D02*
G02X-1431862Y-1241965I0J15240D01*
G01X-1432070Y-1097688D02*
G02X-1416830Y-1082448I15240J0D01*
G01X-1347590Y-1082448D02*
G02X-1332350Y-1097688I0J-15240D01*
G01X-1446652Y-1097688D02*
G01X-1446652Y-1147688D01*
G01X-1531130Y-1082445D02*
G01X-1461890Y-1082445D01*
G01X-1546370Y-1147688D02*
G01X-1546370Y-1097688D01*
G01X-1546157Y-1241965D02*
G01X-1546157Y-1191965D01*
G01X-1446444Y-1191965D02*
G01X-1446444Y-1241965D01*
G01X-1461679Y-1257207D02*
G01X-1530922Y-1257207D01*
G01X-1446441Y-1241965D02*
G02X-1461681Y-1257205I-15240J0D01*
G01X-1530922Y-1257205D02*
G02X-1546162Y-1241965I0J15240D01*
G01X-1546370Y-1097688D02*
G02X-1531130Y-1082448I15240J0D01*
G01X-1461890Y-1082448D02*
G02X-1446650Y-1097688I0J-15240D01*
G01X-1560952Y-1097688D02*
G01X-1560952Y-1147688D01*
G01X-1645430Y-1082445D02*
G01X-1576190Y-1082445D01*
G01X-1660670Y-1147688D02*
G01X-1660670Y-1097688D01*
G01X-1660457Y-1241965D02*
G01X-1660457Y-1191965D01*
G01X-1560744Y-1191965D02*
G01X-1560744Y-1241965D01*
G01X-1575979Y-1257207D02*
G01X-1645222Y-1257207D01*
G01X-1560741Y-1241965D02*
G02X-1575981Y-1257205I-15240J0D01*
G01X-1645222Y-1257205D02*
G02X-1660462Y-1241965I0J15240D01*
G01X-1660670Y-1097688D02*
G02X-1645430Y-1082448I15240J0D01*
G01X-1576190Y-1082448D02*
G02X-1560950Y-1097688I0J-15240D01*
G01X-1141852Y-1288188D02*
G01X-1141852Y-1338188D01*
G01X-1226330Y-1272945D02*
G01X-1157090Y-1272945D01*
G01X-1241570Y-1338188D02*
G01X-1241570Y-1288188D01*
G01X-1241357Y-1432465D02*
G01X-1241357Y-1382465D01*
G01X-1141644Y-1382465D02*
G01X-1141644Y-1432465D01*
G01X-1156879Y-1447707D02*
G01X-1226122Y-1447707D01*
G01X-1141641Y-1432465D02*
G02X-1156881Y-1447705I-15240J0D01*
G01X-1226122Y-1447705D02*
G02X-1241362Y-1432465I0J15240D01*
G01X-1241570Y-1288188D02*
G02X-1226330Y-1272948I15240J0D01*
G01X-1157090Y-1272948D02*
G02X-1141850Y-1288188I0J-15240D01*
G01X-1256152Y-1288188D02*
G01X-1256152Y-1338188D01*
G01X-1340630Y-1272945D02*
G01X-1271390Y-1272945D01*
G01X-1355870Y-1338188D02*
G01X-1355870Y-1288188D01*
G01X-1355657Y-1432465D02*
G01X-1355657Y-1382465D01*
G01X-1255944Y-1382465D02*
G01X-1255944Y-1432465D01*
G01X-1271179Y-1447707D02*
G01X-1340422Y-1447707D01*
G01X-1255941Y-1432465D02*
G02X-1271181Y-1447705I-15240J0D01*
G01X-1340422Y-1447705D02*
G02X-1355662Y-1432465I0J15240D01*
G01X-1355870Y-1288188D02*
G02X-1340630Y-1272948I15240J0D01*
G01X-1271390Y-1272948D02*
G02X-1256150Y-1288188I0J-15240D01*
G01X-1362961Y-1053054D02*
G01X-1412961Y-1053054D01*
G01X-1347719Y-968576D02*
G01X-1347719Y-1037816D01*
G01X-1412961Y-953336D02*
G01X-1362961Y-953336D01*
G01X-1507239Y-953549D02*
G01X-1457239Y-953549D01*
G01X-1457239Y-1053262D02*
G01X-1507239Y-1053262D01*
G01X-1522481Y-1038027D02*
G01X-1522481Y-968784D01*
G01X-1507239Y-1053264D02*
G02X-1522479Y-1038024I0J15240D01*
G01X-1522479Y-968784D02*
G02X-1507239Y-953544I15240J0D01*
G01X-1362961Y-953336D02*
G02X-1347721Y-968576I0J-15240D01*
G01X-1347721Y-1037816D02*
G02X-1362961Y-1053056I-15240J0D01*
G01X-798952Y-1288188D02*
G01X-798952Y-1338188D01*
G01X-883430Y-1272945D02*
G01X-814190Y-1272945D01*
G01X-898670Y-1338188D02*
G01X-898670Y-1288188D01*
G01X-898457Y-1432465D02*
G01X-898457Y-1382465D01*
G01X-798744Y-1382465D02*
G01X-798744Y-1432465D01*
G01X-813979Y-1447707D02*
G01X-883222Y-1447707D01*
G01X-798741Y-1432465D02*
G02X-813981Y-1447705I-15240J0D01*
G01X-883222Y-1447705D02*
G02X-898462Y-1432465I0J15240D01*
G01X-898670Y-1288188D02*
G02X-883430Y-1272948I15240J0D01*
G01X-814190Y-1272948D02*
G02X-798950Y-1288188I0J-15240D01*
G01X-684652Y-1288188D02*
G01X-684652Y-1338188D01*
G01X-769130Y-1272945D02*
G01X-699890Y-1272945D01*
G01X-784370Y-1338188D02*
G01X-784370Y-1288188D01*
G01X-784157Y-1432465D02*
G01X-784157Y-1382465D01*
G01X-684444Y-1382465D02*
G01X-684444Y-1432465D01*
G01X-699679Y-1447707D02*
G01X-768922Y-1447707D01*
G01X-684441Y-1432465D02*
G02X-699681Y-1447705I-15240J0D01*
G01X-768922Y-1447705D02*
G02X-784162Y-1432465I0J15240D01*
G01X-784370Y-1288188D02*
G02X-769130Y-1272948I15240J0D01*
G01X-699890Y-1272948D02*
G02X-684650Y-1288188I0J-15240D01*
G01X-641444Y-1158173D02*
G01X-591444Y-1158173D01*
G01X-656687Y-1242651D02*
G01X-656687Y-1173410D01*
G01X-591444Y-1257891D02*
G01X-641444Y-1257891D01*
G01X-497167Y-1257677D02*
G01X-547167Y-1257677D01*
G01X-547167Y-1157964D02*
G01X-497167Y-1157964D01*
G01X-481925Y-1173199D02*
G01X-481925Y-1242442D01*
G01X-497167Y-1157962D02*
G02X-481927Y-1173202I0J-15240D01*
G01X-481927Y-1242442D02*
G02X-497167Y-1257682I-15240J0D01*
G01X-641444Y-1257891D02*
G02X-656684Y-1242651I0J15240D01*
G01X-656684Y-1173410D02*
G02X-641444Y-1158170I15240J0D01*
G01X-641444Y-1043873D02*
G01X-591444Y-1043873D01*
G01X-656687Y-1128351D02*
G01X-656687Y-1059110D01*
G01X-591444Y-1143591D02*
G01X-641444Y-1143591D01*
G01X-497167Y-1143377D02*
G01X-547167Y-1143377D01*
G01X-547167Y-1043664D02*
G01X-497167Y-1043664D01*
G01X-481925Y-1058899D02*
G01X-481925Y-1128142D01*
G01X-497167Y-1043662D02*
G02X-481927Y-1058902I0J-15240D01*
G01X-481927Y-1128142D02*
G02X-497167Y-1143382I-15240J0D01*
G01X-641444Y-1143591D02*
G02X-656684Y-1128351I0J15240D01*
G01X-656684Y-1059110D02*
G02X-641444Y-1043870I15240J0D01*
G01X-641444Y-815273D02*
G01X-591444Y-815273D01*
G01X-656687Y-899751D02*
G01X-656687Y-830510D01*
G01X-591444Y-914991D02*
G01X-641444Y-914991D01*
G01X-497167Y-914777D02*
G01X-547167Y-914777D01*
G01X-547167Y-815064D02*
G01X-497167Y-815064D01*
G01X-481925Y-830299D02*
G01X-481925Y-899542D01*
G01X-497167Y-815062D02*
G02X-481927Y-830302I0J-15240D01*
G01X-481927Y-899542D02*
G02X-497167Y-914782I-15240J0D01*
G01X-641444Y-914991D02*
G02X-656684Y-899751I0J15240D01*
G01X-656684Y-830510D02*
G02X-641444Y-815270I15240J0D01*
G01X-641444Y-929573D02*
G01X-591444Y-929573D01*
G01X-656687Y-1014051D02*
G01X-656687Y-944810D01*
G01X-591444Y-1029291D02*
G01X-641444Y-1029291D01*
G01X-497167Y-1029077D02*
G01X-547167Y-1029077D01*
G01X-547167Y-929364D02*
G01X-497167Y-929364D01*
G01X-481925Y-944599D02*
G01X-481925Y-1013842D01*
G01X-497167Y-929362D02*
G02X-481927Y-944602I0J-15240D01*
G01X-481927Y-1013842D02*
G02X-497167Y-1029082I-15240J0D01*
G01X-641444Y-1029291D02*
G02X-656684Y-1014051I0J15240D01*
G01X-656684Y-944810D02*
G02X-641444Y-929570I15240J0D01*
G01X-443352Y-640488D02*
G01X-443352Y-690488D01*
G01X-527830Y-625245D02*
G01X-458590Y-625245D01*
G01X-543070Y-690488D02*
G01X-543070Y-640488D01*
G01X-542857Y-784765D02*
G01X-542857Y-734765D01*
G01X-443144Y-734765D02*
G01X-443144Y-784765D01*
G01X-458379Y-800007D02*
G01X-527622Y-800007D01*
G01X-443141Y-784765D02*
G02X-458381Y-800005I-15240J0D01*
G01X-527622Y-800005D02*
G02X-542862Y-784765I0J15240D01*
G01X-543070Y-640488D02*
G02X-527830Y-625248I15240J0D01*
G01X-458590Y-625248D02*
G02X-443350Y-640488I0J-15240D01*
G01X-557652Y-640488D02*
G01X-557652Y-690488D01*
G01X-642130Y-625245D02*
G01X-572890Y-625245D01*
G01X-657370Y-690488D02*
G01X-657370Y-640488D01*
G01X-657157Y-784765D02*
G01X-657157Y-734765D01*
G01X-557444Y-734765D02*
G01X-557444Y-784765D01*
G01X-572679Y-800007D02*
G01X-641922Y-800007D01*
G01X-557441Y-784765D02*
G02X-572681Y-800005I-15240J0D01*
G01X-641922Y-800005D02*
G02X-657162Y-784765I0J15240D01*
G01X-657370Y-640488D02*
G02X-642130Y-625248I15240J0D01*
G01X-572890Y-625248D02*
G02X-557650Y-640488I0J-15240D01*
G01X-641444Y-510473D02*
G01X-591444Y-510473D01*
G01X-656687Y-594951D02*
G01X-656687Y-525710D01*
G01X-591444Y-610191D02*
G01X-641444Y-610191D01*
G01X-497167Y-609977D02*
G01X-547167Y-609977D01*
G01X-547167Y-510264D02*
G01X-497167Y-510264D01*
G01X-481925Y-525499D02*
G01X-481925Y-594742D01*
G01X-497167Y-510262D02*
G02X-481927Y-525502I0J-15240D01*
G01X-481927Y-594742D02*
G02X-497167Y-609982I-15240J0D01*
G01X-641444Y-610191D02*
G02X-656684Y-594951I0J15240D01*
G01X-656684Y-525710D02*
G02X-641444Y-510470I15240J0D01*
G01X-570454Y-351539D02*
G01X-570454Y-301539D01*
G01X-485976Y-366781D02*
G01X-555216Y-366781D01*
G01X-470736Y-301539D02*
G01X-470736Y-351539D01*
G01X-470949Y-207261D02*
G01X-470949Y-257261D01*
G01X-570662Y-257261D02*
G01X-570662Y-207261D01*
G01X-555427Y-192019D02*
G01X-486184Y-192019D01*
G01X-570664Y-207261D02*
G02X-555424Y-192021I15240J0D01*
G01X-486184Y-192021D02*
G02X-470944Y-207261I0J-15240D01*
G01X-470736Y-351539D02*
G02X-485976Y-366779I-15240J0D01*
G01X-555216Y-366779D02*
G02X-570456Y-351539I0J15240D01*
G01X-684754Y-351539D02*
G01X-684754Y-301539D01*
G01X-600276Y-366781D02*
G01X-669516Y-366781D01*
G01X-585036Y-301539D02*
G01X-585036Y-351539D01*
G01X-585249Y-207261D02*
G01X-585249Y-257261D01*
G01X-684962Y-257261D02*
G01X-684962Y-207261D01*
G01X-669727Y-192019D02*
G01X-600484Y-192019D01*
G01X-684964Y-207261D02*
G02X-669724Y-192021I15240J0D01*
G01X-600484Y-192021D02*
G02X-585244Y-207261I0J-15240D01*
G01X-585036Y-351539D02*
G02X-600276Y-366779I-15240J0D01*
G01X-669516Y-366779D02*
G02X-684756Y-351539I0J15240D01*
G01X-799054Y-351539D02*
G01X-799054Y-301539D01*
G01X-714576Y-366781D02*
G01X-783816Y-366781D01*
G01X-699336Y-301539D02*
G01X-699336Y-351539D01*
G01X-699549Y-207261D02*
G01X-699549Y-257261D01*
G01X-799262Y-257261D02*
G01X-799262Y-207261D01*
G01X-784027Y-192019D02*
G01X-714784Y-192019D01*
G01X-799264Y-207261D02*
G02X-784024Y-192021I15240J0D01*
G01X-714784Y-192021D02*
G02X-699544Y-207261I0J-15240D01*
G01X-699336Y-351539D02*
G02X-714576Y-366779I-15240J0D01*
G01X-783816Y-366779D02*
G02X-799056Y-351539I0J15240D01*
G01X-911159Y-351539D02*
G01X-911159Y-301539D01*
G01X-826681Y-366781D02*
G01X-895922Y-366781D01*
G01X-811441Y-301539D02*
G01X-811441Y-351539D01*
G01X-811655Y-207261D02*
G01X-811655Y-257261D01*
G01X-911367Y-257261D02*
G01X-911367Y-207261D01*
G01X-896133Y-192019D02*
G01X-826890Y-192019D01*
G01X-911370Y-207261D02*
G02X-896130Y-192021I15240J0D01*
G01X-826890Y-192021D02*
G02X-811650Y-207261I0J-15240D01*
G01X-811441Y-351539D02*
G02X-826681Y-366779I-15240J0D01*
G01X-895922Y-366779D02*
G02X-911162Y-351539I0J15240D01*
G01X-1025459Y-351539D02*
G01X-1025459Y-301539D01*
G01X-940981Y-366781D02*
G01X-1010222Y-366781D01*
G01X-925741Y-301539D02*
G01X-925741Y-351539D01*
G01X-925955Y-207261D02*
G01X-925955Y-257261D01*
G01X-1025667Y-257261D02*
G01X-1025667Y-207261D01*
G01X-1010433Y-192019D02*
G01X-941190Y-192019D01*
G01X-1025670Y-207261D02*
G02X-1010430Y-192021I15240J0D01*
G01X-941190Y-192021D02*
G02X-925950Y-207261I0J-15240D01*
G01X-925741Y-351539D02*
G02X-940981Y-366779I-15240J0D01*
G01X-1010222Y-366779D02*
G02X-1025462Y-351539I0J15240D01*
G01X-1141954Y-351539D02*
G01X-1141954Y-301539D01*
G01X-1057476Y-366781D02*
G01X-1126716Y-366781D01*
G01X-1042236Y-301539D02*
G01X-1042236Y-351539D01*
G01X-1042449Y-207261D02*
G01X-1042449Y-257261D01*
G01X-1142162Y-257261D02*
G01X-1142162Y-207261D01*
G01X-1126927Y-192019D02*
G01X-1057684Y-192019D01*
G01X-1142164Y-207261D02*
G02X-1126924Y-192021I15240J0D01*
G01X-1057684Y-192021D02*
G02X-1042444Y-207261I0J-15240D01*
G01X-1042236Y-351539D02*
G02X-1057476Y-366779I-15240J0D01*
G01X-1126716Y-366779D02*
G02X-1141956Y-351539I0J15240D01*
G01X-1256254Y-351539D02*
G01X-1256254Y-301539D01*
G01X-1171776Y-366781D02*
G01X-1241016Y-366781D01*
G01X-1156536Y-301539D02*
G01X-1156536Y-351539D01*
G01X-1156749Y-207261D02*
G01X-1156749Y-257261D01*
G01X-1256462Y-257261D02*
G01X-1256462Y-207261D01*
G01X-1241227Y-192019D02*
G01X-1171984Y-192019D01*
G01X-1256464Y-207261D02*
G02X-1241224Y-192021I15240J0D01*
G01X-1171984Y-192021D02*
G02X-1156744Y-207261I0J-15240D01*
G01X-1156536Y-351539D02*
G02X-1171776Y-366779I-15240J0D01*
G01X-1241016Y-366779D02*
G02X-1256256Y-351539I0J15240D01*
G01X-1370554Y-351539D02*
G01X-1370554Y-301539D01*
G01X-1286076Y-366781D02*
G01X-1355316Y-366781D01*
G01X-1270836Y-301539D02*
G01X-1270836Y-351539D01*
G01X-1271049Y-207261D02*
G01X-1271049Y-257261D01*
G01X-1370762Y-257261D02*
G01X-1370762Y-207261D01*
G01X-1355527Y-192019D02*
G01X-1286284Y-192019D01*
G01X-1370764Y-207261D02*
G02X-1355524Y-192021I15240J0D01*
G01X-1286284Y-192021D02*
G02X-1271044Y-207261I0J-15240D01*
G01X-1270836Y-351539D02*
G02X-1286076Y-366779I-15240J0D01*
G01X-1355316Y-366779D02*
G02X-1370556Y-351539I0J15240D01*
G01X732539Y191546D02*
G01X682539Y191546D01*
G01X747781Y276024D02*
G01X747781Y206784D01*
G01X682539Y291264D02*
G01X732539Y291264D01*
G01X588261Y291051D02*
G01X638261Y291051D01*
G01X638261Y191338D02*
G01X588261Y191338D01*
G01X573019Y206573D02*
G01X573019Y275816D01*
G01X588261Y191336D02*
G02X573021Y206576I0J15240D01*
G01X573021Y275816D02*
G02X588261Y291056I15240J0D01*
G01X732539Y291264D02*
G02X747779Y276024I0J-15240D01*
G01X747779Y206784D02*
G02X732539Y191544I-15240J0D01*
G01X760954Y465839D02*
G01X760954Y415839D01*
G01X676476Y481081D02*
G01X745716Y481081D01*
G01X661236Y415839D02*
G01X661236Y465839D01*
G01X661449Y321561D02*
G01X661449Y371561D01*
G01X761162Y371561D02*
G01X761162Y321561D01*
G01X745927Y306319D02*
G01X676684Y306319D01*
G01X761164Y321561D02*
G02X745924Y306321I-15240J0D01*
G01X676684Y306321D02*
G02X661444Y321561I0J15240D01*
G01X661236Y465839D02*
G02X676476Y481079I15240J0D01*
G01X745716Y481079D02*
G02X760956Y465839I0J-15240D01*
G01X646654Y465839D02*
G01X646654Y415839D01*
G01X562176Y481081D02*
G01X631416Y481081D01*
G01X546936Y415839D02*
G01X546936Y465839D01*
G01X547149Y321561D02*
G01X547149Y371561D01*
G01X646862Y371561D02*
G01X646862Y321561D01*
G01X631627Y306319D02*
G01X562384Y306319D01*
G01X646864Y321561D02*
G02X631624Y306321I-15240J0D01*
G01X562384Y306321D02*
G02X547144Y321561I0J15240D01*
G01X546936Y465839D02*
G02X562176Y481079I15240J0D01*
G01X631416Y481079D02*
G02X646656Y465839I0J-15240D01*
G01X719839Y699546D02*
G01X669839Y699546D01*
G01X735081Y784024D02*
G01X735081Y714784D01*
G01X669839Y799264D02*
G01X719839Y799264D01*
G01X575561Y799051D02*
G01X625561Y799051D01*
G01X625561Y699338D02*
G01X575561Y699338D01*
G01X560319Y714573D02*
G01X560319Y783816D01*
G01X575561Y699336D02*
G02X560321Y714576I0J15240D01*
G01X560321Y783816D02*
G02X575561Y799056I15240J0D01*
G01X719839Y799264D02*
G02X735079Y784024I0J-15240D01*
G01X735079Y714784D02*
G02X719839Y699544I-15240J0D01*
G01X-1972561Y64546D02*
G01X-2022561Y64546D01*
G01X-1957319Y149024D02*
G01X-1957319Y79784D01*
G01X-2022561Y164264D02*
G01X-1972561Y164264D01*
G01X-2116839Y164051D02*
G01X-2066839Y164051D01*
G01X-2066839Y64338D02*
G01X-2116839Y64338D01*
G01X-2132081Y79573D02*
G01X-2132081Y148816D01*
G01X-2116839Y64336D02*
G02X-2132079Y79576I0J15240D01*
G01X-2132079Y148816D02*
G02X-2116839Y164056I15240J0D01*
G01X-1972561Y164264D02*
G02X-1957321Y149024I0J-15240D01*
G01X-1957321Y79784D02*
G02X-1972561Y64544I-15240J0D01*
G01X-1944146Y34039D02*
G01X-1944146Y-15961D01*
G01X-2028624Y49281D02*
G01X-1959384Y49281D01*
G01X-2043864Y-15961D02*
G01X-2043864Y34039D01*
G01X-2043651Y-110239D02*
G01X-2043651Y-60239D01*
G01X-1943938Y-60239D02*
G01X-1943938Y-110239D01*
G01X-1959173Y-125481D02*
G01X-2028416Y-125481D01*
G01X-1943936Y-110239D02*
G02X-1959176Y-125479I-15240J0D01*
G01X-2028416Y-125479D02*
G02X-2043656Y-110239I0J15240D01*
G01X-2043864Y34039D02*
G02X-2028624Y49279I15240J0D01*
G01X-1959384Y49279D02*
G02X-1944144Y34039I0J-15240D01*
G01X-2058446Y34039D02*
G01X-2058446Y-15961D01*
G01X-2142924Y49281D02*
G01X-2073684Y49281D01*
G01X-2158164Y-15961D02*
G01X-2158164Y34039D01*
G01X-2157951Y-110239D02*
G01X-2157951Y-60239D01*
G01X-2058238Y-60239D02*
G01X-2058238Y-110239D01*
G01X-2073473Y-125481D02*
G01X-2142716Y-125481D01*
G01X-2058236Y-110239D02*
G02X-2073476Y-125479I-15240J0D01*
G01X-2142716Y-125479D02*
G02X-2157956Y-110239I0J15240D01*
G01X-2158164Y34039D02*
G02X-2142924Y49279I15240J0D01*
G01X-2073684Y49279D02*
G02X-2058444Y34039I0J-15240D01*
G01X508667Y-302001D02*
G01X508667Y-352001D01*
G01X424189Y-286758D02*
G01X493430Y-286758D01*
G01X408949Y-352001D02*
G01X408949Y-302001D01*
G01X409163Y-446278D02*
G01X409163Y-396278D01*
G01X508875Y-396278D02*
G01X508875Y-446278D01*
G01X493640Y-461521D02*
G01X424397Y-461521D01*
G01X508878Y-446278D02*
G02X493638Y-461518I-15240J0D01*
G01X424397Y-461518D02*
G02X409157Y-446278I0J15240D01*
G01X408949Y-302001D02*
G02X424189Y-286761I15240J0D01*
G01X493430Y-286761D02*
G02X508670Y-302001I0J-15240D01*
G01X528706Y-444325D02*
G01X528706Y-394325D01*
G01X613183Y-459568D02*
G01X543943Y-459568D01*
G01X628423Y-394325D02*
G01X628423Y-444325D01*
G01X628210Y-300048D02*
G01X628210Y-350048D01*
G01X528497Y-350048D02*
G01X528497Y-300048D01*
G01X543732Y-284806D02*
G01X612975Y-284806D01*
G01X528495Y-300048D02*
G02X543735Y-284808I15240J0D01*
G01X612975Y-284808D02*
G02X628215Y-300048I0J-15240D01*
G01X628423Y-444325D02*
G02X613183Y-459565I-15240J0D01*
G01X543943Y-459565D02*
G02X528703Y-444325I0J15240D01*
G01X646102Y-445270D02*
G01X646102Y-395270D01*
G01X730579Y-460512D02*
G01X661339Y-460512D01*
G01X745819Y-395270D02*
G01X745819Y-445270D01*
G01X745606Y-300993D02*
G01X745606Y-350992D01*
G01X645893Y-350992D02*
G01X645893Y-300993D01*
G01X661128Y-285750D02*
G01X730371Y-285750D01*
G01X645891Y-300993D02*
G02X661131Y-285753I15240J0D01*
G01X730371Y-285753D02*
G02X745611Y-300993I0J-15240D01*
G01X745819Y-445270D02*
G02X730579Y-460510I-15240J0D01*
G01X661339Y-460510D02*
G02X646099Y-445270I0J15240D01*
G01X864236Y-302526D02*
G01X864236Y-352526D01*
G01X779758Y-287283D02*
G01X848999Y-287283D01*
G01X764518Y-352526D02*
G01X764518Y-302526D01*
G01X764732Y-446803D02*
G01X764732Y-396803D01*
G01X864445Y-396803D02*
G01X864445Y-446803D01*
G01X849210Y-462045D02*
G01X779967Y-462045D01*
G01X864447Y-446803D02*
G02X849207Y-462043I-15240J0D01*
G01X779967Y-462043D02*
G02X764727Y-446803I0J15240D01*
G01X764518Y-302526D02*
G02X779758Y-287286I15240J0D01*
G01X848999Y-287286D02*
G02X864239Y-302526I0J-15240D01*
G01X1332454Y-981961D02*
G01X1332454Y-1031961D01*
G01X1247976Y-966719D02*
G01X1317216Y-966719D01*
G01X1232736Y-1031961D02*
G01X1232736Y-981961D01*
G01X1232949Y-1126239D02*
G01X1232949Y-1076239D01*
G01X1332662Y-1076239D02*
G01X1332662Y-1126239D01*
G01X1317427Y-1141481D02*
G01X1248184Y-1141481D01*
G01X1332664Y-1126239D02*
G02X1317424Y-1141479I-15240J0D01*
G01X1248184Y-1141479D02*
G02X1232944Y-1126239I0J15240D01*
G01X1232736Y-981961D02*
G02X1247976Y-966721I15240J0D01*
G01X1317216Y-966721D02*
G02X1332456Y-981961I0J-15240D01*
G01X1332454Y-596085D02*
G01X1332454Y-646085D01*
G01X1247976Y-580842D02*
G01X1317216Y-580842D01*
G01X1232736Y-646085D02*
G01X1232736Y-596085D01*
G01X1232949Y-740362D02*
G01X1232949Y-690362D01*
G01X1332662Y-690362D02*
G01X1332662Y-740362D01*
G01X1317427Y-755604D02*
G01X1248184Y-755604D01*
G01X1332664Y-740362D02*
G02X1317424Y-755602I-15240J0D01*
G01X1248184Y-755602D02*
G02X1232944Y-740362I0J15240D01*
G01X1232736Y-596085D02*
G02X1247976Y-580845I15240J0D01*
G01X1317216Y-580845D02*
G02X1332456Y-596085I0J-15240D01*
G01X1232946Y-935739D02*
G01X1232946Y-885739D01*
G01X1317424Y-950981D02*
G01X1248184Y-950981D01*
G01X1332664Y-885739D02*
G01X1332664Y-935739D01*
G01X1332451Y-791461D02*
G01X1332451Y-841461D01*
G01X1232738Y-841461D02*
G01X1232738Y-791461D01*
G01X1247973Y-776219D02*
G01X1317216Y-776219D01*
G01X1232736Y-791461D02*
G02X1247976Y-776221I15240J0D01*
G01X1317216Y-776221D02*
G02X1332456Y-791461I0J-15240D01*
G01X1332664Y-935739D02*
G02X1317424Y-950979I-15240J0D01*
G01X1248184Y-950979D02*
G02X1232944Y-935739I0J15240D01*
G01X694012Y-1389393D02*
G01X744012Y-1389393D01*
G01X678769Y-1473871D02*
G01X678769Y-1404630D01*
G01X744012Y-1489111D02*
G01X694012Y-1489111D01*
G01X838289Y-1488897D02*
G01X788289Y-1488897D01*
G01X788289Y-1389184D02*
G01X838289Y-1389184D01*
G01X853531Y-1404419D02*
G01X853531Y-1473662D01*
G01X838289Y-1389182D02*
G02X853529Y-1404422I0J-15240D01*
G01X853529Y-1473662D02*
G02X838289Y-1488902I-15240J0D01*
G01X694012Y-1489111D02*
G02X678772Y-1473871I0J15240D01*
G01X678772Y-1404630D02*
G02X694012Y-1389390I15240J0D01*
G01X694012Y-1503693D02*
G01X744012Y-1503693D01*
G01X678769Y-1588171D02*
G01X678769Y-1518930D01*
G01X744012Y-1603411D02*
G01X694012Y-1603411D01*
G01X838289Y-1603197D02*
G01X788289Y-1603197D01*
G01X788289Y-1503484D02*
G01X838289Y-1503484D01*
G01X853531Y-1518719D02*
G01X853531Y-1587962D01*
G01X838289Y-1503482D02*
G02X853529Y-1518722I0J-15240D01*
G01X853529Y-1587962D02*
G02X838289Y-1603202I-15240J0D01*
G01X694012Y-1603411D02*
G02X678772Y-1588171I0J15240D01*
G01X678772Y-1518930D02*
G02X694012Y-1503690I15240J0D01*
G01X694012Y-1617993D02*
G01X744012Y-1617993D01*
G01X678769Y-1702471D02*
G01X678769Y-1633230D01*
G01X744012Y-1717711D02*
G01X694012Y-1717711D01*
G01X838289Y-1717497D02*
G01X788289Y-1717497D01*
G01X788289Y-1617784D02*
G01X838289Y-1617784D01*
G01X853531Y-1633019D02*
G01X853531Y-1702262D01*
G01X838289Y-1617782D02*
G02X853529Y-1633022I0J-15240D01*
G01X853529Y-1702262D02*
G02X838289Y-1717502I-15240J0D01*
G01X694012Y-1717711D02*
G02X678772Y-1702471I0J15240D01*
G01X678772Y-1633230D02*
G02X694012Y-1617990I15240J0D01*
G01X766958Y-660250D02*
G01X766958Y-610250D01*
G01X851436Y-675493D02*
G01X782196Y-675493D01*
G01X866676Y-610250D02*
G01X866676Y-660250D01*
G01X866463Y-515973D02*
G01X866463Y-565973D01*
G01X766750Y-565973D02*
G01X766750Y-515973D01*
G01X781985Y-500731D02*
G01X851228Y-500731D01*
G01X766747Y-515973D02*
G02X781987Y-500733I15240J0D01*
G01X851228Y-500733D02*
G02X866468Y-515973I0J-15240D01*
G01X866676Y-660250D02*
G02X851436Y-675490I-15240J0D01*
G01X782196Y-675490D02*
G02X766956Y-660250I0J15240D01*
G01X-1845561Y-989554D02*
G01X-1895561Y-989554D01*
G01X-1830319Y-905076D02*
G01X-1830319Y-974316D01*
G01X-1895561Y-889836D02*
G01X-1845561Y-889836D01*
G01X-1989839Y-890049D02*
G01X-1939839Y-890049D01*
G01X-1939839Y-989762D02*
G01X-1989839Y-989762D01*
G01X-2005081Y-974527D02*
G01X-2005081Y-905284D01*
G01X-1989839Y-989764D02*
G02X-2005079Y-974524I0J15240D01*
G01X-2005079Y-905284D02*
G02X-1989839Y-890044I15240J0D01*
G01X-1845561Y-889836D02*
G02X-1830321Y-905076I0J-15240D01*
G01X-1830321Y-974316D02*
G02X-1845561Y-989556I-15240J0D01*
G01X-1870961Y-875254D02*
G01X-1920961Y-875254D01*
G01X-1855719Y-790776D02*
G01X-1855719Y-860016D01*
G01X-1920961Y-775536D02*
G01X-1870961Y-775536D01*
G01X-2015239Y-775749D02*
G01X-1965239Y-775749D01*
G01X-1965239Y-875462D02*
G01X-2015239Y-875462D01*
G01X-2030481Y-860227D02*
G01X-2030481Y-790984D01*
G01X-2015239Y-875464D02*
G02X-2030479Y-860224I0J15240D01*
G01X-2030479Y-790984D02*
G02X-2015239Y-775744I15240J0D01*
G01X-1870961Y-775536D02*
G02X-1855721Y-790776I0J-15240D01*
G01X-1855721Y-860016D02*
G02X-1870961Y-875256I-15240J0D01*
G01X-1652046Y-931161D02*
G01X-1652046Y-981161D01*
G01X-1736524Y-915919D02*
G01X-1667284Y-915919D01*
G01X-1751764Y-981161D02*
G01X-1751764Y-931161D01*
G01X-1751551Y-1075439D02*
G01X-1751551Y-1025439D01*
G01X-1651838Y-1025439D02*
G01X-1651838Y-1075439D01*
G01X-1667073Y-1090681D02*
G01X-1736316Y-1090681D01*
G01X-1651836Y-1075439D02*
G02X-1667076Y-1090679I-15240J0D01*
G01X-1736316Y-1090679D02*
G02X-1751556Y-1075439I0J15240D01*
G01X-1751764Y-931161D02*
G02X-1736524Y-915921I15240J0D01*
G01X-1667284Y-915921D02*
G02X-1652044Y-931161I0J-15240D01*
G01X-1926339Y-1004346D02*
G01X-1876339Y-1004346D01*
G01X-1941581Y-1088824D02*
G01X-1941581Y-1019584D01*
G01X-1876339Y-1104064D02*
G01X-1926339Y-1104064D01*
G01X-1782061Y-1103851D02*
G01X-1832061Y-1103851D01*
G01X-1832061Y-1004138D02*
G01X-1782061Y-1004138D01*
G01X-1766819Y-1019373D02*
G01X-1766819Y-1088616D01*
G01X-1782061Y-1004136D02*
G02X-1766821Y-1019376I0J-15240D01*
G01X-1766821Y-1088616D02*
G02X-1782061Y-1103856I-15240J0D01*
G01X-1926339Y-1104064D02*
G02X-1941579Y-1088824I0J15240D01*
G01X-1941579Y-1019584D02*
G02X-1926339Y-1004344I15240J0D01*
G01X1771874Y-918461D02*
G01X1771874Y-968461D01*
G01X1687396Y-903219D02*
G01X1756636Y-903219D01*
G01X1672156Y-968461D02*
G01X1672156Y-918461D01*
G01X1672369Y-1062739D02*
G01X1672369Y-1012739D01*
G01X1772082Y-1012739D02*
G01X1772082Y-1062739D01*
G01X1756847Y-1077981D02*
G01X1687604Y-1077981D01*
G01X1772084Y-1062739D02*
G02X1756844Y-1077979I-15240J0D01*
G01X1687604Y-1077979D02*
G02X1672364Y-1062739I0J15240D01*
G01X1672156Y-918461D02*
G02X1687396Y-903221I15240J0D01*
G01X1756636Y-903221D02*
G02X1771876Y-918461I0J-15240D01*
G01X1896334Y-918461D02*
G01X1896334Y-968461D01*
G01X1811856Y-903219D02*
G01X1881096Y-903219D01*
G01X1796616Y-968461D02*
G01X1796616Y-918461D01*
G01X1796829Y-1062739D02*
G01X1796829Y-1012739D01*
G01X1896542Y-1012739D02*
G01X1896542Y-1062739D01*
G01X1881307Y-1077981D02*
G01X1812064Y-1077981D01*
G01X1896544Y-1062739D02*
G02X1881304Y-1077979I-15240J0D01*
G01X1812064Y-1077979D02*
G02X1796824Y-1062739I0J15240D01*
G01X1796616Y-918461D02*
G02X1811856Y-903221I15240J0D01*
G01X1881096Y-903221D02*
G02X1896336Y-918461I0J-15240D01*
G01X1486946Y-542039D02*
G01X1486946Y-492039D01*
G01X1571424Y-557281D02*
G01X1502184Y-557281D01*
G01X1586664Y-492039D02*
G01X1586664Y-542039D01*
G01X1586451Y-397761D02*
G01X1586451Y-447761D01*
G01X1486738Y-447761D02*
G01X1486738Y-397761D01*
G01X1501973Y-382519D02*
G01X1571216Y-382519D01*
G01X1486736Y-397761D02*
G02X1501976Y-382521I15240J0D01*
G01X1571216Y-382521D02*
G02X1586456Y-397761I0J-15240D01*
G01X1586664Y-542039D02*
G02X1571424Y-557279I-15240J0D01*
G01X1502184Y-557279D02*
G02X1486944Y-542039I0J15240D01*
G01X1601246Y-542039D02*
G01X1601246Y-492039D01*
G01X1685724Y-557281D02*
G01X1616484Y-557281D01*
G01X1700964Y-492039D02*
G01X1700964Y-542039D01*
G01X1700751Y-397761D02*
G01X1700751Y-447761D01*
G01X1601038Y-447761D02*
G01X1601038Y-397761D01*
G01X1616273Y-382519D02*
G01X1685516Y-382519D01*
G01X1601036Y-397761D02*
G02X1616276Y-382521I15240J0D01*
G01X1685516Y-382521D02*
G02X1700756Y-397761I0J-15240D01*
G01X1700964Y-542039D02*
G02X1685724Y-557279I-15240J0D01*
G01X1616484Y-557279D02*
G02X1601244Y-542039I0J15240D01*
G54D11*
G01X-343601Y-1441600D02*
G01X-343601Y-1301600D01*
G01X-88600Y-1441600D02*
G01X-343601Y-1441600D01*
G01X-88600Y-1301600D02*
G01X-343601Y-1301600D01*
G01X-113599Y-1441600D02*
G01X-113599Y-1301600D01*
G01X-88600Y-1441600D02*
G01X-88600Y-1301600D01*
G54D10*
G01X315166Y-1075672D02*
G01X315166Y-897832D01*
G01X7328Y-1075672D02*
G01X7328Y-897832D01*
G54D12*
G01X-296432Y-5399D02*
G01X-296432Y-89277D01*
G01X-296432Y-89277D02*
G01X-480617Y-89277D01*
G01X-296432Y905427D02*
G01X-296432Y989306D01*
G01X-296432Y989306D02*
G01X-480617Y989306D01*
G54D13*
G01X1753446Y830668D02*
G01X1817764Y872436D01*
G01X1507362Y1243192D02*
G01X1556338Y1274997D01*
G01X1825953Y1277194D02*
G01X1929435Y1117847D01*
G01X1929430Y1117844D02*
G01X1828790Y1052487D01*
G01X1680710Y1280511D02*
G01X1873388Y983813D01*
G01X1647811Y908864D02*
G01X1520490Y1104921D01*
G01X1825949Y1277191D02*
G01X1725309Y1211835D01*
G01X1714864Y805612D02*
G01X1774565Y844383D01*
G01X1714864Y805612D02*
G01X1705667Y819774D01*
G01X1507362Y1243192D02*
G01X1453438Y1208173D01*
G01X1462634Y1194011D02*
G01X1453438Y1208173D01*
G01X-177627Y-961347D02*
G01X-63327Y-961347D01*
G01X-63327Y-961347D02*
G01X-50627Y-961347D01*
G01X-50627Y-961347D02*
G01X-25227Y-935947D01*
G01X-25227Y-935947D02*
G01X-25227Y-796247D01*
G01X-25227Y-796247D02*
G01X-25227Y-783547D01*
G01X-25227Y-783547D02*
G01X-50627Y-758147D01*
G01X-50627Y-758147D02*
G01X-177627Y-758147D01*
G01X-253827Y-758147D02*
G01X-368127Y-758147D01*
G01X-368127Y-758147D02*
G01X-380827Y-758147D01*
G01X-380827Y-758147D02*
G01X-406227Y-783547D01*
G01X-406227Y-783547D02*
G01X-406227Y-923247D01*
G01X-406227Y-923247D02*
G01X-406227Y-935947D01*
G01X-406227Y-935947D02*
G01X-380827Y-961347D01*
G01X-380827Y-961347D02*
G01X-253827Y-961347D01*
G01X-1742280Y-746115D02*
G01X-1742280Y-355613D01*
G01X-1742280Y-342913D02*
G01X-2042287Y-342913D01*
G01X-2042287Y-746115D02*
G01X-2042287Y-346116D01*
G01X-1742280Y-746115D02*
G01X-2042287Y-746115D01*
G01X2042320Y-746115D02*
G01X2042320Y-355613D01*
G01X2042320Y-342913D02*
G01X1742313Y-342913D01*
G01X1742313Y-746115D02*
G01X1742313Y-346116D01*
G01X2042320Y-746115D02*
G01X1742313Y-746115D01*
G54D10*
G01X37160Y-1368821D02*
G01X37160Y-1440624D01*
G01X37160Y-1440624D02*
G01X-62560Y-1440624D01*
G01X-62560Y-1440624D02*
G01X-62560Y-1368821D01*
G01X37160Y-1323579D02*
G01X37160Y-1251775D01*
G01X37160Y-1251775D02*
G01X-62560Y-1251775D01*
G01X-62560Y-1251775D02*
G01X-62560Y-1323579D01*
G01X265760Y-1368821D02*
G01X265760Y-1440624D01*
G01X265760Y-1440624D02*
G01X166040Y-1440624D01*
G01X166040Y-1440624D02*
G01X166040Y-1368821D01*
G01X265760Y-1323579D02*
G01X265760Y-1251775D01*
G01X265760Y-1251775D02*
G01X166040Y-1251775D01*
G01X166040Y-1251775D02*
G01X166040Y-1323579D01*
G01X278460Y-327421D02*
G01X278460Y-399224D01*
G01X278460Y-399224D02*
G01X178740Y-399224D01*
G01X178740Y-399224D02*
G01X178740Y-327421D01*
G01X278460Y-282179D02*
G01X278460Y-210375D01*
G01X278460Y-210375D02*
G01X178740Y-210375D01*
G01X178740Y-210375D02*
G01X178740Y-282179D01*
G01X151460Y-327421D02*
G01X151460Y-399224D01*
G01X151460Y-399224D02*
G01X51740Y-399224D01*
G01X51740Y-399224D02*
G01X51740Y-327421D01*
G01X151460Y-282179D02*
G01X151460Y-210375D01*
G01X151460Y-210375D02*
G01X51740Y-210375D01*
G01X51740Y-210375D02*
G01X51740Y-282179D01*
G01X970262Y1242960D02*
G01X970262Y1314763D01*
G01X970262Y1314763D02*
G01X1069982Y1314763D01*
G01X1069982Y1314763D02*
G01X1069982Y1242960D01*
G01X970262Y1197718D02*
G01X970262Y1125914D01*
G01X970262Y1125914D02*
G01X1069982Y1125914D01*
G01X1069982Y1125914D02*
G01X1069982Y1197718D01*
G01X1234679Y1016940D02*
G01X1162876Y1016940D01*
G01X1162876Y1016940D02*
G01X1162876Y1116660D01*
G01X1162876Y1116660D02*
G01X1234679Y1116660D01*
G01X1279921Y1016940D02*
G01X1351725Y1016940D01*
G01X1351725Y1016940D02*
G01X1351725Y1116660D01*
G01X1351725Y1116660D02*
G01X1279921Y1116660D01*
G01X1470421Y862660D02*
G01X1542225Y862660D01*
G01X1542225Y862660D02*
G01X1542225Y762940D01*
G01X1542225Y762940D02*
G01X1470421Y762940D01*
G01X1425179Y862660D02*
G01X1353376Y862660D01*
G01X1353376Y862660D02*
G01X1353376Y762940D01*
G01X1353376Y762940D02*
G01X1425179Y762940D01*
G01X1289876Y583536D02*
G01X1289876Y655339D01*
G01X1289876Y655339D02*
G01X1389596Y655339D01*
G01X1389596Y655339D02*
G01X1389596Y583536D01*
G01X1289876Y538294D02*
G01X1289876Y466490D01*
G01X1289876Y466490D02*
G01X1389596Y466490D01*
G01X1389596Y466490D02*
G01X1389596Y538294D01*
G01X1148296Y-200421D02*
G01X1148296Y-272224D01*
G01X1148296Y-272224D02*
G01X1048576Y-272224D01*
G01X1048576Y-272224D02*
G01X1048576Y-200421D01*
G01X1148296Y-155179D02*
G01X1148296Y-83375D01*
G01X1148296Y-83375D02*
G01X1048576Y-83375D01*
G01X1048576Y-83375D02*
G01X1048576Y-155179D01*
G01X1945879Y318440D02*
G01X1874076Y318440D01*
G01X1874076Y318440D02*
G01X1874076Y418160D01*
G01X1874076Y418160D02*
G01X1945879Y418160D01*
G01X1991121Y318440D02*
G01X2062925Y318440D01*
G01X2062925Y318440D02*
G01X2062925Y418160D01*
G01X2062925Y418160D02*
G01X1991121Y418160D01*
G01X1991121Y303860D02*
G01X2062925Y303860D01*
G01X2062925Y303860D02*
G01X2062925Y204140D01*
G01X2062925Y204140D02*
G01X1991121Y204140D01*
G01X1945879Y303860D02*
G01X1874076Y303860D01*
G01X1874076Y303860D02*
G01X1874076Y204140D01*
G01X1874076Y204140D02*
G01X1945879Y204140D01*
G01X1991121Y532460D02*
G01X2062925Y532460D01*
G01X2062925Y532460D02*
G01X2062925Y432740D01*
G01X2062925Y432740D02*
G01X1991121Y432740D01*
G01X1945879Y532460D02*
G01X1874076Y532460D01*
G01X1874076Y532460D02*
G01X1874076Y432740D01*
G01X1874076Y432740D02*
G01X1945879Y432740D01*
G01X659460Y-1648221D02*
G01X659460Y-1720024D01*
G01X659460Y-1720024D02*
G01X559740Y-1720024D01*
G01X559740Y-1720024D02*
G01X559740Y-1648221D01*
G01X659460Y-1602979D02*
G01X659460Y-1531175D01*
G01X659460Y-1531175D02*
G01X559740Y-1531175D01*
G01X559740Y-1531175D02*
G01X559740Y-1602979D01*
G01X-1425179Y-381940D02*
G01X-1353375Y-381940D01*
G01X-1353375Y-381940D02*
G01X-1353375Y-481660D01*
G01X-1353375Y-481660D02*
G01X-1425179Y-481660D01*
G01X-1470421Y-381940D02*
G01X-1542224Y-381940D01*
G01X-1542224Y-381940D02*
G01X-1542224Y-481660D01*
G01X-1542224Y-481660D02*
G01X-1470421Y-481660D01*
G01X-1484960Y-244079D02*
G01X-1484960Y-172275D01*
G01X-1484960Y-172275D02*
G01X-1385240Y-172275D01*
G01X-1385240Y-172275D02*
G01X-1385240Y-244079D01*
G01X-1484960Y-289321D02*
G01X-1484960Y-361124D01*
G01X-1484960Y-361124D02*
G01X-1385240Y-361124D01*
G01X-1385240Y-361124D02*
G01X-1385240Y-289321D01*
G01X-1470421Y-710260D02*
G01X-1542224Y-710260D01*
G01X-1542224Y-710260D02*
G01X-1542224Y-610540D01*
G01X-1542224Y-610540D02*
G01X-1470421Y-610540D01*
G01X-1425179Y-710260D02*
G01X-1353375Y-710260D01*
G01X-1353375Y-710260D02*
G01X-1353375Y-610540D01*
G01X-1353375Y-610540D02*
G01X-1425179Y-610540D01*
G01X-1425179Y-496240D02*
G01X-1353375Y-496240D01*
G01X-1353375Y-496240D02*
G01X-1353375Y-595960D01*
G01X-1353375Y-595960D02*
G01X-1425179Y-595960D01*
G01X-1470421Y-496240D02*
G01X-1542224Y-496240D01*
G01X-1542224Y-496240D02*
G01X-1542224Y-595960D01*
G01X-1542224Y-595960D02*
G01X-1470421Y-595960D01*
G01X-1027445Y-1382947D02*
G01X-1027445Y-1454751D01*
G01X-1027445Y-1454751D02*
G01X-1127166Y-1454751D01*
G01X-1127166Y-1454751D02*
G01X-1127166Y-1382947D01*
G01X-1027445Y-1337705D02*
G01X-1027445Y-1265902D01*
G01X-1027445Y-1265902D02*
G01X-1127166Y-1265902D01*
G01X-1127166Y-1265902D02*
G01X-1127166Y-1337705D01*
G01X-913145Y-1382947D02*
G01X-913145Y-1454751D01*
G01X-913145Y-1454751D02*
G01X-1012866Y-1454751D01*
G01X-1012866Y-1454751D02*
G01X-1012866Y-1382947D01*
G01X-913145Y-1337705D02*
G01X-913145Y-1265902D01*
G01X-913145Y-1265902D02*
G01X-1012866Y-1265902D01*
G01X-1012866Y-1265902D02*
G01X-1012866Y-1337705D01*
G01X670521Y104191D02*
G01X670521Y175994D01*
G01X670521Y175994D02*
G01X770241Y175994D01*
G01X770241Y175994D02*
G01X770241Y104191D01*
G01X670521Y58948D02*
G01X670521Y-12855D01*
G01X670521Y-12855D02*
G01X770241Y-12855D01*
G01X770241Y-12855D02*
G01X770241Y58948D01*
G01X547040Y104191D02*
G01X547040Y175994D01*
G01X547040Y175994D02*
G01X646760Y175994D01*
G01X646760Y175994D02*
G01X646760Y104191D01*
G01X547040Y58948D02*
G01X547040Y-12855D01*
G01X547040Y-12855D02*
G01X646760Y-12855D01*
G01X646760Y-12855D02*
G01X646760Y58948D01*
G01X661340Y612191D02*
G01X661340Y683994D01*
G01X661340Y683994D02*
G01X761060Y683994D01*
G01X761060Y683994D02*
G01X761060Y612191D01*
G01X661340Y566948D02*
G01X661340Y495145D01*
G01X661340Y495145D02*
G01X761060Y495145D01*
G01X761060Y495145D02*
G01X761060Y566948D01*
G01X543521Y612191D02*
G01X543521Y683994D01*
G01X543521Y683994D02*
G01X643241Y683994D01*
G01X643241Y683994D02*
G01X643241Y612191D01*
G01X543521Y566948D02*
G01X543521Y495145D01*
G01X543521Y495145D02*
G01X643241Y495145D01*
G01X643241Y495145D02*
G01X643241Y566948D01*
G01X-2043746Y481434D02*
G01X-2043746Y409631D01*
G01X-2043746Y409631D02*
G01X-2143467Y409631D01*
G01X-2143467Y409631D02*
G01X-2143467Y481434D01*
G01X-2043746Y526677D02*
G01X-2043746Y598480D01*
G01X-2043746Y598480D02*
G01X-2143467Y598480D01*
G01X-2143467Y598480D02*
G01X-2143467Y526677D01*
G01X-1918640Y481434D02*
G01X-1918640Y409631D01*
G01X-1918640Y409631D02*
G01X-2018360Y409631D01*
G01X-2018360Y409631D02*
G01X-2018360Y481434D01*
G01X-1918640Y526677D02*
G01X-1918640Y598480D01*
G01X-1918640Y598480D02*
G01X-2018360Y598480D01*
G01X-2018360Y598480D02*
G01X-2018360Y526677D01*
G01X-2022079Y392760D02*
G01X-1950275Y392760D01*
G01X-1950275Y392760D02*
G01X-1950275Y293040D01*
G01X-1950275Y293040D02*
G01X-2022079Y293040D01*
G01X-2067321Y392760D02*
G01X-2139124Y392760D01*
G01X-2139124Y392760D02*
G01X-2139124Y293040D01*
G01X-2139124Y293040D02*
G01X-2067321Y293040D01*
G01X-2022079Y278460D02*
G01X-1950275Y278460D01*
G01X-1950275Y278460D02*
G01X-1950275Y178740D01*
G01X-1950275Y178740D02*
G01X-2022079Y178740D01*
G01X-2067321Y278460D02*
G01X-2139124Y278460D01*
G01X-2139124Y278460D02*
G01X-2139124Y178740D01*
G01X-2139124Y178740D02*
G01X-2067321Y178740D01*
G01X631940Y-601051D02*
G01X631940Y-672854D01*
G01X631940Y-672854D02*
G01X532219Y-672854D01*
G01X532219Y-672854D02*
G01X532219Y-601051D01*
G01X631940Y-555808D02*
G01X631940Y-484005D01*
G01X631940Y-484005D02*
G01X532219Y-484005D01*
G01X532219Y-484005D02*
G01X532219Y-555808D01*
G01X746240Y-601051D02*
G01X746240Y-672854D01*
G01X746240Y-672854D02*
G01X646519Y-672854D01*
G01X646519Y-672854D02*
G01X646519Y-601051D01*
G01X746240Y-555808D02*
G01X746240Y-484005D01*
G01X746240Y-484005D02*
G01X646519Y-484005D01*
G01X646519Y-484005D02*
G01X646519Y-555808D01*
G01X1140221Y-864540D02*
G01X1212025Y-864540D01*
G01X1212025Y-864540D02*
G01X1212025Y-964260D01*
G01X1212025Y-964260D02*
G01X1140221Y-964260D01*
G01X1094979Y-864540D02*
G01X1023176Y-864540D01*
G01X1023176Y-864540D02*
G01X1023176Y-964260D01*
G01X1023176Y-964260D02*
G01X1094979Y-964260D01*
G01X1140221Y-750240D02*
G01X1212025Y-750240D01*
G01X1212025Y-750240D02*
G01X1212025Y-849960D01*
G01X1212025Y-849960D02*
G01X1140221Y-849960D01*
G01X1094979Y-750240D02*
G01X1023176Y-750240D01*
G01X1023176Y-750240D02*
G01X1023176Y-849960D01*
G01X1023176Y-849960D02*
G01X1094979Y-849960D01*
G01X1103960Y-606821D02*
G01X1103960Y-678624D01*
G01X1103960Y-678624D02*
G01X1004240Y-678624D01*
G01X1004240Y-678624D02*
G01X1004240Y-606821D01*
G01X1103960Y-561579D02*
G01X1103960Y-489775D01*
G01X1103960Y-489775D02*
G01X1004240Y-489775D01*
G01X1004240Y-489775D02*
G01X1004240Y-561579D01*
G01X989660Y-606821D02*
G01X989660Y-678624D01*
G01X989660Y-678624D02*
G01X889940Y-678624D01*
G01X889940Y-678624D02*
G01X889940Y-606821D01*
G01X989660Y-561579D02*
G01X989660Y-489775D01*
G01X989660Y-489775D02*
G01X889940Y-489775D01*
G01X889940Y-489775D02*
G01X889940Y-561579D01*
G01X-1713560Y-701279D02*
G01X-1713560Y-629475D01*
G01X-1713560Y-629475D02*
G01X-1613840Y-629475D01*
G01X-1613840Y-629475D02*
G01X-1613840Y-701279D01*
G01X-1713560Y-746521D02*
G01X-1713560Y-818324D01*
G01X-1713560Y-818324D02*
G01X-1613840Y-818324D01*
G01X-1613840Y-818324D02*
G01X-1613840Y-746521D01*
G01X1953021Y-775640D02*
G01X2024825Y-775640D01*
G01X2024825Y-775640D02*
G01X2024825Y-875360D01*
G01X2024825Y-875360D02*
G01X1953021Y-875360D01*
G01X1907779Y-775640D02*
G01X1835976Y-775640D01*
G01X1835976Y-775640D02*
G01X1835976Y-875360D01*
G01X1835976Y-875360D02*
G01X1907779Y-875360D01*
G54D13*
G01X1756482Y93635D02*
G01X1756482Y38641D01*
G01X1756482Y38641D02*
G01X1701489Y38641D01*
G01X1446496Y293634D02*
G01X1446496Y348628D01*
G01X1446496Y348628D02*
G01X1501489Y348628D01*
G01X1506493Y38641D02*
G01X1446496Y38641D01*
G01X1446496Y38641D02*
G01X1446496Y93635D01*
G01X1756482Y303644D02*
G01X1756482Y348628D01*
G01X1756482Y348628D02*
G01X1706493Y348628D01*
G54D14*
G01X-305511Y-483697D02*
G01X-320106Y-483697D01*
G01X-210513Y-483697D02*
G01X-214681Y-483697D01*
G01X-115519Y-483697D02*
G01X-119685Y-483697D01*
G01X-10104Y-483697D02*
G01X-24689Y-483697D01*
G01X-305511Y-303695D02*
G01X-320106Y-303695D01*
G01X-115519Y-303695D02*
G01X-214683Y-303695D01*
G01X-10104Y-303695D02*
G01X-24691Y-303695D01*
G01X-10104Y-303695D02*
G01X-10104Y-483697D01*
G01X-320106Y-303695D02*
G01X-320106Y-483697D01*
G36*
G01X-266700Y-414101D02*
G02X-266700Y-449501I212J-17700D01*
G02X-266700Y-414101I-212J17700D01*
G37*
G54D10*
G01X-847175Y-725851D02*
G01X-809807Y-725851D01*
G01X-809807Y-725851D02*
G01X-809807Y-763219D01*
G01X-847175Y-1141090D02*
G01X-809807Y-1141090D01*
G01X-809807Y-1141090D02*
G01X-809807Y-1103721D01*
G01X-1187677Y-725851D02*
G01X-1225046Y-725851D01*
G01X-1225046Y-725851D02*
G01X-1225046Y-763219D01*
G01X-1187677Y-1141090D02*
G01X-1225046Y-1141090D01*
G01X-1225046Y-1141090D02*
G01X-1225046Y-1103721D01*
G54D13*
G01X916285Y-1207520D02*
G01X947123Y-1207520D01*
G01X947123Y-1207520D02*
G01X949127Y-1205516D01*
G01X950463Y-1206852D02*
G01X950463Y-869298D01*
G01X950463Y-869298D02*
G01X949795Y-868630D01*
G01X949795Y-868630D02*
G01X916285Y-868630D01*
G01X638637Y-868630D02*
G01X611574Y-868630D01*
G01X611574Y-868630D02*
G01X611574Y-1207520D01*
G01X611574Y-1207520D02*
G01X638635Y-1207520D01*
G01X-449957Y-1941403D02*
G01X-449957Y-1760108D01*
G01X450043Y-1941403D02*
G01X450043Y-1760108D01*
G01X-449957Y-2315258D02*
G01X-449957Y-2163115D01*
G01X450043Y-2315258D02*
G01X450043Y-2163115D01*
G01X450043Y-2315258D02*
G01X-449957Y-2315258D01*
G01X464036Y1375627D02*
G01X324336Y1375627D01*
G01X436426Y1083527D02*
G01X351948Y1083527D01*
G01X483086Y1261327D02*
G01X483086Y1185127D01*
G54D10*
G01X-1200000Y1600000D02*
G01X-1067920Y1732080D01*
G01X-1062840Y1732080D01*
G01X-1200000Y1600000D02*
G01X-1332080Y1467920D01*
G01X-1337160Y1467920D01*
G01X-1200000Y1600000D02*
G01X-1064307Y1464308D01*
G01X-1200000Y1608742D02*
G01X-1327000Y1735742D01*
G01X-1327000Y1737160D01*
G01X1200000Y1600000D02*
G01X1332080Y1732080D01*
G01X1337160Y1732080D01*
G01X1200000Y1600000D02*
G01X1067920Y1467920D01*
G01X1062840Y1467920D01*
G01X1200000Y1600000D02*
G01X1335692Y1464308D01*
G01X1200000Y1608742D02*
G01X1073000Y1735742D01*
G01X1073000Y1737160D01*
G01X1200006Y-1600016D02*
G01X1332086Y-1467936D01*
G01X1337166Y-1467936D01*
G01X1200006Y-1600016D02*
G01X1067926Y-1732096D01*
G01X1062846Y-1732096D01*
G01X1200006Y-1600016D02*
G01X1335698Y-1735708D01*
G01X1200006Y-1591274D02*
G01X1073006Y-1464274D01*
G01X1073006Y-1462856D01*

G04 Circle Start*
G54D16*
G01X-20592Y-1116901D02*
G03X9431Y-1116901I15011J0D01*
G03X-20592Y-1116901I-15011J0D01*
G54D13*
G01X-2095477Y-673123D02*
G03X-2070077Y-673123I12700J0D01*
G03X-2095477Y-673123I-12700J0D01*
G01X-1904977Y-609623D02*
G03X-1879577Y-609623I12700J0D01*
G03X-1904977Y-609623I-12700J0D01*
G01X1689123Y-673123D02*
G03X1714523Y-673123I12700J0D01*
G03X1689123Y-673123I-12700J0D01*
G01X1879623Y-609623D02*
G03X1905023Y-609623I12700J0D01*
G03X1879623Y-609623I-12700J0D01*
G01X1731146Y384119D02*
G03X1751161Y384119I10008J0D01*
G03X1731146Y384119I-10008J0D01*
G54D17*
G01X-1275922Y-793466D02*
G03X-1260936Y-793466I7493J0D01*
G03X-1275922Y-793466I-7493J0D01*
G54D16*
G01X876750Y-945577D02*
G03X906772Y-945577I15011J0D01*
G03X876750Y-945577I-15011J0D01*
G01X923384Y-819873D02*
G03X953407Y-819873I15011J0D01*
G03X923384Y-819873I-15011J0D01*
G54D10*
G01X-1389992Y1600000D02*
G03X-1010008Y1600000I189992J0D01*
G03X-1389992Y1600000I-189992J0D01*
G01X1010008Y1600000D02*
G03X1389992Y1600000I189992J0D01*
G03X1010008Y1600000I-189992J0D01*
G01X1010014Y-1600016D02*
G03X1389998Y-1600016I189992J0D01*
G03X1010014Y-1600016I-189992J0D01*
G04 Circle End*

M02*

