G04 Layer: TopPasteMaskLayer*
G04 EasyEDA Pro v3.2.149.88089769, 2026-09-17 16:10:54*
G04 Gerber Generator version 0.3*
G04 Scale: 100 percent, Rotated: No, Reflected: No*
G04 Dimensions in millimeters*
G04 Leading zeros omitted, absolute positions, 4 integers and 5 decimals*
G04 Generated by one-click*
G04 Object Configs: Pad,Via,Track,Text,Image,Dimension,BoardOutline,BoardCutout,CopperFilled,SolidRegion,FPCStiffener,Line,PlaneZone,ComponentProperty,ComponentSilkscreen,TearDrop*
G04 Layer Configs: 1,2,3,4,5,6,7,8,9,10,11,13,14,56*
G04 Copper Areas: 0*
%FSLAX45Y45*%
%MOMM*%
%AMRect*21,1,$1,$2,0,0,$3*%
%ADD10R,0.54X0.5*%
%ADD11R,0.5X0.54*%
%ADD12R,0.7X1.0*%
%ADD13R,0.532X1.07201*%
%ADD14R,1.15001X0.3*%
%ADD15R,0.72499X0.3*%
%ADD16Rect,0.6X1.1X123.0*%
%ADD17Rect,0.95001X1.1X123.0*%
%ADD18C,0.8020*%
%ADD19C,0.8*%
%ADD20R,0.6X1.1*%
%ADD21O,0.36401X1.692*%
%ADD22R,1.0X0.6*%
G75*


G04 PolygonModel Start*
G36*
G01X-183754Y-837728D02*
G01X-145247Y-790908D01*
G01X-76500Y-790908D01*
G01X-66500Y-800908D01*
G01X-66500Y-918604D01*
G01X-76500Y-928604D01*
G01X-145247Y-928604D01*
G01X-183754Y-881789D01*
G01X-183754Y-837728D01*
G37*
G36*
G01X-255753Y-837728D02*
G01X-255753Y-881789D01*
G01X-294259Y-928604D01*
G01X-363007Y-928604D01*
G01X-373007Y-918604D01*
G01X-373007Y-800908D01*
G01X-363007Y-790908D01*
G01X-294259Y-790908D01*
G01X-255753Y-837728D01*
G37*
G36*
G01X10300Y-1332700D02*
G01X-35700Y-1332700D01*
G01X-39700Y-1328699D01*
G01X-39700Y-1278636D01*
G01X-35700Y-1274635D01*
G01X10300Y-1274635D01*
G01X14300Y-1278636D01*
G01X14300Y-1328699D01*
G01X10300Y-1332700D01*
G37*
G36*
G01X10300Y-1359700D02*
G01X14300Y-1363701D01*
G01X14300Y-1413764D01*
G01X10300Y-1417764D01*
G01X-35700Y-1417764D01*
G01X-39700Y-1413764D01*
G01X-39700Y-1363701D01*
G01X-35700Y-1359700D01*
G01X10300Y-1359700D01*
G37*
G36*
G01X238900Y-1332700D02*
G01X192900Y-1332700D01*
G01X188900Y-1328699D01*
G01X188900Y-1278636D01*
G01X192900Y-1274635D01*
G01X238900Y-1274635D01*
G01X242900Y-1278636D01*
G01X242900Y-1328699D01*
G01X238900Y-1332700D01*
G37*
G36*
G01X238900Y-1359700D02*
G01X242900Y-1363701D01*
G01X242900Y-1413764D01*
G01X238900Y-1417764D01*
G01X192900Y-1417764D01*
G01X188900Y-1413764D01*
G01X188900Y-1363701D01*
G01X192900Y-1359700D01*
G01X238900Y-1359700D01*
G37*
G36*
G01X251600Y-291300D02*
G01X205600Y-291300D01*
G01X201600Y-287299D01*
G01X201600Y-237236D01*
G01X205600Y-233235D01*
G01X251600Y-233235D01*
G01X255600Y-237236D01*
G01X255600Y-287299D01*
G01X251600Y-291300D01*
G37*
G36*
G01X251600Y-318300D02*
G01X255600Y-322301D01*
G01X255600Y-372364D01*
G01X251600Y-376364D01*
G01X205600Y-376364D01*
G01X201600Y-372364D01*
G01X201600Y-322301D01*
G01X205600Y-318300D01*
G01X251600Y-318300D01*
G37*
G36*
G01X124600Y-291300D02*
G01X78600Y-291300D01*
G01X74600Y-287299D01*
G01X74600Y-237236D01*
G01X78600Y-233235D01*
G01X124600Y-233235D01*
G01X128600Y-237236D01*
G01X128600Y-287299D01*
G01X124600Y-291300D01*
G37*
G36*
G01X124600Y-318300D02*
G01X128600Y-322301D01*
G01X128600Y-372364D01*
G01X124600Y-376364D01*
G01X78600Y-376364D01*
G01X74600Y-372364D01*
G01X74600Y-322301D01*
G01X78600Y-318300D01*
G01X124600Y-318300D01*
G37*
G36*
G01X997122Y1206839D02*
G01X1043122Y1206839D01*
G01X1047122Y1202838D01*
G01X1047122Y1152775D01*
G01X1043122Y1148774D01*
G01X997122Y1148774D01*
G01X993122Y1152775D01*
G01X993122Y1202838D01*
G01X997122Y1206839D01*
G37*
G36*
G01X997122Y1233839D02*
G01X993122Y1237840D01*
G01X993122Y1287903D01*
G01X997122Y1291903D01*
G01X1043122Y1291903D01*
G01X1047122Y1287903D01*
G01X1047122Y1237840D01*
G01X1043122Y1233839D01*
G01X997122Y1233839D01*
G37*
G36*
G01X1270800Y1043800D02*
G01X1270800Y1089800D01*
G01X1274801Y1093800D01*
G01X1324864Y1093800D01*
G01X1328865Y1089800D01*
G01X1328865Y1043800D01*
G01X1324864Y1039800D01*
G01X1274801Y1039800D01*
G01X1270800Y1043800D01*
G37*
G36*
G01X1243800Y1043800D02*
G01X1239799Y1039800D01*
G01X1189736Y1039800D01*
G01X1185736Y1043800D01*
G01X1185736Y1089800D01*
G01X1189736Y1093800D01*
G01X1239799Y1093800D01*
G01X1243800Y1089800D01*
G01X1243800Y1043800D01*
G37*
G36*
G01X1434300Y835800D02*
G01X1434300Y789800D01*
G01X1430299Y785800D01*
G01X1380236Y785800D01*
G01X1376236Y789800D01*
G01X1376236Y835800D01*
G01X1380236Y839800D01*
G01X1430299Y839800D01*
G01X1434300Y835800D01*
G37*
G36*
G01X1461300Y835800D02*
G01X1465301Y839800D01*
G01X1515364Y839800D01*
G01X1519365Y835800D01*
G01X1519365Y789800D01*
G01X1515364Y785800D01*
G01X1465301Y785800D01*
G01X1461300Y789800D01*
G01X1461300Y835800D01*
G37*
G36*
G01X1316736Y547415D02*
G01X1362735Y547415D01*
G01X1366736Y543414D01*
G01X1366736Y493351D01*
G01X1362735Y489350D01*
G01X1316736Y489350D01*
G01X1312736Y493351D01*
G01X1312736Y543414D01*
G01X1316736Y547415D01*
G37*
G36*
G01X1316736Y574415D02*
G01X1312736Y578415D01*
G01X1312736Y628479D01*
G01X1316736Y632479D01*
G01X1362735Y632479D01*
G01X1366736Y628479D01*
G01X1366736Y578415D01*
G01X1362735Y574415D01*
G01X1316736Y574415D01*
G37*
G36*
G01X1121435Y-164300D02*
G01X1075436Y-164300D01*
G01X1071436Y-160299D01*
G01X1071436Y-110236D01*
G01X1075436Y-106235D01*
G01X1121435Y-106235D01*
G01X1125436Y-110236D01*
G01X1125436Y-160299D01*
G01X1121435Y-164300D01*
G37*
G36*
G01X1121435Y-191300D02*
G01X1125436Y-195301D01*
G01X1125436Y-245364D01*
G01X1121435Y-249364D01*
G01X1075436Y-249364D01*
G01X1071436Y-245364D01*
G01X1071436Y-195301D01*
G01X1075436Y-191300D01*
G01X1121435Y-191300D01*
G37*
G36*
G01X1982000Y345300D02*
G01X1982000Y391300D01*
G01X1986001Y395300D01*
G01X2036064Y395300D01*
G01X2040065Y391300D01*
G01X2040065Y345300D01*
G01X2036064Y341300D01*
G01X1986001Y341300D01*
G01X1982000Y345300D01*
G37*
G36*
G01X1955000Y345300D02*
G01X1950999Y341300D01*
G01X1900936Y341300D01*
G01X1896936Y345300D01*
G01X1896936Y391300D01*
G01X1900936Y395300D01*
G01X1950999Y395300D01*
G01X1955000Y391300D01*
G01X1955000Y345300D01*
G37*
G36*
G01X1955000Y277000D02*
G01X1955000Y231000D01*
G01X1950999Y227000D01*
G01X1900936Y227000D01*
G01X1896936Y231000D01*
G01X1896936Y277000D01*
G01X1900936Y281000D01*
G01X1950999Y281000D01*
G01X1955000Y277000D01*
G37*
G36*
G01X1982000Y277000D02*
G01X1986001Y281000D01*
G01X2036064Y281000D01*
G01X2040065Y277000D01*
G01X2040065Y231000D01*
G01X2036064Y227000D01*
G01X1986001Y227000D01*
G01X1982000Y231000D01*
G01X1982000Y277000D01*
G37*
G36*
G01X1955000Y505600D02*
G01X1955000Y459600D01*
G01X1950999Y455600D01*
G01X1900936Y455600D01*
G01X1896936Y459600D01*
G01X1896936Y505600D01*
G01X1900936Y509600D01*
G01X1950999Y509600D01*
G01X1955000Y505600D01*
G37*
G36*
G01X1982000Y505600D02*
G01X1986001Y509600D01*
G01X2036064Y509600D01*
G01X2040065Y505600D01*
G01X2040065Y459600D01*
G01X2036064Y455600D01*
G01X1986001Y455600D01*
G01X1982000Y459600D01*
G01X1982000Y505600D01*
G37*
G36*
G01X632600Y-1612100D02*
G01X586600Y-1612100D01*
G01X582600Y-1608099D01*
G01X582600Y-1558036D01*
G01X586600Y-1554035D01*
G01X632600Y-1554035D01*
G01X636600Y-1558036D01*
G01X636600Y-1608099D01*
G01X632600Y-1612100D01*
G37*
G36*
G01X632600Y-1639100D02*
G01X636600Y-1643101D01*
G01X636600Y-1693164D01*
G01X632600Y-1697164D01*
G01X586600Y-1697164D01*
G01X582600Y-1693164D01*
G01X582600Y-1643101D01*
G01X586600Y-1639100D01*
G01X632600Y-1639100D01*
G37*
G36*
G01X-1461300Y-408800D02*
G01X-1461300Y-454800D01*
G01X-1465301Y-458800D01*
G01X-1515364Y-458800D01*
G01X-1519364Y-454800D01*
G01X-1519364Y-408800D01*
G01X-1515364Y-404800D01*
G01X-1465301Y-404800D01*
G01X-1461300Y-408800D01*
G37*
G36*
G01X-1434300Y-408800D02*
G01X-1430299Y-404800D01*
G01X-1380236Y-404800D01*
G01X-1376235Y-408800D01*
G01X-1376235Y-454800D01*
G01X-1380236Y-458800D01*
G01X-1430299Y-458800D01*
G01X-1434300Y-454800D01*
G01X-1434300Y-408800D01*
G37*
G36*
G01X-1458100Y-280200D02*
G01X-1412100Y-280200D01*
G01X-1408100Y-284201D01*
G01X-1408100Y-334264D01*
G01X-1412100Y-338264D01*
G01X-1458100Y-338264D01*
G01X-1462100Y-334264D01*
G01X-1462100Y-284201D01*
G01X-1458100Y-280200D01*
G37*
G36*
G01X-1458100Y-253200D02*
G01X-1462100Y-249199D01*
G01X-1462100Y-199136D01*
G01X-1458100Y-195135D01*
G01X-1412100Y-195135D01*
G01X-1408100Y-199136D01*
G01X-1408100Y-249199D01*
G01X-1412100Y-253200D01*
G01X-1458100Y-253200D01*
G37*
G36*
G01X-1434300Y-683400D02*
G01X-1434300Y-637400D01*
G01X-1430299Y-633400D01*
G01X-1380236Y-633400D01*
G01X-1376235Y-637400D01*
G01X-1376235Y-683400D01*
G01X-1380236Y-687400D01*
G01X-1430299Y-687400D01*
G01X-1434300Y-683400D01*
G37*
G36*
G01X-1461300Y-683400D02*
G01X-1465301Y-687400D01*
G01X-1515364Y-687400D01*
G01X-1519364Y-683400D01*
G01X-1519364Y-637400D01*
G01X-1515364Y-633400D01*
G01X-1465301Y-633400D01*
G01X-1461300Y-637400D01*
G01X-1461300Y-683400D01*
G37*
G36*
G01X-1461300Y-523100D02*
G01X-1461300Y-569100D01*
G01X-1465301Y-573100D01*
G01X-1515364Y-573100D01*
G01X-1519364Y-569100D01*
G01X-1519364Y-523100D01*
G01X-1515364Y-519100D01*
G01X-1465301Y-519100D01*
G01X-1461300Y-523100D01*
G37*
G36*
G01X-1434300Y-523100D02*
G01X-1430299Y-519100D01*
G01X-1380236Y-519100D01*
G01X-1376235Y-523100D01*
G01X-1376235Y-569100D01*
G01X-1380236Y-573100D01*
G01X-1430299Y-573100D01*
G01X-1434300Y-569100D01*
G01X-1434300Y-523100D01*
G37*
G36*
G01X-1054306Y-1346826D02*
G01X-1100305Y-1346826D01*
G01X-1104306Y-1342826D01*
G01X-1104306Y-1292762D01*
G01X-1100305Y-1288762D01*
G01X-1054306Y-1288762D01*
G01X-1050305Y-1292762D01*
G01X-1050305Y-1342826D01*
G01X-1054306Y-1346826D01*
G37*
G36*
G01X-1054306Y-1373826D02*
G01X-1050305Y-1377827D01*
G01X-1050305Y-1427890D01*
G01X-1054306Y-1431891D01*
G01X-1100305Y-1431891D01*
G01X-1104306Y-1427890D01*
G01X-1104306Y-1377827D01*
G01X-1100305Y-1373826D01*
G01X-1054306Y-1373826D01*
G37*
G36*
G01X-940006Y-1346826D02*
G01X-986005Y-1346826D01*
G01X-990006Y-1342826D01*
G01X-990006Y-1292762D01*
G01X-986005Y-1288762D01*
G01X-940006Y-1288762D01*
G01X-936005Y-1292762D01*
G01X-936005Y-1342826D01*
G01X-940006Y-1346826D01*
G37*
G36*
G01X-940006Y-1373826D02*
G01X-936005Y-1377827D01*
G01X-936005Y-1427890D01*
G01X-940006Y-1431891D01*
G01X-986005Y-1431891D01*
G01X-990006Y-1427890D01*
G01X-990006Y-1377827D01*
G01X-986005Y-1373826D01*
G01X-940006Y-1373826D01*
G37*
G36*
G01X697381Y68069D02*
G01X743381Y68069D01*
G01X747381Y64069D01*
G01X747381Y14006D01*
G01X743381Y10005D01*
G01X697381Y10005D01*
G01X693381Y14006D01*
G01X693381Y64069D01*
G01X697381Y68069D01*
G37*
G36*
G01X697381Y95070D02*
G01X693381Y99070D01*
G01X693381Y149134D01*
G01X697381Y153134D01*
G01X743381Y153134D01*
G01X747381Y149134D01*
G01X747381Y99070D01*
G01X743381Y95070D01*
G01X697381Y95070D01*
G37*
G36*
G01X573900Y68069D02*
G01X619900Y68069D01*
G01X623900Y64069D01*
G01X623900Y14006D01*
G01X619900Y10005D01*
G01X573900Y10005D01*
G01X569900Y14006D01*
G01X569900Y64069D01*
G01X573900Y68069D01*
G37*
G36*
G01X573900Y95070D02*
G01X569900Y99070D01*
G01X569900Y149134D01*
G01X573900Y153134D01*
G01X619900Y153134D01*
G01X623900Y149134D01*
G01X623900Y99070D01*
G01X619900Y95070D01*
G01X573900Y95070D01*
G37*
G36*
G01X688200Y576069D02*
G01X734200Y576069D01*
G01X738200Y572069D01*
G01X738200Y522006D01*
G01X734200Y518005D01*
G01X688200Y518005D01*
G01X684200Y522006D01*
G01X684200Y572069D01*
G01X688200Y576069D01*
G37*
G36*
G01X688200Y603070D02*
G01X684200Y607070D01*
G01X684200Y657134D01*
G01X688200Y661134D01*
G01X734200Y661134D01*
G01X738200Y657134D01*
G01X738200Y607070D01*
G01X734200Y603070D01*
G01X688200Y603070D01*
G37*
G36*
G01X570381Y576069D02*
G01X616381Y576069D01*
G01X620381Y572069D01*
G01X620381Y522006D01*
G01X616381Y518005D01*
G01X570381Y518005D01*
G01X566381Y522006D01*
G01X566381Y572069D01*
G01X570381Y576069D01*
G37*
G36*
G01X570381Y603070D02*
G01X566381Y607070D01*
G01X566381Y657134D01*
G01X570381Y661134D01*
G01X616381Y661134D01*
G01X620381Y657134D01*
G01X620381Y607070D01*
G01X616381Y603070D01*
G01X570381Y603070D01*
G37*
G36*
G01X-2070607Y517555D02*
G01X-2116606Y517555D01*
G01X-2120607Y521556D01*
G01X-2120607Y571619D01*
G01X-2116606Y575620D01*
G01X-2070607Y575620D01*
G01X-2066606Y571619D01*
G01X-2066606Y521556D01*
G01X-2070607Y517555D01*
G37*
G36*
G01X-2070607Y490555D02*
G01X-2066606Y486555D01*
G01X-2066606Y436491D01*
G01X-2070607Y432491D01*
G01X-2116606Y432491D01*
G01X-2120607Y436491D01*
G01X-2120607Y486555D01*
G01X-2116606Y490555D01*
G01X-2070607Y490555D01*
G37*
G36*
G01X-1945500Y517555D02*
G01X-1991500Y517555D01*
G01X-1995500Y521556D01*
G01X-1995500Y571619D01*
G01X-1991500Y575620D01*
G01X-1945500Y575620D01*
G01X-1941500Y571619D01*
G01X-1941500Y521556D01*
G01X-1945500Y517555D01*
G37*
G36*
G01X-1945500Y490555D02*
G01X-1941500Y486555D01*
G01X-1941500Y436491D01*
G01X-1945500Y432491D01*
G01X-1991500Y432491D01*
G01X-1995500Y436491D01*
G01X-1995500Y486555D01*
G01X-1991500Y490555D01*
G01X-1945500Y490555D01*
G37*
G36*
G01X-2058200Y365900D02*
G01X-2058200Y319900D01*
G01X-2062201Y315900D01*
G01X-2112264Y315900D01*
G01X-2116264Y319900D01*
G01X-2116264Y365900D01*
G01X-2112264Y369900D01*
G01X-2062201Y369900D01*
G01X-2058200Y365900D01*
G37*
G36*
G01X-2031200Y365900D02*
G01X-2027199Y369900D01*
G01X-1977136Y369900D01*
G01X-1973135Y365900D01*
G01X-1973135Y319900D01*
G01X-1977136Y315900D01*
G01X-2027199Y315900D01*
G01X-2031200Y319900D01*
G01X-2031200Y365900D01*
G37*
G36*
G01X-2058200Y251600D02*
G01X-2058200Y205600D01*
G01X-2062201Y201600D01*
G01X-2112264Y201600D01*
G01X-2116264Y205600D01*
G01X-2116264Y251600D01*
G01X-2112264Y255600D01*
G01X-2062201Y255600D01*
G01X-2058200Y251600D01*
G37*
G36*
G01X-2031200Y251600D02*
G01X-2027199Y255600D01*
G01X-1977136Y255600D01*
G01X-1973135Y251600D01*
G01X-1973135Y205600D01*
G01X-1977136Y201600D01*
G01X-2027199Y201600D01*
G01X-2031200Y205600D01*
G01X-2031200Y251600D01*
G37*
G36*
G01X605079Y-564930D02*
G01X559080Y-564930D01*
G01X555079Y-560929D01*
G01X555079Y-510866D01*
G01X559080Y-506865D01*
G01X605079Y-506865D01*
G01X609080Y-510866D01*
G01X609080Y-560929D01*
G01X605079Y-564930D01*
G37*
G36*
G01X605079Y-591930D02*
G01X609080Y-595930D01*
G01X609080Y-645994D01*
G01X605079Y-649994D01*
G01X559080Y-649994D01*
G01X555079Y-645994D01*
G01X555079Y-595930D01*
G01X559080Y-591930D01*
G01X605079Y-591930D01*
G37*
G36*
G01X719379Y-564930D02*
G01X673380Y-564930D01*
G01X669379Y-560929D01*
G01X669379Y-510866D01*
G01X673380Y-506865D01*
G01X719379Y-506865D01*
G01X723380Y-510866D01*
G01X723380Y-560929D01*
G01X719379Y-564930D01*
G37*
G36*
G01X719379Y-591930D02*
G01X723380Y-595930D01*
G01X723380Y-645994D01*
G01X719379Y-649994D01*
G01X673380Y-649994D01*
G01X669379Y-645994D01*
G01X669379Y-595930D01*
G01X673380Y-591930D01*
G01X719379Y-591930D01*
G37*
G36*
G01X1104100Y-891400D02*
G01X1104100Y-937400D01*
G01X1100099Y-941400D01*
G01X1050036Y-941400D01*
G01X1046036Y-937400D01*
G01X1046036Y-891400D01*
G01X1050036Y-887400D01*
G01X1100099Y-887400D01*
G01X1104100Y-891400D01*
G37*
G36*
G01X1131100Y-891400D02*
G01X1135101Y-887400D01*
G01X1185164Y-887400D01*
G01X1189165Y-891400D01*
G01X1189165Y-937400D01*
G01X1185164Y-941400D01*
G01X1135101Y-941400D01*
G01X1131100Y-937400D01*
G01X1131100Y-891400D01*
G37*
G36*
G01X1104100Y-777100D02*
G01X1104100Y-823100D01*
G01X1100099Y-827100D01*
G01X1050036Y-827100D01*
G01X1046036Y-823100D01*
G01X1046036Y-777100D01*
G01X1050036Y-773100D01*
G01X1100099Y-773100D01*
G01X1104100Y-777100D01*
G37*
G36*
G01X1131100Y-777100D02*
G01X1135101Y-773100D01*
G01X1185164Y-773100D01*
G01X1189165Y-777100D01*
G01X1189165Y-823100D01*
G01X1185164Y-827100D01*
G01X1135101Y-827100D01*
G01X1131100Y-823100D01*
G01X1131100Y-777100D01*
G37*
G36*
G01X1077100Y-570700D02*
G01X1031100Y-570700D01*
G01X1027100Y-566699D01*
G01X1027100Y-516636D01*
G01X1031100Y-512635D01*
G01X1077100Y-512635D01*
G01X1081100Y-516636D01*
G01X1081100Y-566699D01*
G01X1077100Y-570700D01*
G37*
G36*
G01X1077100Y-597700D02*
G01X1081100Y-601701D01*
G01X1081100Y-651764D01*
G01X1077100Y-655764D01*
G01X1031100Y-655764D01*
G01X1027100Y-651764D01*
G01X1027100Y-601701D01*
G01X1031100Y-597700D01*
G01X1077100Y-597700D01*
G37*
G36*
G01X962800Y-570700D02*
G01X916800Y-570700D01*
G01X912800Y-566699D01*
G01X912800Y-516636D01*
G01X916800Y-512635D01*
G01X962800Y-512635D01*
G01X966800Y-516636D01*
G01X966800Y-566699D01*
G01X962800Y-570700D01*
G37*
G36*
G01X962800Y-597700D02*
G01X966800Y-601701D01*
G01X966800Y-651764D01*
G01X962800Y-655764D01*
G01X916800Y-655764D01*
G01X912800Y-651764D01*
G01X912800Y-601701D01*
G01X916800Y-597700D01*
G01X962800Y-597700D01*
G37*
G36*
G01X-1686700Y-737400D02*
G01X-1640700Y-737400D01*
G01X-1636700Y-741401D01*
G01X-1636700Y-791464D01*
G01X-1640700Y-795464D01*
G01X-1686700Y-795464D01*
G01X-1690700Y-791464D01*
G01X-1690700Y-741401D01*
G01X-1686700Y-737400D01*
G37*
G36*
G01X-1686700Y-710400D02*
G01X-1690700Y-706399D01*
G01X-1690700Y-656336D01*
G01X-1686700Y-652335D01*
G01X-1640700Y-652335D01*
G01X-1636700Y-656336D01*
G01X-1636700Y-706399D01*
G01X-1640700Y-710400D01*
G01X-1686700Y-710400D01*
G37*
G36*
G01X1916900Y-802500D02*
G01X1916900Y-848500D01*
G01X1912899Y-852500D01*
G01X1862836Y-852500D01*
G01X1858836Y-848500D01*
G01X1858836Y-802500D01*
G01X1862836Y-798500D01*
G01X1912899Y-798500D01*
G01X1916900Y-802500D01*
G37*
G36*
G01X1943900Y-802500D02*
G01X1947901Y-798500D01*
G01X1997964Y-798500D01*
G01X2001965Y-802500D01*
G01X2001965Y-848500D01*
G01X1997964Y-852500D01*
G01X1947901Y-852500D01*
G01X1943900Y-848500D01*
G01X1943900Y-802500D01*
G37*
G36*
G01X1533486Y125636D02*
G01X1533486Y261638D01*
G01X1669487Y261638D01*
G01X1669487Y125636D01*
G01X1533486Y125636D01*
G37*
G36*
G01X1711489Y123624D02*
G01X1791489Y123624D01*
G01X1791489Y103624D01*
G01X1711489Y103624D01*
G01X1711489Y123624D01*
G37*
G36*
G01X1711489Y163629D02*
G01X1791489Y163629D01*
G01X1791489Y143629D01*
G01X1711489Y143629D01*
G01X1711489Y163629D01*
G37*
G36*
G01X1711489Y203609D02*
G01X1791489Y203609D01*
G01X1791489Y183609D01*
G01X1711489Y183609D01*
G01X1711489Y203609D01*
G37*
G36*
G01X1711489Y243614D02*
G01X1791489Y243614D01*
G01X1791489Y223614D01*
G01X1711489Y223614D01*
G01X1711489Y243614D01*
G37*
G36*
G01X1711489Y283619D02*
G01X1791489Y283619D01*
G01X1791489Y263619D01*
G01X1711489Y263619D01*
G01X1711489Y283619D01*
G37*
G36*
G01X1411489Y123650D02*
G01X1491489Y123650D01*
G01X1491489Y103650D01*
G01X1411489Y103650D01*
G01X1411489Y123650D01*
G37*
G36*
G01X1411489Y163655D02*
G01X1491489Y163655D01*
G01X1491489Y143655D01*
G01X1411489Y143655D01*
G01X1411489Y163655D01*
G37*
G36*
G01X1411489Y203634D02*
G01X1491489Y203634D01*
G01X1491489Y183634D01*
G01X1411489Y183634D01*
G01X1411489Y203634D01*
G37*
G36*
G01X1411489Y243639D02*
G01X1491489Y243639D01*
G01X1491489Y223639D01*
G01X1411489Y223639D01*
G01X1411489Y243639D01*
G37*
G36*
G01X1411489Y283644D02*
G01X1491489Y283644D01*
G01X1491489Y263644D01*
G01X1411489Y263644D01*
G01X1411489Y283644D01*
G37*
G36*
G01X1671499Y303629D02*
G01X1671499Y383629D01*
G01X1691499Y383629D01*
G01X1691499Y303629D01*
G01X1671499Y303629D01*
G37*
G36*
G01X1631494Y303629D02*
G01X1631494Y383629D01*
G01X1651494Y383629D01*
G01X1651494Y303629D01*
G01X1631494Y303629D01*
G37*
G36*
G01X1591514Y303629D02*
G01X1591514Y383629D01*
G01X1611514Y383629D01*
G01X1611514Y303629D01*
G01X1591514Y303629D01*
G37*
G36*
G01X1551509Y303629D02*
G01X1551509Y383629D01*
G01X1571509Y383629D01*
G01X1571509Y303629D01*
G01X1551509Y303629D01*
G37*
G36*
G01X1511504Y303629D02*
G01X1511504Y383629D01*
G01X1531504Y383629D01*
G01X1531504Y303629D01*
G01X1511504Y303629D01*
G37*
G36*
G01X1671499Y3630D02*
G01X1671499Y83630D01*
G01X1691499Y83630D01*
G01X1691499Y3630D01*
G01X1671499Y3630D01*
G37*
G36*
G01X1631494Y3630D02*
G01X1631494Y83630D01*
G01X1651494Y83630D01*
G01X1651494Y3630D01*
G01X1631494Y3630D01*
G37*
G36*
G01X1591514Y3630D02*
G01X1591514Y83630D01*
G01X1611514Y83630D01*
G01X1611514Y3630D01*
G01X1591514Y3630D01*
G37*
G36*
G01X1551509Y3630D02*
G01X1551509Y83630D01*
G01X1571509Y83630D01*
G01X1571509Y3630D01*
G01X1551509Y3630D01*
G37*
G36*
G01X1511504Y3630D02*
G01X1511504Y83630D01*
G01X1531504Y83630D01*
G01X1531504Y3630D01*
G01X1511504Y3630D01*
G37*
G36*
G01X-1129425Y-821472D02*
G01X-905427Y-821472D01*
G01X-905427Y-1045469D01*
G01X-1129425Y-1045469D01*
G01X-1129425Y-821472D01*
G37*
G36*
G01X-887421Y-763471D02*
G01X-887421Y-703471D01*
G01X-867421Y-703471D01*
G01X-867421Y-763471D01*
G01X-887421Y-763471D01*
G37*
G36*
G01X-927426Y-763471D02*
G01X-927426Y-703471D01*
G01X-907426Y-703471D01*
G01X-907426Y-763471D01*
G01X-927426Y-763471D01*
G37*
G36*
G01X-967431Y-763471D02*
G01X-967431Y-703471D01*
G01X-947431Y-703471D01*
G01X-947431Y-763471D01*
G01X-967431Y-763471D01*
G37*
G36*
G01X-1007436Y-763471D02*
G01X-1007436Y-703471D01*
G01X-987436Y-703471D01*
G01X-987436Y-763471D01*
G01X-1007436Y-763471D01*
G37*
G36*
G01X-1047416Y-763471D02*
G01X-1047416Y-703471D01*
G01X-1027416Y-703471D01*
G01X-1027416Y-763471D01*
G01X-1047416Y-763471D01*
G37*
G36*
G01X-1087421Y-763471D02*
G01X-1087421Y-703471D01*
G01X-1067421Y-703471D01*
G01X-1067421Y-763471D01*
G01X-1087421Y-763471D01*
G37*
G36*
G01X-1127426Y-763471D02*
G01X-1127426Y-703471D01*
G01X-1107426Y-703471D01*
G01X-1107426Y-763471D01*
G01X-1127426Y-763471D01*
G37*
G36*
G01X-1167431Y-763471D02*
G01X-1167431Y-703471D01*
G01X-1147431Y-703471D01*
G01X-1147431Y-763471D01*
G01X-1167431Y-763471D01*
G37*
G36*
G01X-1187423Y-1083475D02*
G01X-1247426Y-1083475D01*
G01X-1247426Y-1063475D01*
G01X-1187426Y-1063475D01*
G01X-1187423Y-1083475D01*
G37*
G36*
G01X-1187426Y-1043470D02*
G01X-1247426Y-1043470D01*
G01X-1247426Y-1023470D01*
G01X-1187426Y-1023470D01*
G01X-1187426Y-1043470D01*
G37*
G36*
G01X-1187426Y-1003465D02*
G01X-1247426Y-1003465D01*
G01X-1247426Y-983465D01*
G01X-1187426Y-983465D01*
G01X-1187426Y-1003465D01*
G37*
G36*
G01X-1187426Y-963460D02*
G01X-1247426Y-963460D01*
G01X-1247426Y-943460D01*
G01X-1187426Y-943460D01*
G01X-1187426Y-963460D01*
G37*
G36*
G01X-1187426Y-923480D02*
G01X-1247426Y-923480D01*
G01X-1247426Y-903481D01*
G01X-1187423Y-903481D01*
G01X-1187426Y-923480D01*
G37*
G36*
G01X-1187426Y-883475D02*
G01X-1247426Y-883475D01*
G01X-1247426Y-863476D01*
G01X-1187423Y-863476D01*
G01X-1187426Y-883475D01*
G37*
G36*
G01X-1187426Y-843470D02*
G01X-1247426Y-843470D01*
G01X-1247426Y-823468D01*
G01X-1187423Y-823471D01*
G01X-1187426Y-843470D01*
G37*
G36*
G01X-1187423Y-803465D02*
G01X-1247426Y-803465D01*
G01X-1247426Y-783466D01*
G01X-1187423Y-783466D01*
G01X-1187423Y-803465D01*
G37*
G36*
G01X-1167431Y-1163470D02*
G01X-1167431Y-1103470D01*
G01X-1147431Y-1103470D01*
G01X-1147431Y-1163470D01*
G01X-1167431Y-1163470D01*
G37*
G36*
G01X-1127426Y-1163470D02*
G01X-1127426Y-1103470D01*
G01X-1107426Y-1103470D01*
G01X-1107426Y-1163470D01*
G01X-1127426Y-1163470D01*
G37*
G36*
G01X-1087421Y-1163470D02*
G01X-1087421Y-1103470D01*
G01X-1067421Y-1103470D01*
G01X-1067421Y-1163470D01*
G01X-1087421Y-1163470D01*
G37*
G36*
G01X-1047416Y-1163470D02*
G01X-1047416Y-1103470D01*
G01X-1027416Y-1103470D01*
G01X-1027416Y-1163470D01*
G01X-1047416Y-1163470D01*
G37*
G36*
G01X-1007436Y-1163470D02*
G01X-1007436Y-1103470D01*
G01X-987436Y-1103470D01*
G01X-987436Y-1163470D01*
G01X-1007436Y-1163470D01*
G37*
G36*
G01X-967431Y-1163470D02*
G01X-967431Y-1103470D01*
G01X-947431Y-1103470D01*
G01X-947431Y-1163470D01*
G01X-967431Y-1163470D01*
G37*
G36*
G01X-927426Y-1163470D02*
G01X-927426Y-1103470D01*
G01X-907426Y-1103470D01*
G01X-907426Y-1163470D01*
G01X-927426Y-1163470D01*
G37*
G36*
G01X-887421Y-1163470D02*
G01X-887421Y-1103470D01*
G01X-867421Y-1103470D01*
G01X-867421Y-1163470D01*
G01X-887421Y-1163470D01*
G37*
G36*
G01X-787427Y-1083475D02*
G01X-847429Y-1083473D01*
G01X-847429Y-1063475D01*
G01X-787427Y-1063473D01*
G01X-787427Y-1083475D01*
G37*
G36*
G01X-787427Y-1043470D02*
G01X-847429Y-1043468D01*
G01X-847429Y-1023470D01*
G01X-787427Y-1023468D01*
G01X-787427Y-1043470D01*
G37*
G36*
G01X-787427Y-1003465D02*
G01X-847429Y-1003465D01*
G01X-847429Y-983465D01*
G01X-787427Y-983463D01*
G01X-787427Y-1003465D01*
G37*
G36*
G01X-787427Y-963460D02*
G01X-847429Y-963460D01*
G01X-847429Y-943460D01*
G01X-787429Y-943460D01*
G01X-787427Y-963460D01*
G37*
G36*
G01X-787427Y-923478D02*
G01X-847429Y-923480D01*
G01X-847429Y-903481D01*
G01X-787429Y-903481D01*
G01X-787427Y-923478D01*
G37*
G36*
G01X-787429Y-883475D02*
G01X-847429Y-883475D01*
G01X-847429Y-863476D01*
G01X-787429Y-863476D01*
G01X-787429Y-883475D01*
G37*
G36*
G01X-787429Y-843470D02*
G01X-847429Y-843470D01*
G01X-847429Y-823471D01*
G01X-787429Y-823471D01*
G01X-787429Y-843470D01*
G37*
G36*
G01X-787429Y-803465D02*
G01X-847429Y-803465D01*
G01X-847429Y-783463D01*
G01X-787429Y-783463D01*
G01X-787429Y-803465D01*
G37*
G36*
G01X-349947Y-1510271D02*
G01X-289948Y-1510271D01*
G01X-289948Y-1634274D01*
G01X-349947Y-1634274D01*
G01X-349947Y-1510271D01*
G37*
G36*
G01X-269948Y-1510271D02*
G01X-209943Y-1510271D01*
G01X-209943Y-1634274D01*
G01X-269948Y-1634274D01*
G01X-269948Y-1510271D01*
G37*
G36*
G01X-189945Y-1510271D02*
G01X-159943Y-1510271D01*
G01X-159943Y-1634274D01*
G01X-189945Y-1634274D01*
G01X-189945Y-1510271D01*
G37*
G36*
G01X-139945Y-1510271D02*
G01X-109943Y-1510271D01*
G01X-109943Y-1634274D01*
G01X-139945Y-1634274D01*
G01X-139945Y-1510271D01*
G37*
G36*
G01X-89945Y-1510271D02*
G01X-59940Y-1510271D01*
G01X-59940Y-1634274D01*
G01X-89945Y-1634274D01*
G01X-89945Y-1510271D01*
G37*
G36*
G01X-39940Y-1510271D02*
G01X-9941Y-1510271D01*
G01X-9941Y-1634274D01*
G01X-39940Y-1634274D01*
G01X-39940Y-1510271D01*
G37*
G36*
G01X10059Y-1510271D02*
G01X40054Y-1510271D01*
G01X40054Y-1634274D01*
G01X10059Y-1634274D01*
G01X10059Y-1510271D01*
G37*
G36*
G01X60052Y-1510271D02*
G01X90052Y-1510271D01*
G01X90052Y-1634274D01*
G01X60052Y-1634274D01*
G01X60052Y-1510271D01*
G37*
G36*
G01X110052Y-1510271D02*
G01X140052Y-1510271D01*
G01X140052Y-1634274D01*
G01X110052Y-1634274D01*
G01X110052Y-1510271D01*
G37*
G36*
G01X160051Y-1510271D02*
G01X190051Y-1510271D01*
G01X190051Y-1634274D01*
G01X160051Y-1634274D01*
G01X160051Y-1510271D01*
G37*
G36*
G01X210051Y-1510271D02*
G01X270054Y-1510271D01*
G01X270054Y-1634274D01*
G01X210051Y-1634274D01*
G01X210051Y-1510271D01*
G37*
G36*
G01X290054Y-1510271D02*
G01X350054Y-1510271D01*
G01X350054Y-1634274D01*
G01X290054Y-1634274D01*
G01X290054Y-1510271D01*
G37*
G36*
G01X-428215Y-1529390D02*
G01X-425733Y-1529641D01*
G01X-423270Y-1530012D01*
G01X-420829Y-1530505D01*
G01X-418413Y-1531125D01*
G01X-416033Y-1531856D01*
G01X-413686Y-1532712D01*
G01X-411390Y-1533677D01*
G01X-409140Y-1534762D01*
G01X-406953Y-1535951D01*
G01X-404829Y-1537249D01*
G01X-402767Y-1538653D01*
G01X-400781Y-1540165D01*
G01X-398868Y-1541765D01*
G01X-397042Y-1543459D01*
G01X-395304Y-1545242D01*
G01X-393653Y-1547114D01*
G01X-392096Y-1549062D01*
G01X-390638Y-1551084D01*
G01X-389287Y-1553180D01*
G01X-388042Y-1555339D01*
G01X-386904Y-1557558D01*
G01X-385881Y-1559832D01*
G01X-384969Y-1562151D01*
G01X-384174Y-1564516D01*
G01X-383501Y-1566913D01*
G01X-382947Y-1569342D01*
G01X-382513Y-1571800D01*
G01X-382200Y-1574274D01*
G01X-382015Y-1576758D01*
G01X-381954Y-1579253D01*
G01X-381954Y-1689255D01*
G01X-382015Y-1691744D01*
G01X-382200Y-1694233D01*
G01X-382513Y-1696710D01*
G01X-382947Y-1699161D01*
G01X-383501Y-1701589D01*
G01X-384174Y-1703992D01*
G01X-384969Y-1706357D01*
G01X-385881Y-1708676D01*
G01X-386904Y-1710952D01*
G01X-388042Y-1713164D01*
G01X-389287Y-1715323D01*
G01X-390638Y-1717418D01*
G01X-392096Y-1719445D01*
G01X-393653Y-1721396D01*
G01X-395304Y-1723260D01*
G01X-397042Y-1725051D01*
G01X-398868Y-1726743D01*
G01X-400781Y-1728343D01*
G01X-402767Y-1729849D01*
G01X-404829Y-1731254D01*
G01X-406953Y-1732557D01*
G01X-409140Y-1733748D01*
G01X-411390Y-1734833D01*
G01X-413686Y-1735798D01*
G01X-416033Y-1736651D01*
G01X-418413Y-1737385D01*
G01X-420829Y-1738003D01*
G01X-423270Y-1738495D01*
G01X-425733Y-1738866D01*
G01X-428215Y-1739113D01*
G01X-430709Y-1739237D01*
G01X-433204Y-1739237D01*
G01X-435690Y-1739113D01*
G01X-438172Y-1738866D01*
G01X-440638Y-1738495D01*
G01X-443079Y-1738003D01*
G01X-445492Y-1737385D01*
G01X-447880Y-1736651D01*
G01X-450222Y-1735798D01*
G01X-452515Y-1734833D01*
G01X-454763Y-1733748D01*
G01X-456950Y-1732557D01*
G01X-459079Y-1731254D01*
G01X-461139Y-1729849D01*
G01X-463127Y-1728343D01*
G01X-465040Y-1726743D01*
G01X-466866Y-1725051D01*
G01X-468604Y-1723260D01*
G01X-470260Y-1721396D01*
G01X-471812Y-1719445D01*
G01X-473264Y-1717418D01*
G01X-474616Y-1715323D01*
G01X-475863Y-1713164D01*
G01X-477003Y-1710952D01*
G01X-478027Y-1708676D01*
G01X-478939Y-1706357D01*
G01X-479729Y-1703992D01*
G01X-480407Y-1701589D01*
G01X-480966Y-1699161D01*
G01X-481395Y-1696710D01*
G01X-481705Y-1694233D01*
G01X-481890Y-1691744D01*
G01X-481954Y-1689255D01*
G01X-481954Y-1579253D01*
G01X-481890Y-1576758D01*
G01X-481705Y-1574274D01*
G01X-481395Y-1571800D01*
G01X-480966Y-1569342D01*
G01X-480407Y-1566913D01*
G01X-479729Y-1564516D01*
G01X-478939Y-1562151D01*
G01X-478027Y-1559832D01*
G01X-477003Y-1557558D01*
G01X-475863Y-1555339D01*
G01X-474616Y-1553180D01*
G01X-473264Y-1551084D01*
G01X-471812Y-1549062D01*
G01X-470260Y-1547114D01*
G01X-468604Y-1545242D01*
G01X-466866Y-1543459D01*
G01X-465040Y-1541765D01*
G01X-463127Y-1540165D01*
G01X-461139Y-1538653D01*
G01X-459079Y-1537249D01*
G01X-456950Y-1535951D01*
G01X-454763Y-1534762D01*
G01X-452515Y-1533677D01*
G01X-450222Y-1532712D01*
G01X-447880Y-1531856D01*
G01X-445492Y-1531125D01*
G01X-443079Y-1530505D01*
G01X-440638Y-1530012D01*
G01X-438172Y-1529641D01*
G01X-435690Y-1529390D01*
G01X-433204Y-1529265D01*
G01X-430709Y-1529265D01*
G01X-428215Y-1529390D01*
G37*
G36*
G01X-428215Y-1962396D02*
G01X-425733Y-1962650D01*
G01X-423270Y-1963019D01*
G01X-420829Y-1963514D01*
G01X-418413Y-1964126D01*
G01X-416033Y-1964863D01*
G01X-413686Y-1965714D01*
G01X-411390Y-1966684D01*
G01X-409140Y-1967763D01*
G01X-406953Y-1968957D01*
G01X-404829Y-1970258D01*
G01X-402767Y-1971662D01*
G01X-400781Y-1973166D01*
G01X-398868Y-1974774D01*
G01X-397042Y-1976465D01*
G01X-395304Y-1978249D01*
G01X-393653Y-1980120D01*
G01X-392096Y-1982069D01*
G01X-390638Y-1984093D01*
G01X-389287Y-1986186D01*
G01X-388042Y-1988348D01*
G01X-386904Y-1990565D01*
G01X-385881Y-1992838D01*
G01X-384969Y-1995160D01*
G01X-384174Y-1997525D01*
G01X-383501Y-1999922D01*
G01X-382947Y-2002351D01*
G01X-382513Y-2004807D01*
G01X-382200Y-2007283D01*
G01X-382015Y-2009767D01*
G01X-381954Y-2012259D01*
G01X-381954Y-2092261D01*
G01X-382015Y-2094756D01*
G01X-382200Y-2097240D01*
G01X-382513Y-2099714D01*
G01X-382947Y-2102170D01*
G01X-383501Y-2104601D01*
G01X-384174Y-2106999D01*
G01X-384969Y-2109363D01*
G01X-385881Y-2111682D01*
G01X-386904Y-2113956D01*
G01X-388042Y-2116176D01*
G01X-389287Y-2118330D01*
G01X-390638Y-2120430D01*
G01X-392096Y-2122452D01*
G01X-393653Y-2124400D01*
G01X-395304Y-2126267D01*
G01X-397042Y-2128055D01*
G01X-398868Y-2129749D01*
G01X-400781Y-2131350D01*
G01X-402767Y-2132858D01*
G01X-404829Y-2134263D01*
G01X-406953Y-2135563D01*
G01X-409140Y-2136752D01*
G01X-411390Y-2137837D01*
G01X-413686Y-2138802D01*
G01X-416033Y-2139658D01*
G01X-418413Y-2140389D01*
G01X-420829Y-2141007D01*
G01X-423270Y-2141502D01*
G01X-425733Y-2141873D01*
G01X-428215Y-2142119D01*
G01X-430709Y-2142246D01*
G01X-433204Y-2142246D01*
G01X-435690Y-2142119D01*
G01X-438172Y-2141873D01*
G01X-440638Y-2141502D01*
G01X-443079Y-2141007D01*
G01X-445492Y-2140389D01*
G01X-447880Y-2139658D01*
G01X-450222Y-2138802D01*
G01X-452515Y-2137837D01*
G01X-454763Y-2136752D01*
G01X-456950Y-2135563D01*
G01X-459079Y-2134263D01*
G01X-461139Y-2132858D01*
G01X-463127Y-2131350D01*
G01X-465040Y-2129749D01*
G01X-466866Y-2128055D01*
G01X-468604Y-2126267D01*
G01X-470260Y-2124400D01*
G01X-471812Y-2122452D01*
G01X-473264Y-2120430D01*
G01X-474616Y-2118330D01*
G01X-475863Y-2116176D01*
G01X-477003Y-2113956D01*
G01X-478027Y-2111682D01*
G01X-478939Y-2109363D01*
G01X-479729Y-2106999D01*
G01X-480407Y-2104601D01*
G01X-480966Y-2102170D01*
G01X-481395Y-2099714D01*
G01X-481705Y-2097240D01*
G01X-481890Y-2094756D01*
G01X-481954Y-2092261D01*
G01X-481954Y-2012259D01*
G01X-481890Y-2009767D01*
G01X-481705Y-2007283D01*
G01X-481395Y-2004807D01*
G01X-480966Y-2002351D01*
G01X-480407Y-1999922D01*
G01X-479729Y-1997525D01*
G01X-478939Y-1995160D01*
G01X-478027Y-1992838D01*
G01X-477003Y-1990565D01*
G01X-475863Y-1988348D01*
G01X-474616Y-1986186D01*
G01X-473264Y-1984093D01*
G01X-471812Y-1982069D01*
G01X-470260Y-1980120D01*
G01X-468604Y-1978249D01*
G01X-466866Y-1976465D01*
G01X-465040Y-1974774D01*
G01X-463127Y-1973166D01*
G01X-461139Y-1971662D01*
G01X-459079Y-1970258D01*
G01X-456950Y-1968957D01*
G01X-454763Y-1967763D01*
G01X-452515Y-1966684D01*
G01X-450222Y-1965714D01*
G01X-447880Y-1964863D01*
G01X-445492Y-1964126D01*
G01X-443079Y-1963514D01*
G01X-440638Y-1963019D01*
G01X-438172Y-1962650D01*
G01X-435690Y-1962396D01*
G01X-433204Y-1962274D01*
G01X-430709Y-1962274D01*
G01X-428215Y-1962396D01*
G37*
G36*
G01X435791Y-1529390D02*
G01X438270Y-1529641D01*
G01X440737Y-1530012D01*
G01X443180Y-1530505D01*
G01X445591Y-1531125D01*
G01X447973Y-1531856D01*
G01X450320Y-1532712D01*
G01X452619Y-1533677D01*
G01X454864Y-1534762D01*
G01X457056Y-1535951D01*
G01X459177Y-1537249D01*
G01X461237Y-1538653D01*
G01X463226Y-1540165D01*
G01X465139Y-1541765D01*
G01X466967Y-1543459D01*
G01X468702Y-1545242D01*
G01X470358Y-1547114D01*
G01X471910Y-1549062D01*
G01X473366Y-1551084D01*
G01X474714Y-1553180D01*
G01X475967Y-1555339D01*
G01X477102Y-1557558D01*
G01X478128Y-1559832D01*
G01X479037Y-1562151D01*
G01X479830Y-1564516D01*
G01X480506Y-1566913D01*
G01X481059Y-1569342D01*
G01X481494Y-1571800D01*
G01X481806Y-1574274D01*
G01X481989Y-1576758D01*
G01X482052Y-1579253D01*
G01X482052Y-1689255D01*
G01X481989Y-1691744D01*
G01X481806Y-1694233D01*
G01X481494Y-1696710D01*
G01X481059Y-1699161D01*
G01X480506Y-1701589D01*
G01X479830Y-1703992D01*
G01X479037Y-1706357D01*
G01X478128Y-1708676D01*
G01X477102Y-1710952D01*
G01X475967Y-1713164D01*
G01X474714Y-1715323D01*
G01X473366Y-1717418D01*
G01X471910Y-1719445D01*
G01X470358Y-1721396D01*
G01X468702Y-1723260D01*
G01X466967Y-1725051D01*
G01X465139Y-1726743D01*
G01X463226Y-1728343D01*
G01X461237Y-1729849D01*
G01X459177Y-1731254D01*
G01X457056Y-1732557D01*
G01X454864Y-1733748D01*
G01X452619Y-1734833D01*
G01X450320Y-1735798D01*
G01X447973Y-1736651D01*
G01X445591Y-1737385D01*
G01X443180Y-1738003D01*
G01X440737Y-1738495D01*
G01X438270Y-1738866D01*
G01X435791Y-1739113D01*
G01X433297Y-1739237D01*
G01X430808Y-1739237D01*
G01X428319Y-1739113D01*
G01X425837Y-1738866D01*
G01X423373Y-1738495D01*
G01X420930Y-1738003D01*
G01X418512Y-1737385D01*
G01X416132Y-1736651D01*
G01X413785Y-1735798D01*
G01X411489Y-1734833D01*
G01X409238Y-1733748D01*
G01X407056Y-1732557D01*
G01X404928Y-1731254D01*
G01X402865Y-1729849D01*
G01X400879Y-1728343D01*
G01X398966Y-1726743D01*
G01X397143Y-1725051D01*
G01X395403Y-1723260D01*
G01X393747Y-1721396D01*
G01X392197Y-1719445D01*
G01X390737Y-1717418D01*
G01X389388Y-1715323D01*
G01X388143Y-1713164D01*
G01X387003Y-1710952D01*
G01X385982Y-1708676D01*
G01X385070Y-1706357D01*
G01X384273Y-1703992D01*
G01X383599Y-1701589D01*
G01X383046Y-1699161D01*
G01X382611Y-1696710D01*
G01X382304Y-1694233D01*
G01X382114Y-1691744D01*
G01X382055Y-1689255D01*
G01X382055Y-1579253D01*
G01X382114Y-1576758D01*
G01X382304Y-1574274D01*
G01X382611Y-1571800D01*
G01X383046Y-1569342D01*
G01X383599Y-1566913D01*
G01X384273Y-1564516D01*
G01X385070Y-1562151D01*
G01X385982Y-1559832D01*
G01X387003Y-1557558D01*
G01X388143Y-1555339D01*
G01X389388Y-1553180D01*
G01X390737Y-1551084D01*
G01X392197Y-1549062D01*
G01X393747Y-1547114D01*
G01X395403Y-1545242D01*
G01X397143Y-1543459D01*
G01X398966Y-1541765D01*
G01X400879Y-1540165D01*
G01X402865Y-1538653D01*
G01X404928Y-1537249D01*
G01X407056Y-1535951D01*
G01X409238Y-1534762D01*
G01X411489Y-1533677D01*
G01X413785Y-1532712D01*
G01X416132Y-1531856D01*
G01X418512Y-1531125D01*
G01X420930Y-1530505D01*
G01X423373Y-1530012D01*
G01X425837Y-1529641D01*
G01X428319Y-1529390D01*
G01X430808Y-1529265D01*
G01X433297Y-1529265D01*
G01X435791Y-1529390D01*
G37*
G36*
G01X435791Y-1962396D02*
G01X438270Y-1962650D01*
G01X440737Y-1963019D01*
G01X443180Y-1963514D01*
G01X445591Y-1964126D01*
G01X447973Y-1964863D01*
G01X450320Y-1965714D01*
G01X452619Y-1966684D01*
G01X454864Y-1967763D01*
G01X457056Y-1968957D01*
G01X459177Y-1970258D01*
G01X461237Y-1971662D01*
G01X463226Y-1973166D01*
G01X465139Y-1974774D01*
G01X466967Y-1976465D01*
G01X468702Y-1978249D01*
G01X470358Y-1980120D01*
G01X471910Y-1982069D01*
G01X473366Y-1984093D01*
G01X474714Y-1986186D01*
G01X475967Y-1988348D01*
G01X477102Y-1990565D01*
G01X478128Y-1992838D01*
G01X479037Y-1995160D01*
G01X479830Y-1997525D01*
G01X480506Y-1999922D01*
G01X481059Y-2002351D01*
G01X481494Y-2004807D01*
G01X481806Y-2007283D01*
G01X481989Y-2009767D01*
G01X482052Y-2012259D01*
G01X482052Y-2092261D01*
G01X481989Y-2094756D01*
G01X481806Y-2097240D01*
G01X481494Y-2099714D01*
G01X481059Y-2102170D01*
G01X480506Y-2104601D01*
G01X479830Y-2106999D01*
G01X479037Y-2109363D01*
G01X478128Y-2111682D01*
G01X477102Y-2113956D01*
G01X475967Y-2116176D01*
G01X474714Y-2118330D01*
G01X473366Y-2120430D01*
G01X471910Y-2122452D01*
G01X470358Y-2124400D01*
G01X468702Y-2126267D01*
G01X466967Y-2128055D01*
G01X465139Y-2129749D01*
G01X463226Y-2131350D01*
G01X461237Y-2132858D01*
G01X459177Y-2134263D01*
G01X457056Y-2135563D01*
G01X454864Y-2136752D01*
G01X452619Y-2137837D01*
G01X450320Y-2138802D01*
G01X447973Y-2139658D01*
G01X445591Y-2140389D01*
G01X443180Y-2141007D01*
G01X440737Y-2141502D01*
G01X438270Y-2141873D01*
G01X435791Y-2142119D01*
G01X433297Y-2142246D01*
G01X430808Y-2142246D01*
G01X428319Y-2142119D01*
G01X425837Y-2141873D01*
G01X423373Y-2141502D01*
G01X420930Y-2141007D01*
G01X418512Y-2140389D01*
G01X416132Y-2139658D01*
G01X413785Y-2138802D01*
G01X411489Y-2137837D01*
G01X409238Y-2136752D01*
G01X407056Y-2135563D01*
G01X404928Y-2134263D01*
G01X402865Y-2132858D01*
G01X400879Y-2131350D01*
G01X398966Y-2129749D01*
G01X397143Y-2128055D01*
G01X395403Y-2126267D01*
G01X393747Y-2124400D01*
G01X392197Y-2122452D01*
G01X390737Y-2120430D01*
G01X389388Y-2118330D01*
G01X388143Y-2116176D01*
G01X387003Y-2113956D01*
G01X385982Y-2111682D01*
G01X385070Y-2109363D01*
G01X384273Y-2106999D01*
G01X383599Y-2104601D01*
G01X383046Y-2102170D01*
G01X382611Y-2099714D01*
G01X382304Y-2097240D01*
G01X382114Y-2094756D01*
G01X382055Y-2092261D01*
G01X382055Y-2012259D01*
G01X382114Y-2009767D01*
G01X382304Y-2007283D01*
G01X382611Y-2004807D01*
G01X383046Y-2002351D01*
G01X383599Y-1999922D01*
G01X384273Y-1997525D01*
G01X385070Y-1995160D01*
G01X385982Y-1992838D01*
G01X387003Y-1990565D01*
G01X388143Y-1988348D01*
G01X389388Y-1986186D01*
G01X390737Y-1984093D01*
G01X392197Y-1982069D01*
G01X393747Y-1980120D01*
G01X395403Y-1978249D01*
G01X397143Y-1976465D01*
G01X398966Y-1974774D01*
G01X400879Y-1973166D01*
G01X402865Y-1971662D01*
G01X404928Y-1970258D01*
G01X407056Y-1968957D01*
G01X409238Y-1967763D01*
G01X411489Y-1966684D01*
G01X413785Y-1965714D01*
G01X416132Y-1964863D01*
G01X418512Y-1964126D01*
G01X420930Y-1963514D01*
G01X423373Y-1963019D01*
G01X425837Y-1962650D01*
G01X428319Y-1962396D01*
G01X430808Y-1962274D01*
G01X433297Y-1962274D01*
G01X435791Y-1962396D01*
G37*

G04 Pad Start*
G54D10*
G01X393700Y-1058012D03*
G01X393700Y-973988D03*
G54D11*
G01X-228542Y-1164552D03*
G01X-312565Y-1164552D03*
G01X-228542Y-1037552D03*
G01X-312565Y-1037552D03*
G01X716074Y1050380D03*
G01X632051Y1050380D03*
G01X716059Y1291600D03*
G01X632035Y1291600D03*
G01X1296767Y948265D03*
G01X1212743Y948265D03*
G01X1405788Y939800D03*
G01X1489812Y939800D03*
G54D10*
G01X148931Y1224933D03*
G01X148931Y1308956D03*
G54D11*
G01X715972Y1171874D03*
G01X631949Y1171874D03*
G54D10*
G01X1568336Y602926D03*
G01X1568336Y518903D03*
G01X1454036Y602926D03*
G01X1454036Y518903D03*
G01X1682636Y602926D03*
G01X1682636Y518903D03*
G54D11*
G01X1208824Y281515D03*
G01X1292847Y281515D03*
G01X1208824Y167215D03*
G01X1292847Y167215D03*
G54D10*
G01X1212736Y-212768D03*
G01X1212736Y-128745D03*
G54D11*
G01X-173888Y-660400D03*
G01X-257912Y-660400D03*
G54D10*
G01X-374551Y-237388D03*
G01X-374551Y-321412D03*
G01X1555636Y-212768D03*
G01X1555636Y-128745D03*
G01X1682636Y-212768D03*
G01X1682636Y-128745D03*
G01X1327036Y-212768D03*
G01X1327036Y-128745D03*
G01X1441336Y-212768D03*
G01X1441336Y-128745D03*
G01X1796936Y-212768D03*
G01X1796936Y-128745D03*
G01X1916767Y-212768D03*
G01X1916767Y-128745D03*
G54D11*
G01X2016747Y27515D03*
G01X1932724Y27515D03*
G01X2016747Y141815D03*
G01X1932724Y141815D03*
G54D10*
G01X1796936Y602926D03*
G01X1796936Y518903D03*
G54D11*
G01X-1477112Y-889000D03*
G01X-1393088Y-889000D03*
G01X-1477112Y-774700D03*
G01X-1393088Y-774700D03*
G54D10*
G01X-1382106Y-1211838D03*
G01X-1382106Y-1127815D03*
G01X-1496406Y-1211838D03*
G01X-1496406Y-1127815D03*
G01X-1610706Y-1211838D03*
G01X-1610706Y-1127815D03*
G01X-1191606Y-1402338D03*
G01X-1191606Y-1318315D03*
G01X-1305906Y-1402338D03*
G01X-1305906Y-1318315D03*
G54D11*
G01X-1477112Y-1003300D03*
G01X-1393088Y-1003300D03*
G54D10*
G01X-848706Y-1402338D03*
G01X-848706Y-1318315D03*
G01X-734406Y-1402338D03*
G01X-734406Y-1318315D03*
G54D11*
G01X-527294Y-1207926D03*
G01X-611317Y-1207926D03*
G01X-527294Y-1093626D03*
G01X-611317Y-1093626D03*
G01X-527294Y-865026D03*
G01X-611317Y-865026D03*
G01X-527294Y-979326D03*
G01X-611317Y-979326D03*
G54D10*
G01X-493106Y-754638D03*
G01X-493106Y-670615D03*
G01X-607406Y-754638D03*
G01X-607406Y-670615D03*
G54D11*
G01X-527294Y-560226D03*
G01X-611317Y-560226D03*
G54D10*
G01X-520700Y-237388D03*
G01X-520700Y-321412D03*
G01X-635000Y-237388D03*
G01X-635000Y-321412D03*
G01X-749300Y-237388D03*
G01X-749300Y-321412D03*
G01X-861406Y-237388D03*
G01X-861406Y-321412D03*
G01X-975706Y-237388D03*
G01X-975706Y-321412D03*
G01X-1092200Y-237388D03*
G01X-1092200Y-321412D03*
G01X-1206500Y-237388D03*
G01X-1206500Y-321412D03*
G01X-1320800Y-237388D03*
G01X-1320800Y-321412D03*
G54D11*
G01X618388Y241300D03*
G01X702412Y241300D03*
G54D10*
G01X711200Y351688D03*
G01X711200Y435712D03*
G01X596900Y351688D03*
G01X596900Y435712D03*
G54D11*
G01X605688Y749300D03*
G01X689712Y749300D03*
G01X-2086712Y114300D03*
G01X-2002688Y114300D03*
G54D10*
G01X-1993900Y-80112D03*
G01X-1993900Y3912D03*
G01X-2108200Y-80112D03*
G01X-2108200Y3912D03*
G01X458913Y-416151D03*
G01X458913Y-332128D03*
G01X578459Y-330175D03*
G01X578459Y-414198D03*
G01X695855Y-331119D03*
G01X695855Y-415143D03*
G01X814483Y-416676D03*
G01X814483Y-332653D03*
G01X1282700Y-1096112D03*
G01X1282700Y-1012088D03*
G01X1282700Y-710235D03*
G01X1282700Y-626212D03*
G01X1282700Y-821588D03*
G01X1282700Y-905612D03*
G54D11*
G01X808162Y-1439146D03*
G01X724139Y-1439146D03*
G01X808162Y-1553446D03*
G01X724139Y-1553446D03*
G01X808162Y-1667746D03*
G01X724139Y-1667746D03*
G54D10*
G01X816712Y-546100D03*
G01X816712Y-630123D03*
G54D11*
G01X-1959712Y-939800D03*
G01X-1875688Y-939800D03*
G01X-1985112Y-825500D03*
G01X-1901088Y-825500D03*
G54D10*
G01X-1701800Y-1045312D03*
G01X-1701800Y-961288D03*
G54D11*
G01X-1812188Y-1054100D03*
G01X-1896212Y-1054100D03*
G54D10*
G01X1722120Y-1032612D03*
G01X1722120Y-948588D03*
G01X1846580Y-1032612D03*
G01X1846580Y-948588D03*
G01X1536700Y-427888D03*
G01X1536700Y-511912D03*
G01X1651000Y-427888D03*
G01X1651000Y-511912D03*
G54D12*
G01X-168605Y-1371600D03*
G01X-288595Y-1371600D03*
G54D13*
G01X66251Y-1101661D03*
G01X161247Y-1101661D03*
G01X256243Y-1101661D03*
G01X256243Y-871842D03*
G01X161247Y-871842D03*
G01X66251Y-871842D03*
G54D14*
G01X-552502Y964998D03*
G54D15*
G01X-593751Y899999D03*
G01X-306249Y870002D03*
G01X-593751Y840004D03*
G01X-306249Y810007D03*
G01X-593751Y780010D03*
G01X-306249Y750012D03*
G01X-593751Y720015D03*
G01X-306249Y690017D03*
G01X-593751Y659995D03*
G01X-306249Y629997D03*
G01X-593751Y600000D03*
G01X-306249Y570002D03*
G01X-593751Y540005D03*
G01X-306249Y510008D03*
G01X-593751Y480010D03*
G01X-306249Y450013D03*
G01X-593751Y420015D03*
G01X-306249Y390018D03*
G01X-593751Y359995D03*
G01X-306249Y329998D03*
G01X-593751Y300000D03*
G01X-306249Y270003D03*
G01X-593751Y240006D03*
G01X-306249Y210008D03*
G01X-593751Y180011D03*
G01X-306249Y150013D03*
G01X-593751Y120016D03*
G01X-306249Y90019D03*
G01X-593751Y59996D03*
G01X-306249Y29998D03*
G01X-593751Y1D03*
G54D14*
G01X-552502Y-64998D03*
G54D16*
G01X1512524Y1163082D03*
G01X1697704Y877931D03*
G54D17*
G01X1882487Y905527D03*
G01X1612893Y1320665D03*
G54D19*
G01X-1807299Y-669099D03*
G01X-1807299Y-423100D03*
G01X-1977301Y-423100D03*
G01X-1977301Y-669099D03*
G01X1977301Y-669099D03*
G01X1977301Y-423100D03*
G01X1807299Y-423100D03*
G01X1807299Y-669099D03*
G54D20*
G01X-260096Y-263690D03*
G01X-70104Y-263690D03*
G01X-70104Y-523710D03*
G01X-165100Y-523710D03*
G01X-260096Y-523710D03*
G54D21*
G01X874972Y-819873D03*
G01X809948Y-819873D03*
G01X744949Y-819873D03*
G01X679950Y-819873D03*
G01X874972Y-1249082D03*
G01X809948Y-1249082D03*
G01X744949Y-1249082D03*
G01X679950Y-1249082D03*
G54D22*
G01X504194Y1318223D03*
G01X504194Y1128231D03*
G01X284179Y1318223D03*
G01X284179Y1128231D03*
G01X284179Y1223227D03*
G04 Pad End*

M02*

