G04 Layer: BottomSolderMaskLayer*
G04 EasyEDA Pro v3.2.149.88089769, 2026-09-17 16:10:54*
G04 Gerber Generator version 0.3*
G04 Scale: 100 percent, Rotated: No, Reflected: No*
G04 Dimensions in millimeters*
G04 Leading zeros omitted, absolute positions, 4 integers and 5 decimals*
G04 Generated by one-click*
G04 Object Configs: Pad,Via,Track,Text,Image,Dimension,BoardOutline,BoardCutout,CopperFilled,SolidRegion,FPCStiffener,Line,PlaneZone,ComponentProperty,ComponentSilkscreen,TearDrop*
G04 Layer Configs: 1,2,3,4,5,6,7,8,9,10,11,13,14,56*
G04 Copper Areas: 0*
%FSLAX45Y45*%
%MOMM*%
%AMRoundRect*1,1,$1,$2,$3*1,1,$1,$4,$5*1,1,$1,0-$2,0-$3*1,1,$1,0-$4,0-$5*20,1,$1,$2,$3,$4,$5,0*20,1,$1,$4,$5,0-$2,0-$3,0*20,1,$1,0-$2,0-$3,0-$4,0-$5,0*20,1,$1,0-$4,0-$5,$2,$3,0*4,1,4,$2,$3,$4,$5,0-$2,0-$3,0-$4,0-$5,$2,$3,0*%
%ADD10RoundRect,0.10003X-0.75X0.45X0.75X0.45*%
%ADD11RoundRect,0.10003X-0.45X-0.75X-0.45X0.75*%
%ADD12RoundRect,0.1016X-0.45X-0.45X-0.45X0.45*%
%ADD13O,1.10002X2.20002*%
%ADD14O,1.10002X1.90002*%
%ADD15C,2.3016*%
%ADD16RoundRect,0.1037X-0.75X-0.15X-0.75X0.15*%
%ADD17RoundRect,0.1X-0.75X-0.15X-0.75X0.15*%
%ADD18RoundRect,0.1X-0.85X-1.0X-0.85X1.0*%
%ADD19RoundRect,0.10003X-0.35X0.85X0.35X0.85*%
%ADD20RoundRect,0.10003X-0.9X1.25X0.9X1.25*%
%ADD21RoundRect,0.10003X-0.6X1.25X0.6X1.25*%
%ADD22RoundRect,0.10003X-0.25X0.85X0.25X0.85*%
G75*


G04 Pad Start*
G54D10*
G01X875012Y1268130D03*
G01X875012Y1141130D03*
G01X875012Y1014130D03*
G01X875012Y887130D03*
G01X875012Y760130D03*
G01X875012Y633130D03*
G01X875012Y506130D03*
G01X875012Y379130D03*
G01X875012Y252130D03*
G01X875012Y125130D03*
G01X875012Y-1870D03*
G01X875012Y-128870D03*
G01X875012Y-255870D03*
G01X875012Y-382870D03*
G54D11*
G01X698507Y-510861D03*
G01X571507Y-510861D03*
G01X444507Y-510861D03*
G01X317507Y-510861D03*
G01X190507Y-510861D03*
G01X63507Y-510861D03*
G01X-63493Y-510861D03*
G01X-190493Y-510861D03*
G01X-317493Y-510861D03*
G01X-444493Y-510861D03*
G01X-571493Y-510861D03*
G01X-698493Y-507864D03*
G54D10*
G01X-874997Y-382870D03*
G01X-874997Y-255870D03*
G01X-874997Y-128870D03*
G01X-874997Y-1870D03*
G01X-874997Y125130D03*
G01X-874997Y252130D03*
G01X-874997Y379130D03*
G01X-874997Y506130D03*
G01X-874997Y633130D03*
G01X-874997Y760130D03*
G01X-874997Y887130D03*
G01X-874997Y1014130D03*
G01X-874997Y1141130D03*
G01X-874997Y1268130D03*
G54D12*
G01X10015Y356117D03*
G01X150020Y356117D03*
G01X290025Y356117D03*
G01X290025Y636127D03*
G01X150020Y636127D03*
G01X10015Y636127D03*
G01X10015Y496122D03*
G01X290025Y496122D03*
G01X150020Y496122D03*
G54D13*
G01X-431959Y-1634251D03*
G54D14*
G01X-431959Y-2052259D03*
G01X432047Y-2052259D03*
G54D13*
G01X432047Y-1634251D03*
G54D15*
G01X-1200000Y1600000D03*
G01X1200000Y1600000D03*
G01X1200006Y-1600016D03*
G54D17*
G01X-1150003Y515007D03*
G01X-1150003Y564994D03*
G01X-1150003Y615007D03*
G01X-1150003Y664994D03*
G01X-1150003Y715006D03*
G01X-1150003Y764994D03*
G01X-1150003Y815006D03*
G01X-1150003Y864993D03*
G01X-1150003Y915006D03*
G01X-1150003Y964993D03*
G54D18*
G01X-1409997Y345005D03*
G01X-1409997Y1134995D03*
G54D19*
G01X-187515Y-1526733D03*
G01X-62522Y-1526733D03*
G01X62471Y-1526733D03*
G01X187490Y-1526733D03*
G54D20*
G01X-435496Y-1276746D03*
G01X435496Y-1276746D03*
G54D21*
G01X647493Y-1150083D03*
G54D22*
G01X857500Y-1490087D03*
G01X757500Y-1490087D03*
G54D21*
G01X967507Y-1150083D03*
G04 Pad End*

M02*

