<svg xmlns="http://www.w3.org/2000/svg" width="480" height="112" viewBox="0 0 480 112">
  <title>Jev Sheets logo</title>
  <rect width="480" height="112" rx="24" fill="#f5f2e9"/>
  <g transform="translate(8 8)"><rect x="4" y="4" width="88" height="88" rx="23" fill="#2b2010"/>
  <rect x="16" y="17" width="64" height="62" rx="9" fill="#6e5d37"/>
  <path d="M25 17h26.5v19H16V26a9 9 0 0 1 9-9Z" fill="#b89c5e"/>
  <path d="M51.5 17H71a9 9 0 0 1 9 9v10H51.5Z" fill="#fde7a3"/>
  <path d="M51.5 36H80v34a9 9 0 0 1-9 9H51.5Z" fill="#fbbf24"/>
  <path d="M33 17v62M51.5 17v62M16 36h64M16 51h64M16 66h64" stroke="#2b2010" stroke-width="3.5"/>
  <path d="M59 22v7" stroke="#2b2010" stroke-width="3" stroke-linecap="round"/></g>
  <text x="120" y="53" fill="#243732" font-family="Arial, Helvetica, sans-serif" font-size="28" font-weight="600" letter-spacing="-.8">Jev Sheets</text>
  <text x="121" y="76" fill="#63746b" font-family="Arial, Helvetica, sans-serif" font-size="10" font-weight="600" letter-spacing="2.1">COLUMNS · AUTONOMOUS</text>
</svg>
