ISO-10303-21;
HEADER;

/* File generated by Shapr3D Version 26.170.11783.0 */

FILE_DESCRIPTION(('HOOPS Exchange Step'),'2;1');

FILE_NAME('C:\\Users\\acer\\AppData\\Local\\Packages\\Shapr3D.Shapr3D_dvv5p1vgwv6mp\\TempState\\export\\temp_export',
'2026-09-17T15:15:35+07:00',
('acer'),
('Shapr3D Limited'),
'HOOPS Exchange 2026.3',
'Shapr3D',
'Authorized');

FILE_SCHEMA( ('AP242_MANAGED_MODEL_BASED_3D_ENGINEERING_MIM_LF {1 0 10303 442 1 1 4}') );

ENDSEC;

DATA;
#3=(NAMED_UNIT(*)PLANE_ANGLE_UNIT()SI_UNIT($,.RADIAN.));
#4=PLANE_ANGLE_MEASURE_WITH_UNIT(PLANE_ANGLE_MEASURE(0.0174532925),#3);
#5=(CONVERSION_BASED_UNIT('DEGREE',#4)NAMED_UNIT(#6)PLANE_ANGLE_UNIT());
#6=DIMENSIONAL_EXPONENTS(0.,0.,0.,0.,0.,0.,0.);
#7=(NAMED_UNIT(*)SI_UNIT($,.STERADIAN.)SOLID_ANGLE_UNIT());
#8=(LENGTH_UNIT()NAMED_UNIT(*)SI_UNIT(.MILLI.,.METRE.));
#9=UNCERTAINTY_MEASURE_WITH_UNIT(LENGTH_MEASURE(1.000000E-03),#8,'DISTANCE_ACCURACY_VALUE','Maximum Tolerance applied to model');
#10=(GEOMETRIC_REPRESENTATION_CONTEXT(3)GLOBAL_UNCERTAINTY_ASSIGNED_CONTEXT((#9))GLOBAL_UNIT_ASSIGNED_CONTEXT((#8,#5,#7))REPRESENTATION_CONTEXT('','root'));
#12=CARTESIAN_POINT('',(0.,0.,0.));
#13=DIRECTION('',(0.,0.,1.));
#14=DIRECTION('',(1.,0.,0.));
#15=AXIS2_PLACEMENT_3D('',#12,#13,#14);
#26=(NAMED_UNIT(*)PLANE_ANGLE_UNIT()SI_UNIT($,.RADIAN.));
#27=PLANE_ANGLE_MEASURE_WITH_UNIT(PLANE_ANGLE_MEASURE(0.0174532925),#26);
#28=(CONVERSION_BASED_UNIT('DEGREE',#27)NAMED_UNIT(#29)PLANE_ANGLE_UNIT());
#29=DIMENSIONAL_EXPONENTS(0.,0.,0.,0.,0.,0.,0.);
#30=(NAMED_UNIT(*)SI_UNIT($,.STERADIAN.)SOLID_ANGLE_UNIT());
#31=(LENGTH_UNIT()NAMED_UNIT(*)SI_UNIT(.MILLI.,.METRE.));
#32=UNCERTAINTY_MEASURE_WITH_UNIT(LENGTH_MEASURE(1.000000E-05),#31,'DISTANCE_ACCURACY_VALUE','Maximum Tolerance applied to model');
#33=(GEOMETRIC_REPRESENTATION_CONTEXT(3)GLOBAL_UNCERTAINTY_ASSIGNED_CONTEXT((#32))GLOBAL_UNIT_ASSIGNED_CONTEXT((#31,#28,#30))REPRESENTATION_CONTEXT('','Harness.step'));
#45=CARTESIAN_POINT('',(0.,0.,0.));
#46=DIRECTION('',(0.,0.,1.));
#47=DIRECTION('',(1.,0.,-0.));
#48=AXIS2_PLACEMENT_3D('',#45,#46,#47);
#49=ITEM_DEFINED_TRANSFORMATION('','',#48,#15);
#50=(REPRESENTATION_RELATIONSHIP('','',#35,#16)REPRESENTATION_RELATIONSHIP_WITH_TRANSFORMATION(#49)SHAPE_REPRESENTATION_RELATIONSHIP());
#51=NEXT_ASSEMBLY_USAGE_OCCURRENCE('Harness.step_1','Harness.step','Harness.step',#25,#44,$);
#52=PRODUCT_DEFINITION_SHAPE('','',#51);
#53=CONTEXT_DEPENDENT_SHAPE_REPRESENTATION(#50,#52);
#55=CARTESIAN_POINT('',(-35.538291302,23.09551169,24.947638549));
#56=DIRECTION('',(0.438371147,0.,0.898794046));
#57=DIRECTION('',(0.898794046,0.,-0.438371147));
#58=AXIS2_PLACEMENT_3D('',#55,#56,#57);
#59=PLANE('',#58);
#60=CARTESIAN_POINT('',(-34.041452142,23.285159587,24.21758131));
#61=VERTEX_POINT('',#60);
#62=CARTESIAN_POINT('',(-32.620861257,20.85132267,23.524712841));
#63=VERTEX_POINT('',#62);
#64=CARTESIAN_POINT('',(-34.041452142,23.285159587,24.21758131));
#65=DIRECTION('',(0.489518322,-0.838670568,-0.238754038));
#66=VECTOR('',#65,2.902017801);
#67=LINE('',#64,#66);
#68=EDGE_CURVE('',#61,#63,#67,.T.);
#69=ORIENTED_EDGE('',*,*,#68,.F.);
#70=CARTESIAN_POINT('',(-36.312801642,21.668329067,25.325392482));
#71=VERTEX_POINT('',#70);
#72=CARTESIAN_POINT('',(-22.613719161,0.629002926,18.643903522));
#73=DIRECTION('',(0.438371147,0.,0.898794046));
#74=DIRECTION('',(0.898794046,0.,-0.438371147));
#75=AXIS2_PLACEMENT_3D('',#72,#73,#74);
#76=CIRCLE('',#75,25.979999996);
#77=EDGE_CURVE('',#61,#71,#76,.T.);
#78=ORIENTED_EDGE('',*,*,#77,.T.);
#79=CARTESIAN_POINT('',(-34.882237597,19.217405565,24.627659777));
#80=VERTEX_POINT('',#79);
#81=CARTESIAN_POINT('',(-36.312801642,21.668329067,25.325392482));
#82=DIRECTION('',(0.489518322,-0.838670568,-0.238754038));
#83=VECTOR('',#82,2.922391218);
#84=LINE('',#81,#83);
#85=EDGE_CURVE('',#71,#80,#84,.T.);
#86=ORIENTED_EDGE('',*,*,#85,.T.);
#87=CARTESIAN_POINT('',(-32.620861257,20.85132267,23.524712841));
#88=DIRECTION('',(-0.753792113,-0.544639035,0.367648979));
#89=VECTOR('',#88,3.);
#90=LINE('',#87,#89);
#91=EDGE_CURVE('',#63,#80,#90,.T.);
#92=ORIENTED_EDGE('',*,*,#91,.F.);
#93=EDGE_LOOP('',(#69,#78,#86,#92));
#94=FACE_BOUND('',#93,.T.);
#95=ADVANCED_FACE('',(#94),#59,.T.);
#96=CARTESIAN_POINT('',(-35.152834082,23.912470243,22.868215202));
#97=DIRECTION('',(0.489518322,-0.838670568,-0.238754038));
#98=DIRECTION('',(0.863647181,0.504096763,0.));
#99=AXIS2_PLACEMENT_3D('',#96,#97,#98);
#100=CYLINDRICAL_SURFACE('',#99,1.7);
#101=CARTESIAN_POINT('',(-31.897891999,21.708287167,21.996762962));
#102=VERTEX_POINT('',#101);
#103=CARTESIAN_POINT('',(-33.246469071,24.018745829,22.654068107));
#104=VERTEX_POINT('',#103);
#105=CARTESIAN_POINT('',(-31.897891999,21.708287167,21.996762962));
#106=DIRECTION('',(-0.489518322,0.838670568,0.238754038));
#107=VECTOR('',#106,2.754820758);
#108=LINE('',#105,#107);
#109=EDGE_CURVE('',#102,#104,#108,.T.);
#110=ORIENTED_EDGE('',*,*,#109,.T.);
#111=CARTESIAN_POINT('',(-35.531914042,23.28515959,21.161681554));
#112=CARTESIAN_POINT('',(-35.495966265,23.307604896,21.144148651));
#113=CARTESIAN_POINT('',(-35.457367467,23.331043433,21.127375754));
#114=CARTESIAN_POINT('',(-35.416018295,23.355368199,21.111942439));
#115=CARTESIAN_POINT('',(-35.374669123,23.379692965,21.096509123));
#116=CARTESIAN_POINT('',(-35.330568019,23.404904714,21.082415933));
#117=CARTESIAN_POINT('',(-35.283686116,23.430837089,21.070306417));
#118=CARTESIAN_POINT('',(-35.236804213,23.456769464,21.058196901));
#119=CARTESIAN_POINT('',(-35.187139822,23.483423174,21.048072031));
#120=CARTESIAN_POINT('',(-35.134758968,23.510561478,21.040628034));
#121=CARTESIAN_POINT('',(-35.082378114,23.537699783,21.033184037));
#122=CARTESIAN_POINT('',(-35.02727905,23.565323278,21.0284224));
#123=CARTESIAN_POINT('',(-34.96964853,23.593114989,21.027073657));
#124=CARTESIAN_POINT('',(-34.96962039,23.593128559,21.027072999));
#125=CARTESIAN_POINT('',(-34.969555202,23.593159995,21.027071476));
#126=CARTESIAN_POINT('',(-34.969508541,23.593182495,21.027070388));
#127=CARTESIAN_POINT('',(-34.96946188,23.593204996,21.027069301));
#128=CARTESIAN_POINT('',(-34.969415222,23.593227494,21.027068216));
#129=CARTESIAN_POINT('',(-34.969368567,23.593249991,21.027067133));
#130=CARTESIAN_POINT('',(-34.969275255,23.593294984,21.027064967));
#131=CARTESIAN_POINT('',(-34.969181954,23.593339971,21.027062811));
#132=CARTESIAN_POINT('',(-34.969088662,23.59338495,21.027060665));
#133=CARTESIAN_POINT('',(-34.968902078,23.593474908,21.027056371));
#134=CARTESIAN_POINT('',(-34.968715533,23.593564837,21.027052115));
#135=CARTESIAN_POINT('',(-34.968529027,23.593654738,21.027047897));
#136=CARTESIAN_POINT('',(-34.968156016,23.59383454,21.02703946));
#137=CARTESIAN_POINT('',(-34.96778316,23.594014226,21.027031174));
#138=CARTESIAN_POINT('',(-34.967410461,23.594193798,21.027023037));
#139=CARTESIAN_POINT('',(-34.966665061,23.594552942,21.027006762));
#140=CARTESIAN_POINT('',(-34.965920287,23.594911627,21.026991086));
#141=CARTESIAN_POINT('',(-34.965176137,23.595269852,21.026976005));
#142=CARTESIAN_POINT('',(-34.963687839,23.595986304,21.026945842));
#143=CARTESIAN_POINT('',(-34.962202042,23.596700919,21.026918059));
#144=CARTESIAN_POINT('',(-34.960718756,23.597413701,21.026892629));
#145=CARTESIAN_POINT('',(-34.957752184,23.598839265,21.02684177));
#146=CARTESIAN_POINT('',(-34.954795657,23.600257494,21.026800325));
#147=CARTESIAN_POINT('',(-34.951849246,23.601668406,21.026768085));
#148=CARTESIAN_POINT('',(-34.945956423,23.604490229,21.026703607));
#149=CARTESIAN_POINT('',(-34.940104065,23.607282782,21.026675953));
#150=CARTESIAN_POINT('',(-34.934292716,23.610046215,21.026683478));
#151=CARTESIAN_POINT('',(-34.922670019,23.615573081,21.026698526));
#152=CARTESIAN_POINT('',(-34.911211392,23.620983456,21.026854268));
#153=CARTESIAN_POINT('',(-34.899920772,23.626278714,21.027137799));
#154=CARTESIAN_POINT('',(-34.877339532,23.636869231,21.02770486));
#155=CARTESIAN_POINT('',(-34.8554308,23.646999111,21.028782697));
#156=CARTESIAN_POINT('',(-34.83421992,23.656681701,21.030272464));
#157=CARTESIAN_POINT('',(-34.791798159,23.676046881,21.033251999));
#158=CARTESIAN_POINT('',(-34.752173705,23.693621365,21.037872556));
#159=CARTESIAN_POINT('',(-34.715466516,23.709538509,21.043419746));
#160=CARTESIAN_POINT('',(-34.678759327,23.725455652,21.048966935));
#161=CARTESIAN_POINT('',(-34.644967241,23.739716815,21.055440413));
#162=CARTESIAN_POINT('',(-34.614128674,23.752471976,21.062234584));
#163=CARTESIAN_POINT('',(-34.583290107,23.765227137,21.069028756));
#164=CARTESIAN_POINT('',(-34.555403207,23.776477371,21.076143645));
#165=CARTESIAN_POINT('',(-34.530454988,23.78637105,21.083084687));
#166=CARTESIAN_POINT('',(-34.50550677,23.796264729,21.090025728));
#167=CARTESIAN_POINT('',(-34.483495728,23.804802668,21.096793151));
#168=CARTESIAN_POINT('',(-34.464382674,23.812117506,21.103001375));
#169=CARTESIAN_POINT('',(-34.44526962,23.819432344,21.109209598));
#170=CARTESIAN_POINT('',(-34.429053403,23.825524668,21.114858926));
#171=CARTESIAN_POINT('',(-34.41568856,23.830500922,21.119668662));
#172=CARTESIAN_POINT('',(-34.402323716,23.835477177,21.124478398));
#173=CARTESIAN_POINT('',(-34.391809446,23.83933775,21.12844882));
#174=CARTESIAN_POINT('',(-34.384108635,23.842155619,21.131399679));
#175=CARTESIAN_POINT('',(-34.376407824,23.844973488,21.134350538));
#176=CARTESIAN_POINT('',(-34.371520013,23.846748868,21.13628202));
#177=CARTESIAN_POINT('',(-34.369425871,23.847516761,21.137110801));
#178=CARTESIAN_POINT('',(-34.369424848,23.847517136,21.137111206));
#179=CARTESIAN_POINT('',(-34.369398173,23.847526918,21.137121763));
#180=CARTESIAN_POINT('',(-34.369384325,23.847531996,21.137127244));
#181=CARTESIAN_POINT('',(-34.369370476,23.847537074,21.137132725));
#182=CARTESIAN_POINT('',(-34.369356628,23.847542151,21.137138206));
#183=CARTESIAN_POINT('',(-34.369342779,23.847547229,21.137143688));
#184=CARTESIAN_POINT('',(-34.369315083,23.847557385,21.137154651));
#185=CARTESIAN_POINT('',(-34.369287386,23.84756754,21.137165615));
#186=CARTESIAN_POINT('',(-34.369259691,23.847577695,21.137176579));
#187=CARTESIAN_POINT('',(-34.369204299,23.847598005,21.137198508));
#188=CARTESIAN_POINT('',(-34.369148909,23.847618313,21.13722044));
#189=CARTESIAN_POINT('',(-34.369093521,23.84763862,21.137242375));
#190=CARTESIAN_POINT('',(-34.368982744,23.847679233,21.137286244));
#191=CARTESIAN_POINT('',(-34.368871974,23.847719841,21.137330124));
#192=CARTESIAN_POINT('',(-34.368761211,23.847760443,21.137374016));
#193=CARTESIAN_POINT('',(-34.368539685,23.847841648,21.1374618));
#194=CARTESIAN_POINT('',(-34.368318187,23.847922828,21.13754963));
#195=CARTESIAN_POINT('',(-34.368096715,23.848003986,21.137637504));
#196=CARTESIAN_POINT('',(-34.367653772,23.848166302,21.137813254));
#197=CARTESIAN_POINT('',(-34.367210939,23.848328525,21.137989185));
#198=CARTESIAN_POINT('',(-34.366768214,23.848490654,21.138165298));
#199=CARTESIAN_POINT('',(-34.365882765,23.848814914,21.138517524));
#200=CARTESIAN_POINT('',(-34.364997752,23.849138803,21.138870475));
#201=CARTESIAN_POINT('',(-34.364113177,23.84946232,21.139224151));
#202=CARTESIAN_POINT('',(-34.362344027,23.850109355,21.139931502));
#203=CARTESIAN_POINT('',(-34.360576628,23.850754904,21.14064175));
#204=CARTESIAN_POINT('',(-34.358810988,23.851398967,21.14135488));
#205=CARTESIAN_POINT('',(-34.355279709,23.852687093,21.142781141));
#206=CARTESIAN_POINT('',(-34.351755466,23.853969274,21.144218932));
#207=CARTESIAN_POINT('',(-34.348238325,23.855245504,21.145668142));
#208=CARTESIAN_POINT('',(-34.341204043,23.857797964,21.148566561));
#209=CARTESIAN_POINT('',(-34.334198172,23.860326617,21.151510655));
#210=CARTESIAN_POINT('',(-34.327221222,23.862831421,21.154499526));
#211=CARTESIAN_POINT('',(-34.313267323,23.86784103,21.160477269));
#212=CARTESIAN_POINT('',(-34.299429128,23.87275523,21.166634124));
#213=CARTESIAN_POINT('',(-34.285710521,23.877573798,21.172962918));
#214=CARTESIAN_POINT('',(-34.258273306,23.887210933,21.185620508));
#215=CARTESIAN_POINT('',(-34.231314712,23.896465386,21.198965837));
#216=CARTESIAN_POINT('',(-34.204862482,23.905337254,21.212941672));
#217=CARTESIAN_POINT('',(-34.151958024,23.92308099,21.240893344));
#218=CARTESIAN_POINT('',(-34.101083115,23.93929225,21.271366178));
#219=CARTESIAN_POINT('',(-34.052408857,23.953999552,21.303909182));
#220=CARTESIAN_POINT('',(-34.003734599,23.968706855,21.336452186));
#221=CARTESIAN_POINT('',(-33.957260584,23.981910602,21.371064786));
#222=CARTESIAN_POINT('',(-33.913095021,23.993671136,21.407313161));
#223=CARTESIAN_POINT('',(-33.868929457,24.005431669,21.443561536));
#224=CARTESIAN_POINT('',(-33.827071894,24.015749377,21.481445247));
#225=CARTESIAN_POINT('',(-33.787574114,24.024710484,21.520555241));
#226=CARTESIAN_POINT('',(-33.748076334,24.033671591,21.559665236));
#227=CARTESIAN_POINT('',(-33.710937866,24.041276462,21.600001198));
#228=CARTESIAN_POINT('',(-33.676160993,24.047631551,21.641184507));
#229=CARTESIAN_POINT('',(-33.641384121,24.05398664,21.682367816));
#230=CARTESIAN_POINT('',(-33.608968372,24.059092281,21.724398266));
#231=CARTESIAN_POINT('',(-33.578873622,24.063069906,21.766931569));
#232=CARTESIAN_POINT('',(-33.548778872,24.067047531,21.809464872));
#233=CARTESIAN_POINT('',(-33.521004662,24.069897439,21.85250092));
#234=CARTESIAN_POINT('',(-33.495475473,24.071751281,21.895732098));
#235=CARTESIAN_POINT('',(-33.469946285,24.073605122,21.938963277));
#236=CARTESIAN_POINT('',(-33.446661683,24.07446316,21.982389561));
#237=CARTESIAN_POINT('',(-33.425517498,24.074463043,22.025741001));
#238=CARTESIAN_POINT('',(-33.425434904,24.074463043,22.025910342));
#239=CARTESIAN_POINT('',(-33.425330119,24.074463024,22.026125265));
#240=CARTESIAN_POINT('',(-33.425236474,24.074462989,22.026317431));
#241=CARTESIAN_POINT('',(-33.425142828,24.074462953,22.026509596));
#242=CARTESIAN_POINT('',(-33.425049213,24.0744629,22.026701785));
#243=CARTESIAN_POINT('',(-33.424955628,24.074462829,22.026893995));
#244=CARTESIAN_POINT('',(-33.424768457,24.074462688,22.027278416));
#245=CARTESIAN_POINT('',(-33.424581406,24.074462476,22.027662927));
#246=CARTESIAN_POINT('',(-33.424394475,24.074462194,22.028047527));
#247=CARTESIAN_POINT('',(-33.424020613,24.07446163,22.028816726));
#248=CARTESIAN_POINT('',(-33.423647229,24.074460785,22.029586284));
#249=CARTESIAN_POINT('',(-33.423274325,24.074459659,22.030356199));
#250=CARTESIAN_POINT('',(-33.422528517,24.074457406,22.031896029));
#251=CARTESIAN_POINT('',(-33.421784627,24.074454028,22.033437287));
#252=CARTESIAN_POINT('',(-33.421042662,24.074449523,22.034979968));
#253=CARTESIAN_POINT('',(-33.419558733,24.074440511,22.038065331));
#254=CARTESIAN_POINT('',(-33.418082504,24.07442699,22.041156385));
#255=CARTESIAN_POINT('',(-33.416614026,24.074408941,22.044253086));
#256=CARTESIAN_POINT('',(-33.413677071,24.074372842,22.050446489));
#257=CARTESIAN_POINT('',(-33.410771124,24.074318632,22.05666248));
#258=CARTESIAN_POINT('',(-33.407896597,24.074246173,22.062900697));
#259=CARTESIAN_POINT('',(-33.402147543,24.074101256,22.075377131));
#260=CARTESIAN_POINT('',(-33.396524172,24.073883338,22.087942474));
#261=CARTESIAN_POINT('',(-33.39102977,24.073591358,22.100593728));
#262=CARTESIAN_POINT('',(-33.380040967,24.073007398,22.125896235));
#263=CARTESIAN_POINT('',(-33.369568074,24.07212713,22.151542506));
#264=CARTESIAN_POINT('',(-33.359637012,24.070942679,22.177507064));
#265=CARTESIAN_POINT('',(-33.339774889,24.068573775,22.229436179));
#266=CARTESIAN_POINT('',(-33.322080834,24.064987143,22.282640404));
#267=CARTESIAN_POINT('',(-33.306754704,24.060130874,22.336892306));
#268=CARTESIAN_POINT('',(-33.291428574,24.055274605,22.391144208));
#269=CARTESIAN_POINT('',(-33.278470655,24.049148547,22.446443736));
#270=CARTESIAN_POINT('',(-33.268067248,24.041717546,22.502532405));
#271=CARTESIAN_POINT('',(-33.262865545,24.038002046,22.530576739));
#272=CARTESIAN_POINT('',(-33.258302231,24.033960585,22.558817877));
#273=CARTESIAN_POINT('',(-33.254398977,24.029590521,22.587220678));
#274=CARTESIAN_POINT('',(-33.25244735,24.027405489,22.601422078));
#275=CARTESIAN_POINT('',(-33.25066072,24.025138324,22.615663865));
#276=CARTESIAN_POINT('',(-33.249041679,24.022788814,22.629941474));
#277=CARTESIAN_POINT('',(-33.248232158,24.021614059,22.637080278));
#278=CARTESIAN_POINT('',(-33.247464534,24.020418719,22.644228036));
#279=CARTESIAN_POINT('',(-33.246739122,24.019202774,22.651384167));
#280=CARTESIAN_POINT('',(-33.246648445,24.019050781,22.652278683));
#281=CARTESIAN_POINT('',(-33.246558428,24.018898466,22.65317333));
#282=CARTESIAN_POINT('',(-33.246469071,24.018745829,22.654068107));
#283=CARTESIAN_POINT('',(-33.246457902,24.018726749,22.654179954));
#284=CARTESIAN_POINT('',(-33.246446742,24.018707665,22.654291803));
#285=CARTESIAN_POINT('',(-33.246435594,24.018688575,22.654403654));
#286=CARTESIAN_POINT('',(-33.246424445,24.018669485,22.654515505));
#287=CARTESIAN_POINT('',(-33.246417286,24.018657212,22.654587396));
#288=CARTESIAN_POINT('',(-33.246409335,24.018643572,22.65466729));
#289=CARTESIAN_POINT('',(-33.246393431,24.01861629,22.654827079));
#290=CARTESIAN_POINT('',(-33.246377546,24.018588994,22.654986904));
#291=CARTESIAN_POINT('',(-33.24636168,24.018561683,22.655146765));
#292=CARTESIAN_POINT('',(-33.246329946,24.01850706,22.655466486));
#293=CARTESIAN_POINT('',(-33.246298286,24.018452377,22.65578635));
#294=CARTESIAN_POINT('',(-33.246266699,24.018397634,22.656106357));
#295=CARTESIAN_POINT('',(-33.246140351,24.01817866,22.657386388));
#296=CARTESIAN_POINT('',(-33.246015177,24.017958721,22.65866871));
#297=CARTESIAN_POINT('',(-33.245891193,24.01773781,22.65995332));
#298=CARTESIAN_POINT('',(-33.245643224,24.017295987,22.662522542));
#299=CARTESIAN_POINT('',(-33.245400009,24.016850273,22.665100916));
#300=CARTESIAN_POINT('',(-33.245161662,24.01640061,22.667688417));
#301=CARTESIAN_POINT('',(-33.241348105,24.009206001,22.709088428));
#302=CARTESIAN_POINT('',(-33.2387766,24.001000838,22.752831603));
#303=CARTESIAN_POINT('',(-33.237936385,23.991544587,22.798759775));
#304=CARTESIAN_POINT('',(-33.237096169,23.982088336,22.844687947));
#305=CARTESIAN_POINT('',(-33.237987945,23.971380191,22.892802512));
#306=CARTESIAN_POINT('',(-33.241143926,23.959182004,22.942848805));
#307=CARTESIAN_POINT('',(-33.244299907,23.946983818,22.992895098));
#308=CARTESIAN_POINT('',(-33.249721166,23.933294575,23.044874485));
#309=CARTESIAN_POINT('',(-33.257969657,23.917892167,23.098414994));
#310=CARTESIAN_POINT('',(-33.266218148,23.902489759,23.151955503));
#311=CARTESIAN_POINT('',(-33.277295382,23.885372954,23.20705836));
#312=CARTESIAN_POINT('',(-33.291773714,23.866352537,23.263214719));
#313=CARTESIAN_POINT('',(-33.306252047,23.84733212,23.319371077));
#314=CARTESIAN_POINT('',(-33.324133481,23.826406652,23.376581882));
#315=CARTESIAN_POINT('',(-33.345974437,23.803439862,23.434184989));
#316=CARTESIAN_POINT('',(-33.356894915,23.791956467,23.462986542));
#317=CARTESIAN_POINT('',(-33.368804841,23.779963701,23.491883681));
#318=CARTESIAN_POINT('',(-33.381769637,23.767451301,23.520778334));
#319=CARTESIAN_POINT('',(-33.388252035,23.7611951,23.53522566));
#320=CARTESIAN_POINT('',(-33.394998094,23.75480907,23.549672202));
#321=CARTESIAN_POINT('',(-33.402015605,23.748292431,23.564104722));
#322=CARTESIAN_POINT('',(-33.40552436,23.745034112,23.571320982));
#323=CARTESIAN_POINT('',(-33.409100973,23.741743146,23.578533726));
#324=CARTESIAN_POINT('',(-33.41274639,23.738419471,23.585741238));
#325=CARTESIAN_POINT('',(-33.414569099,23.736757633,23.589344995));
#326=CARTESIAN_POINT('',(-33.416409008,23.735087618,23.592947442));
#327=CARTESIAN_POINT('',(-33.418266233,23.733409421,23.596548363));
#328=CARTESIAN_POINT('',(-33.418498386,23.733199646,23.596998478));
#329=CARTESIAN_POINT('',(-33.41873081,23.732989744,23.597448569));
#330=CARTESIAN_POINT('',(-33.418963505,23.732779713,23.597898636));
#331=CARTESIAN_POINT('',(-33.419196199,23.732569683,23.598348703));
#332=CARTESIAN_POINT('',(-33.419469972,23.732322704,23.598877588));
#333=CARTESIAN_POINT('',(-33.419729697,23.732088534,23.599378611));
#334=CARTESIAN_POINT('',(-33.420249147,23.731620194,23.600380658));
#335=CARTESIAN_POINT('',(-33.420769216,23.731151808,23.601381221));
#336=CARTESIAN_POINT('',(-33.4212899,23.730683381,23.602380301));
#337=CARTESIAN_POINT('',(-33.422331268,23.729746526,23.604378461));
#338=CARTESIAN_POINT('',(-33.423375093,23.728809503,23.606370689));
#339=CARTESIAN_POINT('',(-33.424421329,23.727872336,23.608356994));
#340=CARTESIAN_POINT('',(-33.457900881,23.697882987,23.671918748));
#341=CARTESIAN_POINT('',(-33.493830797,23.667763295,23.729393088));
#342=CARTESIAN_POINT('',(-33.530815043,23.638208372,23.78120059));
#343=CARTESIAN_POINT('',(-33.56779929,23.608653449,23.833008091));
#344=CARTESIAN_POINT('',(-33.60583722,23.579661599,23.879156043));
#345=CARTESIAN_POINT('',(-33.643765539,23.551736434,23.92026051));
#346=CARTESIAN_POINT('',(-33.681693857,23.523811269,23.961364976));
#347=CARTESIAN_POINT('',(-33.719513352,23.496950651,23.997431856));
#348=CARTESIAN_POINT('',(-33.756291838,23.471495826,24.029173717));
#349=CARTESIAN_POINT('',(-33.793070323,23.446041002,24.060915578));
#350=CARTESIAN_POINT('',(-33.82880946,23.421989716,24.088336938));
#351=CARTESIAN_POINT('',(-33.862789326,23.399554061,24.112168839));
#352=CARTESIAN_POINT('',(-33.896769192,23.377118405,24.136000739));
#353=CARTESIAN_POINT('',(-33.928991865,23.356296234,24.156246463));
#354=CARTESIAN_POINT('',(-33.958921289,23.337203661,24.173597211));
#355=CARTESIAN_POINT('',(-33.988850714,23.318111087,24.190947958));
#356=CARTESIAN_POINT('',(-34.016489034,23.300746218,24.205405989));
#357=CARTESIAN_POINT('',(-34.041452143,23.285159591,24.217581311));
#358=B_SPLINE_CURVE_WITH_KNOTS('',3,(#111,#112,#113,#114,#115,#116,#117,#118,#119,#120,#121,#122,#123,#124,#125,#126,#127,#128,#129,#130,#131,#132,#133,#134,#135,#136,
#137,#138,#139,#140,#141,#142,#143,#144,#145,#146,#147,#148,#149,#150,#151,#152,#153,#154,#155,#156,#157,#158,#159,#160,#161,
#162,#163,#164,#165,#166,#167,#168,#169,#170,#171,#172,#173,#174,#175,#176,#177,#178,#179,#180,#181,#182,#183,#184,#185,#186,
#187,#188,#189,#190,#191,#192,#193,#194,#195,#196,#197,#198,#199,#200,#201,#202,#203,#204,#205,#206,#207,#208,#209,#210,#211,
#212,#213,#214,#215,#216,#217,#218,#219,#220,#221,#222,#223,#224,#225,#226,#227,#228,#229,#230,#231,#232,#233,#234,#235,#236,
#237,#238,#239,#240,#241,#242,#243,#244,#245,#246,#247,#248,#249,#250,#251,#252,#253,#254,#255,#256,#257,#258,#259,#260,#261,
#262,#263,#264,#265,#266,#267,#268,#269,#270,#271,#272,#273,#274,#275,#276,#277,#278,#279,#280,#281,#282,#283,#284,#285,#286,
#287,#288,#289,#290,#291,#292,#293,#294,#295,#296,#297,#298,#299,#300,#301,#302,#303,#304,#305,#306,#307,#308,#309,#310,#311,
#312,#313,#314,#315,#316,#317,#318,#319,#320,#321,#322,#323,#324,#325,#326,#327,#328,#329,#330,#331,#332,#333,#334,#335,#336,
#337,#338,#339,#340,#341,#342,#343,#344,#345,#346,#347,#348,#349,#350,#351,#352,#353,#354,#355,#356,#357),.UNSPECIFIED.,.F.,.F.,(4,3,3,3,3,3,3,3,3,3,3,3,3,3,3,3,3,3,3,3,3,3,3,3,3,3,
3,3,3,3,3,3,3,3,3,3,3,3,3,3,3,3,3,3,3,3,3,3,3,3,3,
3,3,3,3,3,3,3,3,3,3,3,3,3,3,3,3,3,3,3,3,3,3,3,3,3,
3,3,3,3,3,3,4),(0.,0.03125,0.0625,0.09375,0.125,0.125015259,0.125030518,0.125061035,0.12512207,0.125244141,0.125488281,0.125976562,0.126953125,0.12890625,0.1328125,0.140625,0.15625,0.171875,0.1875,0.203125,0.21875,0.234375,0.25,0.250007629,0.250015259,0.250030518,
0.250061035,0.25012207,0.250244141,0.250488281,0.250976562,0.251953125,0.25390625,0.2578125,0.265625,0.28125,0.3125,0.34375,0.375,0.40625,0.4375,0.46875,0.5,0.50012207,0.500244141,0.500488281,0.500976562,0.501953125,0.50390625,0.5078125,0.515625,
0.53125,0.5625,0.59375,0.609375,0.6171875,0.62109375,0.621582031,0.621643066,0.621704102,0.621826172,0.622070312,0.623046875,0.625,0.65625,0.6875,0.71875,0.75,0.78125,0.796875,0.8046875,0.80859375,0.810546875,0.810791016,0.811035156,0.811523438,
0.8125,0.84375,0.875,0.90625,0.9375,0.96875,1.),.UNSPECIFIED.);
#359=EDGE_CURVE('',#104,#61,#358,.T.);
#360=ORIENTED_EDGE('',*,*,#359,.T.);
#361=ORIENTED_EDGE('',*,*,#68,.T.);
#362=CARTESIAN_POINT('',(-33.366092207,20.85132267,21.996762962));
#363=DIRECTION('',(-0.489518322,0.838670568,0.238754038));
#364=DIRECTION('',(-0.863647181,-0.504096763,-0.));
#365=AXIS2_PLACEMENT_3D('',#362,#363,#364);
#366=CIRCLE('',#365,1.7);
#367=EDGE_CURVE('',#63,#102,#366,.T.);
#368=ORIENTED_EDGE('',*,*,#367,.T.);
#369=EDGE_LOOP('',(#110,#360,#361,#368));
#370=FACE_BOUND('',#369,.T.);
#371=ADVANCED_FACE('',(#370),#100,.T.);
#372=CARTESIAN_POINT('',(-37.028753201,23.09551169,21.891738791));
#373=DIRECTION('',(-0.438371147,-0.,-0.898794046));
#374=DIRECTION('',(-0.898794046,0.,0.438371147));
#375=AXIS2_PLACEMENT_3D('',#372,#373,#374);
#376=PLANE('',#375);
#377=CARTESIAN_POINT('',(-37.803263541,21.668329067,22.269492724));
#378=VERTEX_POINT('',#377);
#379=CARTESIAN_POINT('',(-36.372699496,19.217405565,21.571760019));
#380=VERTEX_POINT('',#379);
#381=CARTESIAN_POINT('',(-37.803263541,21.668329067,22.269492724));
#382=DIRECTION('',(0.489518322,-0.838670568,-0.238754038));
#383=VECTOR('',#382,2.922391218);
#384=LINE('',#381,#383);
#385=EDGE_CURVE('',#378,#380,#384,.T.);
#386=ORIENTED_EDGE('',*,*,#385,.F.);
#387=CARTESIAN_POINT('',(-35.531914043,23.28515959,21.161681554));
#388=VERTEX_POINT('',#387);
#389=CARTESIAN_POINT('',(-24.104181061,0.629002926,15.588003765));
#390=DIRECTION('',(-0.438371147,-0.,-0.898794046));
#391=DIRECTION('',(-0.898794046,0.,0.438371147));
#392=AXIS2_PLACEMENT_3D('',#389,#390,#391);
#393=CIRCLE('',#392,25.979999996);
#394=EDGE_CURVE('',#378,#388,#393,.T.);
#395=ORIENTED_EDGE('',*,*,#394,.T.);
#396=CARTESIAN_POINT('',(-34.111323156,20.85132267,20.468813084));
#397=VERTEX_POINT('',#396);
#398=CARTESIAN_POINT('',(-35.531914043,23.28515959,21.161681554));
#399=DIRECTION('',(0.489518322,-0.838670568,-0.238754038));
#400=VECTOR('',#399,2.902017805);
#401=LINE('',#398,#400);
#402=EDGE_CURVE('',#388,#397,#401,.T.);
#403=ORIENTED_EDGE('',*,*,#402,.T.);
#404=CARTESIAN_POINT('',(-36.372699496,19.217405565,21.571760019));
#405=DIRECTION('',(0.753792113,0.544639035,-0.367648979));
#406=VECTOR('',#405,3.);
#407=LINE('',#404,#406);
#408=EDGE_CURVE('',#380,#397,#407,.T.);
#409=ORIENTED_EDGE('',*,*,#408,.F.);
#410=EDGE_LOOP('',(#386,#395,#403,#409));
#411=FACE_BOUND('',#410,.T.);
#412=ADVANCED_FACE('',(#411),#376,.T.);
#413=CARTESIAN_POINT('',(-37.414210422,22.278553138,23.971162138));
#414=DIRECTION('',(0.489518322,-0.838670568,-0.238754038));
#415=DIRECTION('',(0.863647181,0.504096763,0.));
#416=AXIS2_PLACEMENT_3D('',#413,#414,#415);
#417=CYLINDRICAL_SURFACE('',#416,1.7);
#418=ORIENTED_EDGE('',*,*,#85,.F.);
#419=CARTESIAN_POINT('',(-36.312801642,21.668329067,25.325392482));
#420=CARTESIAN_POINT('',(-36.450855605,21.557056487,25.392725899));
#421=CARTESIAN_POINT('',(-36.625097288,21.425122348,25.442463595));
#422=CARTESIAN_POINT('',(-36.831886065,21.284895325,25.438622556));
#423=CARTESIAN_POINT('',(-36.844810364,21.276131136,25.438382491));
#424=CARTESIAN_POINT('',(-36.854845008,21.269373889,25.438032432));
#425=CARTESIAN_POINT('',(-36.866350913,21.261666026,25.437491354));
#426=CARTESIAN_POINT('',(-36.877856818,21.253958162,25.436950277));
#427=CARTESIAN_POINT('',(-36.889379158,21.246286222,25.436245203));
#428=CARTESIAN_POINT('',(-36.900914365,21.23865225,25.435376276));
#429=CARTESIAN_POINT('',(-36.923984778,21.223384306,25.43363842));
#430=CARTESIAN_POINT('',(-36.947106661,21.208268258,25.431245051));
#431=CARTESIAN_POINT('',(-36.970251367,21.193320169,25.428198467));
#432=CARTESIAN_POINT('',(-37.016540781,21.163423991,25.422105299));
#433=CARTESIAN_POINT('',(-37.062921469,21.134200105,25.413397731));
#434=CARTESIAN_POINT('',(-37.109163811,21.105772003,25.402112766));
#435=CARTESIAN_POINT('',(-37.201648496,21.048915799,25.379542835));
#436=CARTESIAN_POINT('',(-37.293575942,20.995251759,25.346639496));
#437=CARTESIAN_POINT('',(-37.383131942,20.945671501,25.303990454));
#438=CARTESIAN_POINT('',(-37.405520941,20.933276436,25.293328194));
#439=CARTESIAN_POINT('',(-37.432476574,20.918634028,25.279688078));
#440=CARTESIAN_POINT('',(-37.45669735,20.905776048,25.266572726));
#441=CARTESIAN_POINT('',(-37.480918127,20.892918068,25.253457375));
#442=CARTESIAN_POINT('',(-37.504827592,20.880502781,25.239712645));
#443=CARTESIAN_POINT('',(-37.528397706,20.868534936,25.225379345));
#444=CARTESIAN_POINT('',(-37.575537934,20.844599248,25.196712744));
#445=CARTESIAN_POINT('',(-37.621318013,20.822454979,25.165691692));
#446=CARTESIAN_POINT('',(-37.665546904,20.802119432,25.132647097));
#447=CARTESIAN_POINT('',(-37.754004686,20.76144834,25.066557908));
#448=CARTESIAN_POINT('',(-37.836217137,20.728033844,24.992381499));
#449=CARTESIAN_POINT('',(-37.911165062,20.701722372,24.912746987));
#450=CARTESIAN_POINT('',(-38.06106091,20.649099428,24.753477965));
#451=CARTESIAN_POINT('',(-38.181409608,20.625082568,24.572697796));
#452=CARTESIAN_POINT('',(-38.271006852,20.625086535,24.38898229));
#453=CARTESIAN_POINT('',(-38.282206508,20.625087031,24.366017851));
#454=CARTESIAN_POINT('',(-38.29158609,20.625415531,24.345920311));
#455=CARTESIAN_POINT('',(-38.301508596,20.626090782,24.323778958));
#456=CARTESIAN_POINT('',(-38.311431102,20.626766033,24.301637604));
#457=CARTESIAN_POINT('',(-38.321097008,20.627788007,24.2790918));
#458=CARTESIAN_POINT('',(-38.330469667,20.629175186,24.256151765));
#459=CARTESIAN_POINT('',(-38.349214985,20.631949544,24.210271694));
#460=CARTESIAN_POINT('',(-38.366788117,20.636185164,24.162811489));
#461=CARTESIAN_POINT('',(-38.382884784,20.642025993,24.113889377));
#462=CARTESIAN_POINT('',(-38.415078119,20.65370765,24.016045153));
#463=CARTESIAN_POINT('',(-38.441368654,20.671825354,23.912293586));
#464=CARTESIAN_POINT('',(-38.459219128,20.697402917,23.804240494));
#465=CARTESIAN_POINT('',(-38.494920075,20.748558043,23.588134312));
#466=CARTESIAN_POINT('',(-38.496419488,20.830122048,23.353726518));
#467=CARTESIAN_POINT('',(-38.445365397,20.945658482,23.126126559));
#468=CARTESIAN_POINT('',(-38.442174517,20.952879509,23.111901562));
#469=CARTESIAN_POINT('',(-38.439788472,20.958027332,23.101956881));
#470=CARTESIAN_POINT('',(-38.43678996,20.96430995,23.089973413));
#471=CARTESIAN_POINT('',(-38.433791449,20.970592569,23.077989946));
#472=CARTESIAN_POINT('',(-38.430653235,20.976940111,23.066075277));
#473=CARTESIAN_POINT('',(-38.427376389,20.983350923,23.054233021));
#474=CARTESIAN_POINT('',(-38.420822697,20.996172546,23.03054851));
#475=CARTESIAN_POINT('',(-38.413714397,21.009247282,23.007153694));
#476=CARTESIAN_POINT('',(-38.406061056,21.022561465,22.984076963));
#477=CARTESIAN_POINT('',(-38.390754374,21.049189831,22.9379235));
#478=CARTESIAN_POINT('',(-38.373266252,21.076776494,22.893043203));
#479=CARTESIAN_POINT('',(-38.353688854,21.105205642,22.849653915));
#480=CARTESIAN_POINT('',(-38.314534059,21.162063939,22.762875339));
#481=CARTESIAN_POINT('',(-38.267003353,21.222298477,22.682077246));
#482=CARTESIAN_POINT('',(-38.212070953,21.284894632,22.608826255));
#483=CARTESIAN_POINT('',(-38.198337853,21.300543671,22.590513507));
#484=CARTESIAN_POINT('',(-38.18614241,21.314048057,22.575199396));
#485=CARTESIAN_POINT('',(-38.172371319,21.328940253,22.558781571));
#486=CARTESIAN_POINT('',(-38.158600228,21.343832449,22.542363746));
#487=CARTESIAN_POINT('',(-38.144288989,21.358932481,22.526223046));
#488=CARTESIAN_POINT('',(-38.129432945,21.374231242,22.510401002));
#489=CARTESIAN_POINT('',(-38.099720857,21.404828763,22.478756913));
#490=CARTESIAN_POINT('',(-38.067827018,21.436222993,22.448386356));
#491=CARTESIAN_POINT('',(-38.033742523,21.468320365,22.419636257));
#492=CARTESIAN_POINT('',(-37.965573532,21.532515109,22.362136059));
#493=CARTESIAN_POINT('',(-37.888591605,21.599553977,22.311110002));
#494=CARTESIAN_POINT('',(-37.803263541,21.668329067,22.269492724));
#495=B_SPLINE_CURVE_WITH_KNOTS('',3,(#419,#420,#421,#422,#423,#424,#425,#426,#427,#428,#429,#430,#431,#432,#433,#434,#435,#436,#437,#438,#439,#440,#441,#442,#443,#444,
#445,#446,#447,#448,#449,#450,#451,#452,#453,#454,#455,#456,#457,#458,#459,#460,#461,#462,#463,#464,#465,#466,#467,#468,#469,
#470,#471,#472,#473,#474,#475,#476,#477,#478,#479,#480,#481,#482,#483,#484,#485,#486,#487,#488,#489,#490,#491,#492,#493,#494),.UNSPECIFIED.,.F.,.F.,(4,3,3,3,3,3,3,3,3,3,3,3,3,3,3,3,3,3,3,3,3,3,3,3,3,4),(0.,0.125,0.1328125,0.140625,0.15625,0.1875,0.25,0.265625,0.28125,0.3125,0.375,0.5,0.515625,0.53125,0.5625,0.625,0.75,0.7578125,0.765625,0.78125,0.8125,0.875,0.890625,0.90625,0.9375,1.),.UNSPECIFIED.);
#496=EDGE_CURVE('',#71,#378,#495,.T.);
#497=ORIENTED_EDGE('',*,*,#496,.T.);
#498=ORIENTED_EDGE('',*,*,#385,.T.);
#499=CARTESIAN_POINT('',(-35.627468546,19.217405565,23.099709898));
#500=DIRECTION('',(-0.489518322,0.838670568,0.238754038));
#501=DIRECTION('',(-0.863647181,-0.504096763,-0.));
#502=AXIS2_PLACEMENT_3D('',#499,#500,#501);
#503=CIRCLE('',#502,1.7);
#504=EDGE_CURVE('',#380,#80,#503,.T.);
#505=ORIENTED_EDGE('',*,*,#504,.T.);
#506=EDGE_LOOP('',(#418,#497,#498,#505));
#507=FACE_BOUND('',#506,.T.);
#508=ADVANCED_FACE('',(#507),#417,.T.);
#509=CARTESIAN_POINT('',(-19.126714468,32.76897261,9.328721958));
#510=DIRECTION('',(-0.489518322,0.838670568,0.238754038));
#511=DIRECTION('',(-0.753792113,-0.544639035,0.367648979));
#512=AXIS2_PLACEMENT_3D('',#509,#510,#511);
#513=PLANE('',#512);
#514=CARTESIAN_POINT('',(-36.635722184,19.217405565,21.032483592));
#515=VERTEX_POINT('',#514);
#516=CARTESIAN_POINT('',(-34.374345844,20.85132267,19.929536656));
#517=VERTEX_POINT('',#516);
#518=CARTESIAN_POINT('',(-36.635722184,19.217405565,21.032483592));
#519=DIRECTION('',(0.753792113,0.544639035,-0.367648979));
#520=VECTOR('',#519,3.);
#521=LINE('',#518,#520);
#522=EDGE_CURVE('',#515,#517,#521,.T.);
#523=ORIENTED_EDGE('',*,*,#522,.F.);
#524=CARTESIAN_POINT('',(-37.361190407,17.964735784,23.945302549));
#525=VERTEX_POINT('',#524);
#526=CARTESIAN_POINT('',(-35.627468546,19.217405565,23.099709898));
#527=DIRECTION('',(-0.489518322,0.838670568,0.238754038));
#528=DIRECTION('',(-0.863647181,-0.504096763,-0.));
#529=AXIS2_PLACEMENT_3D('',#526,#527,#528);
#530=CIRCLE('',#529,2.3);
#531=EDGE_CURVE('',#515,#525,#530,.T.);
#532=ORIENTED_EDGE('',*,*,#531,.T.);
#533=CARTESIAN_POINT('',(-34.619214909,19.217405565,25.166936205));
#534=VERTEX_POINT('',#533);
#535=CARTESIAN_POINT('',(-35.627468546,19.217405565,23.099709898));
#536=DIRECTION('',(-0.489518322,0.838670568,0.238754038));
#537=DIRECTION('',(-0.863647181,-0.504096763,-0.));
#538=AXIS2_PLACEMENT_3D('',#535,#536,#537);
#539=CIRCLE('',#538,2.3);
#540=EDGE_CURVE('',#525,#534,#539,.T.);
#541=ORIENTED_EDGE('',*,*,#540,.T.);
#542=CARTESIAN_POINT('',(-32.357838569,20.85132267,24.063989269));
#543=VERTEX_POINT('',#542);
#544=CARTESIAN_POINT('',(-32.357838569,20.85132267,24.063989269));
#545=DIRECTION('',(-0.753792113,-0.544639035,0.367648979));
#546=VECTOR('',#545,3.);
#547=LINE('',#544,#546);
#548=EDGE_CURVE('',#543,#534,#547,.T.);
#549=ORIENTED_EDGE('',*,*,#548,.F.);
#550=CARTESIAN_POINT('',(-31.37970369,22.010745225,21.996762962));
#551=VERTEX_POINT('',#550);
#552=CARTESIAN_POINT('',(-33.366092207,20.85132267,21.996762962));
#553=DIRECTION('',(-0.489518322,0.838670568,0.238754038));
#554=DIRECTION('',(-0.863647181,-0.504096763,-0.));
#555=AXIS2_PLACEMENT_3D('',#552,#553,#554);
#556=CIRCLE('',#555,2.3);
#557=EDGE_CURVE('',#543,#551,#556,.T.);
#558=ORIENTED_EDGE('',*,*,#557,.T.);
#559=CARTESIAN_POINT('',(-31.632370346,22.10399245,21.151170311));
#560=VERTEX_POINT('',#559);
#561=CARTESIAN_POINT('',(-33.366092207,20.85132267,21.996762962));
#562=DIRECTION('',(-0.489518322,0.838670568,0.238754038));
#563=DIRECTION('',(-0.863647181,-0.504096763,-0.));
#564=AXIS2_PLACEMENT_3D('',#561,#562,#563);
#565=CIRCLE('',#564,2.3);
#566=EDGE_CURVE('',#551,#560,#565,.T.);
#567=ORIENTED_EDGE('',*,*,#566,.T.);
#568=CARTESIAN_POINT('',(-33.366092207,20.85132267,21.996762962));
#569=DIRECTION('',(-0.489518322,0.838670568,0.238754038));
#570=DIRECTION('',(-0.863647181,-0.504096763,-0.));
#571=AXIS2_PLACEMENT_3D('',#568,#569,#570);
#572=CIRCLE('',#571,2.3);
#573=EDGE_CURVE('',#560,#517,#572,.T.);
#574=ORIENTED_EDGE('',*,*,#573,.T.);
#575=EDGE_LOOP('',(#523,#532,#541,#549,#558,#567,#574));
#576=FACE_BOUND('',#575,.T.);
#577=CARTESIAN_POINT('',(-33.366092207,20.85132267,21.996762962));
#578=DIRECTION('',(-0.489518322,0.838670568,0.238754038));
#579=DIRECTION('',(-0.863647181,-0.504096763,-0.));
#580=AXIS2_PLACEMENT_3D('',#577,#578,#579);
#581=CIRCLE('',#580,1.7);
#582=EDGE_CURVE('',#102,#397,#581,.T.);
#583=ORIENTED_EDGE('',*,*,#582,.F.);
#584=ORIENTED_EDGE('',*,*,#367,.F.);
#585=ORIENTED_EDGE('',*,*,#91,.T.);
#586=ORIENTED_EDGE('',*,*,#504,.F.);
#587=ORIENTED_EDGE('',*,*,#408,.T.);
#588=EDGE_LOOP('',(#583,#584,#585,#586,#587));
#589=FACE_BOUND('',#588,.T.);
#590=ADVANCED_FACE('',(#576,#589),#513,.T.);
#591=CARTESIAN_POINT('',(-33.953569145,20.831101157,24.842279073));
#592=DIRECTION('',(0.438371147,0.,0.898794046));
#593=DIRECTION('',(0.898794046,0.,-0.438371147));
#594=AXIS2_PLACEMENT_3D('',#591,#592,#593);
#595=PLANE('',#594);
#596=CARTESIAN_POINT('',(-31.72146475,19.761050931,23.753609019));
#597=VERTEX_POINT('',#596);
#598=CARTESIAN_POINT('',(-33.98284109,18.127133826,24.856555955));
#599=VERTEX_POINT('',#598);
#600=CARTESIAN_POINT('',(-31.72146475,19.761050931,23.753609019));
#601=DIRECTION('',(-0.753792113,-0.544639035,0.367648979));
#602=VECTOR('',#601,3.);
#603=LINE('',#600,#602);
#604=EDGE_CURVE('',#597,#599,#603,.T.);
#605=ORIENTED_EDGE('',*,*,#604,.F.);
#606=CARTESIAN_POINT('',(-31.72146475,19.761050931,23.753609019));
#607=DIRECTION('',(-0.489518322,0.838670568,0.238754038));
#608=VECTOR('',#607,1.3);
#609=LINE('',#606,#608);
#610=EDGE_CURVE('',#597,#543,#609,.T.);
#611=ORIENTED_EDGE('',*,*,#610,.T.);
#612=ORIENTED_EDGE('',*,*,#548,.T.);
#613=CARTESIAN_POINT('',(-34.619214909,19.217405565,25.166936205));
#614=DIRECTION('',(0.489518322,-0.838670568,-0.238754038));
#615=VECTOR('',#614,1.3);
#616=LINE('',#613,#615);
#617=EDGE_CURVE('',#534,#599,#616,.T.);
#618=ORIENTED_EDGE('',*,*,#617,.T.);
#619=EDGE_LOOP('',(#605,#611,#612,#618));
#620=FACE_BOUND('',#619,.T.);
#621=ADVANCED_FACE('',(#620),#595,.T.);
#622=CARTESIAN_POINT('',(-35.97007642,20.831101157,20.70782646));
#623=DIRECTION('',(-0.438371147,-0.,-0.898794046));
#624=DIRECTION('',(-0.898794046,-0.,0.438371147));
#625=AXIS2_PLACEMENT_3D('',#622,#623,#624);
#626=PLANE('',#625);
#627=CARTESIAN_POINT('',(-35.999348365,18.127133826,20.722103342));
#628=VERTEX_POINT('',#627);
#629=CARTESIAN_POINT('',(-33.737972026,19.761050931,19.619156406));
#630=VERTEX_POINT('',#629);
#631=CARTESIAN_POINT('',(-35.999348365,18.127133826,20.722103342));
#632=DIRECTION('',(0.753792113,0.544639035,-0.367648979));
#633=VECTOR('',#632,3.);
#634=LINE('',#631,#633);
#635=EDGE_CURVE('',#628,#630,#634,.T.);
#636=ORIENTED_EDGE('',*,*,#635,.F.);
#637=CARTESIAN_POINT('',(-35.999348365,18.127133826,20.722103342));
#638=DIRECTION('',(-0.489518322,0.838670568,0.238754038));
#639=VECTOR('',#638,1.3);
#640=LINE('',#637,#639);
#641=EDGE_CURVE('',#628,#515,#640,.T.);
#642=ORIENTED_EDGE('',*,*,#641,.T.);
#643=ORIENTED_EDGE('',*,*,#522,.T.);
#644=CARTESIAN_POINT('',(-34.374345844,20.85132267,19.929536656));
#645=DIRECTION('',(0.489518322,-0.838670568,-0.238754038));
#646=VECTOR('',#645,1.3);
#647=LINE('',#644,#646);
#648=EDGE_CURVE('',#517,#630,#647,.T.);
#649=ORIENTED_EDGE('',*,*,#648,.T.);
#650=EDGE_LOOP('',(#636,#642,#643,#649));
#651=FACE_BOUND('',#650,.T.);
#652=ADVANCED_FACE('',(#651),#626,.T.);
#653=CARTESIAN_POINT('',(-18.49034065,31.678700872,9.018341709));
#654=DIRECTION('',(-0.489518322,0.838670568,0.238754038));
#655=DIRECTION('',(-0.753792113,-0.544639035,0.367648979));
#656=AXIS2_PLACEMENT_3D('',#653,#654,#655);
#657=PLANE('',#656);
#658=CARTESIAN_POINT('',(-36.724816588,16.874464046,23.634922299));
#659=VERTEX_POINT('',#658);
#660=CARTESIAN_POINT('',(-34.991094728,18.127133826,22.789329648));
#661=DIRECTION('',(0.489518322,-0.838670568,-0.238754038));
#662=DIRECTION('',(-0.863647181,-0.504096763,-0.));
#663=AXIS2_PLACEMENT_3D('',#660,#661,#662);
#664=CIRCLE('',#663,2.3);
#665=EDGE_CURVE('',#599,#659,#664,.T.);
#666=ORIENTED_EDGE('',*,*,#665,.T.);
#667=CARTESIAN_POINT('',(-34.991094728,18.127133826,22.789329648));
#668=DIRECTION('',(0.489518322,-0.838670568,-0.238754038));
#669=DIRECTION('',(-0.863647181,-0.504096763,-0.));
#670=AXIS2_PLACEMENT_3D('',#667,#668,#669);
#671=CIRCLE('',#670,2.3);
#672=EDGE_CURVE('',#659,#628,#671,.T.);
#673=ORIENTED_EDGE('',*,*,#672,.T.);
#674=ORIENTED_EDGE('',*,*,#635,.T.);
#675=CARTESIAN_POINT('',(-30.995996527,21.013720712,20.840790061));
#676=VERTEX_POINT('',#675);
#677=CARTESIAN_POINT('',(-32.729718388,19.761050931,21.686382712));
#678=DIRECTION('',(0.489518322,-0.838670568,-0.238754038));
#679=DIRECTION('',(-0.863647181,-0.504096763,-0.));
#680=AXIS2_PLACEMENT_3D('',#677,#678,#679);
#681=CIRCLE('',#680,2.3);
#682=EDGE_CURVE('',#630,#676,#681,.T.);
#683=ORIENTED_EDGE('',*,*,#682,.T.);
#684=CARTESIAN_POINT('',(-30.743329872,20.920473487,21.686382712));
#685=VERTEX_POINT('',#684);
#686=CARTESIAN_POINT('',(-32.729718388,19.761050931,21.686382712));
#687=DIRECTION('',(0.489518322,-0.838670568,-0.238754038));
#688=DIRECTION('',(-0.863647181,-0.504096763,-0.));
#689=AXIS2_PLACEMENT_3D('',#686,#687,#688);
#690=CIRCLE('',#689,2.3);
#691=EDGE_CURVE('',#676,#685,#690,.T.);
#692=ORIENTED_EDGE('',*,*,#691,.T.);
#693=CARTESIAN_POINT('',(-32.729718388,19.761050931,21.686382712));
#694=DIRECTION('',(0.489518322,-0.838670568,-0.238754038));
#695=DIRECTION('',(-0.863647181,-0.504096763,-0.));
#696=AXIS2_PLACEMENT_3D('',#693,#694,#695);
#697=CIRCLE('',#696,2.3);
#698=EDGE_CURVE('',#685,#597,#697,.T.);
#699=ORIENTED_EDGE('',*,*,#698,.T.);
#700=ORIENTED_EDGE('',*,*,#604,.T.);
#701=EDGE_LOOP('',(#666,#673,#674,#683,#692,#699,#700));
#702=FACE_BOUND('',#701,.T.);
#703=ADVANCED_FACE('',(#702),#657,.F.);
#704=CARTESIAN_POINT('',(-33.831134613,21.648059709,22.223579299));
#705=DIRECTION('',(0.489518322,-0.838670568,-0.238754038));
#706=DIRECTION('',(0.863647181,0.504096763,-0.));
#707=AXIS2_PLACEMENT_3D('',#704,#705,#706);
#708=CYLINDRICAL_SURFACE('',#707,2.3);
#709=ORIENTED_EDGE('',*,*,#648,.F.);
#710=ORIENTED_EDGE('',*,*,#573,.F.);
#711=CARTESIAN_POINT('',(-30.995996527,21.013720712,20.840790061));
#712=DIRECTION('',(-0.489518322,0.838670568,0.238754038));
#713=VECTOR('',#712,1.3);
#714=LINE('',#711,#713);
#715=EDGE_CURVE('',#676,#560,#714,.T.);
#716=ORIENTED_EDGE('',*,*,#715,.F.);
#717=ORIENTED_EDGE('',*,*,#682,.F.);
#718=EDGE_LOOP('',(#709,#710,#716,#717));
#719=FACE_BOUND('',#718,.T.);
#720=ADVANCED_FACE('',(#719),#708,.T.);
#721=CARTESIAN_POINT('',(-33.831134613,21.648059709,22.223579299));
#722=DIRECTION('',(0.489518322,-0.838670568,-0.238754038));
#723=DIRECTION('',(0.863647181,0.504096763,-0.));
#724=AXIS2_PLACEMENT_3D('',#721,#722,#723);
#725=CYLINDRICAL_SURFACE('',#724,2.3);
#726=CARTESIAN_POINT('',(-30.743329872,20.920473487,21.686382712));
#727=DIRECTION('',(-0.489518322,0.838670568,0.238754038));
#728=VECTOR('',#727,1.3);
#729=LINE('',#726,#728);
#730=EDGE_CURVE('',#685,#551,#729,.T.);
#731=ORIENTED_EDGE('',*,*,#730,.T.);
#732=ORIENTED_EDGE('',*,*,#557,.F.);
#733=ORIENTED_EDGE('',*,*,#610,.F.);
#734=ORIENTED_EDGE('',*,*,#698,.F.);
#735=EDGE_LOOP('',(#731,#732,#733,#734));
#736=FACE_BOUND('',#735,.T.);
#737=ADVANCED_FACE('',(#736),#725,.T.);
#738=CARTESIAN_POINT('',(-36.092510952,20.014142604,23.326526235));
#739=DIRECTION('',(0.489518322,-0.838670568,-0.238754038));
#740=DIRECTION('',(0.863647181,0.504096763,0.));
#741=AXIS2_PLACEMENT_3D('',#738,#739,#740);
#742=CYLINDRICAL_SURFACE('',#741,2.3);
#743=ORIENTED_EDGE('',*,*,#617,.F.);
#744=ORIENTED_EDGE('',*,*,#540,.F.);
#745=CARTESIAN_POINT('',(-36.724816588,16.874464046,23.634922299));
#746=DIRECTION('',(-0.489518322,0.838670568,0.238754038));
#747=VECTOR('',#746,1.3);
#748=LINE('',#745,#747);
#749=EDGE_CURVE('',#659,#525,#748,.T.);
#750=ORIENTED_EDGE('',*,*,#749,.F.);
#751=ORIENTED_EDGE('',*,*,#665,.F.);
#752=EDGE_LOOP('',(#743,#744,#750,#751));
#753=FACE_BOUND('',#752,.T.);
#754=ADVANCED_FACE('',(#753),#742,.T.);
#755=CARTESIAN_POINT('',(-36.092510952,20.014142604,23.326526235));
#756=DIRECTION('',(0.489518322,-0.838670568,-0.238754038));
#757=DIRECTION('',(0.863647181,0.504096763,0.));
#758=AXIS2_PLACEMENT_3D('',#755,#756,#757);
#759=CYLINDRICAL_SURFACE('',#758,2.3);
#760=ORIENTED_EDGE('',*,*,#531,.F.);
#761=ORIENTED_EDGE('',*,*,#641,.F.);
#762=ORIENTED_EDGE('',*,*,#672,.F.);
#763=ORIENTED_EDGE('',*,*,#749,.T.);
#764=EDGE_LOOP('',(#760,#761,#762,#763));
#765=FACE_BOUND('',#764,.T.);
#766=ADVANCED_FACE('',(#765),#759,.T.);
#767=CARTESIAN_POINT('',(-24.816544972,0.629002926,14.1274413));
#768=DIRECTION('',(0.438371147,0.,0.898794046));
#769=DIRECTION('',(0.898794046,0.,-0.438371147));
#770=AXIS2_PLACEMENT_3D('',#767,#768,#769);
#771=CYLINDRICAL_SURFACE('',#770,26.23);
#772=CARTESIAN_POINT('',(-34.261011567,23.503174955,24.046517112));
#773=VERTEX_POINT('',#772);
#774=CARTESIAN_POINT('',(-35.532287893,23.503174955,21.440014378));
#775=VERTEX_POINT('',#774);
#776=CARTESIAN_POINT('',(-34.261011567,23.503174955,24.046517112));
#777=CARTESIAN_POINT('',(-33.963318568,23.690199638,23.896651179));
#778=CARTESIAN_POINT('',(-33.739946636,23.861238107,23.616131598));
#779=CARTESIAN_POINT('',(-33.642394139,23.984256647,23.267188325));
#780=CARTESIAN_POINT('',(-33.544841642,24.107275187,22.918245053));
#781=CARTESIAN_POINT('',(-33.581853347,24.173883565,22.528010213));
#782=CARTESIAN_POINT('',(-33.749593758,24.173945322,22.183804484));
#783=CARTESIAN_POINT('',(-33.917334169,24.17400708,21.839598756));
#784=CARTESIAN_POINT('',(-34.201392198,24.107598359,21.570677269));
#785=CARTESIAN_POINT('',(-34.537368399,23.984235024,21.432315652));
#786=CARTESIAN_POINT('',(-34.873344599,23.860871689,21.293954036));
#787=CARTESIAN_POINT('',(-35.230848165,23.690240378,21.297664776));
#788=CARTESIAN_POINT('',(-35.532287893,23.503174955,21.440014378));
#789=B_SPLINE_CURVE_WITH_KNOTS('',3,(#776,#777,#778,#779,#780,#781,#782,#783,#784,#785,#786,#787,#788),.UNSPECIFIED.,.F.,.F.,(4,3,3,3,4),(0.,0.25,0.5,0.75,1.),.UNSPECIFIED.);
#790=EDGE_CURVE('',#773,#775,#789,.T.);
#791=ORIENTED_EDGE('',*,*,#790,.T.);
#792=CARTESIAN_POINT('',(-37.825494104,21.870786016,22.558485779));
#793=VERTEX_POINT('',#792);
#794=CARTESIAN_POINT('',(-23.994588274,0.629002926,15.812702277));
#795=DIRECTION('',(0.438371147,0.,0.898794046));
#796=DIRECTION('',(-0.898794046,-0.,0.438371147));
#797=AXIS2_PLACEMENT_3D('',#794,#795,#796);
#798=CIRCLE('',#797,26.23);
#799=EDGE_CURVE('',#775,#793,#798,.T.);
#800=ORIENTED_EDGE('',*,*,#799,.T.);
#801=CARTESIAN_POINT('',(-36.554217778,21.870786016,25.164988514));
#802=VERTEX_POINT('',#801);
#803=CARTESIAN_POINT('',(-37.825494104,21.870786016,22.558485779));
#804=CARTESIAN_POINT('',(-38.102339698,21.646472738,22.697207791));
#805=CARTESIAN_POINT('',(-38.296752872,21.423957131,22.963142877));
#806=CARTESIAN_POINT('',(-38.369208806,21.256782906,23.300108199));
#807=CARTESIAN_POINT('',(-38.44166474,21.08960868,23.63707352));
#808=CARTESIAN_POINT('',(-38.386871434,20.992430813,24.019015482));
#809=CARTESIAN_POINT('',(-38.218940227,20.992333562,24.36359872));
#810=CARTESIAN_POINT('',(-38.05100902,20.992236311,24.708181959));
#811=CARTESIAN_POINT('',(-37.784168265,21.089261716,24.986149422));
#812=CARTESIAN_POINT('',(-37.473348269,21.256793765,25.136862961));
#813=CARTESIAN_POINT('',(-37.162528272,21.424325814,25.287576501));
#814=CARTESIAN_POINT('',(-36.834034524,21.646425316,25.297768088));
#815=CARTESIAN_POINT('',(-36.554217778,21.870786016,25.164988514));
#816=B_SPLINE_CURVE_WITH_KNOTS('',3,(#803,#804,#805,#806,#807,#808,#809,#810,#811,#812,#813,#814,#815),.UNSPECIFIED.,.F.,.F.,(4,3,3,3,4),(0.,0.25,0.5,0.75,1.),.UNSPECIFIED.);
#817=EDGE_CURVE('',#793,#802,#816,.T.);
#818=ORIENTED_EDGE('',*,*,#817,.T.);
#819=CARTESIAN_POINT('',(-22.723311948,0.629002926,18.419205011));
#820=DIRECTION('',(-0.438371147,-0.,-0.898794046));
#821=DIRECTION('',(0.898794046,0.,-0.438371147));
#822=AXIS2_PLACEMENT_3D('',#819,#820,#821);
#823=CIRCLE('',#822,26.23);
#824=EDGE_CURVE('',#802,#773,#823,.T.);
#825=ORIENTED_EDGE('',*,*,#824,.T.);
#826=EDGE_LOOP('',(#791,#800,#818,#825));
#827=FACE_BOUND('',#826,.T.);
#828=ADVANCED_FACE('',(#827),#771,.T.);
#829=CARTESIAN_POINT('',(-22.613719161,0.629002926,18.643903522));
#830=DIRECTION('',(-0.438371147,-0.,-0.898794046));
#831=DIRECTION('',(-0.898794046,-0.,0.438371147));
#832=AXIS2_PLACEMENT_3D('',#829,#830,#831);
#833=CONICAL_SURFACE('',#832,25.979999996,45.000000412);
#834=CARTESIAN_POINT('',(-34.261011567,23.503174955,24.046517112));
#835=DIRECTION('',(0.621007831,-0.616640575,0.483842614));
#836=VECTOR('',#835,0.353553388);
#837=LINE('',#834,#836);
#838=EDGE_CURVE('',#773,#61,#837,.T.);
#839=ORIENTED_EDGE('',*,*,#838,.F.);
#840=ORIENTED_EDGE('',*,*,#824,.F.);
#841=CARTESIAN_POINT('',(-36.312801644,21.668329067,25.325392479));
#842=DIRECTION('',(-0.682827948,0.57263473,-0.453690928));
#843=VECTOR('',#842,0.353553388);
#844=LINE('',#841,#843);
#845=EDGE_CURVE('',#71,#802,#844,.T.);
#846=ORIENTED_EDGE('',*,*,#845,.F.);
#847=ORIENTED_EDGE('',*,*,#77,.F.);
#848=EDGE_LOOP('',(#839,#840,#846,#847));
#849=FACE_BOUND('',#848,.T.);
#850=ADVANCED_FACE('',(#849),#833,.T.);
#851=CARTESIAN_POINT('',(-37.825494104,21.870786016,22.558485779));
#852=CARTESIAN_POINT('',(-37.961632172,21.760480572,22.626701952));
#853=CARTESIAN_POINT('',(-38.081231094,21.647720495,22.728258678));
#854=CARTESIAN_POINT('',(-38.266868233,21.437334271,22.981632087));
#855=CARTESIAN_POINT('',(-38.333426942,21.339351651,23.133668524));
#856=CARTESIAN_POINT('',(-38.40499067,21.17421416,23.466547873));
#857=CARTESIAN_POINT('',(-38.409986029,21.107191057,23.647245489));
#858=CARTESIAN_POINT('',(-38.358392505,21.016196225,24.010898712));
#859=CARTESIAN_POINT('',(-38.301754461,20.992337753,24.193792603));
#860=CARTESIAN_POINT('',(-38.136125993,20.992329371,24.533404838));
#861=CARTESIAN_POINT('',(-38.026590136,21.016280447,24.690955544));
#862=CARTESIAN_POINT('',(-37.772307703,21.107086573,24.954976071));
#863=CARTESIAN_POINT('',(-37.626244763,21.174379961,25.062732398));
#864=CARTESIAN_POINT('',(-37.320451774,21.33920757,25.210993525));
#865=CARTESIAN_POINT('',(-37.159334156,21.437377465,25.252283321));
#866=CARTESIAN_POINT('',(-36.845510813,21.647678479,25.261987305));
#867=CARTESIAN_POINT('',(-36.691825167,21.760450625,25.23028643));
#868=CARTESIAN_POINT('',(-36.554217778,21.870786016,25.164988514));
#869=CARTESIAN_POINT('',(-37.803263541,21.668329067,22.269492724));
#870=CARTESIAN_POINT('',(-37.96209255,21.540311636,22.346958808));
#871=CARTESIAN_POINT('',(-38.1023417,21.408699124,22.462870667));
#872=CARTESIAN_POINT('',(-38.321800206,21.16109014,22.754781842));
#873=CARTESIAN_POINT('',(-38.401626004,21.044642149,22.931135099));
#874=CARTESIAN_POINT('',(-38.489104791,20.846674815,23.32111802));
#875=CARTESIAN_POINT('',(-38.496654119,20.765361421,23.53464096));
#876=CARTESIAN_POINT('',(-38.437174633,20.654455252,23.967148511));
#877=CARTESIAN_POINT('',(-38.370011955,20.625091678,24.185977477));
#878=CARTESIAN_POINT('',(-38.172001749,20.625081392,24.591987102));
#879=CARTESIAN_POINT('',(-38.040573199,20.654557851,24.780014452));
#880=CARTESIAN_POINT('',(-37.736987757,20.765234127,25.092544475));
#881=CARTESIAN_POINT('',(-37.56337484,20.846873658,25.218574265));
#882=CARTESIAN_POINT('',(-37.202889043,21.044469343,25.389406644));
#883=CARTESIAN_POINT('',(-37.014382701,21.161140979,25.435232685));
#884=CARTESIAN_POINT('',(-36.649389429,21.408649671,25.442012426));
#885=CARTESIAN_POINT('',(-36.471673776,21.540276878,25.402879599));
#886=CARTESIAN_POINT('',(-36.312801642,21.668329067,25.325392482));
#887=B_SPLINE_SURFACE_WITH_KNOTS('',1,3,((#851,#852,#853,#854,#855,#856,#857,#858,#859,#860,#861,#862,#863,#864,#865,#866,#867,#868),(#869,#870,#871,#872,#873,#874,#875,#876,#877,#878,#879,#880,#881,#882,#883,#884,#885,#886)),.UNSPECIFIED.,.F.,.F.,.U.,(2,2),(4,2,2,2,2,2,2,2,4),(0.,1.),(0.002808209,0.127105777,0.251403344,0.375700911,0.499998478,0.624296045,0.748593612,0.87289118,0.997188747),.UNSPECIFIED.);
#888=ORIENTED_EDGE('',*,*,#845,.T.);
#889=ORIENTED_EDGE('',*,*,#817,.F.);
#890=CARTESIAN_POINT('',(-37.803263539,21.668329064,22.269492724));
#891=DIRECTION('',(-0.062877532,0.57263473,0.817395793));
#892=VECTOR('',#891,0.353553393);
#893=LINE('',#890,#892);
#894=EDGE_CURVE('',#378,#793,#893,.T.);
#895=ORIENTED_EDGE('',*,*,#894,.F.);
#896=ORIENTED_EDGE('',*,*,#496,.F.);
#897=EDGE_LOOP('',(#888,#889,#895,#896));
#898=FACE_BOUND('',#897,.T.);
#899=ADVANCED_FACE('',(#898),#887,.T.);
#900=CARTESIAN_POINT('',(-34.261011567,23.503174955,24.046517112));
#901=CARTESIAN_POINT('',(-34.114498333,23.59522143,23.972758768));
#902=CARTESIAN_POINT('',(-33.982527783,23.685915536,23.864727382));
#903=CARTESIAN_POINT('',(-33.770924403,23.849788308,23.598382037));
#904=CARTESIAN_POINT('',(-33.690567963,23.923501105,23.439531695));
#905=CARTESIAN_POINT('',(-33.594220315,24.045012189,23.094844956));
#906=CARTESIAN_POINT('',(-33.578224981,24.092919653,22.90882609));
#907=CARTESIAN_POINT('',(-33.61446792,24.157349502,22.538333881));
#908=CARTESIAN_POINT('',(-33.666855429,24.173945566,22.353442067));
#909=CARTESIAN_POINT('',(-33.832332087,24.173945079,22.014166901));
#910=CARTESIAN_POINT('',(-33.945611698,24.15738422,21.859228414));
#911=CARTESIAN_POINT('',(-34.21543692,24.092916567,21.602362694));
#912=CARTESIAN_POINT('',(-34.371758326,24.045045266,21.500509396));
#913=CARTESIAN_POINT('',(-34.702978472,23.923424782,21.364121909));
#914=CARTESIAN_POINT('',(-34.877368303,23.849815453,21.329719795));
#915=CARTESIAN_POINT('',(-35.217635674,23.685890686,21.332487186));
#916=CARTESIAN_POINT('',(-35.384036352,23.595175891,21.370005199));
#917=CARTESIAN_POINT('',(-35.532287893,23.503174955,21.440014378));
#918=CARTESIAN_POINT('',(-34.041452143,23.285159591,24.217581311));
#919=CARTESIAN_POINT('',(-33.870409766,23.391956134,24.13415837));
#920=CARTESIAN_POINT('',(-33.715103084,23.497376263,24.010965598));
#921=CARTESIAN_POINT('',(-33.463329359,23.688851033,23.703804578));
#922=CARTESIAN_POINT('',(-33.365998724,23.775561801,23.519112365));
#923=CARTESIAN_POINT('',(-33.246740716,23.919522957,23.114054272));
#924=CARTESIAN_POINT('',(-33.224915272,23.976871436,22.893410915));
#925=CARTESIAN_POINT('',(-33.264573208,24.054327805,22.45112765));
#926=CARTESIAN_POINT('',(-33.326337199,24.074463338,22.229089361));
#927=CARTESIAN_POINT('',(-33.524697798,24.074462748,21.822392641));
#928=CARTESIAN_POINT('',(-33.661443113,24.054369618,21.63722823));
#929=CARTESIAN_POINT('',(-33.985776118,23.976867651,21.333433303));
#930=CARTESIAN_POINT('',(-34.172950399,23.919562012,21.214868377));
#931=CARTESIAN_POINT('',(-34.565901343,23.775471511,21.059353225));
#932=CARTESIAN_POINT('',(-34.771058509,23.688882756,21.022425965));
#933=CARTESIAN_POINT('',(-35.168238551,23.497347222,21.03172135));
#934=CARTESIAN_POINT('',(-35.360956412,23.391903219,21.078299946));
#935=CARTESIAN_POINT('',(-35.531914042,23.28515959,21.161681554));
#936=B_SPLINE_SURFACE_WITH_KNOTS('',1,3,((#900,#901,#902,#903,#904,#905,#906,#907,#908,#909,#910,#911,#912,#913,#914,#915,#916,#917),(#918,#919,#920,#921,#922,#923,#924,#925,#926,#927,#928,#929,#930,#931,#932,#933,#934,#935)),.UNSPECIFIED.,.F.,.F.,.U.,(2,2),(4,2,2,2,2,2,2,2,4),(0.,1.),(0.00355709,0.12766815,0.25177921,0.375890269,0.500001329,0.624112389,0.748223449,0.872334509,0.996445569),.UNSPECIFIED.);
#937=ORIENTED_EDGE('',*,*,#838,.T.);
#938=ORIENTED_EDGE('',*,*,#359,.F.);
#939=CARTESIAN_POINT('',(-35.531914042,23.28515959,21.161681554));
#940=CARTESIAN_POINT('',(-35.495966265,23.307604896,21.144148651));
#941=CARTESIAN_POINT('',(-35.457367467,23.331043433,21.127375754));
#942=CARTESIAN_POINT('',(-35.416018295,23.355368199,21.111942439));
#943=CARTESIAN_POINT('',(-35.374669123,23.379692965,21.096509123));
#944=CARTESIAN_POINT('',(-35.330568019,23.404904714,21.082415933));
#945=CARTESIAN_POINT('',(-35.283686116,23.430837089,21.070306417));
#946=CARTESIAN_POINT('',(-35.236804213,23.456769464,21.058196901));
#947=CARTESIAN_POINT('',(-35.187139822,23.483423174,21.048072031));
#948=CARTESIAN_POINT('',(-35.134758968,23.510561478,21.040628034));
#949=CARTESIAN_POINT('',(-35.082378114,23.537699783,21.033184037));
#950=CARTESIAN_POINT('',(-35.02727905,23.565323278,21.0284224));
#951=CARTESIAN_POINT('',(-34.96964853,23.593114989,21.027073657));
#952=CARTESIAN_POINT('',(-34.96962039,23.593128559,21.027072999));
#953=CARTESIAN_POINT('',(-34.969555202,23.593159995,21.027071476));
#954=CARTESIAN_POINT('',(-34.969508541,23.593182495,21.027070388));
#955=CARTESIAN_POINT('',(-34.96946188,23.593204996,21.027069301));
#956=CARTESIAN_POINT('',(-34.969415222,23.593227494,21.027068216));
#957=CARTESIAN_POINT('',(-34.969368567,23.593249991,21.027067133));
#958=CARTESIAN_POINT('',(-34.969275255,23.593294984,21.027064967));
#959=CARTESIAN_POINT('',(-34.969181954,23.593339971,21.027062811));
#960=CARTESIAN_POINT('',(-34.969088662,23.59338495,21.027060665));
#961=CARTESIAN_POINT('',(-34.968902078,23.593474908,21.027056371));
#962=CARTESIAN_POINT('',(-34.968715533,23.593564837,21.027052115));
#963=CARTESIAN_POINT('',(-34.968529027,23.593654738,21.027047897));
#964=CARTESIAN_POINT('',(-34.968156016,23.59383454,21.02703946));
#965=CARTESIAN_POINT('',(-34.96778316,23.594014226,21.027031174));
#966=CARTESIAN_POINT('',(-34.967410461,23.594193798,21.027023037));
#967=CARTESIAN_POINT('',(-34.966665061,23.594552942,21.027006762));
#968=CARTESIAN_POINT('',(-34.965920287,23.594911627,21.026991086));
#969=CARTESIAN_POINT('',(-34.965176137,23.595269852,21.026976005));
#970=CARTESIAN_POINT('',(-34.963687839,23.595986304,21.026945842));
#971=CARTESIAN_POINT('',(-34.962202042,23.596700919,21.026918059));
#972=CARTESIAN_POINT('',(-34.960718756,23.597413701,21.026892629));
#973=CARTESIAN_POINT('',(-34.957752184,23.598839265,21.02684177));
#974=CARTESIAN_POINT('',(-34.954795657,23.600257494,21.026800325));
#975=CARTESIAN_POINT('',(-34.951849246,23.601668406,21.026768085));
#976=CARTESIAN_POINT('',(-34.945956423,23.604490229,21.026703607));
#977=CARTESIAN_POINT('',(-34.940104065,23.607282782,21.026675953));
#978=CARTESIAN_POINT('',(-34.934292716,23.610046215,21.026683478));
#979=CARTESIAN_POINT('',(-34.922670019,23.615573081,21.026698526));
#980=CARTESIAN_POINT('',(-34.911211392,23.620983456,21.026854268));
#981=CARTESIAN_POINT('',(-34.899920772,23.626278714,21.027137799));
#982=CARTESIAN_POINT('',(-34.877339532,23.636869231,21.02770486));
#983=CARTESIAN_POINT('',(-34.8554308,23.646999111,21.028782697));
#984=CARTESIAN_POINT('',(-34.83421992,23.656681701,21.030272464));
#985=CARTESIAN_POINT('',(-34.791798159,23.676046881,21.033251999));
#986=CARTESIAN_POINT('',(-34.752173705,23.693621365,21.037872556));
#987=CARTESIAN_POINT('',(-34.715466516,23.709538509,21.043419746));
#988=CARTESIAN_POINT('',(-34.678759327,23.725455652,21.048966935));
#989=CARTESIAN_POINT('',(-34.644967241,23.739716815,21.055440413));
#990=CARTESIAN_POINT('',(-34.614128674,23.752471976,21.062234584));
#991=CARTESIAN_POINT('',(-34.583290107,23.765227137,21.069028756));
#992=CARTESIAN_POINT('',(-34.555403207,23.776477371,21.076143645));
#993=CARTESIAN_POINT('',(-34.530454988,23.78637105,21.083084687));
#994=CARTESIAN_POINT('',(-34.50550677,23.796264729,21.090025728));
#995=CARTESIAN_POINT('',(-34.483495728,23.804802668,21.096793151));
#996=CARTESIAN_POINT('',(-34.464382674,23.812117506,21.103001375));
#997=CARTESIAN_POINT('',(-34.44526962,23.819432344,21.109209598));
#998=CARTESIAN_POINT('',(-34.429053403,23.825524668,21.114858926));
#999=CARTESIAN_POINT('',(-34.41568856,23.830500922,21.119668662));
#1000=CARTESIAN_POINT('',(-34.402323716,23.835477177,21.124478398));
#1001=CARTESIAN_POINT('',(-34.391809446,23.83933775,21.12844882));
#1002=CARTESIAN_POINT('',(-34.384108635,23.842155619,21.131399679));
#1003=CARTESIAN_POINT('',(-34.376407824,23.844973488,21.134350538));
#1004=CARTESIAN_POINT('',(-34.371520013,23.846748868,21.13628202));
#1005=CARTESIAN_POINT('',(-34.369425871,23.847516761,21.137110801));
#1006=CARTESIAN_POINT('',(-34.369424848,23.847517136,21.137111206));
#1007=CARTESIAN_POINT('',(-34.369398173,23.847526918,21.137121763));
#1008=CARTESIAN_POINT('',(-34.369384325,23.847531996,21.137127244));
#1009=CARTESIAN_POINT('',(-34.369370476,23.847537074,21.137132725));
#1010=CARTESIAN_POINT('',(-34.369356628,23.847542151,21.137138206));
#1011=CARTESIAN_POINT('',(-34.369342779,23.847547229,21.137143688));
#1012=CARTESIAN_POINT('',(-34.369315083,23.847557385,21.137154651));
#1013=CARTESIAN_POINT('',(-34.369287386,23.84756754,21.137165615));
#1014=CARTESIAN_POINT('',(-34.369259691,23.847577695,21.137176579));
#1015=CARTESIAN_POINT('',(-34.369204299,23.847598005,21.137198508));
#1016=CARTESIAN_POINT('',(-34.369148909,23.847618313,21.13722044));
#1017=CARTESIAN_POINT('',(-34.369093521,23.84763862,21.137242375));
#1018=CARTESIAN_POINT('',(-34.368982744,23.847679233,21.137286244));
#1019=CARTESIAN_POINT('',(-34.368871974,23.847719841,21.137330124));
#1020=CARTESIAN_POINT('',(-34.368761211,23.847760443,21.137374016));
#1021=CARTESIAN_POINT('',(-34.368539685,23.847841648,21.1374618));
#1022=CARTESIAN_POINT('',(-34.368318187,23.847922828,21.13754963));
#1023=CARTESIAN_POINT('',(-34.368096715,23.848003986,21.137637504));
#1024=CARTESIAN_POINT('',(-34.367653772,23.848166302,21.137813254));
#1025=CARTESIAN_POINT('',(-34.367210939,23.848328525,21.137989185));
#1026=CARTESIAN_POINT('',(-34.366768214,23.848490654,21.138165298));
#1027=CARTESIAN_POINT('',(-34.365882765,23.848814914,21.138517524));
#1028=CARTESIAN_POINT('',(-34.364997752,23.849138803,21.138870475));
#1029=CARTESIAN_POINT('',(-34.364113177,23.84946232,21.139224151));
#1030=CARTESIAN_POINT('',(-34.362344027,23.850109355,21.139931502));
#1031=CARTESIAN_POINT('',(-34.360576628,23.850754904,21.14064175));
#1032=CARTESIAN_POINT('',(-34.358810988,23.851398967,21.14135488));
#1033=CARTESIAN_POINT('',(-34.355279709,23.852687093,21.142781141));
#1034=CARTESIAN_POINT('',(-34.351755466,23.853969274,21.144218932));
#1035=CARTESIAN_POINT('',(-34.348238325,23.855245504,21.145668142));
#1036=CARTESIAN_POINT('',(-34.341204043,23.857797964,21.148566561));
#1037=CARTESIAN_POINT('',(-34.334198172,23.860326617,21.151510655));
#1038=CARTESIAN_POINT('',(-34.327221222,23.862831421,21.154499526));
#1039=CARTESIAN_POINT('',(-34.313267323,23.86784103,21.160477269));
#1040=CARTESIAN_POINT('',(-34.299429128,23.87275523,21.166634124));
#1041=CARTESIAN_POINT('',(-34.285710521,23.877573798,21.172962918));
#1042=CARTESIAN_POINT('',(-34.258273306,23.887210933,21.185620508));
#1043=CARTESIAN_POINT('',(-34.231314712,23.896465386,21.198965837));
#1044=CARTESIAN_POINT('',(-34.204862482,23.905337254,21.212941672));
#1045=CARTESIAN_POINT('',(-34.151958024,23.92308099,21.240893344));
#1046=CARTESIAN_POINT('',(-34.101083115,23.93929225,21.271366178));
#1047=CARTESIAN_POINT('',(-34.052408857,23.953999552,21.303909182));
#1048=CARTESIAN_POINT('',(-34.003734599,23.968706855,21.336452186));
#1049=CARTESIAN_POINT('',(-33.957260584,23.981910602,21.371064786));
#1050=CARTESIAN_POINT('',(-33.913095021,23.993671136,21.407313161));
#1051=CARTESIAN_POINT('',(-33.868929457,24.005431669,21.443561536));
#1052=CARTESIAN_POINT('',(-33.827071894,24.015749377,21.481445247));
#1053=CARTESIAN_POINT('',(-33.787574114,24.024710484,21.520555241));
#1054=CARTESIAN_POINT('',(-33.748076334,24.033671591,21.559665236));
#1055=CARTESIAN_POINT('',(-33.710937866,24.041276462,21.600001198));
#1056=CARTESIAN_POINT('',(-33.676160993,24.047631551,21.641184507));
#1057=CARTESIAN_POINT('',(-33.641384121,24.05398664,21.682367816));
#1058=CARTESIAN_POINT('',(-33.608968372,24.059092281,21.724398266));
#1059=CARTESIAN_POINT('',(-33.578873622,24.063069906,21.766931569));
#1060=CARTESIAN_POINT('',(-33.548778872,24.067047531,21.809464872));
#1061=CARTESIAN_POINT('',(-33.521004662,24.069897439,21.85250092));
#1062=CARTESIAN_POINT('',(-33.495475473,24.071751281,21.895732098));
#1063=CARTESIAN_POINT('',(-33.469946285,24.073605122,21.938963277));
#1064=CARTESIAN_POINT('',(-33.446661683,24.07446316,21.982389561));
#1065=CARTESIAN_POINT('',(-33.425517498,24.074463043,22.025741001));
#1066=CARTESIAN_POINT('',(-33.425434904,24.074463043,22.025910342));
#1067=CARTESIAN_POINT('',(-33.425330119,24.074463024,22.026125265));
#1068=CARTESIAN_POINT('',(-33.425236474,24.074462989,22.026317431));
#1069=CARTESIAN_POINT('',(-33.425142828,24.074462953,22.026509596));
#1070=CARTESIAN_POINT('',(-33.425049213,24.0744629,22.026701785));
#1071=CARTESIAN_POINT('',(-33.424955628,24.074462829,22.026893995));
#1072=CARTESIAN_POINT('',(-33.424768457,24.074462688,22.027278416));
#1073=CARTESIAN_POINT('',(-33.424581406,24.074462476,22.027662927));
#1074=CARTESIAN_POINT('',(-33.424394475,24.074462194,22.028047527));
#1075=CARTESIAN_POINT('',(-33.424020613,24.07446163,22.028816726));
#1076=CARTESIAN_POINT('',(-33.423647229,24.074460785,22.029586284));
#1077=CARTESIAN_POINT('',(-33.423274325,24.074459659,22.030356199));
#1078=CARTESIAN_POINT('',(-33.422528517,24.074457406,22.031896029));
#1079=CARTESIAN_POINT('',(-33.421784627,24.074454028,22.033437287));
#1080=CARTESIAN_POINT('',(-33.421042662,24.074449523,22.034979968));
#1081=CARTESIAN_POINT('',(-33.419558733,24.074440511,22.038065331));
#1082=CARTESIAN_POINT('',(-33.418082504,24.07442699,22.041156385));
#1083=CARTESIAN_POINT('',(-33.416614026,24.074408941,22.044253086));
#1084=CARTESIAN_POINT('',(-33.413677071,24.074372842,22.050446489));
#1085=CARTESIAN_POINT('',(-33.410771124,24.074318632,22.05666248));
#1086=CARTESIAN_POINT('',(-33.407896597,24.074246173,22.062900697));
#1087=CARTESIAN_POINT('',(-33.402147543,24.074101256,22.075377131));
#1088=CARTESIAN_POINT('',(-33.396524172,24.073883338,22.087942474));
#1089=CARTESIAN_POINT('',(-33.39102977,24.073591358,22.100593728));
#1090=CARTESIAN_POINT('',(-33.380040967,24.073007398,22.125896235));
#1091=CARTESIAN_POINT('',(-33.369568074,24.07212713,22.151542506));
#1092=CARTESIAN_POINT('',(-33.359637012,24.070942679,22.177507064));
#1093=CARTESIAN_POINT('',(-33.339774889,24.068573775,22.229436179));
#1094=CARTESIAN_POINT('',(-33.322080834,24.064987143,22.282640404));
#1095=CARTESIAN_POINT('',(-33.306754704,24.060130874,22.336892306));
#1096=CARTESIAN_POINT('',(-33.291428574,24.055274605,22.391144208));
#1097=CARTESIAN_POINT('',(-33.278470655,24.049148547,22.446443736));
#1098=CARTESIAN_POINT('',(-33.268067248,24.041717546,22.502532405));
#1099=CARTESIAN_POINT('',(-33.262865545,24.038002046,22.530576739));
#1100=CARTESIAN_POINT('',(-33.258302231,24.033960585,22.558817877));
#1101=CARTESIAN_POINT('',(-33.254398977,24.029590521,22.587220678));
#1102=CARTESIAN_POINT('',(-33.25244735,24.027405489,22.601422078));
#1103=CARTESIAN_POINT('',(-33.25066072,24.025138324,22.615663865));
#1104=CARTESIAN_POINT('',(-33.249041679,24.022788814,22.629941474));
#1105=CARTESIAN_POINT('',(-33.248232158,24.021614059,22.637080278));
#1106=CARTESIAN_POINT('',(-33.247464534,24.020418719,22.644228036));
#1107=CARTESIAN_POINT('',(-33.246739122,24.019202774,22.651384167));
#1108=CARTESIAN_POINT('',(-33.246648445,24.019050781,22.652278683));
#1109=CARTESIAN_POINT('',(-33.246558428,24.018898466,22.65317333));
#1110=CARTESIAN_POINT('',(-33.246469071,24.018745829,22.654068107));
#1111=CARTESIAN_POINT('',(-33.246457902,24.018726749,22.654179954));
#1112=CARTESIAN_POINT('',(-33.246446742,24.018707665,22.654291803));
#1113=CARTESIAN_POINT('',(-33.246435594,24.018688575,22.654403654));
#1114=CARTESIAN_POINT('',(-33.246424445,24.018669485,22.654515505));
#1115=CARTESIAN_POINT('',(-33.246417286,24.018657212,22.654587396));
#1116=CARTESIAN_POINT('',(-33.246409335,24.018643572,22.65466729));
#1117=CARTESIAN_POINT('',(-33.246393431,24.01861629,22.654827079));
#1118=CARTESIAN_POINT('',(-33.246377546,24.018588994,22.654986904));
#1119=CARTESIAN_POINT('',(-33.24636168,24.018561683,22.655146765));
#1120=CARTESIAN_POINT('',(-33.246329946,24.01850706,22.655466486));
#1121=CARTESIAN_POINT('',(-33.246298286,24.018452377,22.65578635));
#1122=CARTESIAN_POINT('',(-33.246266699,24.018397634,22.656106357));
#1123=CARTESIAN_POINT('',(-33.246140351,24.01817866,22.657386388));
#1124=CARTESIAN_POINT('',(-33.246015177,24.017958721,22.65866871));
#1125=CARTESIAN_POINT('',(-33.245891193,24.01773781,22.65995332));
#1126=CARTESIAN_POINT('',(-33.245643224,24.017295987,22.662522542));
#1127=CARTESIAN_POINT('',(-33.245400009,24.016850273,22.665100916));
#1128=CARTESIAN_POINT('',(-33.245161662,24.01640061,22.667688417));
#1129=CARTESIAN_POINT('',(-33.241348105,24.009206001,22.709088428));
#1130=CARTESIAN_POINT('',(-33.2387766,24.001000838,22.752831603));
#1131=CARTESIAN_POINT('',(-33.237936385,23.991544587,22.798759775));
#1132=CARTESIAN_POINT('',(-33.237096169,23.982088336,22.844687947));
#1133=CARTESIAN_POINT('',(-33.237987945,23.971380191,22.892802512));
#1134=CARTESIAN_POINT('',(-33.241143926,23.959182004,22.942848805));
#1135=CARTESIAN_POINT('',(-33.244299907,23.946983818,22.992895098));
#1136=CARTESIAN_POINT('',(-33.249721166,23.933294575,23.044874485));
#1137=CARTESIAN_POINT('',(-33.257969657,23.917892167,23.098414994));
#1138=CARTESIAN_POINT('',(-33.266218148,23.902489759,23.151955503));
#1139=CARTESIAN_POINT('',(-33.277295382,23.885372954,23.20705836));
#1140=CARTESIAN_POINT('',(-33.291773714,23.866352537,23.263214719));
#1141=CARTESIAN_POINT('',(-33.306252047,23.84733212,23.319371077));
#1142=CARTESIAN_POINT('',(-33.324133481,23.826406652,23.376581882));
#1143=CARTESIAN_POINT('',(-33.345974437,23.803439862,23.434184989));
#1144=CARTESIAN_POINT('',(-33.356894915,23.791956467,23.462986542));
#1145=CARTESIAN_POINT('',(-33.368804841,23.779963701,23.491883681));
#1146=CARTESIAN_POINT('',(-33.381769637,23.767451301,23.520778334));
#1147=CARTESIAN_POINT('',(-33.388252035,23.7611951,23.53522566));
#1148=CARTESIAN_POINT('',(-33.394998094,23.75480907,23.549672202));
#1149=CARTESIAN_POINT('',(-33.402015605,23.748292431,23.564104722));
#1150=CARTESIAN_POINT('',(-33.40552436,23.745034112,23.571320982));
#1151=CARTESIAN_POINT('',(-33.409100973,23.741743146,23.578533726));
#1152=CARTESIAN_POINT('',(-33.41274639,23.738419471,23.585741238));
#1153=CARTESIAN_POINT('',(-33.414569099,23.736757633,23.589344995));
#1154=CARTESIAN_POINT('',(-33.416409008,23.735087618,23.592947442));
#1155=CARTESIAN_POINT('',(-33.418266233,23.733409421,23.596548363));
#1156=CARTESIAN_POINT('',(-33.418498386,23.733199646,23.596998478));
#1157=CARTESIAN_POINT('',(-33.41873081,23.732989744,23.597448569));
#1158=CARTESIAN_POINT('',(-33.418963505,23.732779713,23.597898636));
#1159=CARTESIAN_POINT('',(-33.419196199,23.732569683,23.598348703));
#1160=CARTESIAN_POINT('',(-33.419469972,23.732322704,23.598877588));
#1161=CARTESIAN_POINT('',(-33.419729697,23.732088534,23.599378611));
#1162=CARTESIAN_POINT('',(-33.420249147,23.731620194,23.600380658));
#1163=CARTESIAN_POINT('',(-33.420769216,23.731151808,23.601381221));
#1164=CARTESIAN_POINT('',(-33.4212899,23.730683381,23.602380301));
#1165=CARTESIAN_POINT('',(-33.422331268,23.729746526,23.604378461));
#1166=CARTESIAN_POINT('',(-33.423375093,23.728809503,23.606370689));
#1167=CARTESIAN_POINT('',(-33.424421329,23.727872336,23.608356994));
#1168=CARTESIAN_POINT('',(-33.457900881,23.697882987,23.671918748));
#1169=CARTESIAN_POINT('',(-33.493830797,23.667763295,23.729393088));
#1170=CARTESIAN_POINT('',(-33.530815043,23.638208372,23.78120059));
#1171=CARTESIAN_POINT('',(-33.56779929,23.608653449,23.833008091));
#1172=CARTESIAN_POINT('',(-33.60583722,23.579661599,23.879156043));
#1173=CARTESIAN_POINT('',(-33.643765539,23.551736434,23.92026051));
#1174=CARTESIAN_POINT('',(-33.681693857,23.523811269,23.961364976));
#1175=CARTESIAN_POINT('',(-33.719513352,23.496950651,23.997431856));
#1176=CARTESIAN_POINT('',(-33.756291838,23.471495826,24.029173717));
#1177=CARTESIAN_POINT('',(-33.793070323,23.446041002,24.060915578));
#1178=CARTESIAN_POINT('',(-33.82880946,23.421989716,24.088336938));
#1179=CARTESIAN_POINT('',(-33.862789326,23.399554061,24.112168839));
#1180=CARTESIAN_POINT('',(-33.896769192,23.377118405,24.136000739));
#1181=CARTESIAN_POINT('',(-33.928991865,23.356296234,24.156246463));
#1182=CARTESIAN_POINT('',(-33.958921289,23.337203661,24.173597211));
#1183=CARTESIAN_POINT('',(-33.988850714,23.318111087,24.190947958));
#1184=CARTESIAN_POINT('',(-34.016489034,23.300746218,24.205405989));
#1185=CARTESIAN_POINT('',(-34.041452143,23.285159591,24.217581311));
#1186=B_SPLINE_CURVE_WITH_KNOTS('',3,(#939,#940,#941,#942,#943,#944,#945,#946,#947,#948,#949,#950,#951,#952,#953,#954,#955,#956,#957,#958,#959,#960,#961,#962,#963,#964,
#965,#966,#967,#968,#969,#970,#971,#972,#973,#974,#975,#976,#977,#978,#979,#980,#981,#982,#983,#984,#985,#986,#987,#988,#989,
#990,#991,#992,#993,#994,#995,#996,#997,#998,#999,#1000,#1001,#1002,#1003,#1004,#1005,#1006,#1007,#1008,#1009,#1010,#1011,#1012,#1013,#1014,
#1015,#1016,#1017,#1018,#1019,#1020,#1021,#1022,#1023,#1024,#1025,#1026,#1027,#1028,#1029,#1030,#1031,#1032,#1033,#1034,#1035,#1036,#1037,#1038,#1039,
#1040,#1041,#1042,#1043,#1044,#1045,#1046,#1047,#1048,#1049,#1050,#1051,#1052,#1053,#1054,#1055,#1056,#1057,#1058,#1059,#1060,#1061,#1062,#1063,#1064,
#1065,#1066,#1067,#1068,#1069,#1070,#1071,#1072,#1073,#1074,#1075,#1076,#1077,#1078,#1079,#1080,#1081,#1082,#1083,#1084,#1085,#1086,#1087,#1088,#1089,
#1090,#1091,#1092,#1093,#1094,#1095,#1096,#1097,#1098,#1099,#1100,#1101,#1102,#1103,#1104,#1105,#1106,#1107,#1108,#1109,#1110,#1111,#1112,#1113,#1114,
#1115,#1116,#1117,#1118,#1119,#1120,#1121,#1122,#1123,#1124,#1125,#1126,#1127,#1128,#1129,#1130,#1131,#1132,#1133,#1134,#1135,#1136,#1137,#1138,#1139,
#1140,#1141,#1142,#1143,#1144,#1145,#1146,#1147,#1148,#1149,#1150,#1151,#1152,#1153,#1154,#1155,#1156,#1157,#1158,#1159,#1160,#1161,#1162,#1163,#1164,
#1165,#1166,#1167,#1168,#1169,#1170,#1171,#1172,#1173,#1174,#1175,#1176,#1177,#1178,#1179,#1180,#1181,#1182,#1183,#1184,#1185),.UNSPECIFIED.,.F.,.F.,(4,3,3,3,3,3,3,3,3,3,3,3,3,3,3,3,3,3,3,3,3,3,3,3,3,3,
3,3,3,3,3,3,3,3,3,3,3,3,3,3,3,3,3,3,3,3,3,3,3,3,3,
3,3,3,3,3,3,3,3,3,3,3,3,3,3,3,3,3,3,3,3,3,3,3,3,3,
3,3,3,3,3,3,4),(0.,0.03125,0.0625,0.09375,0.125,0.125015259,0.125030518,0.125061035,0.12512207,0.125244141,0.125488281,0.125976562,0.126953125,0.12890625,0.1328125,0.140625,0.15625,0.171875,0.1875,0.203125,0.21875,0.234375,0.25,0.250007629,0.250015259,0.250030518,
0.250061035,0.25012207,0.250244141,0.250488281,0.250976562,0.251953125,0.25390625,0.2578125,0.265625,0.28125,0.3125,0.34375,0.375,0.40625,0.4375,0.46875,0.5,0.50012207,0.500244141,0.500488281,0.500976562,0.501953125,0.50390625,0.5078125,0.515625,
0.53125,0.5625,0.59375,0.609375,0.6171875,0.62109375,0.621582031,0.621643066,0.621704102,0.621826172,0.622070312,0.623046875,0.625,0.65625,0.6875,0.71875,0.75,0.78125,0.796875,0.8046875,0.80859375,0.810546875,0.810791016,0.811035156,0.811523438,
0.8125,0.84375,0.875,0.90625,0.9375,0.96875,1.),.UNSPECIFIED.);
#1187=EDGE_CURVE('',#388,#104,#1186,.T.);
#1188=ORIENTED_EDGE('',*,*,#1187,.F.);
#1189=CARTESIAN_POINT('',(-35.532287893,23.503174955,21.440014378));
#1190=DIRECTION('',(0.001057415,-0.616640575,-0.787244107));
#1191=VECTOR('',#1190,0.353553393);
#1192=LINE('',#1189,#1191);
#1193=EDGE_CURVE('',#775,#388,#1192,.T.);
#1194=ORIENTED_EDGE('',*,*,#1193,.F.);
#1195=ORIENTED_EDGE('',*,*,#790,.F.);
#1196=EDGE_LOOP('',(#937,#938,#1188,#1194,#1195));
#1197=FACE_BOUND('',#1196,.T.);
#1198=ADVANCED_FACE('',(#1197),#936,.T.);
#1199=CARTESIAN_POINT('',(-24.104181061,0.629002926,15.588003765));
#1200=DIRECTION('',(0.438371147,0.,0.898794046));
#1201=DIRECTION('',(0.898794046,0.,-0.438371147));
#1202=AXIS2_PLACEMENT_3D('',#1199,#1200,#1201);
#1203=CONICAL_SURFACE('',#1202,25.979999996,45.000000412);
#1204=ORIENTED_EDGE('',*,*,#894,.T.);
#1205=ORIENTED_EDGE('',*,*,#799,.F.);
#1206=ORIENTED_EDGE('',*,*,#1193,.T.);
#1207=ORIENTED_EDGE('',*,*,#394,.F.);
#1208=EDGE_LOOP('',(#1204,#1205,#1206,#1207));
#1209=FACE_BOUND('',#1208,.T.);
#1210=ADVANCED_FACE('',(#1209),#1203,.T.);
#1211=CARTESIAN_POINT('',(-35.152834082,23.912470243,22.868215202));
#1212=DIRECTION('',(0.489518322,-0.838670568,-0.238754038));
#1213=DIRECTION('',(0.863647181,0.504096763,0.));
#1214=AXIS2_PLACEMENT_3D('',#1211,#1212,#1213);
#1215=CYLINDRICAL_SURFACE('',#1214,1.7);
#1216=ORIENTED_EDGE('',*,*,#109,.F.);
#1217=ORIENTED_EDGE('',*,*,#582,.T.);
#1218=ORIENTED_EDGE('',*,*,#402,.F.);
#1219=ORIENTED_EDGE('',*,*,#1187,.T.);
#1220=EDGE_LOOP('',(#1216,#1217,#1218,#1219));
#1221=FACE_BOUND('',#1220,.T.);
#1222=ADVANCED_FACE('',(#1221),#1215,.T.);
#1223=CARTESIAN_POINT('',(-33.831134613,21.648059709,22.223579299));
#1224=DIRECTION('',(0.489518322,-0.838670568,-0.238754038));
#1225=DIRECTION('',(0.863647181,0.504096763,-0.));
#1226=AXIS2_PLACEMENT_3D('',#1223,#1224,#1225);
#1227=CYLINDRICAL_SURFACE('',#1226,2.3);
#1228=ORIENTED_EDGE('',*,*,#730,.F.);
#1229=ORIENTED_EDGE('',*,*,#691,.F.);
#1230=ORIENTED_EDGE('',*,*,#715,.T.);
#1231=ORIENTED_EDGE('',*,*,#566,.F.);
#1232=EDGE_LOOP('',(#1228,#1229,#1230,#1231));
#1233=FACE_BOUND('',#1232,.T.);
#1234=ADVANCED_FACE('',(#1233),#1227,.T.);
#1235=CLOSED_SHELL('',(#95,#371,#412,#508,#590,#621,#652,#703,#720,#737,#754,#766,#828,#850,#899,#1198,#1210,#1222,#1234));
#1236=MANIFOLD_SOLID_BREP('Button',#1235);
#1237=COLOUR_RGB('',0.392156869,0.392156869,0.388235301);
#1238=FILL_AREA_STYLE_COLOUR('',#1237);
#1239=FILL_AREA_STYLE('',(#1238));
#1240=SURFACE_STYLE_FILL_AREA(#1239);
#1241=SURFACE_SIDE_STYLE('',(#1240));
#1242=SURFACE_STYLE_USAGE(.BOTH.,#1241);
#1243=PRESENTATION_STYLE_ASSIGNMENT((#1242));
#54=STYLED_ITEM('',(#1243),#1236);
#35=SHAPE_REPRESENTATION('Harness.step',(#15),#33);
#36=ADVANCED_BREP_SHAPE_REPRESENTATION('Harness.step',(#1236),#33);
#1251=SHAPE_REPRESENTATION_RELATIONSHIP('','',#35,#36);
#1252=CARTESIAN_POINT('',(0.,0.,0.));
#1253=DIRECTION('',(0.,0.,1.));
#1254=DIRECTION('',(1.,0.,0.));
#1255=AXIS2_PLACEMENT_3D('',#1252,#1253,#1254);
#1257=MAPPED_ITEM('',#1256,#1255);
#1256=REPRESENTATION_MAP(#1255,#35);
#1258=APPLICATION_CONTEXT('Managed model based 3d engineering');
#1259=APPLICATION_PROTOCOL_DEFINITION('international standard','ap242_managed_model_based_3d_engineering',2014,#1258);
#1260=PRODUCT_CONTEXT('',#1258,'mechanical');
#1261=PRODUCT_DEFINITION_CONTEXT('part definition',#1258,'design');
#43=PRODUCT('Harness.step','Harness.step','',(#1260));
#1262=PRODUCT_RELATED_PRODUCT_CATEGORY('part','',(#43));
#1263=PRODUCT_DEFINITION_FORMATION_WITH_SPECIFIED_SOURCE('','',#43,.NOT_KNOWN.);
#44=PRODUCT_DEFINITION('design','',#1263,#1261);
#42=PRODUCT_DEFINITION_SHAPE('','',#44);
#1264=SHAPE_DEFINITION_REPRESENTATION(#42,#35);
#34=DRAUGHTING_MODEL('',(#1257),#33);
#16=SHAPE_REPRESENTATION('root',(#15,#48),#10);
#1265=CARTESIAN_POINT('',(0.,0.,0.));
#1266=DIRECTION('',(0.,0.,1.));
#1267=DIRECTION('',(1.,0.,0.));
#1268=AXIS2_PLACEMENT_3D('',#1265,#1266,#1267);
#1270=MAPPED_ITEM('',#1269,#1268);
#1269=REPRESENTATION_MAP(#1268,#16);
#24=PRODUCT('root','root','',(#1260));
#1271=PRODUCT_RELATED_PRODUCT_CATEGORY('part','',(#24));
#1272=PRODUCT_DEFINITION_FORMATION_WITH_SPECIFIED_SOURCE('','',#24,.NOT_KNOWN.);
#25=PRODUCT_DEFINITION('design','',#1272,#1261);
#23=PRODUCT_DEFINITION_SHAPE('','',#25);
#1273=SHAPE_DEFINITION_REPRESENTATION(#23,#16);
#11=DRAUGHTING_MODEL('',(#1270),#10);
#1274=DESCRIPTIVE_REPRESENTATION_ITEM('KEY','C:\\Users\\acer\\AppData\\Local\\Packages\\Shapr3D.Shapr3D_dvv5p1vgwv6mp\\TempState\\59d84c34-7767-4f27-8e2d-87c0531a9f37.tmp');
#1275=PROPERTY_DEFINITION('KEY','',#25);
#1276=REPRESENTATION('',(#1274),#10);
#1277=PROPERTY_DEFINITION_REPRESENTATION(#1275,#1276);
#1278=GENERAL_PROPERTY('','KEY','');
#1279=GENERAL_PROPERTY_ASSOCIATION('','',#1278,#1275);
#1=MECHANICAL_DESIGN_GEOMETRIC_PRESENTATION_REPRESENTATION('',(#54),#10);
ENDSEC;
END-ISO-10303-21;
