ISO-10303-21;
HEADER;

/* File generated by Shapr3D Version 26.170.11783.0 */

FILE_DESCRIPTION(('HOOPS Exchange Step'),'2;1');

FILE_NAME('C:\\Users\\acer\\AppData\\Local\\Packages\\Shapr3D.Shapr3D_dvv5p1vgwv6mp\\TempState\\export\\temp_export',
'2026-09-17T15:07:33+07:00',
('acer'),
('Shapr3D Limited'),
'HOOPS Exchange 2026.3',
'Shapr3D',
'Authorized');

FILE_SCHEMA( ('AP242_MANAGED_MODEL_BASED_3D_ENGINEERING_MIM_LF {1 0 10303 442 1 1 4}') );

ENDSEC;

DATA;
#3=(NAMED_UNIT(*)PLANE_ANGLE_UNIT()SI_UNIT($,.RADIAN.));
#4=PLANE_ANGLE_MEASURE_WITH_UNIT(PLANE_ANGLE_MEASURE(0.0174532925),#3);
#5=(CONVERSION_BASED_UNIT('DEGREE',#4)NAMED_UNIT(#6)PLANE_ANGLE_UNIT());
#6=DIMENSIONAL_EXPONENTS(0.,0.,0.,0.,0.,0.,0.);
#7=(NAMED_UNIT(*)SI_UNIT($,.STERADIAN.)SOLID_ANGLE_UNIT());
#8=(LENGTH_UNIT()NAMED_UNIT(*)SI_UNIT(.MILLI.,.METRE.));
#9=UNCERTAINTY_MEASURE_WITH_UNIT(LENGTH_MEASURE(1.000000E-03),#8,'DISTANCE_ACCURACY_VALUE','Maximum Tolerance applied to model');
#10=(GEOMETRIC_REPRESENTATION_CONTEXT(3)GLOBAL_UNCERTAINTY_ASSIGNED_CONTEXT((#9))GLOBAL_UNIT_ASSIGNED_CONTEXT((#8,#5,#7))REPRESENTATION_CONTEXT('','root'));
#12=CARTESIAN_POINT('',(0.,0.,0.));
#13=DIRECTION('',(0.,0.,1.));
#14=DIRECTION('',(1.,0.,0.));
#15=AXIS2_PLACEMENT_3D('',#12,#13,#14);
#26=(NAMED_UNIT(*)PLANE_ANGLE_UNIT()SI_UNIT($,.RADIAN.));
#27=PLANE_ANGLE_MEASURE_WITH_UNIT(PLANE_ANGLE_MEASURE(0.0174532925),#26);
#28=(CONVERSION_BASED_UNIT('DEGREE',#27)NAMED_UNIT(#29)PLANE_ANGLE_UNIT());
#29=DIMENSIONAL_EXPONENTS(0.,0.,0.,0.,0.,0.,0.);
#30=(NAMED_UNIT(*)SI_UNIT($,.STERADIAN.)SOLID_ANGLE_UNIT());
#31=(LENGTH_UNIT()NAMED_UNIT(*)SI_UNIT(.MILLI.,.METRE.));
#32=UNCERTAINTY_MEASURE_WITH_UNIT(LENGTH_MEASURE(1.000000E-05),#31,'DISTANCE_ACCURACY_VALUE','Maximum Tolerance applied to model');
#33=(GEOMETRIC_REPRESENTATION_CONTEXT(3)GLOBAL_UNCERTAINTY_ASSIGNED_CONTEXT((#32))GLOBAL_UNIT_ASSIGNED_CONTEXT((#31,#28,#30))REPRESENTATION_CONTEXT('','Harness.step'));
#45=CARTESIAN_POINT('',(0.,0.,0.));
#46=DIRECTION('',(0.,0.,1.));
#47=DIRECTION('',(1.,0.,-0.));
#48=AXIS2_PLACEMENT_3D('',#45,#46,#47);
#49=ITEM_DEFINED_TRANSFORMATION('','',#48,#15);
#50=(REPRESENTATION_RELATIONSHIP('','',#35,#16)REPRESENTATION_RELATIONSHIP_WITH_TRANSFORMATION(#49)SHAPE_REPRESENTATION_RELATIONSHIP());
#51=NEXT_ASSEMBLY_USAGE_OCCURRENCE('Harness.step_1','Harness.step','Harness.step',#25,#44,$);
#52=PRODUCT_DEFINITION_SHAPE('','',#51);
#53=CONTEXT_DEPENDENT_SHAPE_REPRESENTATION(#50,#52);
#55=CARTESIAN_POINT('',(-22.196025762,0.,-0.3));
#56=DIRECTION('',(0.,0.,1.));
#57=DIRECTION('',(1.,0.,-0.));
#58=AXIS2_PLACEMENT_3D('',#55,#56,#57);
#59=CYLINDRICAL_SURFACE('',#58,16.75);
#60=CARTESIAN_POINT('',(-5.446025762,0.,4.7));
#61=VERTEX_POINT('',#60);
#62=CARTESIAN_POINT('',(-5.446025762,0.,1.7));
#63=VERTEX_POINT('',#62);
#64=CARTESIAN_POINT('',(-5.446025762,0.,4.7));
#65=DIRECTION('',(-0.,-0.,-1.));
#66=VECTOR('',#65,3.);
#67=LINE('',#64,#66);
#68=EDGE_CURVE('',#61,#63,#67,.T.);
#69=ORIENTED_EDGE('',*,*,#68,.T.);
#70=CARTESIAN_POINT('',(-38.946025762,-0.,1.7));
#71=VERTEX_POINT('',#70);
#72=CARTESIAN_POINT('',(-22.196025762,0.,1.7));
#73=DIRECTION('',(0.,0.,-1.));
#74=DIRECTION('',(-1.,0.,0.));
#75=AXIS2_PLACEMENT_3D('',#72,#73,#74);
#76=CIRCLE('',#75,16.75);
#77=EDGE_CURVE('',#71,#63,#76,.T.);
#78=ORIENTED_EDGE('',*,*,#77,.F.);
#79=CARTESIAN_POINT('',(-22.196025762,0.,1.7));
#80=DIRECTION('',(0.,0.,-1.));
#81=DIRECTION('',(-1.,0.,0.));
#82=AXIS2_PLACEMENT_3D('',#79,#80,#81);
#83=CIRCLE('',#82,16.75);
#84=EDGE_CURVE('',#63,#71,#83,.T.);
#85=ORIENTED_EDGE('',*,*,#84,.F.);
#86=ORIENTED_EDGE('',*,*,#68,.F.);
#87=CARTESIAN_POINT('',(-38.946025762,-0.,4.7));
#88=VERTEX_POINT('',#87);
#89=CARTESIAN_POINT('',(-22.196025762,0.,4.7));
#90=DIRECTION('',(0.,0.,-1.));
#91=DIRECTION('',(-1.,0.,0.));
#92=AXIS2_PLACEMENT_3D('',#89,#90,#91);
#93=CIRCLE('',#92,16.75);
#94=EDGE_CURVE('',#61,#88,#93,.T.);
#95=ORIENTED_EDGE('',*,*,#94,.T.);
#96=CARTESIAN_POINT('',(-22.196025762,0.,4.7));
#97=DIRECTION('',(0.,0.,-1.));
#98=DIRECTION('',(-1.,0.,0.));
#99=AXIS2_PLACEMENT_3D('',#96,#97,#98);
#100=CIRCLE('',#99,16.75);
#101=EDGE_CURVE('',#88,#61,#100,.T.);
#102=ORIENTED_EDGE('',*,*,#101,.T.);
#103=EDGE_LOOP('',(#69,#78,#85,#86,#95,#102));
#104=FACE_BOUND('',#103,.T.);
#105=ADVANCED_FACE('',(#104),#59,.T.);
#106=CARTESIAN_POINT('',(0.,0.,1.7));
#107=DIRECTION('',(0.,0.,-1.));
#108=DIRECTION('',(0.,1.,0.));
#109=AXIS2_PLACEMENT_3D('',#106,#107,#108);
#110=PLANE('',#109);
#111=CARTESIAN_POINT('',(-28.844999997,9.,1.7));
#112=VERTEX_POINT('',#111);
#113=CARTESIAN_POINT('',(-33.344999997,9.,1.7));
#114=VERTEX_POINT('',#113);
#115=CARTESIAN_POINT('',(-31.094999997,9.,1.7));
#116=DIRECTION('',(0.,0.,-1.));
#117=DIRECTION('',(-1.,0.,0.));
#118=AXIS2_PLACEMENT_3D('',#115,#116,#117);
#119=CIRCLE('',#118,2.25);
#120=EDGE_CURVE('',#112,#114,#119,.T.);
#121=ORIENTED_EDGE('',*,*,#120,.F.);
#122=CARTESIAN_POINT('',(-31.094999997,9.,1.7));
#123=DIRECTION('',(0.,0.,-1.));
#124=DIRECTION('',(-1.,0.,0.));
#125=AXIS2_PLACEMENT_3D('',#122,#123,#124);
#126=CIRCLE('',#125,2.25);
#127=EDGE_CURVE('',#114,#112,#126,.T.);
#128=ORIENTED_EDGE('',*,*,#127,.F.);
#129=EDGE_LOOP('',(#121,#128));
#130=FACE_BOUND('',#129,.T.);
#131=CARTESIAN_POINT('',(-28.844999997,-9.,1.7));
#132=VERTEX_POINT('',#131);
#133=CARTESIAN_POINT('',(-33.344999997,-9.,1.7));
#134=VERTEX_POINT('',#133);
#135=CARTESIAN_POINT('',(-31.094999997,-9.,1.7));
#136=DIRECTION('',(0.,0.,-1.));
#137=DIRECTION('',(-1.,0.,0.));
#138=AXIS2_PLACEMENT_3D('',#135,#136,#137);
#139=CIRCLE('',#138,2.25);
#140=EDGE_CURVE('',#132,#134,#139,.T.);
#141=ORIENTED_EDGE('',*,*,#140,.F.);
#142=CARTESIAN_POINT('',(-31.094999997,-9.,1.7));
#143=DIRECTION('',(0.,0.,-1.));
#144=DIRECTION('',(-1.,0.,0.));
#145=AXIS2_PLACEMENT_3D('',#142,#143,#144);
#146=CIRCLE('',#145,2.25);
#147=EDGE_CURVE('',#134,#132,#146,.T.);
#148=ORIENTED_EDGE('',*,*,#147,.F.);
#149=EDGE_LOOP('',(#141,#148));
#150=FACE_BOUND('',#149,.T.);
#151=ORIENTED_EDGE('',*,*,#77,.T.);
#152=ORIENTED_EDGE('',*,*,#84,.T.);
#153=EDGE_LOOP('',(#151,#152));
#154=FACE_BOUND('',#153,.T.);
#155=ADVANCED_FACE('',(#130,#150,#154),#110,.T.);
#156=CARTESIAN_POINT('',(0.,0.,4.7));
#157=DIRECTION('',(0.,0.,-1.));
#158=DIRECTION('',(0.,1.,0.));
#159=AXIS2_PLACEMENT_3D('',#156,#157,#158);
#160=PLANE('',#159);
#161=CARTESIAN_POINT('',(-33.344999997,9.,4.7));
#162=VERTEX_POINT('',#161);
#163=CARTESIAN_POINT('',(-28.844999997,9.,4.7));
#164=VERTEX_POINT('',#163);
#165=CARTESIAN_POINT('',(-31.094999997,9.,4.7));
#166=DIRECTION('',(0.,0.,-1.));
#167=DIRECTION('',(-1.,0.,0.));
#168=AXIS2_PLACEMENT_3D('',#165,#166,#167);
#169=CIRCLE('',#168,2.25);
#170=EDGE_CURVE('',#162,#164,#169,.T.);
#171=ORIENTED_EDGE('',*,*,#170,.T.);
#172=CARTESIAN_POINT('',(-31.094999997,9.,4.7));
#173=DIRECTION('',(0.,0.,-1.));
#174=DIRECTION('',(-1.,0.,0.));
#175=AXIS2_PLACEMENT_3D('',#172,#173,#174);
#176=CIRCLE('',#175,2.25);
#177=EDGE_CURVE('',#164,#162,#176,.T.);
#178=ORIENTED_EDGE('',*,*,#177,.T.);
#179=EDGE_LOOP('',(#171,#178));
#180=FACE_BOUND('',#179,.T.);
#181=CARTESIAN_POINT('',(-33.344999997,-9.,4.7));
#182=VERTEX_POINT('',#181);
#183=CARTESIAN_POINT('',(-28.844999997,-9.,4.7));
#184=VERTEX_POINT('',#183);
#185=CARTESIAN_POINT('',(-31.094999997,-9.,4.7));
#186=DIRECTION('',(0.,0.,-1.));
#187=DIRECTION('',(-1.,0.,0.));
#188=AXIS2_PLACEMENT_3D('',#185,#186,#187);
#189=CIRCLE('',#188,2.25);
#190=EDGE_CURVE('',#182,#184,#189,.T.);
#191=ORIENTED_EDGE('',*,*,#190,.T.);
#192=CARTESIAN_POINT('',(-31.094999997,-9.,4.7));
#193=DIRECTION('',(0.,0.,-1.));
#194=DIRECTION('',(-1.,0.,0.));
#195=AXIS2_PLACEMENT_3D('',#192,#193,#194);
#196=CIRCLE('',#195,2.25);
#197=EDGE_CURVE('',#184,#182,#196,.T.);
#198=ORIENTED_EDGE('',*,*,#197,.T.);
#199=EDGE_LOOP('',(#191,#198));
#200=FACE_BOUND('',#199,.T.);
#201=ORIENTED_EDGE('',*,*,#94,.F.);
#202=ORIENTED_EDGE('',*,*,#101,.F.);
#203=EDGE_LOOP('',(#201,#202));
#204=FACE_BOUND('',#203,.T.);
#205=ADVANCED_FACE('',(#180,#200,#204),#160,.F.);
#206=CARTESIAN_POINT('',(-31.094999997,-9.,-0.));
#207=DIRECTION('',(0.,0.,1.));
#208=DIRECTION('',(1.,0.,-0.));
#209=AXIS2_PLACEMENT_3D('',#206,#207,#208);
#210=CYLINDRICAL_SURFACE('',#209,2.25);
#211=CARTESIAN_POINT('',(-28.844999997,-9.,4.7));
#212=DIRECTION('',(-0.,-0.,-1.));
#213=VECTOR('',#212,3.);
#214=LINE('',#211,#213);
#215=EDGE_CURVE('',#184,#132,#214,.T.);
#216=ORIENTED_EDGE('',*,*,#215,.F.);
#217=ORIENTED_EDGE('',*,*,#190,.F.);
#218=ORIENTED_EDGE('',*,*,#197,.F.);
#219=ORIENTED_EDGE('',*,*,#215,.T.);
#220=ORIENTED_EDGE('',*,*,#140,.T.);
#221=ORIENTED_EDGE('',*,*,#147,.T.);
#222=EDGE_LOOP('',(#216,#217,#218,#219,#220,#221));
#223=FACE_BOUND('',#222,.T.);
#224=ADVANCED_FACE('',(#223),#210,.F.);
#225=CARTESIAN_POINT('',(-31.094999997,9.,-0.));
#226=DIRECTION('',(0.,0.,1.));
#227=DIRECTION('',(1.,0.,-0.));
#228=AXIS2_PLACEMENT_3D('',#225,#226,#227);
#229=CYLINDRICAL_SURFACE('',#228,2.25);
#230=CARTESIAN_POINT('',(-28.844999997,9.,4.7));
#231=DIRECTION('',(-0.,-0.,-1.));
#232=VECTOR('',#231,3.);
#233=LINE('',#230,#232);
#234=EDGE_CURVE('',#164,#112,#233,.T.);
#235=ORIENTED_EDGE('',*,*,#234,.F.);
#236=ORIENTED_EDGE('',*,*,#170,.F.);
#237=ORIENTED_EDGE('',*,*,#177,.F.);
#238=ORIENTED_EDGE('',*,*,#234,.T.);
#239=ORIENTED_EDGE('',*,*,#120,.T.);
#240=ORIENTED_EDGE('',*,*,#127,.T.);
#241=EDGE_LOOP('',(#235,#236,#237,#238,#239,#240));
#242=FACE_BOUND('',#241,.T.);
#243=ADVANCED_FACE('',(#242),#229,.F.);
#244=CLOSED_SHELL('',(#105,#155,#205,#224,#243));
#245=MANIFOLD_SOLID_BREP('Base iron',#244);
#246=COLOUR_RGB('',0.188235298,0.184313729,0.184313729);
#247=FILL_AREA_STYLE_COLOUR('',#246);
#248=FILL_AREA_STYLE('',(#247));
#249=SURFACE_STYLE_FILL_AREA(#248);
#250=SURFACE_SIDE_STYLE('',(#249));
#251=SURFACE_STYLE_USAGE(.BOTH.,#250);
#252=PRESENTATION_STYLE_ASSIGNMENT((#251));
#54=STYLED_ITEM('',(#252),#245);
#35=SHAPE_REPRESENTATION('Harness.step',(#15),#33);
#36=ADVANCED_BREP_SHAPE_REPRESENTATION('Harness.step',(#245),#33);
#260=SHAPE_REPRESENTATION_RELATIONSHIP('','',#35,#36);
#261=CARTESIAN_POINT('',(0.,0.,0.));
#262=DIRECTION('',(0.,0.,1.));
#263=DIRECTION('',(1.,0.,0.));
#264=AXIS2_PLACEMENT_3D('',#261,#262,#263);
#266=MAPPED_ITEM('',#265,#264);
#265=REPRESENTATION_MAP(#264,#35);
#267=APPLICATION_CONTEXT('Managed model based 3d engineering');
#268=APPLICATION_PROTOCOL_DEFINITION('international standard','ap242_managed_model_based_3d_engineering',2014,#267);
#269=PRODUCT_CONTEXT('',#267,'mechanical');
#270=PRODUCT_DEFINITION_CONTEXT('part definition',#267,'design');
#43=PRODUCT('Harness.step','Harness.step','',(#269));
#271=PRODUCT_RELATED_PRODUCT_CATEGORY('part','',(#43));
#272=PRODUCT_DEFINITION_FORMATION_WITH_SPECIFIED_SOURCE('','',#43,.NOT_KNOWN.);
#44=PRODUCT_DEFINITION('design','',#272,#270);
#42=PRODUCT_DEFINITION_SHAPE('','',#44);
#273=SHAPE_DEFINITION_REPRESENTATION(#42,#35);
#34=DRAUGHTING_MODEL('',(#266),#33);
#16=SHAPE_REPRESENTATION('root',(#15,#48),#10);
#274=CARTESIAN_POINT('',(0.,0.,0.));
#275=DIRECTION('',(0.,0.,1.));
#276=DIRECTION('',(1.,0.,0.));
#277=AXIS2_PLACEMENT_3D('',#274,#275,#276);
#279=MAPPED_ITEM('',#278,#277);
#278=REPRESENTATION_MAP(#277,#16);
#24=PRODUCT('root','root','',(#269));
#280=PRODUCT_RELATED_PRODUCT_CATEGORY('part','',(#24));
#281=PRODUCT_DEFINITION_FORMATION_WITH_SPECIFIED_SOURCE('','',#24,.NOT_KNOWN.);
#25=PRODUCT_DEFINITION('design','',#281,#270);
#23=PRODUCT_DEFINITION_SHAPE('','',#25);
#282=SHAPE_DEFINITION_REPRESENTATION(#23,#16);
#11=DRAUGHTING_MODEL('',(#279),#10);
#283=DESCRIPTIVE_REPRESENTATION_ITEM('KEY','C:\\Users\\acer\\AppData\\Local\\Packages\\Shapr3D.Shapr3D_dvv5p1vgwv6mp\\TempState\\2197f7ba-4370-42de-8788-8a784fb6a074.tmp');
#284=PROPERTY_DEFINITION('KEY','',#25);
#285=REPRESENTATION('',(#283),#10);
#286=PROPERTY_DEFINITION_REPRESENTATION(#284,#285);
#287=GENERAL_PROPERTY('','KEY','');
#288=GENERAL_PROPERTY_ASSOCIATION('','',#287,#284);
#1=MECHANICAL_DESIGN_GEOMETRIC_PRESENTATION_REPRESENTATION('',(#54),#10);
ENDSEC;
END-ISO-10303-21;
