ISO-10303-21;
HEADER;

/* File generated by Shapr3D Version 26.170.11783.0 */

FILE_DESCRIPTION(('HOOPS Exchange Step'),'2;1');

FILE_NAME('C:\\Users\\acer\\AppData\\Local\\Packages\\Shapr3D.Shapr3D_dvv5p1vgwv6mp\\TempState\\export\\temp_export',
'2026-09-17T15:07:08+07:00',
('acer'),
('Shapr3D Limited'),
'HOOPS Exchange 2026.3',
'Shapr3D',
'Authorized');

FILE_SCHEMA( ('AP242_MANAGED_MODEL_BASED_3D_ENGINEERING_MIM_LF {1 0 10303 442 1 1 4}') );

ENDSEC;

DATA;
#3=(NAMED_UNIT(*)PLANE_ANGLE_UNIT()SI_UNIT($,.RADIAN.));
#4=PLANE_ANGLE_MEASURE_WITH_UNIT(PLANE_ANGLE_MEASURE(0.0174532925),#3);
#5=(CONVERSION_BASED_UNIT('DEGREE',#4)NAMED_UNIT(#6)PLANE_ANGLE_UNIT());
#6=DIMENSIONAL_EXPONENTS(0.,0.,0.,0.,0.,0.,0.);
#7=(NAMED_UNIT(*)SI_UNIT($,.STERADIAN.)SOLID_ANGLE_UNIT());
#8=(LENGTH_UNIT()NAMED_UNIT(*)SI_UNIT(.MILLI.,.METRE.));
#9=UNCERTAINTY_MEASURE_WITH_UNIT(LENGTH_MEASURE(1.000000E-03),#8,'DISTANCE_ACCURACY_VALUE','Maximum Tolerance applied to model');
#10=(GEOMETRIC_REPRESENTATION_CONTEXT(3)GLOBAL_UNCERTAINTY_ASSIGNED_CONTEXT((#9))GLOBAL_UNIT_ASSIGNED_CONTEXT((#8,#5,#7))REPRESENTATION_CONTEXT('','root'));
#12=CARTESIAN_POINT('',(0.,0.,0.));
#13=DIRECTION('',(0.,0.,1.));
#14=DIRECTION('',(1.,0.,0.));
#15=AXIS2_PLACEMENT_3D('',#12,#13,#14);
#26=(NAMED_UNIT(*)PLANE_ANGLE_UNIT()SI_UNIT($,.RADIAN.));
#27=PLANE_ANGLE_MEASURE_WITH_UNIT(PLANE_ANGLE_MEASURE(0.0174532925),#26);
#28=(CONVERSION_BASED_UNIT('DEGREE',#27)NAMED_UNIT(#29)PLANE_ANGLE_UNIT());
#29=DIMENSIONAL_EXPONENTS(0.,0.,0.,0.,0.,0.,0.);
#30=(NAMED_UNIT(*)SI_UNIT($,.STERADIAN.)SOLID_ANGLE_UNIT());
#31=(LENGTH_UNIT()NAMED_UNIT(*)SI_UNIT(.MILLI.,.METRE.));
#32=UNCERTAINTY_MEASURE_WITH_UNIT(LENGTH_MEASURE(1.000000E-05),#31,'DISTANCE_ACCURACY_VALUE','Maximum Tolerance applied to model');
#33=(GEOMETRIC_REPRESENTATION_CONTEXT(3)GLOBAL_UNCERTAINTY_ASSIGNED_CONTEXT((#32))GLOBAL_UNIT_ASSIGNED_CONTEXT((#31,#28,#30))REPRESENTATION_CONTEXT('','Harness.step'));
#45=CARTESIAN_POINT('',(0.,0.,0.));
#46=DIRECTION('',(0.,0.,1.));
#47=DIRECTION('',(1.,0.,-0.));
#48=AXIS2_PLACEMENT_3D('',#45,#46,#47);
#49=ITEM_DEFINED_TRANSFORMATION('','',#48,#15);
#50=(REPRESENTATION_RELATIONSHIP('','',#35,#16)REPRESENTATION_RELATIONSHIP_WITH_TRANSFORMATION(#49)SHAPE_REPRESENTATION_RELATIONSHIP());
#51=NEXT_ASSEMBLY_USAGE_OCCURRENCE('Harness.step_1','Harness.step','Harness.step',#25,#44,$);
#52=PRODUCT_DEFINITION_SHAPE('','',#51);
#53=CONTEXT_DEPENDENT_SHAPE_REPRESENTATION(#50,#52);
#55=CARTESIAN_POINT('',(-31.094999997,9.,-0.1));
#56=DIRECTION('',(0.,0.,1.));
#57=DIRECTION('',(1.,0.,-0.));
#58=AXIS2_PLACEMENT_3D('',#55,#56,#57);
#59=CYLINDRICAL_SURFACE('',#58,1.1);
#60=CARTESIAN_POINT('',(-29.994999997,9.,7.7));
#61=VERTEX_POINT('',#60);
#62=CARTESIAN_POINT('',(-29.994999997,9.,4.7));
#63=VERTEX_POINT('',#62);
#64=CARTESIAN_POINT('',(-29.994999997,9.,7.7));
#65=DIRECTION('',(-0.,-0.,-1.));
#66=VECTOR('',#65,3.);
#67=LINE('',#64,#66);
#68=EDGE_CURVE('',#61,#63,#67,.T.);
#69=ORIENTED_EDGE('',*,*,#68,.F.);
#70=CARTESIAN_POINT('',(-31.094999997,9.,7.7));
#71=DIRECTION('',(0.,0.,1.));
#72=DIRECTION('',(1.,0.,-0.));
#73=AXIS2_PLACEMENT_3D('',#70,#71,#72);
#74=CIRCLE('',#73,1.1);
#75=EDGE_CURVE('',#61,#61,#74,.T.);
#76=ORIENTED_EDGE('',*,*,#75,.T.);
#77=ORIENTED_EDGE('',*,*,#68,.T.);
#78=CARTESIAN_POINT('',(-31.094999997,9.,4.7));
#79=DIRECTION('',(0.,0.,1.));
#80=DIRECTION('',(1.,0.,-0.));
#81=AXIS2_PLACEMENT_3D('',#78,#79,#80);
#82=CIRCLE('',#81,1.1);
#83=EDGE_CURVE('',#63,#63,#82,.T.);
#84=ORIENTED_EDGE('',*,*,#83,.F.);
#85=EDGE_LOOP('',(#69,#76,#77,#84));
#86=FACE_BOUND('',#85,.T.);
#87=ADVANCED_FACE('',(#86),#59,.F.);
#88=CARTESIAN_POINT('',(-31.094999997,-9.,-0.1));
#89=DIRECTION('',(0.,0.,1.));
#90=DIRECTION('',(1.,0.,-0.));
#91=AXIS2_PLACEMENT_3D('',#88,#89,#90);
#92=CYLINDRICAL_SURFACE('',#91,1.1);
#93=CARTESIAN_POINT('',(-29.994999997,-9.,7.7));
#94=VERTEX_POINT('',#93);
#95=CARTESIAN_POINT('',(-29.994999997,-9.,4.7));
#96=VERTEX_POINT('',#95);
#97=CARTESIAN_POINT('',(-29.994999997,-9.,7.7));
#98=DIRECTION('',(-0.,-0.,-1.));
#99=VECTOR('',#98,3.);
#100=LINE('',#97,#99);
#101=EDGE_CURVE('',#94,#96,#100,.T.);
#102=ORIENTED_EDGE('',*,*,#101,.F.);
#103=CARTESIAN_POINT('',(-31.094999997,-9.,7.7));
#104=DIRECTION('',(0.,0.,1.));
#105=DIRECTION('',(1.,0.,-0.));
#106=AXIS2_PLACEMENT_3D('',#103,#104,#105);
#107=CIRCLE('',#106,1.1);
#108=EDGE_CURVE('',#94,#94,#107,.T.);
#109=ORIENTED_EDGE('',*,*,#108,.T.);
#110=ORIENTED_EDGE('',*,*,#101,.T.);
#111=CARTESIAN_POINT('',(-31.094999997,-9.,4.7));
#112=DIRECTION('',(0.,0.,1.));
#113=DIRECTION('',(1.,0.,-0.));
#114=AXIS2_PLACEMENT_3D('',#111,#112,#113);
#115=CIRCLE('',#114,1.1);
#116=EDGE_CURVE('',#96,#96,#115,.T.);
#117=ORIENTED_EDGE('',*,*,#116,.F.);
#118=EDGE_LOOP('',(#102,#109,#110,#117));
#119=FACE_BOUND('',#118,.T.);
#120=ADVANCED_FACE('',(#119),#92,.F.);
#121=CARTESIAN_POINT('',(0.,0.,9.2));
#122=DIRECTION('',(0.,0.,1.));
#123=DIRECTION('',(0.,1.,0.));
#124=AXIS2_PLACEMENT_3D('',#121,#122,#123);
#125=PLANE('',#124);
#126=CARTESIAN_POINT('',(-28.879929411,15.413157756,9.2));
#127=VERTEX_POINT('',#126);
#128=CARTESIAN_POINT('',(-28.879929411,4.569999997,9.2));
#129=VERTEX_POINT('',#128);
#130=CARTESIAN_POINT('',(-28.879929411,15.413157756,9.2));
#131=DIRECTION('',(0.,-1.,0.));
#132=VECTOR('',#131,10.843157759);
#133=LINE('',#130,#132);
#134=EDGE_CURVE('',#127,#129,#133,.T.);
#135=ORIENTED_EDGE('',*,*,#134,.F.);
#136=CARTESIAN_POINT('',(-38.996025762,0.,9.2));
#137=VERTEX_POINT('',#136);
#138=CARTESIAN_POINT('',(-22.196025762,0.,9.2));
#139=DIRECTION('',(0.,0.,1.));
#140=DIRECTION('',(1.,0.,-0.));
#141=AXIS2_PLACEMENT_3D('',#138,#139,#140);
#142=CIRCLE('',#141,16.8);
#143=EDGE_CURVE('',#127,#137,#142,.T.);
#144=ORIENTED_EDGE('',*,*,#143,.T.);
#145=CARTESIAN_POINT('',(-28.879929411,-15.413157756,9.2));
#146=VERTEX_POINT('',#145);
#147=CARTESIAN_POINT('',(-22.196025762,0.,9.2));
#148=DIRECTION('',(0.,0.,1.));
#149=DIRECTION('',(1.,0.,-0.));
#150=AXIS2_PLACEMENT_3D('',#147,#148,#149);
#151=CIRCLE('',#150,16.8);
#152=EDGE_CURVE('',#137,#146,#151,.T.);
#153=ORIENTED_EDGE('',*,*,#152,.T.);
#154=CARTESIAN_POINT('',(-28.879929411,-4.570000003,9.2));
#155=VERTEX_POINT('',#154);
#156=CARTESIAN_POINT('',(-28.879929411,-4.570000003,9.2));
#157=DIRECTION('',(0.,-1.,0.));
#158=VECTOR('',#157,10.843157753);
#159=LINE('',#156,#158);
#160=EDGE_CURVE('',#155,#146,#159,.T.);
#161=ORIENTED_EDGE('',*,*,#160,.F.);
#162=CARTESIAN_POINT('',(-30.094999997,-4.570000003,9.2));
#163=VERTEX_POINT('',#162);
#164=CARTESIAN_POINT('',(-30.094999997,-4.570000003,9.2));
#165=DIRECTION('',(1.,-0.,0.));
#166=VECTOR('',#165,1.215070586);
#167=LINE('',#164,#166);
#168=EDGE_CURVE('',#163,#155,#167,.T.);
#169=ORIENTED_EDGE('',*,*,#168,.F.);
#170=CARTESIAN_POINT('',(-30.094999997,4.569999997,9.2));
#171=VERTEX_POINT('',#170);
#172=CARTESIAN_POINT('',(-30.094999997,4.569999997,9.2));
#173=DIRECTION('',(0.,-1.,0.));
#174=VECTOR('',#173,9.14);
#175=LINE('',#172,#174);
#176=EDGE_CURVE('',#171,#163,#175,.T.);
#177=ORIENTED_EDGE('',*,*,#176,.F.);
#178=CARTESIAN_POINT('',(-28.879929411,4.569999997,9.2));
#179=DIRECTION('',(-1.,0.,0.));
#180=VECTOR('',#179,1.215070586);
#181=LINE('',#178,#180);
#182=EDGE_CURVE('',#129,#171,#181,.T.);
#183=ORIENTED_EDGE('',*,*,#182,.F.);
#184=EDGE_LOOP('',(#135,#144,#153,#161,#169,#177,#183));
#185=FACE_BOUND('',#184,.T.);
#186=CARTESIAN_POINT('',(-29.094999997,9.,9.2));
#187=VERTEX_POINT('',#186);
#188=CARTESIAN_POINT('',(-31.094999997,9.,9.2));
#189=DIRECTION('',(0.,0.,1.));
#190=DIRECTION('',(1.,0.,-0.));
#191=AXIS2_PLACEMENT_3D('',#188,#189,#190);
#192=CIRCLE('',#191,2.);
#193=EDGE_CURVE('',#187,#187,#192,.T.);
#194=ORIENTED_EDGE('',*,*,#193,.F.);
#195=EDGE_LOOP('',(#194));
#196=FACE_BOUND('',#195,.T.);
#197=CARTESIAN_POINT('',(-29.094999997,-9.,9.2));
#198=VERTEX_POINT('',#197);
#199=CARTESIAN_POINT('',(-31.094999997,-9.,9.2));
#200=DIRECTION('',(0.,0.,1.));
#201=DIRECTION('',(1.,0.,-0.));
#202=AXIS2_PLACEMENT_3D('',#199,#200,#201);
#203=CIRCLE('',#202,2.);
#204=EDGE_CURVE('',#198,#198,#203,.T.);
#205=ORIENTED_EDGE('',*,*,#204,.F.);
#206=EDGE_LOOP('',(#205));
#207=FACE_BOUND('',#206,.T.);
#208=ADVANCED_FACE('',(#185,#196,#207),#125,.T.);
#209=CARTESIAN_POINT('',(-25.794999997,0.,9.6));
#210=DIRECTION('',(1.,0.,0.));
#211=DIRECTION('',(0.,0.,-1.));
#212=AXIS2_PLACEMENT_3D('',#209,#210,#211);
#213=PLANE('',#212);
#214=CARTESIAN_POINT('',(-25.794999997,-16.409978198,7.695379391));
#215=VERTEX_POINT('',#214);
#216=CARTESIAN_POINT('',(-25.794999997,-4.570000003,7.695379391));
#217=VERTEX_POINT('',#216);
#218=CARTESIAN_POINT('',(-25.794999997,-16.409978198,7.695379391));
#219=DIRECTION('',(0.,1.,-0.));
#220=VECTOR('',#219,11.839978195);
#221=LINE('',#218,#220);
#222=EDGE_CURVE('',#215,#217,#221,.T.);
#223=ORIENTED_EDGE('',*,*,#222,.F.);
#224=CARTESIAN_POINT('',(-25.794999997,-16.409978198,4.7));
#225=VERTEX_POINT('',#224);
#226=CARTESIAN_POINT('',(-25.794999997,-16.409978198,7.695379391));
#227=DIRECTION('',(0.,0.,-1.));
#228=VECTOR('',#227,2.995379391);
#229=LINE('',#226,#228);
#230=EDGE_CURVE('',#215,#225,#229,.T.);
#231=ORIENTED_EDGE('',*,*,#230,.T.);
#232=CARTESIAN_POINT('',(-25.794999997,-4.570000003,4.7));
#233=VERTEX_POINT('',#232);
#234=CARTESIAN_POINT('',(-25.794999997,-4.570000003,4.7));
#235=DIRECTION('',(0.,-1.,0.));
#236=VECTOR('',#235,11.839978195);
#237=LINE('',#234,#236);
#238=EDGE_CURVE('',#233,#225,#237,.T.);
#239=ORIENTED_EDGE('',*,*,#238,.F.);
#240=CARTESIAN_POINT('',(-25.794999997,-4.570000003,7.695379391));
#241=DIRECTION('',(0.,0.,-1.));
#242=VECTOR('',#241,2.995379391);
#243=LINE('',#240,#242);
#244=EDGE_CURVE('',#217,#233,#243,.T.);
#245=ORIENTED_EDGE('',*,*,#244,.F.);
#246=EDGE_LOOP('',(#223,#231,#239,#245));
#247=FACE_BOUND('',#246,.T.);
#248=ADVANCED_FACE('',(#247),#213,.T.);
#249=CARTESIAN_POINT('',(-29.505000003,-4.570000003,6.4));
#250=DIRECTION('',(0.,1.,0.));
#251=DIRECTION('',(0.,-0.,1.));
#252=AXIS2_PLACEMENT_3D('',#249,#250,#251);
#253=PLANE('',#252);
#254=CARTESIAN_POINT('',(-25.794999997,-4.570000003,7.695379391));
#255=DIRECTION('',(-0.898794046,-0.,0.438371147));
#256=VECTOR('',#255,3.432298453);
#257=LINE('',#254,#256);
#258=EDGE_CURVE('',#217,#155,#257,.T.);
#259=ORIENTED_EDGE('',*,*,#258,.F.);
#260=ORIENTED_EDGE('',*,*,#244,.T.);
#261=CARTESIAN_POINT('',(-38.362506516,-4.570000003,4.7));
#262=VERTEX_POINT('',#261);
#263=CARTESIAN_POINT('',(-38.362506516,-4.570000003,4.7));
#264=DIRECTION('',(1.,-0.,0.));
#265=VECTOR('',#264,12.567506519);
#266=LINE('',#263,#265);
#267=EDGE_CURVE('',#262,#233,#266,.T.);
#268=ORIENTED_EDGE('',*,*,#267,.F.);
#269=CARTESIAN_POINT('',(-38.362506516,-4.570000003,6.68));
#270=VERTEX_POINT('',#269);
#271=CARTESIAN_POINT('',(-38.362506516,-4.570000003,4.7));
#272=DIRECTION('',(-0.,-0.,1.));
#273=VECTOR('',#272,1.98);
#274=LINE('',#271,#273);
#275=EDGE_CURVE('',#262,#270,#274,.T.);
#276=ORIENTED_EDGE('',*,*,#275,.T.);
#277=CARTESIAN_POINT('',(-31.294999997,-4.570000003,6.68));
#278=VERTEX_POINT('',#277);
#279=CARTESIAN_POINT('',(-31.294999997,-4.570000003,6.68));
#280=DIRECTION('',(-1.,0.,-0.));
#281=VECTOR('',#280,7.067506519);
#282=LINE('',#279,#281);
#283=EDGE_CURVE('',#278,#270,#282,.T.);
#284=ORIENTED_EDGE('',*,*,#283,.F.);
#285=CARTESIAN_POINT('',(-31.294999997,-4.570000003,7.));
#286=VERTEX_POINT('',#285);
#287=CARTESIAN_POINT('',(-31.294999997,-4.570000003,7.));
#288=DIRECTION('',(0.,0.,-1.));
#289=VECTOR('',#288,0.32);
#290=LINE('',#287,#289);
#291=EDGE_CURVE('',#286,#278,#290,.T.);
#292=ORIENTED_EDGE('',*,*,#291,.F.);
#293=CARTESIAN_POINT('',(-30.094999997,-4.570000003,7.));
#294=VERTEX_POINT('',#293);
#295=CARTESIAN_POINT('',(-31.294999997,-4.570000003,7.));
#296=DIRECTION('',(1.,0.,0.));
#297=VECTOR('',#296,1.2);
#298=LINE('',#295,#297);
#299=EDGE_CURVE('',#286,#294,#298,.T.);
#300=ORIENTED_EDGE('',*,*,#299,.T.);
#301=CARTESIAN_POINT('',(-30.094999997,-4.570000003,9.2));
#302=DIRECTION('',(0.,0.,-1.));
#303=VECTOR('',#302,2.2);
#304=LINE('',#301,#303);
#305=EDGE_CURVE('',#163,#294,#304,.T.);
#306=ORIENTED_EDGE('',*,*,#305,.F.);
#307=ORIENTED_EDGE('',*,*,#168,.T.);
#308=EDGE_LOOP('',(#259,#260,#268,#276,#284,#292,#300,#306,#307));
#309=FACE_BOUND('',#308,.T.);
#310=ADVANCED_FACE('',(#309),#253,.T.);
#311=CARTESIAN_POINT('',(-25.794999997,0.,9.6));
#312=DIRECTION('',(1.,0.,0.));
#313=DIRECTION('',(0.,0.,-1.));
#314=AXIS2_PLACEMENT_3D('',#311,#312,#313);
#315=PLANE('',#314);
#316=CARTESIAN_POINT('',(-25.794999997,16.409978198,7.695379391));
#317=VERTEX_POINT('',#316);
#318=CARTESIAN_POINT('',(-25.794999997,16.409978198,4.7));
#319=VERTEX_POINT('',#318);
#320=CARTESIAN_POINT('',(-25.794999997,16.409978198,7.695379391));
#321=DIRECTION('',(0.,0.,-1.));
#322=VECTOR('',#321,2.995379391);
#323=LINE('',#320,#322);
#324=EDGE_CURVE('',#317,#319,#323,.T.);
#325=ORIENTED_EDGE('',*,*,#324,.F.);
#326=CARTESIAN_POINT('',(-25.794999997,4.569999997,7.695379391));
#327=VERTEX_POINT('',#326);
#328=CARTESIAN_POINT('',(-25.794999997,4.569999997,7.695379391));
#329=DIRECTION('',(0.,1.,-0.));
#330=VECTOR('',#329,11.839978201);
#331=LINE('',#328,#330);
#332=EDGE_CURVE('',#327,#317,#331,.T.);
#333=ORIENTED_EDGE('',*,*,#332,.F.);
#334=CARTESIAN_POINT('',(-25.794999997,4.569999997,4.7));
#335=VERTEX_POINT('',#334);
#336=CARTESIAN_POINT('',(-25.794999997,4.569999997,7.695379391));
#337=DIRECTION('',(0.,0.,-1.));
#338=VECTOR('',#337,2.995379391);
#339=LINE('',#336,#338);
#340=EDGE_CURVE('',#327,#335,#339,.T.);
#341=ORIENTED_EDGE('',*,*,#340,.T.);
#342=CARTESIAN_POINT('',(-25.794999997,16.409978198,4.7));
#343=DIRECTION('',(0.,-1.,0.));
#344=VECTOR('',#343,11.839978201);
#345=LINE('',#342,#344);
#346=EDGE_CURVE('',#319,#335,#345,.T.);
#347=ORIENTED_EDGE('',*,*,#346,.F.);
#348=EDGE_LOOP('',(#325,#333,#341,#347));
#349=FACE_BOUND('',#348,.T.);
#350=ADVANCED_FACE('',(#349),#315,.T.);
#351=CARTESIAN_POINT('',(-22.196025762,0.,9.6));
#352=DIRECTION('',(0.,0.,-1.));
#353=DIRECTION('',(-1.,0.,0.));
#354=AXIS2_PLACEMENT_3D('',#351,#352,#353);
#355=CYLINDRICAL_SURFACE('',#354,16.8);
#356=CARTESIAN_POINT('',(-38.996025762,0.,8.08));
#357=VERTEX_POINT('',#356);
#358=CARTESIAN_POINT('',(-38.996025762,0.,8.08));
#359=DIRECTION('',(-0.,-0.,1.));
#360=VECTOR('',#359,1.12);
#361=LINE('',#358,#360);
#362=EDGE_CURVE('',#357,#137,#361,.T.);
#363=ORIENTED_EDGE('',*,*,#362,.T.);
#364=ORIENTED_EDGE('',*,*,#143,.F.);
#365=CARTESIAN_POINT('',(-22.196025762,0.,5.940042371));
#366=DIRECTION('',(0.438371147,0.,0.898794046));
#367=DIRECTION('',(0.898794046,0.,-0.438371147));
#368=AXIS2_PLACEMENT_3D('',#365,#366,#367);
#369=ELLIPSE('',#368,18.6917126,16.8);
#370=EDGE_CURVE('',#317,#127,#369,.T.);
#371=ORIENTED_EDGE('',*,*,#370,.F.);
#372=ORIENTED_EDGE('',*,*,#324,.T.);
#373=CARTESIAN_POINT('',(-38.362506518,4.569999997,4.7));
#374=VERTEX_POINT('',#373);
#375=CARTESIAN_POINT('',(-22.196025762,0.,4.7));
#376=DIRECTION('',(0.,0.,1.));
#377=DIRECTION('',(1.,0.,-0.));
#378=AXIS2_PLACEMENT_3D('',#375,#376,#377);
#379=CIRCLE('',#378,16.8);
#380=EDGE_CURVE('',#319,#374,#379,.T.);
#381=ORIENTED_EDGE('',*,*,#380,.T.);
#382=CARTESIAN_POINT('',(-38.362506518,4.569999997,6.68));
#383=VERTEX_POINT('',#382);
#384=CARTESIAN_POINT('',(-38.362506518,4.569999997,4.7));
#385=DIRECTION('',(-0.,-0.,1.));
#386=VECTOR('',#385,1.98);
#387=LINE('',#384,#386);
#388=EDGE_CURVE('',#374,#383,#387,.T.);
#389=ORIENTED_EDGE('',*,*,#388,.T.);
#390=CARTESIAN_POINT('',(-38.694240817,3.169999997,8.08));
#391=VERTEX_POINT('',#390);
#392=CARTESIAN_POINT('',(-38.362506518,4.569999997,6.68));
#393=CARTESIAN_POINT('',(-38.362506518,4.569999997,6.773689045));
#394=CARTESIAN_POINT('',(-38.365146274,4.560690648,6.865713521));
#395=CARTESIAN_POINT('',(-38.370256684,4.542494258,6.956151231));
#396=CARTESIAN_POINT('',(-38.375367093,4.524297868,7.04658894));
#397=CARTESIAN_POINT('',(-38.383082803,4.496727169,7.136411612));
#398=CARTESIAN_POINT('',(-38.392914287,4.461031507,7.221514211));
#399=CARTESIAN_POINT('',(-38.402745771,4.425335845,7.306616809));
#400=CARTESIAN_POINT('',(-38.414631961,4.381739739,7.387195915));
#401=CARTESIAN_POINT('',(-38.428344409,4.330338477,7.463335567));
#402=CARTESIAN_POINT('',(-38.442056858,4.278937216,7.539475219));
#403=CARTESIAN_POINT('',(-38.457610563,4.21963368,7.610881063));
#404=CARTESIAN_POINT('',(-38.474106344,4.155008129,7.674866312));
#405=CARTESIAN_POINT('',(-38.507097907,4.025757028,7.802836811));
#406=CARTESIAN_POINT('',(-38.545015487,3.870390174,7.905623845));
#407=CARTESIAN_POINT('',(-38.582801395,3.703185703,7.974493338));
#408=CARTESIAN_POINT('',(-38.601694349,3.619583468,8.008928084));
#409=CARTESIAN_POINT('',(-38.620877254,3.531659068,8.035554725));
#410=CARTESIAN_POINT('',(-38.639613571,3.442153391,8.053292587));
#411=CARTESIAN_POINT('',(-38.658349887,3.352647715,8.071030449));
#412=CARTESIAN_POINT('',(-38.676574982,3.261941558,8.08));
#413=CARTESIAN_POINT('',(-38.694240817,3.169999997,8.08));
#414=B_SPLINE_CURVE_WITH_KNOTS('',3,(#392,#393,#394,#395,#396,#397,#398,#399,#400,#401,#402,#403,#404,#405,#406,#407,#408,#409,#410,#411,#412,#413),.UNSPECIFIED.,.F.,.F.,(4,3,3,3,3,3,3,4),(0.,0.000276998,0.000553997,0.000830995,0.001107994,0.001661991,0.001938989,0.002215988),.UNSPECIFIED.);
#415=EDGE_CURVE('',#383,#391,#414,.T.);
#416=ORIENTED_EDGE('',*,*,#415,.T.);
#417=CARTESIAN_POINT('',(-22.196025762,0.,8.08));
#418=DIRECTION('',(-0.,0.,1.));
#419=DIRECTION('',(1.,0.,0.));
#420=AXIS2_PLACEMENT_3D('',#417,#418,#419);
#421=CIRCLE('',#420,16.8);
#422=EDGE_CURVE('',#391,#357,#421,.T.);
#423=ORIENTED_EDGE('',*,*,#422,.T.);
#424=EDGE_LOOP('',(#363,#364,#371,#372,#381,#389,#416,#423));
#425=FACE_BOUND('',#424,.T.);
#426=ADVANCED_FACE('',(#425),#355,.T.);
#427=CARTESIAN_POINT('',(-28.494999997,4.569999997,8.1));
#428=DIRECTION('',(0.,-1.,0.));
#429=DIRECTION('',(0.,0.,-1.));
#430=AXIS2_PLACEMENT_3D('',#427,#428,#429);
#431=PLANE('',#430);
#432=CARTESIAN_POINT('',(-28.879929411,4.569999997,9.2));
#433=DIRECTION('',(0.898794046,0.,-0.438371147));
#434=VECTOR('',#433,3.432298453);
#435=LINE('',#432,#434);
#436=EDGE_CURVE('',#129,#327,#435,.T.);
#437=ORIENTED_EDGE('',*,*,#436,.F.);
#438=ORIENTED_EDGE('',*,*,#182,.T.);
#439=CARTESIAN_POINT('',(-30.094999997,4.569999997,7.));
#440=VERTEX_POINT('',#439);
#441=CARTESIAN_POINT('',(-30.094999997,4.569999997,9.2));
#442=DIRECTION('',(0.,0.,-1.));
#443=VECTOR('',#442,2.2);
#444=LINE('',#441,#443);
#445=EDGE_CURVE('',#171,#440,#444,.T.);
#446=ORIENTED_EDGE('',*,*,#445,.T.);
#447=CARTESIAN_POINT('',(-31.294999997,4.569999997,7.));
#448=VERTEX_POINT('',#447);
#449=CARTESIAN_POINT('',(-30.094999997,4.569999997,7.));
#450=DIRECTION('',(-1.,0.,-0.));
#451=VECTOR('',#450,1.2);
#452=LINE('',#449,#451);
#453=EDGE_CURVE('',#440,#448,#452,.T.);
#454=ORIENTED_EDGE('',*,*,#453,.T.);
#455=CARTESIAN_POINT('',(-31.294999997,4.569999997,6.68));
#456=VERTEX_POINT('',#455);
#457=CARTESIAN_POINT('',(-31.294999997,4.569999997,7.));
#458=DIRECTION('',(0.,0.,-1.));
#459=VECTOR('',#458,0.32);
#460=LINE('',#457,#459);
#461=EDGE_CURVE('',#448,#456,#460,.T.);
#462=ORIENTED_EDGE('',*,*,#461,.T.);
#463=CARTESIAN_POINT('',(-31.294999997,4.569999997,6.68));
#464=DIRECTION('',(-1.,0.,-0.));
#465=VECTOR('',#464,7.067506521);
#466=LINE('',#463,#465);
#467=EDGE_CURVE('',#456,#383,#466,.T.);
#468=ORIENTED_EDGE('',*,*,#467,.T.);
#469=ORIENTED_EDGE('',*,*,#388,.F.);
#470=CARTESIAN_POINT('',(-25.794999997,4.569999997,4.7));
#471=DIRECTION('',(-1.,0.,0.));
#472=VECTOR('',#471,12.567506521);
#473=LINE('',#470,#472);
#474=EDGE_CURVE('',#335,#374,#473,.T.);
#475=ORIENTED_EDGE('',*,*,#474,.F.);
#476=ORIENTED_EDGE('',*,*,#340,.F.);
#477=EDGE_LOOP('',(#437,#438,#446,#454,#462,#468,#469,#475,#476));
#478=FACE_BOUND('',#477,.T.);
#479=ADVANCED_FACE('',(#478),#431,.T.);
#480=CARTESIAN_POINT('',(-31.294999997,-0.000000003,8.1));
#481=DIRECTION('',(-1.,0.,-0.));
#482=DIRECTION('',(-0.,0.,1.));
#483=AXIS2_PLACEMENT_3D('',#480,#481,#482);
#484=PLANE('',#483);
#485=CARTESIAN_POINT('',(-31.294999997,4.532938,7.));
#486=VERTEX_POINT('',#485);
#487=CARTESIAN_POINT('',(-31.294999997,3.169999997,6.68));
#488=DIRECTION('',(-1.,0.,-0.));
#489=DIRECTION('',(-0.,0.,1.));
#490=AXIS2_PLACEMENT_3D('',#487,#488,#489);
#491=CIRCLE('',#490,1.4);
#492=EDGE_CURVE('',#486,#456,#491,.T.);
#493=ORIENTED_EDGE('',*,*,#492,.T.);
#494=ORIENTED_EDGE('',*,*,#461,.F.);
#495=CARTESIAN_POINT('',(-31.294999997,4.569999997,7.));
#496=DIRECTION('',(-0.,-1.,0.));
#497=VECTOR('',#496,0.037061997);
#498=LINE('',#495,#497);
#499=EDGE_CURVE('',#448,#486,#498,.T.);
#500=ORIENTED_EDGE('',*,*,#499,.T.);
#501=EDGE_LOOP('',(#493,#494,#500));
#502=FACE_BOUND('',#501,.T.);
#503=ADVANCED_FACE('',(#502),#484,.F.);
#504=CARTESIAN_POINT('',(0.,0.,4.7));
#505=DIRECTION('',(0.,0.,1.));
#506=DIRECTION('',(0.,1.,0.));
#507=AXIS2_PLACEMENT_3D('',#504,#505,#506);
#508=PLANE('',#507);
#509=ORIENTED_EDGE('',*,*,#83,.T.);
#510=EDGE_LOOP('',(#509));
#511=FACE_BOUND('',#510,.T.);
#512=ORIENTED_EDGE('',*,*,#474,.T.);
#513=ORIENTED_EDGE('',*,*,#380,.F.);
#514=ORIENTED_EDGE('',*,*,#346,.T.);
#515=EDGE_LOOP('',(#512,#513,#514));
#516=FACE_BOUND('',#515,.T.);
#517=ADVANCED_FACE('',(#511,#516),#508,.F.);
#518=CARTESIAN_POINT('',(-31.294999997,-0.000000003,8.1));
#519=DIRECTION('',(-1.,0.,-0.));
#520=DIRECTION('',(-0.,0.,1.));
#521=AXIS2_PLACEMENT_3D('',#518,#519,#520);
#522=PLANE('',#521);
#523=CARTESIAN_POINT('',(-31.294999997,-4.532938006,7.));
#524=VERTEX_POINT('',#523);
#525=CARTESIAN_POINT('',(-31.294999997,-3.170000003,6.68));
#526=DIRECTION('',(-1.,0.,-0.));
#527=DIRECTION('',(-0.,0.,1.));
#528=AXIS2_PLACEMENT_3D('',#525,#526,#527);
#529=CIRCLE('',#528,1.4);
#530=EDGE_CURVE('',#278,#524,#529,.T.);
#531=ORIENTED_EDGE('',*,*,#530,.T.);
#532=CARTESIAN_POINT('',(-31.294999997,-4.532938006,7.));
#533=DIRECTION('',(-0.,-1.,0.));
#534=VECTOR('',#533,0.037061997);
#535=LINE('',#532,#534);
#536=EDGE_CURVE('',#524,#286,#535,.T.);
#537=ORIENTED_EDGE('',*,*,#536,.T.);
#538=ORIENTED_EDGE('',*,*,#291,.T.);
#539=EDGE_LOOP('',(#531,#537,#538));
#540=FACE_BOUND('',#539,.T.);
#541=ADVANCED_FACE('',(#540),#522,.F.);
#542=CARTESIAN_POINT('',(0.,0.,4.7));
#543=DIRECTION('',(0.,0.,1.));
#544=DIRECTION('',(0.,1.,0.));
#545=AXIS2_PLACEMENT_3D('',#542,#543,#544);
#546=PLANE('',#545);
#547=ORIENTED_EDGE('',*,*,#116,.T.);
#548=EDGE_LOOP('',(#547));
#549=FACE_BOUND('',#548,.T.);
#550=ORIENTED_EDGE('',*,*,#267,.T.);
#551=ORIENTED_EDGE('',*,*,#238,.T.);
#552=CARTESIAN_POINT('',(-22.196025762,0.,4.7));
#553=DIRECTION('',(0.,0.,1.));
#554=DIRECTION('',(1.,0.,-0.));
#555=AXIS2_PLACEMENT_3D('',#552,#553,#554);
#556=CIRCLE('',#555,16.8);
#557=EDGE_CURVE('',#262,#225,#556,.T.);
#558=ORIENTED_EDGE('',*,*,#557,.F.);
#559=EDGE_LOOP('',(#550,#551,#558));
#560=FACE_BOUND('',#559,.T.);
#561=ADVANCED_FACE('',(#549,#560),#546,.F.);
#562=CARTESIAN_POINT('',(-30.094999997,0.,7.9));
#563=DIRECTION('',(-1.,0.,0.));
#564=DIRECTION('',(0.,0.,1.));
#565=AXIS2_PLACEMENT_3D('',#562,#563,#564);
#566=PLANE('',#565);
#567=CARTESIAN_POINT('',(-30.094999997,-4.570000003,7.));
#568=DIRECTION('',(0.,1.,-0.));
#569=VECTOR('',#568,9.14);
#570=LINE('',#567,#569);
#571=EDGE_CURVE('',#294,#440,#570,.T.);
#572=ORIENTED_EDGE('',*,*,#571,.T.);
#573=ORIENTED_EDGE('',*,*,#445,.F.);
#574=ORIENTED_EDGE('',*,*,#176,.T.);
#575=ORIENTED_EDGE('',*,*,#305,.T.);
#576=EDGE_LOOP('',(#572,#573,#574,#575));
#577=FACE_BOUND('',#576,.T.);
#578=ADVANCED_FACE('',(#577),#566,.F.);
#579=CARTESIAN_POINT('',(-29.505000003,-3.170000003,6.68));
#580=DIRECTION('',(-1.,0.,-0.));
#581=DIRECTION('',(-0.,0.,1.));
#582=AXIS2_PLACEMENT_3D('',#579,#580,#581);
#583=CYLINDRICAL_SURFACE('',#582,1.4);
#584=CARTESIAN_POINT('',(-31.294999997,-3.170000003,8.08));
#585=VERTEX_POINT('',#584);
#586=CARTESIAN_POINT('',(-38.694240816,-3.170000003,8.08));
#587=VERTEX_POINT('',#586);
#588=CARTESIAN_POINT('',(-31.294999997,-3.170000003,8.08));
#589=DIRECTION('',(-1.,0.,-0.));
#590=VECTOR('',#589,7.39924082);
#591=LINE('',#588,#590);
#592=EDGE_CURVE('',#585,#587,#591,.T.);
#593=ORIENTED_EDGE('',*,*,#592,.F.);
#594=CARTESIAN_POINT('',(-31.294999997,-3.170000003,6.68));
#595=DIRECTION('',(-1.,0.,-0.));
#596=DIRECTION('',(-0.,0.,1.));
#597=AXIS2_PLACEMENT_3D('',#594,#595,#596);
#598=CIRCLE('',#597,1.4);
#599=EDGE_CURVE('',#524,#585,#598,.T.);
#600=ORIENTED_EDGE('',*,*,#599,.F.);
#601=ORIENTED_EDGE('',*,*,#530,.F.);
#602=ORIENTED_EDGE('',*,*,#283,.T.);
#603=CARTESIAN_POINT('',(-38.694240816,-3.170000003,8.08));
#604=CARTESIAN_POINT('',(-38.676566042,-3.261988086,8.08));
#605=CARTESIAN_POINT('',(-38.658412973,-3.352317144,8.071023106));
#606=CARTESIAN_POINT('',(-38.639839279,-3.441074981,8.053505863));
#607=CARTESIAN_POINT('',(-38.621265584,-3.529832817,8.035988621));
#608=CARTESIAN_POINT('',(-38.60207945,-3.617853184,8.009557404));
#609=CARTESIAN_POINT('',(-38.583047344,-3.702097198,7.974941147));
#610=CARTESIAN_POINT('',(-38.564015238,-3.786341212,7.94032489));
#611=CARTESIAN_POINT('',(-38.545278717,-3.866262968,7.89796878));
#612=CARTESIAN_POINT('',(-38.527010639,-3.941945323,7.847947098));
#613=CARTESIAN_POINT('',(-38.508742562,-4.017627679,7.797925415));
#614=CARTESIAN_POINT('',(-38.490794259,-4.089619744,7.739528405));
#615=CARTESIAN_POINT('',(-38.474261002,-4.154402181,7.675465897));
#616=CARTESIAN_POINT('',(-38.457727744,-4.219184618,7.611403389));
#617=CARTESIAN_POINT('',(-38.442457773,-4.277416525,7.541434533));
#618=CARTESIAN_POINT('',(-38.428713109,-4.328956166,7.465379279));
#619=CARTESIAN_POINT('',(-38.414968445,-4.380495808,7.389324025));
#620=CARTESIAN_POINT('',(-38.402835953,-4.425004576,7.307211593));
#621=CARTESIAN_POINT('',(-38.393036229,-4.460588743,7.222568618));
#622=CARTESIAN_POINT('',(-38.37343678,-4.531757075,7.053282669));
#623=CARTESIAN_POINT('',(-38.362506516,-4.570000003,6.867470805));
#624=CARTESIAN_POINT('',(-38.362506516,-4.570000003,6.68));
#625=B_SPLINE_CURVE_WITH_KNOTS('',3,(#603,#604,#605,#606,#607,#608,#609,#610,#611,#612,#613,#614,#615,#616,#617,#618,#619,#620,#621,#622,#623,#624),.UNSPECIFIED.,.F.,.F.,(4,3,3,3,3,3,3,4),(0.,0.000277001,0.000554003,0.000831004,0.001108005,0.001385006,0.001662008,0.00221601),.UNSPECIFIED.);
#626=EDGE_CURVE('',#587,#270,#625,.T.);
#627=ORIENTED_EDGE('',*,*,#626,.F.);
#628=EDGE_LOOP('',(#593,#600,#601,#602,#627));
#629=FACE_BOUND('',#628,.T.);
#630=ADVANCED_FACE('',(#629),#583,.F.);
#631=CARTESIAN_POINT('',(-29.505000003,-1.592500003,8.08));
#632=DIRECTION('',(-0.,0.,1.));
#633=DIRECTION('',(1.,0.,0.));
#634=AXIS2_PLACEMENT_3D('',#631,#632,#633);
#635=PLANE('',#634);
#636=CARTESIAN_POINT('',(-31.294999997,3.169999997,8.08));
#637=VERTEX_POINT('',#636);
#638=CARTESIAN_POINT('',(-31.294999997,3.169999997,8.08));
#639=DIRECTION('',(-1.,0.,-0.));
#640=VECTOR('',#639,7.399240821);
#641=LINE('',#638,#640);
#642=EDGE_CURVE('',#637,#391,#641,.T.);
#643=ORIENTED_EDGE('',*,*,#642,.F.);
#644=CARTESIAN_POINT('',(-31.294999997,-3.170000003,8.08));
#645=DIRECTION('',(0.,1.,0.));
#646=VECTOR('',#645,6.34);
#647=LINE('',#644,#646);
#648=EDGE_CURVE('',#585,#637,#647,.T.);
#649=ORIENTED_EDGE('',*,*,#648,.F.);
#650=ORIENTED_EDGE('',*,*,#592,.T.);
#651=CARTESIAN_POINT('',(-22.196025762,0.,8.08));
#652=DIRECTION('',(-0.,0.,1.));
#653=DIRECTION('',(1.,0.,0.));
#654=AXIS2_PLACEMENT_3D('',#651,#652,#653);
#655=CIRCLE('',#654,16.8);
#656=EDGE_CURVE('',#357,#587,#655,.T.);
#657=ORIENTED_EDGE('',*,*,#656,.F.);
#658=ORIENTED_EDGE('',*,*,#422,.F.);
#659=EDGE_LOOP('',(#643,#649,#650,#657,#658));
#660=FACE_BOUND('',#659,.T.);
#661=ADVANCED_FACE('',(#660),#635,.F.);
#662=CARTESIAN_POINT('',(-29.505000003,3.169999997,6.68));
#663=DIRECTION('',(-1.,0.,-0.));
#664=DIRECTION('',(-0.,0.,1.));
#665=AXIS2_PLACEMENT_3D('',#662,#663,#664);
#666=CYLINDRICAL_SURFACE('',#665,1.4);
#667=ORIENTED_EDGE('',*,*,#467,.F.);
#668=ORIENTED_EDGE('',*,*,#492,.F.);
#669=CARTESIAN_POINT('',(-31.294999997,3.169999997,6.68));
#670=DIRECTION('',(-1.,0.,-0.));
#671=DIRECTION('',(-0.,0.,1.));
#672=AXIS2_PLACEMENT_3D('',#669,#670,#671);
#673=CIRCLE('',#672,1.4);
#674=EDGE_CURVE('',#637,#486,#673,.T.);
#675=ORIENTED_EDGE('',*,*,#674,.F.);
#676=ORIENTED_EDGE('',*,*,#642,.T.);
#677=ORIENTED_EDGE('',*,*,#415,.F.);
#678=EDGE_LOOP('',(#667,#668,#675,#676,#677));
#679=FACE_BOUND('',#678,.T.);
#680=ADVANCED_FACE('',(#679),#666,.F.);
#681=CARTESIAN_POINT('',(-31.294999997,-0.000000003,7.4));
#682=DIRECTION('',(-1.,0.,-0.));
#683=DIRECTION('',(-0.,0.,1.));
#684=AXIS2_PLACEMENT_3D('',#681,#682,#683);
#685=PLANE('',#684);
#686=CARTESIAN_POINT('',(-31.294999997,4.532938,7.));
#687=DIRECTION('',(-0.,-1.,0.));
#688=VECTOR('',#687,9.065876006);
#689=LINE('',#686,#688);
#690=EDGE_CURVE('',#486,#524,#689,.T.);
#691=ORIENTED_EDGE('',*,*,#690,.T.);
#692=ORIENTED_EDGE('',*,*,#599,.T.);
#693=ORIENTED_EDGE('',*,*,#648,.T.);
#694=ORIENTED_EDGE('',*,*,#674,.T.);
#695=EDGE_LOOP('',(#691,#692,#693,#694));
#696=FACE_BOUND('',#695,.T.);
#697=ADVANCED_FACE('',(#696),#685,.T.);
#698=CARTESIAN_POINT('',(-0.,0.,7.));
#699=DIRECTION('',(0.,-0.,-1.));
#700=DIRECTION('',(0.,-1.,0.));
#701=AXIS2_PLACEMENT_3D('',#698,#699,#700);
#702=PLANE('',#701);
#703=ORIENTED_EDGE('',*,*,#571,.F.);
#704=ORIENTED_EDGE('',*,*,#299,.F.);
#705=ORIENTED_EDGE('',*,*,#536,.F.);
#706=ORIENTED_EDGE('',*,*,#690,.F.);
#707=ORIENTED_EDGE('',*,*,#499,.F.);
#708=ORIENTED_EDGE('',*,*,#453,.F.);
#709=EDGE_LOOP('',(#703,#704,#705,#706,#707,#708));
#710=FACE_BOUND('',#709,.T.);
#711=ADVANCED_FACE('',(#710),#702,.T.);
#712=CARTESIAN_POINT('',(-31.094999997,-9.,8.2));
#713=DIRECTION('',(0.,0.,1.));
#714=DIRECTION('',(1.,0.,-0.));
#715=AXIS2_PLACEMENT_3D('',#712,#713,#714);
#716=CYLINDRICAL_SURFACE('',#715,2.);
#717=CARTESIAN_POINT('',(-29.094999997,-9.,7.7));
#718=VERTEX_POINT('',#717);
#719=CARTESIAN_POINT('',(-29.094999997,-9.,9.2));
#720=DIRECTION('',(-0.,-0.,-1.));
#721=VECTOR('',#720,1.5);
#722=LINE('',#719,#721);
#723=EDGE_CURVE('',#198,#718,#722,.T.);
#724=ORIENTED_EDGE('',*,*,#723,.F.);
#725=ORIENTED_EDGE('',*,*,#204,.T.);
#726=ORIENTED_EDGE('',*,*,#723,.T.);
#727=CARTESIAN_POINT('',(-31.094999997,-9.,7.7));
#728=DIRECTION('',(0.,0.,1.));
#729=DIRECTION('',(1.,0.,-0.));
#730=AXIS2_PLACEMENT_3D('',#727,#728,#729);
#731=CIRCLE('',#730,2.);
#732=EDGE_CURVE('',#718,#718,#731,.T.);
#733=ORIENTED_EDGE('',*,*,#732,.F.);
#734=EDGE_LOOP('',(#724,#725,#726,#733));
#735=FACE_BOUND('',#734,.T.);
#736=ADVANCED_FACE('',(#735),#716,.F.);
#737=CARTESIAN_POINT('',(-1.,0.,7.7));
#738=DIRECTION('',(0.,0.,1.));
#739=DIRECTION('',(0.,1.,0.));
#740=AXIS2_PLACEMENT_3D('',#737,#738,#739);
#741=PLANE('',#740);
#742=ORIENTED_EDGE('',*,*,#108,.F.);
#743=EDGE_LOOP('',(#742));
#744=FACE_BOUND('',#743,.T.);
#745=ORIENTED_EDGE('',*,*,#732,.T.);
#746=EDGE_LOOP('',(#745));
#747=FACE_BOUND('',#746,.T.);
#748=ADVANCED_FACE('',(#744,#747),#741,.T.);
#749=CARTESIAN_POINT('',(-31.094999997,9.,8.2));
#750=DIRECTION('',(0.,0.,1.));
#751=DIRECTION('',(1.,0.,-0.));
#752=AXIS2_PLACEMENT_3D('',#749,#750,#751);
#753=CYLINDRICAL_SURFACE('',#752,2.);
#754=CARTESIAN_POINT('',(-29.094999997,9.,7.7));
#755=VERTEX_POINT('',#754);
#756=CARTESIAN_POINT('',(-29.094999997,9.,9.2));
#757=DIRECTION('',(-0.,-0.,-1.));
#758=VECTOR('',#757,1.5);
#759=LINE('',#756,#758);
#760=EDGE_CURVE('',#187,#755,#759,.T.);
#761=ORIENTED_EDGE('',*,*,#760,.F.);
#762=ORIENTED_EDGE('',*,*,#193,.T.);
#763=ORIENTED_EDGE('',*,*,#760,.T.);
#764=CARTESIAN_POINT('',(-31.094999997,9.,7.7));
#765=DIRECTION('',(0.,0.,1.));
#766=DIRECTION('',(1.,0.,-0.));
#767=AXIS2_PLACEMENT_3D('',#764,#765,#766);
#768=CIRCLE('',#767,2.);
#769=EDGE_CURVE('',#755,#755,#768,.T.);
#770=ORIENTED_EDGE('',*,*,#769,.F.);
#771=EDGE_LOOP('',(#761,#762,#763,#770));
#772=FACE_BOUND('',#771,.T.);
#773=ADVANCED_FACE('',(#772),#753,.F.);
#774=CARTESIAN_POINT('',(-1.,0.,7.7));
#775=DIRECTION('',(0.,0.,1.));
#776=DIRECTION('',(0.,1.,0.));
#777=AXIS2_PLACEMENT_3D('',#774,#775,#776);
#778=PLANE('',#777);
#779=ORIENTED_EDGE('',*,*,#75,.F.);
#780=EDGE_LOOP('',(#779));
#781=FACE_BOUND('',#780,.T.);
#782=ORIENTED_EDGE('',*,*,#769,.T.);
#783=EDGE_LOOP('',(#782));
#784=FACE_BOUND('',#783,.T.);
#785=ADVANCED_FACE('',(#781,#784),#778,.T.);
#786=CARTESIAN_POINT('',(-1.924985265,-0.,-3.946804683));
#787=DIRECTION('',(-0.438371147,-0.,-0.898794046));
#788=DIRECTION('',(0.,-1.,0.));
#789=AXIS2_PLACEMENT_3D('',#786,#787,#788);
#790=PLANE('',#789);
#791=ORIENTED_EDGE('',*,*,#332,.T.);
#792=ORIENTED_EDGE('',*,*,#370,.T.);
#793=ORIENTED_EDGE('',*,*,#134,.T.);
#794=ORIENTED_EDGE('',*,*,#436,.T.);
#795=EDGE_LOOP('',(#791,#792,#793,#794));
#796=FACE_BOUND('',#795,.T.);
#797=ADVANCED_FACE('',(#796),#790,.F.);
#798=CARTESIAN_POINT('',(-1.924985265,-0.,-3.946804683));
#799=DIRECTION('',(-0.438371147,-0.,-0.898794046));
#800=DIRECTION('',(0.,-1.,0.));
#801=AXIS2_PLACEMENT_3D('',#798,#799,#800);
#802=PLANE('',#801);
#803=CARTESIAN_POINT('',(-22.196025762,0.,5.940042371));
#804=DIRECTION('',(-0.438371147,-0.,-0.898794046));
#805=DIRECTION('',(0.898794046,0.,-0.438371147));
#806=AXIS2_PLACEMENT_3D('',#803,#804,#805);
#807=ELLIPSE('',#806,18.6917126,16.8);
#808=EDGE_CURVE('',#215,#146,#807,.T.);
#809=ORIENTED_EDGE('',*,*,#808,.F.);
#810=ORIENTED_EDGE('',*,*,#222,.T.);
#811=ORIENTED_EDGE('',*,*,#258,.T.);
#812=ORIENTED_EDGE('',*,*,#160,.T.);
#813=EDGE_LOOP('',(#809,#810,#811,#812));
#814=FACE_BOUND('',#813,.T.);
#815=ADVANCED_FACE('',(#814),#802,.F.);
#816=CARTESIAN_POINT('',(-22.196025762,0.,9.6));
#817=DIRECTION('',(0.,0.,-1.));
#818=DIRECTION('',(-1.,0.,0.));
#819=AXIS2_PLACEMENT_3D('',#816,#817,#818);
#820=CYLINDRICAL_SURFACE('',#819,16.8);
#821=ORIENTED_EDGE('',*,*,#362,.F.);
#822=ORIENTED_EDGE('',*,*,#656,.T.);
#823=ORIENTED_EDGE('',*,*,#626,.T.);
#824=ORIENTED_EDGE('',*,*,#275,.F.);
#825=ORIENTED_EDGE('',*,*,#557,.T.);
#826=ORIENTED_EDGE('',*,*,#230,.F.);
#827=ORIENTED_EDGE('',*,*,#808,.T.);
#828=ORIENTED_EDGE('',*,*,#152,.F.);
#829=EDGE_LOOP('',(#821,#822,#823,#824,#825,#826,#827,#828));
#830=FACE_BOUND('',#829,.T.);
#831=ADVANCED_FACE('',(#830),#820,.T.);
#832=CLOSED_SHELL('',(#87,#120,#208,#248,#310,#350,#426,#479,#503,#517,#541,#561,#578,#630,#661,#680,#697,#711,#736,#748,#773,#785,#797,#815,#831));
#833=MANIFOLD_SOLID_BREP('USB_CLAMP',#832);
#834=COLOUR_RGB('',0.796078444,0.796078444,0.815686285);
#835=FILL_AREA_STYLE_COLOUR('',#834);
#836=FILL_AREA_STYLE('',(#835));
#837=SURFACE_STYLE_FILL_AREA(#836);
#838=SURFACE_SIDE_STYLE('',(#837));
#839=SURFACE_STYLE_USAGE(.BOTH.,#838);
#840=PRESENTATION_STYLE_ASSIGNMENT((#839));
#54=STYLED_ITEM('',(#840),#833);
#35=SHAPE_REPRESENTATION('Harness.step',(#15),#33);
#36=ADVANCED_BREP_SHAPE_REPRESENTATION('Harness.step',(#833),#33);
#848=SHAPE_REPRESENTATION_RELATIONSHIP('','',#35,#36);
#849=CARTESIAN_POINT('',(0.,0.,0.));
#850=DIRECTION('',(0.,0.,1.));
#851=DIRECTION('',(1.,0.,0.));
#852=AXIS2_PLACEMENT_3D('',#849,#850,#851);
#854=MAPPED_ITEM('',#853,#852);
#853=REPRESENTATION_MAP(#852,#35);
#855=APPLICATION_CONTEXT('Managed model based 3d engineering');
#856=APPLICATION_PROTOCOL_DEFINITION('international standard','ap242_managed_model_based_3d_engineering',2014,#855);
#857=PRODUCT_CONTEXT('',#855,'mechanical');
#858=PRODUCT_DEFINITION_CONTEXT('part definition',#855,'design');
#43=PRODUCT('Harness.step','Harness.step','',(#857));
#859=PRODUCT_RELATED_PRODUCT_CATEGORY('part','',(#43));
#860=PRODUCT_DEFINITION_FORMATION_WITH_SPECIFIED_SOURCE('','',#43,.NOT_KNOWN.);
#44=PRODUCT_DEFINITION('design','',#860,#858);
#42=PRODUCT_DEFINITION_SHAPE('','',#44);
#861=SHAPE_DEFINITION_REPRESENTATION(#42,#35);
#34=DRAUGHTING_MODEL('',(#854),#33);
#16=SHAPE_REPRESENTATION('root',(#15,#48),#10);
#862=CARTESIAN_POINT('',(0.,0.,0.));
#863=DIRECTION('',(0.,0.,1.));
#864=DIRECTION('',(1.,0.,0.));
#865=AXIS2_PLACEMENT_3D('',#862,#863,#864);
#867=MAPPED_ITEM('',#866,#865);
#866=REPRESENTATION_MAP(#865,#16);
#24=PRODUCT('root','root','',(#857));
#868=PRODUCT_RELATED_PRODUCT_CATEGORY('part','',(#24));
#869=PRODUCT_DEFINITION_FORMATION_WITH_SPECIFIED_SOURCE('','',#24,.NOT_KNOWN.);
#25=PRODUCT_DEFINITION('design','',#869,#858);
#23=PRODUCT_DEFINITION_SHAPE('','',#25);
#870=SHAPE_DEFINITION_REPRESENTATION(#23,#16);
#11=DRAUGHTING_MODEL('',(#867),#10);
#871=DESCRIPTIVE_REPRESENTATION_ITEM('KEY','C:\\Users\\acer\\AppData\\Local\\Packages\\Shapr3D.Shapr3D_dvv5p1vgwv6mp\\TempState\\dde3941b-36af-4c34-a665-f22351017bcf.tmp');
#872=PROPERTY_DEFINITION('KEY','',#25);
#873=REPRESENTATION('',(#871),#10);
#874=PROPERTY_DEFINITION_REPRESENTATION(#872,#873);
#875=GENERAL_PROPERTY('','KEY','');
#876=GENERAL_PROPERTY_ASSOCIATION('','',#875,#872);
#1=MECHANICAL_DESIGN_GEOMETRIC_PRESENTATION_REPRESENTATION('',(#54),#10);
ENDSEC;
END-ISO-10303-21;
